<?xml version="1.0" encoding="UTF-8" standalone="no"?>
<!DOCTYPE svg PUBLIC "-//W3C//DTD SVG 1.1//EN"
 "http://www.w3.org/Graphics/SVG/1.1/DTD/svg11.dtd">
<!-- Generated by graphviz version 14.1.5 (20260411.2331)
 -->
<!-- Title: Li&#45;Ion 1S Battery Pack Pages: 1 -->
<svg width="1237pt" height="131pt"
 viewBox="0.00 0.00 1237.00 131.00" xmlns="http://www.w3.org/2000/svg" xmlns:xlink="http://www.w3.org/1999/xlink">
<g id="graph0" class="graph" transform="scale(1 1) rotate(0) translate(4 127.3)">
<title>Li&#45;Ion 1S Battery Pack</title>
<polygon fill="white" stroke="none" points="-4,4 -4,-127.3 1233,-127.3 1233,4 -4,4"/>
<g id="clust1" class="cluster">
<title>cluster_A1</title>
<path fill="none" stroke="black" d="M20,-38.8C20,-38.8 1209,-38.8 1209,-38.8 1215,-38.8 1221,-44.8 1221,-50.8 1221,-50.8 1221,-103.3 1221,-103.3 1221,-109.3 1215,-115.3 1209,-115.3 1209,-115.3 20,-115.3 20,-115.3 14,-115.3 8,-109.3 8,-103.3 8,-103.3 8,-50.8 8,-50.8 8,-44.8 14,-38.8 20,-38.8"/>
<text xml:space="preserve" text-anchor="middle" x="614.5" y="-98" font-family="Times,serif" font-size="14.00">A1: Li&#45;Ion 1S Battery Pack Rev A</text>
</g>
<!-- U1 -->
<g id="node1" class="node">
<title>U1</title>
<polygon fill="none" stroke="black" points="606.62,-82.8 483.38,-82.8 483.38,-46.8 606.62,-46.8 606.62,-82.8"/>
<text xml:space="preserve" text-anchor="middle" x="545" y="-60.12" font-family="monospace" font-size="14.00">U1\nBQ27546G1</text>
</g>
<!-- net_0 -->
<g id="node11" class="node">
<title>net_0</title>
<ellipse fill="none" stroke="black" cx="168" cy="-5.4" rx="5.4" ry="5.4"/>
</g>
<!-- U1&#45;&gt;net_0 -->
<g id="edge23" class="edge">
<title>U1&#45;&gt;net_0</title>
<path fill="none" stroke="black" d="M500.39,-46.32C491.74,-43.44 482.67,-40.76 474,-38.8 354.67,-11.86 203.97,-7.19 173.51,-6.51"/>
<text xml:space="preserve" text-anchor="middle" x="508.27" y="-37.77" font-family="monospace" font-size="9.00">SDA</text>
</g>
<!-- net_1 -->
<g id="node12" class="node">
<title>net_1</title>
<ellipse fill="none" stroke="black" cx="375" cy="-5.4" rx="5.4" ry="5.4"/>
</g>
<!-- U1&#45;&gt;net_1 -->
<g id="edge22" class="edge">
<title>U1&#45;&gt;net_1</title>
<path fill="none" stroke="black" d="M495.78,-46.31C488.49,-43.76 481.05,-41.2 474,-38.8 438.04,-26.59 394.46,-12.61 379.96,-7.98"/>
<text xml:space="preserve" text-anchor="middle" x="487.9" y="-37.76" font-family="monospace" font-size="9.00">SCL</text>
</g>
<!-- net_2 -->
<g id="node13" class="node">
<title>net_2</title>
<ellipse fill="none" stroke="black" cx="498" cy="-5.4" rx="5.4" ry="5.4"/>
</g>
<!-- U1&#45;&gt;net_2 -->
<g id="edge20" class="edge">
<title>U1&#45;&gt;net_2</title>
<path fill="none" stroke="black" d="M530.9,-46.58C520.52,-33.9 507.2,-17.64 501.19,-10.3"/>
<text xml:space="preserve" text-anchor="middle" x="538.77" y="-38.03" font-family="monospace" font-size="9.00">HDQ</text>
</g>
<!-- net_3 -->
<g id="node14" class="node">
<title>net_3</title>
<ellipse fill="none" stroke="black" cx="704" cy="-5.4" rx="5.4" ry="5.4"/>
</g>
<!-- U1&#45;&gt;net_3 -->
<g id="edge24" class="edge">
<title>U1&#45;&gt;net_3</title>
<path fill="none" stroke="black" d="M574.36,-46.42C612.91,-30.98 674.98,-10.33 698.45,-6.89"/>
<text xml:space="preserve" text-anchor="middle" x="566.48" y="-37.87" font-family="monospace" font-size="9.00">SRN</text>
</g>
<!-- U1&#45;&gt;net_3 -->
<g id="edge25" class="edge">
<title>U1&#45;&gt;net_3</title>
<path fill="none" stroke="black" d="M586.88,-46.42C626.12,-31.77 681.08,-12.43 698.72,-7.56"/>
<text xml:space="preserve" text-anchor="middle" x="594.75" y="-37.87" font-family="monospace" font-size="9.00">SRP</text>
</g>
<!-- U1&#45;&gt;net_3 -->
<g id="edge28" class="edge">
<title>U1&#45;&gt;net_3</title>
<path fill="none" stroke="black" d="M599.4,-46.42C637.92,-32.96 685.1,-15.54 699.78,-9.02"/>
<text xml:space="preserve" text-anchor="middle" x="612.52" y="-37.87" font-family="monospace" font-size="9.00">VSS_1</text>
</g>
<!-- U1&#45;&gt;net_3 -->
<g id="edge29" class="edge">
<title>U1&#45;&gt;net_3</title>
<path fill="none" stroke="black" d="M606.72,-48.12C645.36,-35.63 689.27,-18.99 702.85,-11.02"/>
<text xml:space="preserve" text-anchor="middle" x="619.84" y="-50.82" font-family="monospace" font-size="9.00">VSS_2</text>
</g>
<!-- net_4 -->
<g id="node15" class="node">
<title>net_4</title>
<ellipse fill="none" stroke="black" cx="675" cy="-5.4" rx="5.4" ry="5.4"/>
</g>
<!-- U1&#45;&gt;net_4 -->
<g id="edge19" class="edge">
<title>U1&#45;&gt;net_4</title>
<path fill="none" stroke="black" d="M578.1,-46.42C609.66,-31.9 654.32,-12.78 669.88,-7.69"/>
<text xml:space="preserve" text-anchor="middle" x="582.03" y="-37.87" font-family="monospace" font-size="9.00">BAT</text>
</g>
<!-- U1&#45;&gt;net_4 -->
<g id="edge21" class="edge">
<title>U1&#45;&gt;net_4</title>
<path fill="none" stroke="black" d="M590.62,-46.42C621.4,-33.36 658.46,-16.56 671.03,-9.62"/>
<text xml:space="preserve" text-anchor="middle" x="603.74" y="-49.12" font-family="monospace" font-size="9.00">REGIN</text>
</g>
<!-- net_5 -->
<g id="node16" class="node">
<title>net_5</title>
<ellipse fill="none" stroke="black" cx="299" cy="-5.4" rx="5.4" ry="5.4"/>
</g>
<!-- U1&#45;&gt;net_5 -->
<g id="edge27" class="edge">
<title>U1&#45;&gt;net_5</title>
<path fill="none" stroke="black" d="M498.73,-46.35C490.56,-43.6 482.08,-40.96 474,-38.8 408.32,-21.27 326.29,-9.94 304.51,-7.1"/>
<text xml:space="preserve" text-anchor="middle" x="494.79" y="-37.8" font-family="monospace" font-size="9.00">VCC</text>
</g>
<!-- net_6 -->
<g id="node17" class="node">
<title>net_6</title>
<ellipse fill="none" stroke="black" cx="955" cy="-5.4" rx="5.4" ry="5.4"/>
</g>
<!-- U1&#45;&gt;net_6 -->
<g id="edge26" class="edge">
<title>U1&#45;&gt;net_6</title>
<path fill="none" stroke="black" d="M588.57,-46.37C597.22,-43.44 606.31,-40.73 615,-38.8 748.12,-9.17 916.48,-6.63 949.31,-6.42"/>
<text xml:space="preserve" text-anchor="middle" x="583.32" y="-49.07" font-family="monospace" font-size="9.00">TS</text>
</g>
<!-- BT1 -->
<g id="node2" class="node">
<title>BT1</title>
<polygon fill="none" stroke="black" points="755.75,-82.8 624.25,-82.8 624.25,-46.8 755.75,-46.8 755.75,-82.8"/>
<text xml:space="preserve" text-anchor="middle" x="690" y="-60.12" font-family="monospace" font-size="14.00">BT1\nLi&#45;Ion 1S</text>
</g>
<!-- BT1&#45;&gt;net_3 -->
<g id="edge1" class="edge">
<title>BT1&#45;&gt;net_3</title>
<path fill="none" stroke="black" d="M694.2,-46.58C697.23,-34.16 701.09,-18.31 702.93,-10.77"/>
<text xml:space="preserve" text-anchor="middle" x="686.33" y="-38.03" font-family="monospace" font-size="9.00">neg</text>
</g>
<!-- BT1&#45;&gt;net_4 -->
<g id="edge2" class="edge">
<title>BT1&#45;&gt;net_4</title>
<path fill="none" stroke="black" d="M685.5,-46.58C682.25,-34.16 678.11,-18.31 676.14,-10.77"/>
<text xml:space="preserve" text-anchor="middle" x="677.62" y="-38.03" font-family="monospace" font-size="9.00">pos</text>
</g>
<!-- R1 -->
<g id="node3" class="node">
<title>R1</title>
<polygon fill="none" stroke="black" points="1097.12,-82.8 1006.88,-82.8 1006.88,-46.8 1097.12,-46.8 1097.12,-82.8"/>
<text xml:space="preserve" text-anchor="middle" x="1052" y="-60.12" font-family="monospace" font-size="14.00">R1\n0.01Ω</text>
</g>
<!-- R1&#45;&gt;net_3 -->
<g id="edge9" class="edge">
<title>R1&#45;&gt;net_3</title>
<path fill="none" stroke="black" d="M1009.82,-46.33C1002.96,-43.41 995.87,-40.71 989,-38.8 879.68,-8.35 740,-6.33 709.64,-6.34"/>
<text xml:space="preserve" text-anchor="middle" x="1004.57" y="-37.78" font-family="monospace" font-size="9.00">t1</text>
</g>
<!-- R1&#45;&gt;net_3 -->
<g id="edge10" class="edge">
<title>R1&#45;&gt;net_3</title>
<path fill="none" stroke="black" d="M1027.47,-46.33C1020.96,-43.41 1013.87,-40.71 1007,-38.8 891.25,-6.56 741.46,-6.19 709.7,-6.36"/>
<text xml:space="preserve" text-anchor="middle" x="1022.22" y="-37.78" font-family="monospace" font-size="9.00">t2</text>
</g>
<!-- R2 -->
<g id="node4" class="node">
<title>R2</title>
<polygon fill="none" stroke="black" points="1213.25,-82.8 1114.75,-82.8 1114.75,-46.8 1213.25,-46.8 1213.25,-82.8"/>
<text xml:space="preserve" text-anchor="middle" x="1164" y="-60.12" font-family="monospace" font-size="14.00">R2\n10000Ω</text>
</g>
<!-- R2&#45;&gt;net_3 -->
<g id="edge12" class="edge">
<title>R2&#45;&gt;net_3</title>
<path fill="none" stroke="black" d="M1128.43,-46.32C1121.16,-43.36 1113.45,-40.65 1106,-38.8 1025.82,-18.86 751.83,-8.15 709.51,-6.6"/>
<text xml:space="preserve" text-anchor="middle" x="1133.68" y="-37.77" font-family="monospace" font-size="9.00">t2</text>
</g>
<!-- R2&#45;&gt;net_6 -->
<g id="edge11" class="edge">
<title>R2&#45;&gt;net_6</title>
<path fill="none" stroke="black" d="M1126.34,-46.31C1119.65,-43.57 1112.68,-40.94 1106,-38.8 1050.58,-21.1 980.62,-10.13 960.59,-7.19"/>
<text xml:space="preserve" text-anchor="middle" x="1121.09" y="-37.76" font-family="monospace" font-size="9.00">t1</text>
</g>
<!-- R3 -->
<g id="node5" class="node">
<title>R3</title>
<polygon fill="none" stroke="black" points="114.25,-82.8 15.75,-82.8 15.75,-46.8 114.25,-46.8 114.25,-82.8"/>
<text xml:space="preserve" text-anchor="middle" x="65" y="-60.12" font-family="monospace" font-size="14.00">R3\n10000Ω</text>
</g>
<!-- R3&#45;&gt;net_0 -->
<g id="edge13" class="edge">
<title>R3&#45;&gt;net_0</title>
<path fill="none" stroke="black" d="M96.18,-46.42C120.58,-32.83 152.22,-15.2 163.64,-8.83"/>
<text xml:space="preserve" text-anchor="middle" x="90.93" y="-37.87" font-family="monospace" font-size="9.00">t1</text>
</g>
<!-- R3&#45;&gt;net_5 -->
<g id="edge14" class="edge">
<title>R3&#45;&gt;net_5</title>
<path fill="none" stroke="black" d="M102.64,-46.42C109.64,-43.6 116.97,-40.91 124,-38.8 189.1,-19.24 271.55,-9.37 293.45,-6.98"/>
<text xml:space="preserve" text-anchor="middle" x="107.89" y="-37.87" font-family="monospace" font-size="9.00">t2</text>
</g>
<!-- R4 -->
<g id="node6" class="node">
<title>R4</title>
<polygon fill="none" stroke="black" points="231.25,-82.8 132.75,-82.8 132.75,-46.8 231.25,-46.8 231.25,-82.8"/>
<text xml:space="preserve" text-anchor="middle" x="182" y="-60.12" font-family="monospace" font-size="14.00">R4\n10000Ω</text>
</g>
<!-- R4&#45;&gt;net_1 -->
<g id="edge15" class="edge">
<title>R4&#45;&gt;net_1</title>
<path fill="none" stroke="black" d="M220.69,-46.34C227.39,-43.63 234.35,-41 241,-38.8 289.86,-22.66 351.17,-10.78 369.55,-7.39"/>
<text xml:space="preserve" text-anchor="middle" x="215.44" y="-37.79" font-family="monospace" font-size="9.00">t1</text>
</g>
<!-- R4&#45;&gt;net_5 -->
<g id="edge16" class="edge">
<title>R4&#45;&gt;net_5</title>
<path fill="none" stroke="black" d="M217.42,-46.42C245.4,-32.7 281.77,-14.85 294.42,-8.65"/>
<text xml:space="preserve" text-anchor="middle" x="222.67" y="-37.87" font-family="monospace" font-size="9.00">t2</text>
</g>
<!-- R5 -->
<g id="node7" class="node">
<title>R5</title>
<polygon fill="none" stroke="black" points="348.25,-82.8 249.75,-82.8 249.75,-46.8 348.25,-46.8 348.25,-82.8"/>
<text xml:space="preserve" text-anchor="middle" x="299" y="-60.12" font-family="monospace" font-size="14.00">R5\n10000Ω</text>
</g>
<!-- R5&#45;&gt;net_2 -->
<g id="edge17" class="edge">
<title>R5&#45;&gt;net_2</title>
<path fill="none" stroke="black" d="M337.35,-46.42C344.16,-43.66 351.23,-41 358,-38.8 409.25,-22.15 473.68,-10.53 492.57,-7.31"/>
<text xml:space="preserve" text-anchor="middle" x="332.1" y="-37.87" font-family="monospace" font-size="9.00">t1</text>
</g>
<!-- R5&#45;&gt;net_5 -->
<g id="edge18" class="edge">
<title>R5&#45;&gt;net_5</title>
<path fill="none" stroke="black" d="M299,-46.58C299,-34.43 299,-18.99 299,-11.26"/>
<text xml:space="preserve" text-anchor="middle" x="293.75" y="-38.03" font-family="monospace" font-size="9.00">t2</text>
</g>
<!-- C1 -->
<g id="node8" class="node">
<title>C1</title>
<polygon fill="none" stroke="black" points="989.25,-82.8 890.75,-82.8 890.75,-46.8 989.25,-46.8 989.25,-82.8"/>
<text xml:space="preserve" text-anchor="middle" x="940" y="-60.12" font-family="monospace" font-size="14.00">C1\n1e&#45;07F</text>
</g>
<!-- C1&#45;&gt;net_3 -->
<g id="edge4" class="edge">
<title>C1&#45;&gt;net_3</title>
<path fill="none" stroke="black" d="M902.37,-46.41C895.36,-43.59 888.03,-40.91 881,-38.8 815.16,-19.09 731.76,-9.33 709.61,-6.97"/>
<text xml:space="preserve" text-anchor="middle" x="897.12" y="-37.86" font-family="monospace" font-size="9.00">t2</text>
</g>
<!-- C1&#45;&gt;net_4 -->
<g id="edge3" class="edge">
<title>C1&#45;&gt;net_4</title>
<path fill="none" stroke="black" d="M902.74,-46.33C895.64,-43.48 888.18,-40.81 881,-38.8 798.39,-15.65 773.81,-29.14 690,-10.8 686.71,-10.08 683.09,-9.03 680.23,-8.13"/>
<text xml:space="preserve" text-anchor="middle" x="907.99" y="-37.78" font-family="monospace" font-size="9.00">t1</text>
</g>
<!-- C2 -->
<g id="node9" class="node">
<title>C2</title>
<polygon fill="none" stroke="black" points="465.25,-82.8 366.75,-82.8 366.75,-46.8 465.25,-46.8 465.25,-82.8"/>
<text xml:space="preserve" text-anchor="middle" x="416" y="-60.12" font-family="monospace" font-size="14.00">C2\n1e&#45;06F</text>
</g>
<!-- C2&#45;&gt;net_3 -->
<g id="edge6" class="edge">
<title>C2&#45;&gt;net_3</title>
<path fill="none" stroke="black" d="M452.27,-46.35C459.35,-43.47 466.81,-40.78 474,-38.8 566.92,-13.26 594.7,-30.64 689,-10.8 692.4,-10.08 696.15,-8.98 699.05,-8.06"/>
<text xml:space="preserve" text-anchor="middle" x="447.02" y="-37.8" font-family="monospace" font-size="9.00">t2</text>
</g>
<!-- C2&#45;&gt;net_5 -->
<g id="edge5" class="edge">
<title>C2&#45;&gt;net_5</title>
<path fill="none" stroke="black" d="M380.58,-46.42C352.6,-32.7 316.23,-14.85 303.58,-8.65"/>
<text xml:space="preserve" text-anchor="middle" x="375.33" y="-37.87" font-family="monospace" font-size="9.00">t1</text>
</g>
<!-- C3 -->
<g id="node10" class="node">
<title>C3</title>
<polygon fill="none" stroke="black" points="872.25,-82.8 773.75,-82.8 773.75,-46.8 872.25,-46.8 872.25,-82.8"/>
<text xml:space="preserve" text-anchor="middle" x="823" y="-60.12" font-family="monospace" font-size="14.00">C3\n1e&#45;07F</text>
</g>
<!-- C3&#45;&gt;net_3 -->
<g id="edge8" class="edge">
<title>C3&#45;&gt;net_3</title>
<path fill="none" stroke="black" d="M786.97,-46.42C758.52,-32.7 721.53,-14.85 708.66,-8.65"/>
<text xml:space="preserve" text-anchor="middle" x="792.22" y="-37.87" font-family="monospace" font-size="9.00">t2</text>
</g>
<!-- C3&#45;&gt;net_4 -->
<g id="edge7" class="edge">
<title>C3&#45;&gt;net_4</title>
<path fill="none" stroke="black" d="M783.51,-46.39C777.34,-43.79 771.02,-41.18 765,-38.8 732.87,-26.11 693.54,-12.65 679.92,-8.05"/>
<text xml:space="preserve" text-anchor="middle" x="778.26" y="-37.84" font-family="monospace" font-size="9.00">t1</text>
</g>
</g>
</svg>
