<?xml version="1.0" encoding="UTF-8" standalone="no"?>
<!DOCTYPE svg PUBLIC "-//W3C//DTD SVG 1.1//EN"
 "http://www.w3.org/Graphics/SVG/1.1/DTD/svg11.dtd">
<!-- Generated by graphviz version 14.1.5 (20260411.2331)
 -->
<!-- Title: ReactionGame Pages: 1 -->
<svg width="3080pt" height="91pt"
 viewBox="0.00 0.00 3080.00 91.00" xmlns="http://www.w3.org/2000/svg" xmlns:xlink="http://www.w3.org/1999/xlink">
<g id="graph0" class="graph" transform="scale(1 1) rotate(0) translate(4 86.8)">
<title>ReactionGame</title>
<polygon fill="white" stroke="none" points="-4,4 -4,-86.8 3075.88,-86.8 3075.88,4 -4,4"/>
<!-- U1 -->
<g id="node1" class="node">
<title>U1</title>
<polygon fill="none" stroke="black" points="2470.62,-82.8 2380.38,-82.8 2380.38,-46.8 2470.62,-46.8 2470.62,-82.8"/>
<text xml:space="preserve" text-anchor="middle" x="2425.5" y="-60.12" font-family="monospace" font-size="14.00">U1\nNE555</text>
</g>
<!-- gnd -->
<g id="node28" class="node">
<title>gnd</title>
<ellipse fill="none" stroke="black" cx="1035.5" cy="-5.4" rx="5.4" ry="5.4"/>
</g>
<!-- U1&#45;&gt;gnd -->
<g id="edge51" class="edge">
<title>U1&#45;&gt;gnd</title>
<path fill="none" stroke="black" d="M2380.11,-48.73C2376.88,-47.98 2373.66,-47.32 2370.5,-46.8 2086.9,0.07 1364.32,-29.79 1077.5,-10.8 1064.33,-9.93 1048.92,-8.11 1040.93,-7.1"/>
<text xml:space="preserve" text-anchor="middle" x="2372.24" y="-51.43" font-family="monospace" font-size="9.00">GND</text>
</g>
<!-- vcc -->
<g id="node49" class="node">
<title>vcc</title>
<ellipse fill="none" stroke="black" cx="2663.5" cy="-5.4" rx="5.4" ry="5.4"/>
</g>
<!-- U1&#45;&gt;vcc -->
<g id="edge52" class="edge">
<title>U1&#45;&gt;vcc</title>
<path fill="none" stroke="black" d="M2470.92,-46.95C2471.11,-46.9 2471.31,-46.85 2471.5,-46.8 2543.85,-27.67 2633.91,-10.3 2657.99,-6.97"/>
<text xml:space="preserve" text-anchor="middle" x="2457.79" y="-49.65" font-family="monospace" font-size="9.00">RESET</text>
</g>
<!-- U1&#45;&gt;vcc -->
<g id="edge53" class="edge">
<title>U1&#45;&gt;vcc</title>
<path fill="none" stroke="black" d="M2470.94,-52.04C2477.19,-50.2 2483.51,-48.38 2489.5,-46.8 2555.55,-29.33 2636.38,-13.34 2658.33,-8.15"/>
<text xml:space="preserve" text-anchor="middle" x="2463.06" y="-54.74" font-family="monospace" font-size="9.00">VCC</text>
</g>
<!-- U2 -->
<g id="node2" class="node">
<title>U2</title>
<polygon fill="none" stroke="black" points="1662.75,-82.8 1564.25,-82.8 1564.25,-46.8 1662.75,-46.8 1662.75,-82.8"/>
<text xml:space="preserve" text-anchor="middle" x="1613.5" y="-60.12" font-family="monospace" font-size="14.00">U2\nCD4017</text>
</g>
<!-- U2&#45;&gt;gnd -->
<g id="edge65" class="edge">
<title>U2&#45;&gt;gnd</title>
<path fill="none" stroke="black" d="M1563.99,-48.55C1561.13,-47.9 1558.29,-47.31 1555.5,-46.8 1345.9,-8.63 1289.69,-29.9 1077.5,-10.8 1064.36,-9.62 1048.93,-7.92 1040.93,-7.02"/>
<text xml:space="preserve" text-anchor="middle" x="1556.12" y="-40" font-family="monospace" font-size="9.00">VSS</text>
</g>
<!-- net_12 -->
<g id="node32" class="node">
<title>net_12</title>
<ellipse fill="none" stroke="black" cx="595.5" cy="-5.4" rx="5.4" ry="5.4"/>
</g>
<!-- U2&#45;&gt;net_12 -->
<g id="edge63" class="edge">
<title>U2&#45;&gt;net_12</title>
<path fill="none" stroke="black" d="M1564.01,-48.43C1561.15,-47.81 1558.3,-47.26 1555.5,-46.8 1161.78,17.8 1056.89,-32.7 658.5,-10.8 637.26,-9.63 612.03,-7.71 601.06,-6.84"/>
<text xml:space="preserve" text-anchor="middle" x="1558.76" y="-39.88" font-family="monospace" font-size="9.00">Q9</text>
</g>
<!-- net_13 -->
<g id="node33" class="node">
<title>net_13</title>
<ellipse fill="none" stroke="black" cx="672.5" cy="-5.4" rx="5.4" ry="5.4"/>
</g>
<!-- U2&#45;&gt;net_13 -->
<g id="edge62" class="edge">
<title>U2&#45;&gt;net_13</title>
<path fill="none" stroke="black" d="M1564.01,-48.44C1561.15,-47.82 1558.3,-47.26 1555.5,-46.8 1185.08,14.45 1085.83,-39.86 711.5,-10.8 699.54,-9.87 685.59,-8.14 678.04,-7.15"/>
<text xml:space="preserve" text-anchor="middle" x="1558.76" y="-39.89" font-family="monospace" font-size="9.00">Q8</text>
</g>
<!-- net_14 -->
<g id="node34" class="node">
<title>net_14</title>
<ellipse fill="none" stroke="black" cx="725.5" cy="-5.4" rx="5.4" ry="5.4"/>
</g>
<!-- U2&#45;&gt;net_14 -->
<g id="edge61" class="edge">
<title>U2&#45;&gt;net_14</title>
<path fill="none" stroke="black" d="M1564.01,-48.44C1561.15,-47.82 1558.29,-47.27 1555.5,-46.8 1203.1,11.86 1107.85,-47.59 752.5,-10.8 744.94,-10.02 736.28,-8.49 730.85,-7.46"/>
<text xml:space="preserve" text-anchor="middle" x="1558.76" y="-39.89" font-family="monospace" font-size="9.00">Q7</text>
</g>
<!-- net_15 -->
<g id="node35" class="node">
<title>net_15</title>
<ellipse fill="none" stroke="black" cx="1091.5" cy="-5.4" rx="5.4" ry="5.4"/>
</g>
<!-- U2&#45;&gt;net_15 -->
<g id="edge60" class="edge">
<title>U2&#45;&gt;net_15</title>
<path fill="none" stroke="black" d="M1563.98,-48.59C1561.13,-47.93 1558.28,-47.32 1555.5,-46.8 1461.33,-29.08 1143.84,-9.54 1097.23,-6.74"/>
<text xml:space="preserve" text-anchor="middle" x="1558.73" y="-40.04" font-family="monospace" font-size="9.00">Q6</text>
</g>
<!-- net_16 -->
<g id="node36" class="node">
<title>net_16</title>
<ellipse fill="none" stroke="black" cx="1216.5" cy="-5.4" rx="5.4" ry="5.4"/>
</g>
<!-- U2&#45;&gt;net_16 -->
<g id="edge59" class="edge">
<title>U2&#45;&gt;net_16</title>
<path fill="none" stroke="black" d="M1563.96,-48.69C1561.11,-48.01 1558.28,-47.37 1555.5,-46.8 1421.95,-19.47 1254.73,-8.64 1222.15,-6.72"/>
<text xml:space="preserve" text-anchor="middle" x="1558.71" y="-40.14" font-family="monospace" font-size="9.00">Q5</text>
</g>
<!-- net_17 -->
<g id="node37" class="node">
<title>net_17</title>
<ellipse fill="none" stroke="black" cx="1334.5" cy="-5.4" rx="5.4" ry="5.4"/>
</g>
<!-- U2&#45;&gt;net_17 -->
<g id="edge58" class="edge">
<title>U2&#45;&gt;net_17</title>
<path fill="none" stroke="black" d="M1563.92,-48.9C1561.08,-48.16 1558.26,-47.45 1555.5,-46.8 1470.49,-26.63 1365.04,-10.83 1340.01,-7.19"/>
<text xml:space="preserve" text-anchor="middle" x="1558.67" y="-51.6" font-family="monospace" font-size="9.00">Q4</text>
</g>
<!-- net_18 -->
<g id="node38" class="node">
<title>net_18</title>
<ellipse fill="none" stroke="black" cx="1616.5" cy="-5.4" rx="5.4" ry="5.4"/>
</g>
<!-- U2&#45;&gt;net_18 -->
<g id="edge57" class="edge">
<title>U2&#45;&gt;net_18</title>
<path fill="none" stroke="black" d="M1614.4,-46.58C1615.04,-34.43 1615.84,-18.99 1616.25,-11.26"/>
<text xml:space="preserve" text-anchor="middle" x="1609.15" y="-49.28" font-family="monospace" font-size="9.00">Q3</text>
</g>
<!-- net_19 -->
<g id="node39" class="node">
<title>net_19</title>
<ellipse fill="none" stroke="black" cx="1658.5" cy="-5.4" rx="5.4" ry="5.4"/>
</g>
<!-- U2&#45;&gt;net_19 -->
<g id="edge56" class="edge">
<title>U2&#45;&gt;net_19</title>
<path fill="none" stroke="black" d="M1627,-46.58C1636.94,-33.9 1649.69,-17.64 1655.44,-10.3"/>
<text xml:space="preserve" text-anchor="middle" x="1621.75" y="-49.28" font-family="monospace" font-size="9.00">Q2</text>
</g>
<!-- net_20 -->
<g id="node40" class="node">
<title>net_20</title>
<ellipse fill="none" stroke="black" cx="1697.5" cy="-5.4" rx="5.4" ry="5.4"/>
</g>
<!-- U2&#45;&gt;net_20 -->
<g id="edge55" class="edge">
<title>U2&#45;&gt;net_20</title>
<path fill="none" stroke="black" d="M1638.7,-46.58C1658.23,-33.24 1683.55,-15.93 1693.36,-9.23"/>
<text xml:space="preserve" text-anchor="middle" x="1633.45" y="-49.28" font-family="monospace" font-size="9.00">Q1</text>
</g>
<!-- net_21 -->
<g id="node41" class="node">
<title>net_21</title>
<ellipse fill="none" stroke="black" cx="2014.5" cy="-5.4" rx="5.4" ry="5.4"/>
</g>
<!-- U2&#45;&gt;net_21 -->
<g id="edge54" class="edge">
<title>U2&#45;&gt;net_21</title>
<path fill="none" stroke="black" d="M1663.04,-48.69C1665.89,-48 1668.72,-47.37 1671.5,-46.8 1806.63,-19.24 1975.81,-8.59 2008.79,-6.71"/>
<text xml:space="preserve" text-anchor="middle" x="1657.79" y="-51.39" font-family="monospace" font-size="9.00">Q0</text>
</g>
<!-- U2&#45;&gt;vcc -->
<g id="edge64" class="edge">
<title>U2&#45;&gt;vcc</title>
<path fill="none" stroke="black" d="M1662.99,-48.43C1665.85,-47.81 1668.7,-47.26 1671.5,-46.8 1878.58,-12.76 2589.21,-6.93 2658.12,-6.44"/>
<text xml:space="preserve" text-anchor="middle" x="1655.11" y="-51.13" font-family="monospace" font-size="9.00">VDD</text>
</g>
<!-- D1 -->
<g id="node3" class="node">
<title>D1</title>
<polygon fill="none" stroke="black" points="2361.88,-82.8 2255.12,-82.8 2255.12,-46.8 2361.88,-46.8 2361.88,-82.8"/>
<text xml:space="preserve" text-anchor="middle" x="2308.5" y="-60.12" font-family="monospace" font-size="14.00">D1\nred LED</text>
</g>
<!-- net_11 -->
<g id="node31" class="node">
<title>net_11</title>
<ellipse fill="none" stroke="black" cx="2064.5" cy="-5.4" rx="5.4" ry="5.4"/>
</g>
<!-- D1&#45;&gt;net_11 -->
<g id="edge6" class="edge">
<title>D1&#45;&gt;net_11</title>
<path fill="none" stroke="black" d="M2254.93,-49.17C2251.74,-48.36 2248.58,-47.56 2245.5,-46.8 2176.41,-29.78 2091.72,-12.04 2069.85,-7.5"/>
<text xml:space="preserve" text-anchor="middle" x="2236.55" y="-51.87" font-family="monospace" font-size="9.00">cathode</text>
</g>
<!-- D1&#45;&gt;net_21 -->
<g id="edge5" class="edge">
<title>D1&#45;&gt;net_21</title>
<path fill="none" stroke="black" d="M2254.97,-49C2251.77,-48.23 2248.6,-47.49 2245.5,-46.8 2156.07,-26.96 2045.4,-10.79 2019.91,-7.16"/>
<text xml:space="preserve" text-anchor="middle" x="2241.84" y="-40.45" font-family="monospace" font-size="9.00">anode</text>
</g>
<!-- D2 -->
<g id="node4" class="node">
<title>D2</title>
<polygon fill="none" stroke="black" points="2236.88,-82.8 2130.12,-82.8 2130.12,-46.8 2236.88,-46.8 2236.88,-82.8"/>
<text xml:space="preserve" text-anchor="middle" x="2183.5" y="-60.12" font-family="monospace" font-size="14.00">D2\nred LED</text>
</g>
<!-- net_10 -->
<g id="node30" class="node">
<title>net_10</title>
<ellipse fill="none" stroke="black" cx="1731.5" cy="-5.4" rx="5.4" ry="5.4"/>
</g>
<!-- D2&#45;&gt;net_10 -->
<g id="edge10" class="edge">
<title>D2&#45;&gt;net_10</title>
<path fill="none" stroke="black" d="M2129.67,-48.67C2126.58,-47.99 2123.51,-47.36 2120.5,-46.8 1965.62,-18.05 1771.98,-8.23 1737.03,-6.64"/>
<text xml:space="preserve" text-anchor="middle" x="2111.3" y="-51.37" font-family="monospace" font-size="9.00">cathode</text>
</g>
<!-- D2&#45;&gt;net_20 -->
<g id="edge9" class="edge">
<title>D2&#45;&gt;net_20</title>
<path fill="none" stroke="black" d="M2129.68,-48.62C2126.59,-47.95 2123.51,-47.34 2120.5,-46.8 1943.46,-15.26 1895.23,-38.17 1717.5,-10.8 1712.44,-10.02 1706.74,-8.73 1702.73,-7.74"/>
<text xml:space="preserve" text-anchor="middle" x="2116.56" y="-40.07" font-family="monospace" font-size="9.00">anode</text>
</g>
<!-- D3 -->
<g id="node5" class="node">
<title>D3</title>
<polygon fill="none" stroke="black" points="2111.88,-82.8 2005.12,-82.8 2005.12,-46.8 2111.88,-46.8 2111.88,-82.8"/>
<text xml:space="preserve" text-anchor="middle" x="2058.5" y="-60.12" font-family="monospace" font-size="14.00">D3\nred LED</text>
</g>
<!-- D3&#45;&gt;net_19 -->
<g id="edge11" class="edge">
<title>D3&#45;&gt;net_19</title>
<path fill="none" stroke="black" d="M2004.67,-48.71C2001.58,-48.02 1998.5,-47.38 1995.5,-46.8 1858.4,-20.54 1821.63,-30.91 1683.5,-10.8 1676.7,-9.81 1668.9,-8.39 1663.85,-7.44"/>
<text xml:space="preserve" text-anchor="middle" x="1991.54" y="-51.41" font-family="monospace" font-size="9.00">anode</text>
</g>
<!-- net_9 -->
<g id="node48" class="node">
<title>net_9</title>
<ellipse fill="none" stroke="black" cx="1546.5" cy="-5.4" rx="5.4" ry="5.4"/>
</g>
<!-- D3&#45;&gt;net_9 -->
<g id="edge12" class="edge">
<title>D3&#45;&gt;net_9</title>
<path fill="none" stroke="black" d="M2004.68,-48.62C2001.59,-47.95 1998.51,-47.34 1995.5,-46.8 1949.66,-38.62 1600.97,-10.73 1552.17,-6.85"/>
<text xml:space="preserve" text-anchor="middle" x="1986.31" y="-40.07" font-family="monospace" font-size="9.00">cathode</text>
</g>
<!-- D4 -->
<g id="node6" class="node">
<title>D4</title>
<polygon fill="none" stroke="black" points="1986.88,-82.8 1880.12,-82.8 1880.12,-46.8 1986.88,-46.8 1986.88,-82.8"/>
<text xml:space="preserve" text-anchor="middle" x="1933.5" y="-60.12" font-family="monospace" font-size="14.00">D4\nred LED</text>
</g>
<!-- D4&#45;&gt;net_18 -->
<g id="edge13" class="edge">
<title>D4&#45;&gt;net_18</title>
<path fill="none" stroke="black" d="M1879.82,-48.69C1877.01,-48.02 1874.23,-47.39 1871.5,-46.8 1868.3,-46.11 1657.89,-12.93 1621.76,-7.23"/>
<text xml:space="preserve" text-anchor="middle" x="1866.7" y="-40.14" font-family="monospace" font-size="9.00">anode</text>
</g>
<!-- net_8 -->
<g id="node47" class="node">
<title>net_8</title>
<ellipse fill="none" stroke="black" cx="1440.5" cy="-5.4" rx="5.4" ry="5.4"/>
</g>
<!-- D4&#45;&gt;net_8 -->
<g id="edge14" class="edge">
<title>D4&#45;&gt;net_8</title>
<path fill="none" stroke="black" d="M1879.86,-48.48C1877.05,-47.87 1874.24,-47.3 1871.5,-46.8 1784.07,-30.84 1490.34,-9.89 1446.1,-6.79"/>
<text xml:space="preserve" text-anchor="middle" x="1861.49" y="-39.93" font-family="monospace" font-size="9.00">cathode</text>
</g>
<!-- D5 -->
<g id="node7" class="node">
<title>D5</title>
<polygon fill="none" stroke="black" points="1346.88,-82.8 1240.12,-82.8 1240.12,-46.8 1346.88,-46.8 1346.88,-82.8"/>
<text xml:space="preserve" text-anchor="middle" x="1293.5" y="-60.12" font-family="monospace" font-size="14.00">D5\nred LED</text>
</g>
<!-- D5&#45;&gt;net_17 -->
<g id="edge15" class="edge">
<title>D5&#45;&gt;net_17</title>
<path fill="none" stroke="black" d="M1305.8,-46.58C1314.86,-33.9 1326.47,-17.64 1331.71,-10.3"/>
<text xml:space="preserve" text-anchor="middle" x="1292.68" y="-49.28" font-family="monospace" font-size="9.00">anode</text>
</g>
<!-- net_7 -->
<g id="node46" class="node">
<title>net_7</title>
<ellipse fill="none" stroke="black" cx="968.5" cy="-5.4" rx="5.4" ry="5.4"/>
</g>
<!-- D5&#45;&gt;net_7 -->
<g id="edge16" class="edge">
<title>D5&#45;&gt;net_7</title>
<path fill="none" stroke="black" d="M1239.64,-48.85C1236.55,-48.12 1233.49,-47.43 1230.5,-46.8 1128.28,-25.2 1001.34,-10.14 973.89,-7.01"/>
<text xml:space="preserve" text-anchor="middle" x="1221.26" y="-51.55" font-family="monospace" font-size="9.00">cathode</text>
</g>
<!-- D6 -->
<g id="node8" class="node">
<title>D6</title>
<polygon fill="none" stroke="black" points="1221.88,-82.8 1115.12,-82.8 1115.12,-46.8 1221.88,-46.8 1221.88,-82.8"/>
<text xml:space="preserve" text-anchor="middle" x="1168.5" y="-60.12" font-family="monospace" font-size="14.00">D6\nred LED</text>
</g>
<!-- D6&#45;&gt;net_16 -->
<g id="edge17" class="edge">
<title>D6&#45;&gt;net_16</title>
<path fill="none" stroke="black" d="M1182.9,-46.58C1193.51,-33.9 1207.1,-17.64 1213.24,-10.3"/>
<text xml:space="preserve" text-anchor="middle" x="1169.78" y="-49.28" font-family="monospace" font-size="9.00">anode</text>
</g>
<!-- net_6 -->
<g id="node45" class="node">
<title>net_6</title>
<ellipse fill="none" stroke="black" cx="866.5" cy="-5.4" rx="5.4" ry="5.4"/>
</g>
<!-- D6&#45;&gt;net_6 -->
<g id="edge18" class="edge">
<title>D6&#45;&gt;net_6</title>
<path fill="none" stroke="black" d="M1114.63,-48.9C1111.55,-48.16 1108.49,-47.45 1105.5,-46.8 1013.01,-26.55 898.48,-10.69 872.1,-7.14"/>
<text xml:space="preserve" text-anchor="middle" x="1096.25" y="-51.6" font-family="monospace" font-size="9.00">cathode</text>
</g>
<!-- D7 -->
<g id="node9" class="node">
<title>D7</title>
<polygon fill="none" stroke="black" points="1096.88,-82.8 990.12,-82.8 990.12,-46.8 1096.88,-46.8 1096.88,-82.8"/>
<text xml:space="preserve" text-anchor="middle" x="1043.5" y="-60.12" font-family="monospace" font-size="14.00">D7\nred LED</text>
</g>
<!-- D7&#45;&gt;net_15 -->
<g id="edge19" class="edge">
<title>D7&#45;&gt;net_15</title>
<path fill="none" stroke="black" d="M1057.9,-46.58C1068.51,-33.9 1082.1,-17.64 1088.24,-10.3"/>
<text xml:space="preserve" text-anchor="middle" x="1044.78" y="-49.28" font-family="monospace" font-size="9.00">anode</text>
</g>
<!-- net_5 -->
<g id="node44" class="node">
<title>net_5</title>
<ellipse fill="none" stroke="black" cx="766.5" cy="-5.4" rx="5.4" ry="5.4"/>
</g>
<!-- D7&#45;&gt;net_5 -->
<g id="edge20" class="edge">
<title>D7&#45;&gt;net_5</title>
<path fill="none" stroke="black" d="M989.8,-48.79C987,-48.09 984.22,-47.43 981.5,-46.8 898.6,-27.68 796.17,-11.09 771.85,-7.24"/>
<text xml:space="preserve" text-anchor="middle" x="971.42" y="-51.49" font-family="monospace" font-size="9.00">cathode</text>
</g>
<!-- D8 -->
<g id="node10" class="node">
<title>D8</title>
<polygon fill="none" stroke="black" points="572.88,-82.8 466.12,-82.8 466.12,-46.8 572.88,-46.8 572.88,-82.8"/>
<text xml:space="preserve" text-anchor="middle" x="519.5" y="-60.12" font-family="monospace" font-size="14.00">D8\nred LED</text>
</g>
<!-- D8&#45;&gt;net_14 -->
<g id="edge21" class="edge">
<title>D8&#45;&gt;net_14</title>
<path fill="none" stroke="black" d="M573.35,-48.79C625.57,-34.24 699.79,-13.56 720.16,-7.89"/>
<text xml:space="preserve" text-anchor="middle" x="560.23" y="-51.49" font-family="monospace" font-size="9.00">anode</text>
</g>
<!-- net_4 -->
<g id="node43" class="node">
<title>net_4</title>
<ellipse fill="none" stroke="black" cx="525.5" cy="-5.4" rx="5.4" ry="5.4"/>
</g>
<!-- D8&#45;&gt;net_4 -->
<g id="edge22" class="edge">
<title>D8&#45;&gt;net_4</title>
<path fill="none" stroke="black" d="M521.3,-46.58C522.57,-34.43 524.18,-18.99 524.99,-11.26"/>
<text xml:space="preserve" text-anchor="middle" x="502.93" y="-49.28" font-family="monospace" font-size="9.00">cathode</text>
</g>
<!-- D9 -->
<g id="node11" class="node">
<title>D9</title>
<polygon fill="none" stroke="black" points="239.88,-82.8 133.12,-82.8 133.12,-46.8 239.88,-46.8 239.88,-82.8"/>
<text xml:space="preserve" text-anchor="middle" x="186.5" y="-60.12" font-family="monospace" font-size="14.00">D9\nred LED</text>
</g>
<!-- D9&#45;&gt;net_13 -->
<g id="edge23" class="edge">
<title>D9&#45;&gt;net_13</title>
<path fill="none" stroke="black" d="M240.32,-48.64C243.41,-47.97 246.49,-47.35 249.5,-46.8 335.34,-31.23 623.59,-9.95 667.01,-6.8"/>
<text xml:space="preserve" text-anchor="middle" x="227.2" y="-51.34" font-family="monospace" font-size="9.00">anode</text>
</g>
<!-- net_3 -->
<g id="node42" class="node">
<title>net_3</title>
<ellipse fill="none" stroke="black" cx="284.5" cy="-5.4" rx="5.4" ry="5.4"/>
</g>
<!-- D9&#45;&gt;net_3 -->
<g id="edge24" class="edge">
<title>D9&#45;&gt;net_3</title>
<path fill="none" stroke="black" d="M216.17,-46.42C239.15,-32.96 268.9,-15.54 280.03,-9.02"/>
<text xml:space="preserve" text-anchor="middle" x="197.79" y="-49.12" font-family="monospace" font-size="9.00">cathode</text>
</g>
<!-- D10 -->
<g id="node12" class="node">
<title>D10</title>
<polygon fill="none" stroke="black" points="115,-82.8 0,-82.8 0,-46.8 115,-46.8 115,-82.8"/>
<text xml:space="preserve" text-anchor="middle" x="57.5" y="-60.12" font-family="monospace" font-size="14.00">D10\nred LED</text>
</g>
<!-- net_1 -->
<g id="node29" class="node">
<title>net_1</title>
<ellipse fill="none" stroke="black" cx="205.5" cy="-5.4" rx="5.4" ry="5.4"/>
</g>
<!-- D10&#45;&gt;net_1 -->
<g id="edge8" class="edge">
<title>D10&#45;&gt;net_1</title>
<path fill="none" stroke="black" d="M102.31,-46.42C138.38,-32.43 185.48,-14.17 200.6,-8.3"/>
<text xml:space="preserve" text-anchor="middle" x="83.93" y="-49.12" font-family="monospace" font-size="9.00">cathode</text>
</g>
<!-- D10&#45;&gt;net_12 -->
<g id="edge7" class="edge">
<title>D10&#45;&gt;net_12</title>
<path fill="none" stroke="black" d="M115.48,-48.47C118.52,-47.86 121.54,-47.3 124.5,-46.8 148.68,-42.72 538.23,-11.05 589.86,-6.86"/>
<text xml:space="preserve" text-anchor="middle" x="102.36" y="-51.17" font-family="monospace" font-size="9.00">anode</text>
</g>
<!-- R1 -->
<g id="node13" class="node">
<title>R1</title>
<polygon fill="none" stroke="black" points="1862.5,-82.8 1780.5,-82.8 1780.5,-46.8 1862.5,-46.8 1862.5,-82.8"/>
<text xml:space="preserve" text-anchor="middle" x="1821.5" y="-60.12" font-family="monospace" font-size="14.00">R1\n470Ω</text>
</g>
<!-- R1&#45;&gt;gnd -->
<g id="edge26" class="edge">
<title>R1&#45;&gt;gnd</title>
<path fill="none" stroke="black" d="M1780.27,-48.8C1777.32,-48.03 1774.38,-47.35 1771.5,-46.8 1468.19,11.46 1385.42,-34.9 1077.5,-10.8 1064.34,-9.77 1048.92,-8.01 1040.93,-7.06"/>
<text xml:space="preserve" text-anchor="middle" x="1775.02" y="-51.5" font-family="monospace" font-size="9.00">t2</text>
</g>
<!-- R1&#45;&gt;net_11 -->
<g id="edge25" class="edge">
<title>R1&#45;&gt;net_11</title>
<path fill="none" stroke="black" d="M1862.85,-49.31C1865.77,-48.42 1868.67,-47.57 1871.5,-46.8 1944.8,-26.75 2036.11,-11.09 2059.07,-7.29"/>
<text xml:space="preserve" text-anchor="middle" x="1857.6" y="-52.01" font-family="monospace" font-size="9.00">t1</text>
</g>
<!-- R2 -->
<g id="node14" class="node">
<title>R2</title>
<polygon fill="none" stroke="black" points="1762.5,-82.8 1680.5,-82.8 1680.5,-46.8 1762.5,-46.8 1762.5,-82.8"/>
<text xml:space="preserve" text-anchor="middle" x="1721.5" y="-60.12" font-family="monospace" font-size="14.00">R2\n470Ω</text>
</g>
<!-- R2&#45;&gt;gnd -->
<g id="edge36" class="edge">
<title>R2&#45;&gt;gnd</title>
<path fill="none" stroke="black" d="M1680.26,-48.83C1677.32,-48.06 1674.38,-47.37 1671.5,-46.8 1411.98,4.22 1341.09,-32.58 1077.5,-10.8 1064.35,-9.71 1048.93,-7.98 1040.93,-7.05"/>
<text xml:space="preserve" text-anchor="middle" x="1675.01" y="-51.53" font-family="monospace" font-size="9.00">t2</text>
</g>
<!-- R2&#45;&gt;net_10 -->
<g id="edge35" class="edge">
<title>R2&#45;&gt;net_10</title>
<path fill="none" stroke="black" d="M1724.5,-46.58C1726.66,-34.16 1729.42,-18.31 1730.74,-10.77"/>
<text xml:space="preserve" text-anchor="middle" x="1719.25" y="-49.28" font-family="monospace" font-size="9.00">t1</text>
</g>
<!-- R3 -->
<g id="node15" class="node">
<title>R3</title>
<polygon fill="none" stroke="black" points="1546.5,-82.8 1464.5,-82.8 1464.5,-46.8 1546.5,-46.8 1546.5,-82.8"/>
<text xml:space="preserve" text-anchor="middle" x="1505.5" y="-60.12" font-family="monospace" font-size="14.00">R3\n470Ω</text>
</g>
<!-- R3&#45;&gt;gnd -->
<g id="edge38" class="edge">
<title>R3&#45;&gt;gnd</title>
<path fill="none" stroke="black" d="M1464.24,-48.94C1461.3,-48.14 1458.37,-47.42 1455.5,-46.8 1290.49,-11.4 1245.42,-27.59 1077.5,-10.8 1064.37,-9.49 1048.94,-7.85 1040.94,-6.99"/>
<text xml:space="preserve" text-anchor="middle" x="1458.99" y="-51.64" font-family="monospace" font-size="9.00">t2</text>
</g>
<!-- R3&#45;&gt;net_9 -->
<g id="edge37" class="edge">
<title>R3&#45;&gt;net_9</title>
<path fill="none" stroke="black" d="M1517.8,-46.58C1526.86,-33.9 1538.47,-17.64 1543.71,-10.3"/>
<text xml:space="preserve" text-anchor="middle" x="1512.55" y="-49.28" font-family="monospace" font-size="9.00">t1</text>
</g>
<!-- R4 -->
<g id="node16" class="node">
<title>R4</title>
<polygon fill="none" stroke="black" points="1446.5,-82.8 1364.5,-82.8 1364.5,-46.8 1446.5,-46.8 1446.5,-82.8"/>
<text xml:space="preserve" text-anchor="middle" x="1405.5" y="-60.12" font-family="monospace" font-size="14.00">R4\n470Ω</text>
</g>
<!-- R4&#45;&gt;gnd -->
<g id="edge40" class="edge">
<title>R4&#45;&gt;gnd</title>
<path fill="none" stroke="black" d="M1364.21,-49.04C1361.28,-48.22 1358.36,-47.46 1355.5,-46.8 1323.44,-39.41 1080.59,-11.54 1040.96,-7.02"/>
<text xml:space="preserve" text-anchor="middle" x="1358.96" y="-51.74" font-family="monospace" font-size="9.00">t2</text>
</g>
<!-- R4&#45;&gt;net_8 -->
<g id="edge39" class="edge">
<title>R4&#45;&gt;net_8</title>
<path fill="none" stroke="black" d="M1416,-46.58C1423.73,-33.9 1433.65,-17.64 1438.12,-10.3"/>
<text xml:space="preserve" text-anchor="middle" x="1410.75" y="-49.28" font-family="monospace" font-size="9.00">t1</text>
</g>
<!-- R5 -->
<g id="node17" class="node">
<title>R5</title>
<polygon fill="none" stroke="black" points="972.5,-82.8 890.5,-82.8 890.5,-46.8 972.5,-46.8 972.5,-82.8"/>
<text xml:space="preserve" text-anchor="middle" x="931.5" y="-60.12" font-family="monospace" font-size="14.00">R5\n470Ω</text>
</g>
<!-- R5&#45;&gt;gnd -->
<g id="edge42" class="edge">
<title>R5&#45;&gt;gnd</title>
<path fill="none" stroke="black" d="M962.99,-46.42C987.62,-32.83 1019.56,-15.2 1031.1,-8.83"/>
<text xml:space="preserve" text-anchor="middle" x="957.74" y="-49.12" font-family="monospace" font-size="9.00">t2</text>
</g>
<!-- R5&#45;&gt;net_7 -->
<g id="edge41" class="edge">
<title>R5&#45;&gt;net_7</title>
<path fill="none" stroke="black" d="M942.6,-46.58C950.78,-33.9 961.26,-17.64 965.99,-10.3"/>
<text xml:space="preserve" text-anchor="middle" x="937.35" y="-49.28" font-family="monospace" font-size="9.00">t1</text>
</g>
<!-- R6 -->
<g id="node18" class="node">
<title>R6</title>
<polygon fill="none" stroke="black" points="872.5,-82.8 790.5,-82.8 790.5,-46.8 872.5,-46.8 872.5,-82.8"/>
<text xml:space="preserve" text-anchor="middle" x="831.5" y="-60.12" font-family="monospace" font-size="14.00">R6\n470Ω</text>
</g>
<!-- R6&#45;&gt;gnd -->
<g id="edge44" class="edge">
<title>R6&#45;&gt;gnd</title>
<path fill="none" stroke="black" d="M872.9,-49.47C875.8,-48.54 878.69,-47.65 881.5,-46.8 939.2,-29.45 1010.31,-12.35 1030.14,-7.66"/>
<text xml:space="preserve" text-anchor="middle" x="867.65" y="-52.17" font-family="monospace" font-size="9.00">t2</text>
</g>
<!-- R6&#45;&gt;net_6 -->
<g id="edge43" class="edge">
<title>R6&#45;&gt;net_6</title>
<path fill="none" stroke="black" d="M842,-46.58C849.73,-33.9 859.65,-17.64 864.12,-10.3"/>
<text xml:space="preserve" text-anchor="middle" x="836.75" y="-49.28" font-family="monospace" font-size="9.00">t1</text>
</g>
<!-- R7 -->
<g id="node19" class="node">
<title>R7</title>
<polygon fill="none" stroke="black" points="772.5,-82.8 690.5,-82.8 690.5,-46.8 772.5,-46.8 772.5,-82.8"/>
<text xml:space="preserve" text-anchor="middle" x="731.5" y="-60.12" font-family="monospace" font-size="14.00">R7\n470Ω</text>
</g>
<!-- R7&#45;&gt;gnd -->
<g id="edge46" class="edge">
<title>R7&#45;&gt;gnd</title>
<path fill="none" stroke="black" d="M772.81,-49.15C775.73,-48.3 778.65,-47.51 781.5,-46.8 879.45,-22.54 1002.41,-9.63 1029.89,-6.94"/>
<text xml:space="preserve" text-anchor="middle" x="767.56" y="-51.85" font-family="monospace" font-size="9.00">t2</text>
</g>
<!-- R7&#45;&gt;net_5 -->
<g id="edge45" class="edge">
<title>R7&#45;&gt;net_5</title>
<path fill="none" stroke="black" d="M742,-46.58C749.73,-33.9 759.65,-17.64 764.12,-10.3"/>
<text xml:space="preserve" text-anchor="middle" x="736.75" y="-49.28" font-family="monospace" font-size="9.00">t1</text>
</g>
<!-- R8 -->
<g id="node20" class="node">
<title>R8</title>
<polygon fill="none" stroke="black" points="672.5,-82.8 590.5,-82.8 590.5,-46.8 672.5,-46.8 672.5,-82.8"/>
<text xml:space="preserve" text-anchor="middle" x="631.5" y="-60.12" font-family="monospace" font-size="14.00">R8\n470Ω</text>
</g>
<!-- R8&#45;&gt;gnd -->
<g id="edge48" class="edge">
<title>R8&#45;&gt;gnd</title>
<path fill="none" stroke="black" d="M672.78,-49.01C675.71,-48.19 678.64,-47.44 681.5,-46.8 752.27,-30.92 990.42,-10.23 1029.93,-6.87"/>
<text xml:space="preserve" text-anchor="middle" x="667.53" y="-51.71" font-family="monospace" font-size="9.00">t2</text>
</g>
<!-- R8&#45;&gt;net_4 -->
<g id="edge47" class="edge">
<title>R8&#45;&gt;net_4</title>
<path fill="none" stroke="black" d="M599.41,-46.42C574.3,-32.83 541.74,-15.2 529.98,-8.83"/>
<text xml:space="preserve" text-anchor="middle" x="594.16" y="-49.12" font-family="monospace" font-size="9.00">t1</text>
</g>
<!-- R9 -->
<g id="node21" class="node">
<title>R9</title>
<polygon fill="none" stroke="black" points="448.5,-82.8 366.5,-82.8 366.5,-46.8 448.5,-46.8 448.5,-82.8"/>
<text xml:space="preserve" text-anchor="middle" x="407.5" y="-60.12" font-family="monospace" font-size="14.00">R9\n470Ω</text>
</g>
<!-- R9&#45;&gt;gnd -->
<g id="edge50" class="edge">
<title>R9&#45;&gt;gnd</title>
<path fill="none" stroke="black" d="M448.74,-48.86C451.68,-48.08 454.62,-47.38 457.5,-46.8 686.81,-0.77 749.29,-28.48 982.5,-10.8 999.81,-9.49 1020.28,-7.73 1029.93,-6.89"/>
<text xml:space="preserve" text-anchor="middle" x="443.49" y="-51.56" font-family="monospace" font-size="9.00">t2</text>
</g>
<!-- R9&#45;&gt;net_3 -->
<g id="edge49" class="edge">
<title>R9&#45;&gt;net_3</title>
<path fill="none" stroke="black" d="M370.26,-46.42C340.85,-32.7 302.62,-14.85 289.31,-8.65"/>
<text xml:space="preserve" text-anchor="middle" x="365.01" y="-49.12" font-family="monospace" font-size="9.00">t1</text>
</g>
<!-- R10 -->
<g id="node22" class="node">
<title>R10</title>
<polygon fill="none" stroke="black" points="348.62,-82.8 258.38,-82.8 258.38,-46.8 348.62,-46.8 348.62,-82.8"/>
<text xml:space="preserve" text-anchor="middle" x="303.5" y="-60.12" font-family="monospace" font-size="14.00">R10\n470Ω</text>
</g>
<!-- R10&#45;&gt;gnd -->
<g id="edge28" class="edge">
<title>R10&#45;&gt;gnd</title>
<path fill="none" stroke="black" d="M348.96,-48.62C351.84,-47.93 354.7,-47.31 357.5,-46.8 631.18,3.36 704.95,-30.31 982.5,-10.8 999.82,-9.58 1020.28,-7.78 1029.93,-6.91"/>
<text xml:space="preserve" text-anchor="middle" x="343.71" y="-51.32" font-family="monospace" font-size="9.00">t2</text>
</g>
<!-- R10&#45;&gt;net_1 -->
<g id="edge27" class="edge">
<title>R10&#45;&gt;net_1</title>
<path fill="none" stroke="black" d="M273.83,-46.42C250.85,-32.96 221.1,-15.54 209.97,-9.02"/>
<text xml:space="preserve" text-anchor="middle" x="268.58" y="-49.12" font-family="monospace" font-size="9.00">t1</text>
</g>
<!-- R11 -->
<g id="node23" class="node">
<title>R11</title>
<polygon fill="none" stroke="black" points="2595.88,-82.8 2489.12,-82.8 2489.12,-46.8 2595.88,-46.8 2595.88,-82.8"/>
<text xml:space="preserve" text-anchor="middle" x="2542.5" y="-60.12" font-family="monospace" font-size="14.00">R11\n47000Ω</text>
</g>
<!-- R11&#45;&gt;vcc -->
<g id="edge29" class="edge">
<title>R11&#45;&gt;vcc</title>
<path fill="none" stroke="black" d="M2572.87,-46.42C2601.89,-32.04 2643.06,-13.13 2658.18,-7.83"/>
<text xml:space="preserve" text-anchor="middle" x="2567.62" y="-49.12" font-family="monospace" font-size="9.00">t1</text>
</g>
<!-- R11&#45;&gt;vcc -->
<g id="edge30" class="edge">
<title>R11&#45;&gt;vcc</title>
<path fill="none" stroke="black" d="M2585.39,-46.42C2613.84,-33.49 2647.86,-16.9 2659.68,-9.83"/>
<text xml:space="preserve" text-anchor="middle" x="2580.14" y="-49.12" font-family="monospace" font-size="9.00">t2</text>
</g>
<!-- R12 -->
<g id="node24" class="node">
<title>R12</title>
<polygon fill="none" stroke="black" points="2712.75,-82.8 2614.25,-82.8 2614.25,-46.8 2712.75,-46.8 2712.75,-82.8"/>
<text xml:space="preserve" text-anchor="middle" x="2663.5" y="-60.12" font-family="monospace" font-size="14.00">R12\n4700Ω</text>
</g>
<!-- R12&#45;&gt;vcc -->
<g id="edge31" class="edge">
<title>R12&#45;&gt;vcc</title>
<path fill="none" stroke="black" d="M2657.25,-46.58C2656.06,-33.63 2656.99,-16.96 2660.07,-9.85"/>
<text xml:space="preserve" text-anchor="middle" x="2652" y="-49.28" font-family="monospace" font-size="9.00">t1</text>
</g>
<!-- R12&#45;&gt;vcc -->
<g id="edge32" class="edge">
<title>R12&#45;&gt;vcc</title>
<path fill="none" stroke="black" d="M2669.75,-46.58C2670.94,-33.63 2670.01,-16.96 2666.93,-9.85"/>
<text xml:space="preserve" text-anchor="middle" x="2664.5" y="-49.28" font-family="monospace" font-size="9.00">t2</text>
</g>
<!-- C1 -->
<g id="node25" class="node">
<title>C1</title>
<polygon fill="none" stroke="black" points="2829.75,-82.8 2731.25,-82.8 2731.25,-46.8 2829.75,-46.8 2829.75,-82.8"/>
<text xml:space="preserve" text-anchor="middle" x="2780.5" y="-60.12" font-family="monospace" font-size="14.00">C1\n1e&#45;07F</text>
</g>
<!-- C1&#45;&gt;vcc -->
<g id="edge1" class="edge">
<title>C1&#45;&gt;vcc</title>
<path fill="none" stroke="black" d="M2738.82,-46.42C2711.27,-33.49 2678.41,-16.9 2667.08,-9.83"/>
<text xml:space="preserve" text-anchor="middle" x="2733.57" y="-49.12" font-family="monospace" font-size="9.00">t1</text>
</g>
<!-- C1&#45;&gt;vcc -->
<g id="edge2" class="edge">
<title>C1&#45;&gt;vcc</title>
<path fill="none" stroke="black" d="M2751.34,-46.42C2723.32,-32.04 2683.47,-13.13 2668.72,-7.83"/>
<text xml:space="preserve" text-anchor="middle" x="2746.09" y="-49.12" font-family="monospace" font-size="9.00">t2</text>
</g>
<!-- C2 -->
<g id="node26" class="node">
<title>C2</title>
<polygon fill="none" stroke="black" points="2946.75,-82.8 2848.25,-82.8 2848.25,-46.8 2946.75,-46.8 2946.75,-82.8"/>
<text xml:space="preserve" text-anchor="middle" x="2897.5" y="-60.12" font-family="monospace" font-size="14.00">C2\n1e&#45;08F</text>
</g>
<!-- C2&#45;&gt;vcc -->
<g id="edge3" class="edge">
<title>C2&#45;&gt;vcc</title>
<path fill="none" stroke="black" d="M2848.06,-51.81C2841.79,-50.07 2835.48,-48.35 2829.5,-46.8 2766.42,-30.44 2689.7,-13.87 2668.55,-8.33"/>
<text xml:space="preserve" text-anchor="middle" x="2842.81" y="-54.51" font-family="monospace" font-size="9.00">t1</text>
</g>
<!-- C2&#45;&gt;vcc -->
<g id="edge4" class="edge">
<title>C2&#45;&gt;vcc</title>
<path fill="none" stroke="black" d="M2847.81,-46.88C2847.71,-46.85 2847.6,-46.83 2847.5,-46.8 2778.08,-28.8 2692.14,-10.53 2668.87,-7.01"/>
<text xml:space="preserve" text-anchor="middle" x="2842.56" y="-49.58" font-family="monospace" font-size="9.00">t2</text>
</g>
<!-- R13 -->
<g id="node27" class="node">
<title>R13</title>
<polygon fill="none" stroke="black" points="3071.88,-82.8 2965.12,-82.8 2965.12,-46.8 3071.88,-46.8 3071.88,-82.8"/>
<text xml:space="preserve" text-anchor="middle" x="3018.5" y="-60.12" font-family="monospace" font-size="14.00">R13\n10000Ω</text>
</g>
<!-- R13&#45;&gt;vcc -->
<g id="edge33" class="edge">
<title>R13&#45;&gt;vcc</title>
<path fill="none" stroke="black" d="M2964.66,-50.94C2958.53,-49.43 2952.38,-48 2946.5,-46.8 2835.66,-24.27 2698.58,-10.53 2668.96,-7.2"/>
<text xml:space="preserve" text-anchor="middle" x="2959.41" y="-53.64" font-family="monospace" font-size="9.00">t1</text>
</g>
<!-- R13&#45;&gt;vcc -->
<g id="edge34" class="edge">
<title>R13&#45;&gt;vcc</title>
<path fill="none" stroke="black" d="M2964.83,-46.87C2964.72,-46.85 2964.61,-46.82 2964.5,-46.8 2847.14,-22.95 2700.36,-8.95 2669.13,-6.72"/>
<text xml:space="preserve" text-anchor="middle" x="2959.58" y="-38.32" font-family="monospace" font-size="9.00">t2</text>
</g>
</g>
</svg>
