<?xml version="1.0" encoding="UTF-8" standalone="no"?>
<!DOCTYPE svg PUBLIC "-//W3C//DTD SVG 1.1//EN"
 "http://www.w3.org/Graphics/SVG/1.1/DTD/svg11.dtd">
<!-- Generated by graphviz version 14.1.5 (20260411.2331)
 -->
<!-- Title: Isolated RS&#45;232 Pages: 1 -->
<svg width="1107pt" height="131pt"
 viewBox="0.00 0.00 1107.00 131.00" xmlns="http://www.w3.org/2000/svg" xmlns:xlink="http://www.w3.org/1999/xlink">
<g id="graph0" class="graph" transform="scale(1 1) rotate(0) translate(4 127.3)">
<title>Isolated RS&#45;232</title>
<polygon fill="white" stroke="none" points="-4,4 -4,-127.3 1103,-127.3 1103,4 -4,4"/>
<g id="clust1" class="cluster">
<title>cluster_A1</title>
<path fill="none" stroke="black" d="M20,-38.8C20,-38.8 1079,-38.8 1079,-38.8 1085,-38.8 1091,-44.8 1091,-50.8 1091,-50.8 1091,-103.3 1091,-103.3 1091,-109.3 1085,-115.3 1079,-115.3 1079,-115.3 20,-115.3 20,-115.3 14,-115.3 8,-109.3 8,-103.3 8,-103.3 8,-50.8 8,-50.8 8,-44.8 14,-38.8 20,-38.8"/>
<text xml:space="preserve" text-anchor="middle" x="549.5" y="-98" font-family="Times,serif" font-size="14.00">A1: Isolated RS&#45;232 Rev A</text>
</g>
<!-- U1 -->
<g id="node1" class="node">
<title>U1</title>
<polygon fill="none" stroke="black" points="131.5,-82.8 16.5,-82.8 16.5,-46.8 131.5,-46.8 131.5,-82.8"/>
<text xml:space="preserve" text-anchor="middle" x="74" y="-60.12" font-family="monospace" font-size="14.00">U1\nISOW7841</text>
</g>
<!-- net_11 -->
<g id="node13" class="node">
<title>net_11</title>
<ellipse fill="none" stroke="black" cx="159" cy="-5.4" rx="5.4" ry="5.4"/>
</g>
<!-- U1&#45;&gt;net_11 -->
<g id="edge17" class="edge">
<title>U1&#45;&gt;net_11</title>
<path fill="none" stroke="black" d="M99.5,-46.58C119.26,-33.24 144.88,-15.93 154.81,-9.23"/>
<text xml:space="preserve" text-anchor="middle" x="89" y="-38.03" font-family="monospace" font-size="9.00">OUTA</text>
</g>
<!-- net_12 -->
<g id="node14" class="node">
<title>net_12</title>
<ellipse fill="none" stroke="black" cx="122" cy="-5.4" rx="5.4" ry="5.4"/>
</g>
<!-- U1&#45;&gt;net_12 -->
<g id="edge16" class="edge">
<title>U1&#45;&gt;net_12</title>
<path fill="none" stroke="black" d="M88.4,-46.58C99.01,-33.9 112.6,-17.64 118.74,-10.3"/>
<text xml:space="preserve" text-anchor="middle" x="80.53" y="-38.03" font-family="monospace" font-size="9.00">IND</text>
</g>
<!-- net_2 -->
<g id="node15" class="node">
<title>net_2</title>
<ellipse fill="none" stroke="black" cx="83" cy="-5.4" rx="5.4" ry="5.4"/>
</g>
<!-- U1&#45;&gt;net_2 -->
<g id="edge15" class="edge">
<title>U1&#45;&gt;net_2</title>
<path fill="none" stroke="black" d="M76.7,-46.58C78.65,-34.16 81.13,-18.31 82.31,-10.77"/>
<text xml:space="preserve" text-anchor="middle" x="68.83" y="-38.03" font-family="monospace" font-size="9.00">INA</text>
</g>
<!-- net_3 -->
<g id="node16" class="node">
<title>net_3</title>
<ellipse fill="none" stroke="black" cx="54" cy="-5.4" rx="5.4" ry="5.4"/>
</g>
<!-- U1&#45;&gt;net_3 -->
<g id="edge18" class="edge">
<title>U1&#45;&gt;net_3</title>
<path fill="none" stroke="black" d="M68,-46.58C63.67,-34.16 58.15,-18.31 55.52,-10.77"/>
<text xml:space="preserve" text-anchor="middle" x="57.5" y="-38.03" font-family="monospace" font-size="9.00">OUTD</text>
</g>
<!-- U2 -->
<g id="node2" class="node">
<title>U2</title>
<polygon fill="none" stroke="black" points="264.5,-82.8 149.5,-82.8 149.5,-46.8 264.5,-46.8 264.5,-82.8"/>
<text xml:space="preserve" text-anchor="middle" x="207" y="-60.12" font-family="monospace" font-size="14.00">U2\nTRS3122E</text>
</g>
<!-- net_0 -->
<g id="node10" class="node">
<title>net_0</title>
<ellipse fill="none" stroke="black" cx="221" cy="-5.4" rx="5.4" ry="5.4"/>
</g>
<!-- U2&#45;&gt;net_0 -->
<g id="edge22" class="edge">
<title>U2&#45;&gt;net_0</title>
<path fill="none" stroke="black" d="M211.2,-46.58C214.23,-34.16 218.09,-18.31 219.93,-10.77"/>
<text xml:space="preserve" text-anchor="middle" x="198.08" y="-38.03" font-family="monospace" font-size="9.00">TOUT1</text>
</g>
<!-- net_1 -->
<g id="node11" class="node">
<title>net_1</title>
<ellipse fill="none" stroke="black" cx="192" cy="-5.4" rx="5.4" ry="5.4"/>
</g>
<!-- U2&#45;&gt;net_1 -->
<g id="edge19" class="edge">
<title>U2&#45;&gt;net_1</title>
<path fill="none" stroke="black" d="M202.5,-46.58C199.25,-34.16 195.11,-18.31 193.14,-10.77"/>
<text xml:space="preserve" text-anchor="middle" x="213" y="-38.03" font-family="monospace" font-size="9.00">RIN1</text>
</g>
<!-- U2&#45;&gt;net_11 -->
<g id="edge21" class="edge">
<title>U2&#45;&gt;net_11</title>
<path fill="none" stroke="black" d="M192.6,-46.58C181.99,-33.9 168.4,-17.64 162.26,-10.3"/>
<text xml:space="preserve" text-anchor="middle" x="182.1" y="-38.03" font-family="monospace" font-size="9.00">TIN1</text>
</g>
<!-- U2&#45;&gt;net_12 -->
<g id="edge20" class="edge">
<title>U2&#45;&gt;net_12</title>
<path fill="none" stroke="black" d="M181.5,-46.58C161.74,-33.24 136.12,-15.93 126.19,-9.23"/>
<text xml:space="preserve" text-anchor="middle" x="168.37" y="-38.03" font-family="monospace" font-size="9.00">ROUT1</text>
</g>
<!-- C1 -->
<g id="node3" class="node">
<title>C1</title>
<polygon fill="none" stroke="black" points="381.25,-82.8 282.75,-82.8 282.75,-46.8 381.25,-46.8 381.25,-82.8"/>
<text xml:space="preserve" text-anchor="middle" x="332" y="-60.12" font-family="monospace" font-size="14.00">C1\n1e&#45;07F</text>
</g>
<!-- net_10 -->
<g id="node12" class="node">
<title>net_10</title>
<ellipse fill="none" stroke="black" cx="332" cy="-5.4" rx="5.4" ry="5.4"/>
</g>
<!-- C1&#45;&gt;net_10 -->
<g id="edge1" class="edge">
<title>C1&#45;&gt;net_10</title>
<path fill="none" stroke="black" d="M325.75,-46.58C324.56,-33.63 325.49,-16.96 328.57,-9.85"/>
<text xml:space="preserve" text-anchor="middle" x="320.5" y="-38.03" font-family="monospace" font-size="9.00">t1</text>
</g>
<!-- C1&#45;&gt;net_10 -->
<g id="edge2" class="edge">
<title>C1&#45;&gt;net_10</title>
<path fill="none" stroke="black" d="M338.25,-46.58C339.44,-33.63 338.51,-16.96 335.43,-9.85"/>
<text xml:space="preserve" text-anchor="middle" x="333" y="-38.03" font-family="monospace" font-size="9.00">t2</text>
</g>
<!-- C2 -->
<g id="node4" class="node">
<title>C2</title>
<polygon fill="none" stroke="black" points="498.25,-82.8 399.75,-82.8 399.75,-46.8 498.25,-46.8 498.25,-82.8"/>
<text xml:space="preserve" text-anchor="middle" x="449" y="-60.12" font-family="monospace" font-size="14.00">C2\n1e&#45;05F</text>
</g>
<!-- net_9 -->
<g id="node22" class="node">
<title>net_9</title>
<ellipse fill="none" stroke="black" cx="449" cy="-5.4" rx="5.4" ry="5.4"/>
</g>
<!-- C2&#45;&gt;net_9 -->
<g id="edge3" class="edge">
<title>C2&#45;&gt;net_9</title>
<path fill="none" stroke="black" d="M442.75,-46.58C441.56,-33.63 442.49,-16.96 445.57,-9.85"/>
<text xml:space="preserve" text-anchor="middle" x="437.5" y="-38.03" font-family="monospace" font-size="9.00">t1</text>
</g>
<!-- C2&#45;&gt;net_9 -->
<g id="edge4" class="edge">
<title>C2&#45;&gt;net_9</title>
<path fill="none" stroke="black" d="M455.25,-46.58C456.44,-33.63 455.51,-16.96 452.43,-9.85"/>
<text xml:space="preserve" text-anchor="middle" x="450" y="-38.03" font-family="monospace" font-size="9.00">t2</text>
</g>
<!-- C3 -->
<g id="node5" class="node">
<title>C3</title>
<polygon fill="none" stroke="black" points="615.25,-82.8 516.75,-82.8 516.75,-46.8 615.25,-46.8 615.25,-82.8"/>
<text xml:space="preserve" text-anchor="middle" x="566" y="-60.12" font-family="monospace" font-size="14.00">C3\n1e&#45;07F</text>
</g>
<!-- net_8 -->
<g id="node21" class="node">
<title>net_8</title>
<ellipse fill="none" stroke="black" cx="566" cy="-5.4" rx="5.4" ry="5.4"/>
</g>
<!-- C3&#45;&gt;net_8 -->
<g id="edge5" class="edge">
<title>C3&#45;&gt;net_8</title>
<path fill="none" stroke="black" d="M559.75,-46.58C558.56,-33.63 559.49,-16.96 562.57,-9.85"/>
<text xml:space="preserve" text-anchor="middle" x="554.5" y="-38.03" font-family="monospace" font-size="9.00">t1</text>
</g>
<!-- C3&#45;&gt;net_8 -->
<g id="edge6" class="edge">
<title>C3&#45;&gt;net_8</title>
<path fill="none" stroke="black" d="M572.25,-46.58C573.44,-33.63 572.51,-16.96 569.43,-9.85"/>
<text xml:space="preserve" text-anchor="middle" x="567" y="-38.03" font-family="monospace" font-size="9.00">t2</text>
</g>
<!-- C4 -->
<g id="node6" class="node">
<title>C4</title>
<polygon fill="none" stroke="black" points="732.25,-82.8 633.75,-82.8 633.75,-46.8 732.25,-46.8 732.25,-82.8"/>
<text xml:space="preserve" text-anchor="middle" x="683" y="-60.12" font-family="monospace" font-size="14.00">C4\n1e&#45;07F</text>
</g>
<!-- net_7 -->
<g id="node20" class="node">
<title>net_7</title>
<ellipse fill="none" stroke="black" cx="683" cy="-5.4" rx="5.4" ry="5.4"/>
</g>
<!-- C4&#45;&gt;net_7 -->
<g id="edge7" class="edge">
<title>C4&#45;&gt;net_7</title>
<path fill="none" stroke="black" d="M676.75,-46.58C675.56,-33.63 676.49,-16.96 679.57,-9.85"/>
<text xml:space="preserve" text-anchor="middle" x="671.5" y="-38.03" font-family="monospace" font-size="9.00">t1</text>
</g>
<!-- C4&#45;&gt;net_7 -->
<g id="edge8" class="edge">
<title>C4&#45;&gt;net_7</title>
<path fill="none" stroke="black" d="M689.25,-46.58C690.44,-33.63 689.51,-16.96 686.43,-9.85"/>
<text xml:space="preserve" text-anchor="middle" x="684" y="-38.03" font-family="monospace" font-size="9.00">t2</text>
</g>
<!-- C5 -->
<g id="node7" class="node">
<title>C5</title>
<polygon fill="none" stroke="black" points="849.25,-82.8 750.75,-82.8 750.75,-46.8 849.25,-46.8 849.25,-82.8"/>
<text xml:space="preserve" text-anchor="middle" x="800" y="-60.12" font-family="monospace" font-size="14.00">C5\n1e&#45;07F</text>
</g>
<!-- net_6 -->
<g id="node19" class="node">
<title>net_6</title>
<ellipse fill="none" stroke="black" cx="800" cy="-5.4" rx="5.4" ry="5.4"/>
</g>
<!-- C5&#45;&gt;net_6 -->
<g id="edge9" class="edge">
<title>C5&#45;&gt;net_6</title>
<path fill="none" stroke="black" d="M793.75,-46.58C792.56,-33.63 793.49,-16.96 796.57,-9.85"/>
<text xml:space="preserve" text-anchor="middle" x="788.5" y="-38.03" font-family="monospace" font-size="9.00">t1</text>
</g>
<!-- C5&#45;&gt;net_6 -->
<g id="edge10" class="edge">
<title>C5&#45;&gt;net_6</title>
<path fill="none" stroke="black" d="M806.25,-46.58C807.44,-33.63 806.51,-16.96 803.43,-9.85"/>
<text xml:space="preserve" text-anchor="middle" x="801" y="-38.03" font-family="monospace" font-size="9.00">t2</text>
</g>
<!-- C6 -->
<g id="node8" class="node">
<title>C6</title>
<polygon fill="none" stroke="black" points="966.25,-82.8 867.75,-82.8 867.75,-46.8 966.25,-46.8 966.25,-82.8"/>
<text xml:space="preserve" text-anchor="middle" x="917" y="-60.12" font-family="monospace" font-size="14.00">C6\n1e&#45;07F</text>
</g>
<!-- net_5 -->
<g id="node18" class="node">
<title>net_5</title>
<ellipse fill="none" stroke="black" cx="917" cy="-5.4" rx="5.4" ry="5.4"/>
</g>
<!-- C6&#45;&gt;net_5 -->
<g id="edge11" class="edge">
<title>C6&#45;&gt;net_5</title>
<path fill="none" stroke="black" d="M910.75,-46.58C909.56,-33.63 910.49,-16.96 913.57,-9.85"/>
<text xml:space="preserve" text-anchor="middle" x="905.5" y="-38.03" font-family="monospace" font-size="9.00">t1</text>
</g>
<!-- C6&#45;&gt;net_5 -->
<g id="edge12" class="edge">
<title>C6&#45;&gt;net_5</title>
<path fill="none" stroke="black" d="M923.25,-46.58C924.44,-33.63 923.51,-16.96 920.43,-9.85"/>
<text xml:space="preserve" text-anchor="middle" x="918" y="-38.03" font-family="monospace" font-size="9.00">t2</text>
</g>
<!-- C7 -->
<g id="node9" class="node">
<title>C7</title>
<polygon fill="none" stroke="black" points="1083.25,-82.8 984.75,-82.8 984.75,-46.8 1083.25,-46.8 1083.25,-82.8"/>
<text xml:space="preserve" text-anchor="middle" x="1034" y="-60.12" font-family="monospace" font-size="14.00">C7\n1e&#45;07F</text>
</g>
<!-- net_4 -->
<g id="node17" class="node">
<title>net_4</title>
<ellipse fill="none" stroke="black" cx="1034" cy="-5.4" rx="5.4" ry="5.4"/>
</g>
<!-- C7&#45;&gt;net_4 -->
<g id="edge13" class="edge">
<title>C7&#45;&gt;net_4</title>
<path fill="none" stroke="black" d="M1027.75,-46.58C1026.56,-33.63 1027.49,-16.96 1030.57,-9.85"/>
<text xml:space="preserve" text-anchor="middle" x="1022.5" y="-38.03" font-family="monospace" font-size="9.00">t1</text>
</g>
<!-- C7&#45;&gt;net_4 -->
<g id="edge14" class="edge">
<title>C7&#45;&gt;net_4</title>
<path fill="none" stroke="black" d="M1040.25,-46.58C1041.44,-33.63 1040.51,-16.96 1037.43,-9.85"/>
<text xml:space="preserve" text-anchor="middle" x="1035" y="-38.03" font-family="monospace" font-size="9.00">t2</text>
</g>
</g>
</svg>
