<?xml version="1.0" encoding="UTF-8" standalone="no"?>
<!DOCTYPE svg PUBLIC "-//W3C//DTD SVG 1.1//EN"
 "http://www.w3.org/Graphics/SVG/1.1/DTD/svg11.dtd">
<!-- Generated by graphviz version 14.1.5 (20260411.2331)
 -->
<!-- Title: Isolated RS&#45;232 Pages: 1 -->
<svg width="1107pt" height="131pt"
 viewBox="0.00 0.00 1107.00 131.00" xmlns="http://www.w3.org/2000/svg" xmlns:xlink="http://www.w3.org/1999/xlink">
<g id="graph0" class="graph" transform="scale(1 1) rotate(0) translate(4 127.3)">
<title>Isolated RS&#45;232</title>
<polygon fill="white" stroke="none" points="-4,4 -4,-127.3 1103,-127.3 1103,4 -4,4"/>
<g id="clust1" class="cluster">
<title>cluster_A1</title>
<path fill="none" stroke="black" d="M20,-38.8C20,-38.8 1079,-38.8 1079,-38.8 1085,-38.8 1091,-44.8 1091,-50.8 1091,-50.8 1091,-103.3 1091,-103.3 1091,-109.3 1085,-115.3 1079,-115.3 1079,-115.3 20,-115.3 20,-115.3 14,-115.3 8,-109.3 8,-103.3 8,-103.3 8,-50.8 8,-50.8 8,-44.8 14,-38.8 20,-38.8"/>
<text xml:space="preserve" text-anchor="middle" x="549.5" y="-98" font-family="Times,serif" font-size="14.00">A1: Isolated RS&#45;232 Rev A</text>
</g>
<!-- U1 -->
<g id="node1" class="node">
<title>U1</title>
<polygon fill="none" stroke="black" points="131.5,-82.8 16.5,-82.8 16.5,-46.8 131.5,-46.8 131.5,-82.8"/>
<text xml:space="preserve" text-anchor="middle" x="74" y="-60.12" font-family="monospace" font-size="14.00">U1\nISOW7841</text>
</g>
<!-- net_2 -->
<g id="node12" class="node">
<title>net_2</title>
<ellipse fill="none" stroke="black" cx="47" cy="-5.4" rx="5.4" ry="5.4"/>
</g>
<!-- U1&#45;&gt;net_2 -->
<g id="edge1" class="edge">
<title>U1&#45;&gt;net_2</title>
<path fill="none" stroke="black" d="M65.9,-46.58C60.06,-34.16 52.6,-18.31 49.06,-10.77"/>
<text xml:space="preserve" text-anchor="middle" x="58.02" y="-38.03" font-family="monospace" font-size="9.00">INA</text>
</g>
<!-- net_3 -->
<g id="node13" class="node">
<title>net_3</title>
<ellipse fill="none" stroke="black" cx="76" cy="-5.4" rx="5.4" ry="5.4"/>
</g>
<!-- U1&#45;&gt;net_3 -->
<g id="edge4" class="edge">
<title>U1&#45;&gt;net_3</title>
<path fill="none" stroke="black" d="M74.6,-46.58C75.02,-34.43 75.56,-18.99 75.83,-11.26"/>
<text xml:space="preserve" text-anchor="middle" x="85.1" y="-38.03" font-family="monospace" font-size="9.00">OUTD</text>
</g>
<!-- net_4 -->
<g id="node14" class="node">
<title>net_4</title>
<ellipse fill="none" stroke="black" cx="122" cy="-5.4" rx="5.4" ry="5.4"/>
</g>
<!-- U1&#45;&gt;net_4 -->
<g id="edge3" class="edge">
<title>U1&#45;&gt;net_4</title>
<path fill="none" stroke="black" d="M88.4,-46.58C99.01,-33.9 112.6,-17.64 118.74,-10.3"/>
<text xml:space="preserve" text-anchor="middle" x="98.9" y="-38.03" font-family="monospace" font-size="9.00">OUTA</text>
</g>
<!-- net_5 -->
<g id="node15" class="node">
<title>net_5</title>
<ellipse fill="none" stroke="black" cx="159" cy="-5.4" rx="5.4" ry="5.4"/>
</g>
<!-- U1&#45;&gt;net_5 -->
<g id="edge2" class="edge">
<title>U1&#45;&gt;net_5</title>
<path fill="none" stroke="black" d="M99.5,-46.58C119.26,-33.24 144.88,-15.93 154.81,-9.23"/>
<text xml:space="preserve" text-anchor="middle" x="107.38" y="-38.03" font-family="monospace" font-size="9.00">IND</text>
</g>
<!-- U2 -->
<g id="node2" class="node">
<title>U2</title>
<polygon fill="none" stroke="black" points="264.5,-82.8 149.5,-82.8 149.5,-46.8 264.5,-46.8 264.5,-82.8"/>
<text xml:space="preserve" text-anchor="middle" x="207" y="-60.12" font-family="monospace" font-size="14.00">U2\nTRS3122E</text>
</g>
<!-- net_0 -->
<g id="node10" class="node">
<title>net_0</title>
<ellipse fill="none" stroke="black" cx="192" cy="-5.4" rx="5.4" ry="5.4"/>
</g>
<!-- U2&#45;&gt;net_0 -->
<g id="edge8" class="edge">
<title>U2&#45;&gt;net_0</title>
<path fill="none" stroke="black" d="M202.5,-46.58C199.25,-34.16 195.11,-18.31 193.14,-10.77"/>
<text xml:space="preserve" text-anchor="middle" x="189.37" y="-38.03" font-family="monospace" font-size="9.00">TOUT1</text>
</g>
<!-- net_1 -->
<g id="node11" class="node">
<title>net_1</title>
<ellipse fill="none" stroke="black" cx="221" cy="-5.4" rx="5.4" ry="5.4"/>
</g>
<!-- U2&#45;&gt;net_1 -->
<g id="edge5" class="edge">
<title>U2&#45;&gt;net_1</title>
<path fill="none" stroke="black" d="M211.2,-46.58C214.23,-34.16 218.09,-18.31 219.93,-10.77"/>
<text xml:space="preserve" text-anchor="middle" x="221.7" y="-38.03" font-family="monospace" font-size="9.00">RIN1</text>
</g>
<!-- U2&#45;&gt;net_4 -->
<g id="edge7" class="edge">
<title>U2&#45;&gt;net_4</title>
<path fill="none" stroke="black" d="M181.5,-46.58C161.74,-33.24 136.12,-15.93 126.19,-9.23"/>
<text xml:space="preserve" text-anchor="middle" x="171" y="-38.03" font-family="monospace" font-size="9.00">TIN1</text>
</g>
<!-- U2&#45;&gt;net_5 -->
<g id="edge6" class="edge">
<title>U2&#45;&gt;net_5</title>
<path fill="none" stroke="black" d="M192.6,-46.58C181.99,-33.9 168.4,-17.64 162.26,-10.3"/>
<text xml:space="preserve" text-anchor="middle" x="205.72" y="-38.03" font-family="monospace" font-size="9.00">ROUT1</text>
</g>
<!-- C1 -->
<g id="node3" class="node">
<title>C1</title>
<polygon fill="none" stroke="black" points="381.25,-82.8 282.75,-82.8 282.75,-46.8 381.25,-46.8 381.25,-82.8"/>
<text xml:space="preserve" text-anchor="middle" x="332" y="-60.12" font-family="monospace" font-size="14.00">C1\n1e&#45;07F</text>
</g>
<!-- C2 -->
<g id="node4" class="node">
<title>C2</title>
<polygon fill="none" stroke="black" points="498.25,-82.8 399.75,-82.8 399.75,-46.8 498.25,-46.8 498.25,-82.8"/>
<text xml:space="preserve" text-anchor="middle" x="449" y="-60.12" font-family="monospace" font-size="14.00">C2\n1e&#45;05F</text>
</g>
<!-- C3 -->
<g id="node5" class="node">
<title>C3</title>
<polygon fill="none" stroke="black" points="615.25,-82.8 516.75,-82.8 516.75,-46.8 615.25,-46.8 615.25,-82.8"/>
<text xml:space="preserve" text-anchor="middle" x="566" y="-60.12" font-family="monospace" font-size="14.00">C3\n1e&#45;07F</text>
</g>
<!-- C4 -->
<g id="node6" class="node">
<title>C4</title>
<polygon fill="none" stroke="black" points="732.25,-82.8 633.75,-82.8 633.75,-46.8 732.25,-46.8 732.25,-82.8"/>
<text xml:space="preserve" text-anchor="middle" x="683" y="-60.12" font-family="monospace" font-size="14.00">C4\n1e&#45;07F</text>
</g>
<!-- C5 -->
<g id="node7" class="node">
<title>C5</title>
<polygon fill="none" stroke="black" points="849.25,-82.8 750.75,-82.8 750.75,-46.8 849.25,-46.8 849.25,-82.8"/>
<text xml:space="preserve" text-anchor="middle" x="800" y="-60.12" font-family="monospace" font-size="14.00">C5\n1e&#45;07F</text>
</g>
<!-- C6 -->
<g id="node8" class="node">
<title>C6</title>
<polygon fill="none" stroke="black" points="966.25,-82.8 867.75,-82.8 867.75,-46.8 966.25,-46.8 966.25,-82.8"/>
<text xml:space="preserve" text-anchor="middle" x="917" y="-60.12" font-family="monospace" font-size="14.00">C6\n1e&#45;07F</text>
</g>
<!-- C7 -->
<g id="node9" class="node">
<title>C7</title>
<polygon fill="none" stroke="black" points="1083.25,-82.8 984.75,-82.8 984.75,-46.8 1083.25,-46.8 1083.25,-82.8"/>
<text xml:space="preserve" text-anchor="middle" x="1034" y="-60.12" font-family="monospace" font-size="14.00">C7\n1e&#45;07F</text>
</g>
</g>
</svg>
