<?xml version="1.0" encoding="UTF-8" standalone="no"?>
<!DOCTYPE svg PUBLIC "-//W3C//DTD SVG 1.1//EN"
 "http://www.w3.org/Graphics/SVG/1.1/DTD/svg11.dtd">
<!-- Generated by graphviz version 14.1.5 (20260411.2331)
 -->
<!-- Title: HelloLED Pages: 1 -->
<svg width="214pt" height="91pt"
 viewBox="0.00 0.00 214.00 91.00" xmlns="http://www.w3.org/2000/svg" xmlns:xlink="http://www.w3.org/1999/xlink">
<g id="graph0" class="graph" transform="scale(1 1) rotate(0) translate(4 86.8)">
<title>HelloLED</title>
<polygon fill="white" stroke="none" points="-4,4 -4,-86.8 210.38,-86.8 210.38,4 -4,4"/>
<!-- R1 -->
<g id="node1" class="node">
<title>R1</title>
<polygon fill="none" stroke="black" points="82,-82.8 0,-82.8 0,-46.8 82,-46.8 82,-82.8"/>
<text xml:space="preserve" text-anchor="middle" x="41" y="-60.12" font-family="monospace" font-size="14.00">R1\n330Ω</text>
</g>
<!-- net_0 -->
<g id="node4" class="node">
<title>net_0</title>
<ellipse fill="none" stroke="black" cx="97" cy="-5.4" rx="5.4" ry="5.4"/>
</g>
<!-- R1&#45;&gt;net_0 -->
<g id="edge4" class="edge">
<title>R1&#45;&gt;net_0</title>
<path fill="none" stroke="black" d="M57.8,-46.58C70.43,-33.63 86.7,-16.96 93.63,-9.85"/>
<text xml:space="preserve" text-anchor="middle" x="52.55" y="-38.03" font-family="monospace" font-size="9.00">t2</text>
</g>
<!-- vcc -->
<g id="node5" class="node">
<title>vcc</title>
<ellipse fill="none" stroke="black" cx="41" cy="-5.4" rx="5.4" ry="5.4"/>
</g>
<!-- R1&#45;&gt;vcc -->
<g id="edge3" class="edge">
<title>R1&#45;&gt;vcc</title>
<path fill="none" stroke="black" d="M41,-46.58C41,-34.43 41,-18.99 41,-11.26"/>
<text xml:space="preserve" text-anchor="middle" x="35.75" y="-38.03" font-family="monospace" font-size="9.00">t1</text>
</g>
<!-- D1 -->
<g id="node2" class="node">
<title>D1</title>
<polygon fill="none" stroke="black" points="206.38,-82.8 99.62,-82.8 99.62,-46.8 206.38,-46.8 206.38,-82.8"/>
<text xml:space="preserve" text-anchor="middle" x="153" y="-60.12" font-family="monospace" font-size="14.00">D1\nred LED</text>
</g>
<!-- gnd -->
<g id="node3" class="node">
<title>gnd</title>
<ellipse fill="none" stroke="black" cx="153" cy="-5.4" rx="5.4" ry="5.4"/>
</g>
<!-- D1&#45;&gt;gnd -->
<g id="edge2" class="edge">
<title>D1&#45;&gt;gnd</title>
<path fill="none" stroke="black" d="M153,-46.58C153,-34.43 153,-18.99 153,-11.26"/>
<text xml:space="preserve" text-anchor="middle" x="134.62" y="-38.03" font-family="monospace" font-size="9.00">cathode</text>
</g>
<!-- D1&#45;&gt;net_0 -->
<g id="edge1" class="edge">
<title>D1&#45;&gt;net_0</title>
<path fill="none" stroke="black" d="M136.2,-46.58C123.57,-33.63 107.3,-16.96 100.37,-9.85"/>
<text xml:space="preserve" text-anchor="middle" x="149.32" y="-38.03" font-family="monospace" font-size="9.00">anode</text>
</g>
</g>
</svg>
