<?xml version="1.0" encoding="UTF-8" standalone="no"?>
<!DOCTYPE svg PUBLIC "-//W3C//DTD SVG 1.1//EN"
 "http://www.w3.org/Graphics/SVG/1.1/DTD/svg11.dtd">
<!-- Generated by graphviz version 14.1.5 (20260411.2331)
 -->
<!-- Title: OneSecondTimer Pages: 1 -->
<svg width="1505pt" height="91pt"
 viewBox="0.00 0.00 1505.00 91.00" xmlns="http://www.w3.org/2000/svg" xmlns:xlink="http://www.w3.org/1999/xlink">
<g id="graph0" class="graph" transform="scale(1 1) rotate(0) translate(4 86.8)">
<title>OneSecondTimer</title>
<polygon fill="white" stroke="none" points="-4,4 -4,-86.8 1501.38,-86.8 1501.38,4 -4,4"/>
<!-- U1 -->
<g id="node1" class="node">
<title>U1</title>
<polygon fill="none" stroke="black" points="690.25,-82.8 600,-82.8 600,-46.8 690.25,-46.8 690.25,-82.8"/>
<text xml:space="preserve" text-anchor="middle" x="645.12" y="-60.12" font-family="monospace" font-size="14.00">U1\nLM741</text>
</g>
<!-- gnd -->
<g id="node14" class="node">
<title>gnd</title>
<ellipse fill="none" stroke="black" cx="616.12" cy="-5.4" rx="5.4" ry="5.4"/>
</g>
<!-- U1&#45;&gt;gnd -->
<g id="edge28" class="edge">
<title>U1&#45;&gt;gnd</title>
<path fill="none" stroke="black" d="M636.42,-46.58C630.15,-34.16 622.14,-18.31 618.33,-10.77"/>
<text xml:space="preserve" text-anchor="middle" x="623.3" y="-38.03" font-family="monospace" font-size="9.00">V_NEG</text>
</g>
<!-- net_2 -->
<g id="node17" class="node">
<title>net_2</title>
<ellipse fill="none" stroke="black" cx="674.12" cy="-5.4" rx="5.4" ry="5.4"/>
</g>
<!-- U1&#45;&gt;net_2 -->
<g id="edge27" class="edge">
<title>U1&#45;&gt;net_2</title>
<path fill="none" stroke="black" d="M653.83,-46.58C660.1,-34.16 668.11,-18.31 671.92,-10.77"/>
<text xml:space="preserve" text-anchor="middle" x="645.95" y="-38.03" font-family="monospace" font-size="9.00">OUT</text>
</g>
<!-- net_5 -->
<g id="node18" class="node">
<title>net_5</title>
<ellipse fill="none" stroke="black" cx="955.12" cy="-5.4" rx="5.4" ry="5.4"/>
</g>
<!-- U1&#45;&gt;net_5 -->
<g id="edge25" class="edge">
<title>U1&#45;&gt;net_5</title>
<path fill="none" stroke="black" d="M690.66,-48.94C693.51,-48.17 696.35,-47.45 699.12,-46.8 798.12,-23.54 921.84,-9.86 949.48,-6.98"/>
<text xml:space="preserve" text-anchor="middle" x="698.53" y="-40.39" font-family="monospace" font-size="9.00">IN_NEG</text>
</g>
<!-- net_8 -->
<g id="node21" class="node">
<title>net_8</title>
<ellipse fill="none" stroke="black" cx="340.12" cy="-5.4" rx="5.4" ry="5.4"/>
</g>
<!-- U1&#45;&gt;net_8 -->
<g id="edge26" class="edge">
<title>U1&#45;&gt;net_8</title>
<path fill="none" stroke="black" d="M599.64,-49.21C596.43,-48.34 593.24,-47.53 590.12,-46.8 493.38,-24.15 372.61,-10 345.63,-7"/>
<text xml:space="preserve" text-anchor="middle" x="591.77" y="-40.66" font-family="monospace" font-size="9.00">IN_POS</text>
</g>
<!-- vcc -->
<g id="node22" class="node">
<title>vcc</title>
<ellipse fill="none" stroke="black" cx="557.12" cy="-5.4" rx="5.4" ry="5.4"/>
</g>
<!-- U1&#45;&gt;vcc -->
<g id="edge29" class="edge">
<title>U1&#45;&gt;vcc</title>
<path fill="none" stroke="black" d="M618.72,-46.58C598.27,-33.24 571.74,-15.93 561.46,-9.23"/>
<text xml:space="preserve" text-anchor="middle" x="605.6" y="-38.03" font-family="monospace" font-size="9.00">V_POS</text>
</g>
<!-- R1 -->
<g id="node2" class="node">
<title>R1</title>
<polygon fill="none" stroke="black" points="331.5,-82.8 224.75,-82.8 224.75,-46.8 331.5,-46.8 331.5,-82.8"/>
<text xml:space="preserve" text-anchor="middle" x="278.12" y="-60.12" font-family="monospace" font-size="14.00">R1\n100000Ω</text>
</g>
<!-- R1&#45;&gt;net_8 -->
<g id="edge10" class="edge">
<title>R1&#45;&gt;net_8</title>
<path fill="none" stroke="black" d="M296.73,-46.58C310.71,-33.63 328.72,-16.96 336.39,-9.85"/>
<text xml:space="preserve" text-anchor="middle" x="291.48" y="-38.03" font-family="monospace" font-size="9.00">t2</text>
</g>
<!-- R1&#45;&gt;vcc -->
<g id="edge9" class="edge">
<title>R1&#45;&gt;vcc</title>
<path fill="none" stroke="black" d="M331.67,-49.04C334.86,-48.26 338.03,-47.51 341.12,-46.8 424.44,-27.8 527.33,-11.12 551.75,-7.25"/>
<text xml:space="preserve" text-anchor="middle" x="336.92" y="-51.74" font-family="monospace" font-size="9.00">t1</text>
</g>
<!-- R2 -->
<g id="node3" class="node">
<title>R2</title>
<polygon fill="none" stroke="black" points="456.5,-82.8 349.75,-82.8 349.75,-46.8 456.5,-46.8 456.5,-82.8"/>
<text xml:space="preserve" text-anchor="middle" x="403.12" y="-60.12" font-family="monospace" font-size="14.00">R2\n100000Ω</text>
</g>
<!-- R2&#45;&gt;gnd -->
<g id="edge12" class="edge">
<title>R2&#45;&gt;gnd</title>
<path fill="none" stroke="black" d="M456.74,-49.33C459.92,-48.47 463.06,-47.63 466.12,-46.8 522.89,-31.5 591.75,-12.96 610.94,-7.79"/>
<text xml:space="preserve" text-anchor="middle" x="461.99" y="-52.03" font-family="monospace" font-size="9.00">t2</text>
</g>
<!-- R2&#45;&gt;net_8 -->
<g id="edge11" class="edge">
<title>R2&#45;&gt;net_8</title>
<path fill="none" stroke="black" d="M384.22,-46.58C370.02,-33.63 351.71,-16.96 343.92,-9.85"/>
<text xml:space="preserve" text-anchor="middle" x="378.97" y="-38.03" font-family="monospace" font-size="9.00">t1</text>
</g>
<!-- R3 -->
<g id="node4" class="node">
<title>R3</title>
<polygon fill="none" stroke="black" points="90.25,-82.8 0,-82.8 0,-46.8 90.25,-46.8 90.25,-82.8"/>
<text xml:space="preserve" text-anchor="middle" x="45.12" y="-60.12" font-family="monospace" font-size="14.00">R3\n4700Ω</text>
</g>
<!-- net_7 -->
<g id="node20" class="node">
<title>net_7</title>
<ellipse fill="none" stroke="black" cx="101.12" cy="-5.4" rx="5.4" ry="5.4"/>
</g>
<!-- R3&#45;&gt;net_7 -->
<g id="edge14" class="edge">
<title>R3&#45;&gt;net_7</title>
<path fill="none" stroke="black" d="M61.93,-46.58C74.56,-33.63 90.82,-16.96 97.76,-9.85"/>
<text xml:space="preserve" text-anchor="middle" x="56.68" y="-38.03" font-family="monospace" font-size="9.00">t2</text>
</g>
<!-- R3&#45;&gt;net_8 -->
<g id="edge13" class="edge">
<title>R3&#45;&gt;net_8</title>
<path fill="none" stroke="black" d="M90.67,-48.97C93.52,-48.2 96.35,-47.47 99.12,-46.8 191.94,-24.52 307.77,-10.2 334.46,-7.05"/>
<text xml:space="preserve" text-anchor="middle" x="95.92" y="-51.67" font-family="monospace" font-size="9.00">t1</text>
</g>
<!-- R4 -->
<g id="node5" class="node">
<title>R4</title>
<polygon fill="none" stroke="black" points="206.38,-82.8 107.88,-82.8 107.88,-46.8 206.38,-46.8 206.38,-82.8"/>
<text xml:space="preserve" text-anchor="middle" x="157.12" y="-60.12" font-family="monospace" font-size="14.00">R4\n50000Ω</text>
</g>
<!-- R4&#45;&gt;net_2 -->
<g id="edge16" class="edge">
<title>R4&#45;&gt;net_2</title>
<path fill="none" stroke="black" d="M206.86,-48.74C209.98,-48.02 213.09,-47.36 216.12,-46.8 397.71,-13.07 446.23,-27.99 630.12,-10.8 644.04,-9.5 660.41,-7.82 668.71,-6.96"/>
<text xml:space="preserve" text-anchor="middle" x="212.11" y="-51.44" font-family="monospace" font-size="9.00">t2</text>
</g>
<!-- R4&#45;&gt;net_7 -->
<g id="edge15" class="edge">
<title>R4&#45;&gt;net_7</title>
<path fill="none" stroke="black" d="M140.32,-46.58C127.69,-33.63 111.43,-16.96 104.49,-9.85"/>
<text xml:space="preserve" text-anchor="middle" x="135.07" y="-38.03" font-family="monospace" font-size="9.00">t1</text>
</g>
<!-- R5 -->
<g id="node6" class="node">
<title>R5</title>
<polygon fill="none" stroke="black" points="1497.38,-82.8 1398.88,-82.8 1398.88,-46.8 1497.38,-46.8 1497.38,-82.8"/>
<text xml:space="preserve" text-anchor="middle" x="1448.12" y="-60.12" font-family="monospace" font-size="14.00">R5\n1e+07Ω</text>
</g>
<!-- R5&#45;&gt;net_5 -->
<g id="edge18" class="edge">
<title>R5&#45;&gt;net_5</title>
<path fill="none" stroke="black" d="M1398.39,-48.76C1395.27,-48.04 1392.16,-47.37 1389.12,-46.8 1215.87,-14.08 998.47,-7.45 960.81,-6.53"/>
<text xml:space="preserve" text-anchor="middle" x="1393.14" y="-51.46" font-family="monospace" font-size="9.00">t2</text>
</g>
<!-- net_6 -->
<g id="node19" class="node">
<title>net_6</title>
<ellipse fill="none" stroke="black" cx="1327.12" cy="-5.4" rx="5.4" ry="5.4"/>
</g>
<!-- R5&#45;&gt;net_6 -->
<g id="edge17" class="edge">
<title>R5&#45;&gt;net_6</title>
<path fill="none" stroke="black" d="M1411.49,-46.42C1382.56,-32.7 1344.95,-14.85 1331.86,-8.65"/>
<text xml:space="preserve" text-anchor="middle" x="1406.24" y="-37.87" font-family="monospace" font-size="9.00">t1</text>
</g>
<!-- R6 -->
<g id="node7" class="node">
<title>R6</title>
<polygon fill="none" stroke="black" points="1130.5,-82.8 1023.75,-82.8 1023.75,-46.8 1130.5,-46.8 1130.5,-82.8"/>
<text xml:space="preserve" text-anchor="middle" x="1077.12" y="-60.12" font-family="monospace" font-size="14.00">R6\n220000Ω</text>
</g>
<!-- R6&#45;&gt;net_2 -->
<g id="edge19" class="edge">
<title>R6&#45;&gt;net_2</title>
<path fill="none" stroke="black" d="M1023.47,-48.56C1020.66,-47.93 1017.86,-47.33 1015.12,-46.8 880.55,-20.53 712.54,-8.85 679.8,-6.75"/>
<text xml:space="preserve" text-anchor="middle" x="1018.22" y="-51.26" font-family="monospace" font-size="9.00">t1</text>
</g>
<!-- R6&#45;&gt;net_6 -->
<g id="edge20" class="edge">
<title>R6&#45;&gt;net_6</title>
<path fill="none" stroke="black" d="M1130.69,-49.15C1133.88,-48.34 1137.04,-47.55 1140.12,-46.8 1211.78,-29.4 1299.78,-11.8 1321.9,-7.43"/>
<text xml:space="preserve" text-anchor="middle" x="1135.94" y="-51.85" font-family="monospace" font-size="9.00">t2</text>
</g>
<!-- C2 -->
<g id="node8" class="node">
<title>C2</title>
<polygon fill="none" stroke="black" points="906.38,-82.8 807.88,-82.8 807.88,-46.8 906.38,-46.8 906.38,-82.8"/>
<text xml:space="preserve" text-anchor="middle" x="857.12" y="-60.12" font-family="monospace" font-size="14.00">C2\n1e&#45;07F</text>
</g>
<!-- C2&#45;&gt;gnd -->
<g id="edge4" class="edge">
<title>C2&#45;&gt;gnd</title>
<path fill="none" stroke="black" d="M807.51,-49.02C804.68,-48.25 801.87,-47.5 799.12,-46.8 729.48,-28.93 643.7,-11.8 621.55,-7.46"/>
<text xml:space="preserve" text-anchor="middle" x="802.26" y="-51.72" font-family="monospace" font-size="9.00">t2</text>
</g>
<!-- C2&#45;&gt;net_5 -->
<g id="edge3" class="edge">
<title>C2&#45;&gt;net_5</title>
<path fill="none" stroke="black" d="M886.79,-46.42C909.78,-32.96 939.52,-15.54 950.66,-9.02"/>
<text xml:space="preserve" text-anchor="middle" x="881.54" y="-37.87" font-family="monospace" font-size="9.00">t1</text>
</g>
<!-- D1 -->
<g id="node9" class="node">
<title>D1</title>
<polygon fill="none" stroke="black" points="1380.5,-82.8 1273.75,-82.8 1273.75,-46.8 1380.5,-46.8 1380.5,-82.8"/>
<text xml:space="preserve" text-anchor="middle" x="1327.12" y="-60.12" font-family="monospace" font-size="14.00">D1\nD1N4148</text>
</g>
<!-- D1&#45;&gt;net_5 -->
<g id="edge5" class="edge">
<title>D1&#45;&gt;net_5</title>
<path fill="none" stroke="black" d="M1273.28,-48.76C1270.19,-48.06 1267.12,-47.4 1264.12,-46.8 1142.62,-22.58 991.24,-9.36 960.66,-6.85"/>
<text xml:space="preserve" text-anchor="middle" x="1260.16" y="-40.21" font-family="monospace" font-size="9.00">anode</text>
</g>
<!-- D1&#45;&gt;net_6 -->
<g id="edge6" class="edge">
<title>D1&#45;&gt;net_6</title>
<path fill="none" stroke="black" d="M1327.12,-46.58C1327.12,-34.43 1327.12,-18.99 1327.12,-11.26"/>
<text xml:space="preserve" text-anchor="middle" x="1308.75" y="-38.03" font-family="monospace" font-size="9.00">cathode</text>
</g>
<!-- C1 -->
<g id="node10" class="node">
<title>C1</title>
<polygon fill="none" stroke="black" points="581.5,-82.8 474.75,-82.8 474.75,-46.8 581.5,-46.8 581.5,-82.8"/>
<text xml:space="preserve" text-anchor="middle" x="528.12" y="-60.12" font-family="monospace" font-size="14.00">C1\n0.0001F</text>
</g>
<!-- C1&#45;&gt;gnd -->
<g id="edge2" class="edge">
<title>C1&#45;&gt;gnd</title>
<path fill="none" stroke="black" d="M554.53,-46.58C574.98,-33.24 601.51,-15.93 611.79,-9.23"/>
<text xml:space="preserve" text-anchor="middle" x="549.28" y="-38.03" font-family="monospace" font-size="9.00">t2</text>
</g>
<!-- C1&#45;&gt;vcc -->
<g id="edge1" class="edge">
<title>C1&#45;&gt;vcc</title>
<path fill="none" stroke="black" d="M536.83,-46.58C543.1,-34.16 551.11,-18.31 554.92,-10.77"/>
<text xml:space="preserve" text-anchor="middle" x="531.58" y="-38.03" font-family="monospace" font-size="9.00">t1</text>
</g>
<!-- R7 -->
<g id="node11" class="node">
<title>R7</title>
<polygon fill="none" stroke="black" points="790.12,-82.8 708.12,-82.8 708.12,-46.8 790.12,-46.8 790.12,-82.8"/>
<text xml:space="preserve" text-anchor="middle" x="749.12" y="-60.12" font-family="monospace" font-size="14.00">R7\n510Ω</text>
</g>
<!-- net_0 -->
<g id="node15" class="node">
<title>net_0</title>
<ellipse fill="none" stroke="black" cx="788.12" cy="-5.4" rx="5.4" ry="5.4"/>
</g>
<!-- R7&#45;&gt;net_0 -->
<g id="edge22" class="edge">
<title>R7&#45;&gt;net_0</title>
<path fill="none" stroke="black" d="M760.83,-46.58C769.44,-33.9 780.49,-17.64 785.48,-10.3"/>
<text xml:space="preserve" text-anchor="middle" x="755.58" y="-38.03" font-family="monospace" font-size="9.00">t2</text>
</g>
<!-- R7&#45;&gt;vcc -->
<g id="edge21" class="edge">
<title>R7&#45;&gt;vcc</title>
<path fill="none" stroke="black" d="M707.71,-49.54C704.81,-48.6 701.93,-47.67 699.12,-46.8 645.79,-30.16 580.32,-12.56 562.06,-7.71"/>
<text xml:space="preserve" text-anchor="middle" x="702.46" y="-52.24" font-family="monospace" font-size="9.00">t1</text>
</g>
<!-- R8 -->
<g id="node12" class="node">
<title>R8</title>
<polygon fill="none" stroke="black" points="1006.12,-82.8 924.12,-82.8 924.12,-46.8 1006.12,-46.8 1006.12,-82.8"/>
<text xml:space="preserve" text-anchor="middle" x="965.12" y="-60.12" font-family="monospace" font-size="14.00">R8\n510Ω</text>
</g>
<!-- net_1 -->
<g id="node16" class="node">
<title>net_1</title>
<ellipse fill="none" stroke="black" cx="1083.12" cy="-5.4" rx="5.4" ry="5.4"/>
</g>
<!-- R8&#45;&gt;net_1 -->
<g id="edge23" class="edge">
<title>R8&#45;&gt;net_1</title>
<path fill="none" stroke="black" d="M1000.85,-46.42C1029.07,-32.7 1065.75,-14.85 1078.51,-8.65"/>
<text xml:space="preserve" text-anchor="middle" x="995.6" y="-37.87" font-family="monospace" font-size="9.00">t1</text>
</g>
<!-- R8&#45;&gt;net_2 -->
<g id="edge24" class="edge">
<title>R8&#45;&gt;net_2</title>
<path fill="none" stroke="black" d="M923.81,-49.18C920.88,-48.32 917.97,-47.52 915.12,-46.8 822.57,-23.47 706.54,-9.94 679.8,-7.01"/>
<text xml:space="preserve" text-anchor="middle" x="918.56" y="-51.88" font-family="monospace" font-size="9.00">t2</text>
</g>
<!-- D2 -->
<g id="node13" class="node">
<title>D2</title>
<polygon fill="none" stroke="black" points="1255.5,-82.8 1148.75,-82.8 1148.75,-46.8 1255.5,-46.8 1255.5,-82.8"/>
<text xml:space="preserve" text-anchor="middle" x="1202.12" y="-60.12" font-family="monospace" font-size="14.00">D2\nred LED</text>
</g>
<!-- D2&#45;&gt;net_0 -->
<g id="edge7" class="edge">
<title>D2&#45;&gt;net_0</title>
<path fill="none" stroke="black" d="M1148.29,-48.71C1145.2,-48.02 1142.13,-47.37 1139.12,-46.8 999.96,-20.17 826.15,-8.7 793.53,-6.72"/>
<text xml:space="preserve" text-anchor="middle" x="1135.17" y="-40.16" font-family="monospace" font-size="9.00">anode</text>
</g>
<!-- D2&#45;&gt;net_1 -->
<g id="edge8" class="edge">
<title>D2&#45;&gt;net_1</title>
<path fill="none" stroke="black" d="M1166.1,-46.42C1137.64,-32.7 1100.65,-14.85 1087.78,-8.65"/>
<text xml:space="preserve" text-anchor="middle" x="1184.47" y="-37.87" font-family="monospace" font-size="9.00">cathode</text>
</g>
</g>
</svg>
