<?xml version="1.0" encoding="UTF-8" standalone="no"?>
<!DOCTYPE svg PUBLIC "-//W3C//DTD SVG 1.1//EN"
 "http://www.w3.org/Graphics/SVG/1.1/DTD/svg11.dtd">
<!-- Generated by graphviz version 14.1.5 (20260411.2331)
 -->
<!-- Title: BLDCSystem Pages: 1 -->
<svg width="1203pt" height="131pt"
 viewBox="0.00 0.00 1203.00 131.00" xmlns="http://www.w3.org/2000/svg" xmlns:xlink="http://www.w3.org/1999/xlink">
<g id="graph0" class="graph" transform="scale(1 1) rotate(0) translate(4 127.3)">
<title>BLDCSystem</title>
<polygon fill="white" stroke="none" points="-4,4 -4,-127.3 1199.4,-127.3 1199.4,4 -4,4"/>
<g id="clust2" class="cluster">
<title>cluster_A2</title>
<path fill="none" stroke="black" d="M42.4,-38.8C42.4,-38.8 1175.4,-38.8 1175.4,-38.8 1181.4,-38.8 1187.4,-44.8 1187.4,-50.8 1187.4,-50.8 1187.4,-103.3 1187.4,-103.3 1187.4,-109.3 1181.4,-115.3 1175.4,-115.3 1175.4,-115.3 42.4,-115.3 42.4,-115.3 36.4,-115.3 30.4,-109.3 30.4,-103.3 30.4,-103.3 30.4,-50.8 30.4,-50.8 30.4,-44.8 36.4,-38.8 42.4,-38.8"/>
<text xml:space="preserve" text-anchor="middle" x="608.9" y="-98" font-family="Times,serif" font-size="14.00">A2: BLDC Controller Rev A</text>
</g>
<!-- U1 -->
<g id="node1" class="node">
<title>U1</title>
<polygon fill="none" stroke="black" points="236.15,-82.8 38.65,-82.8 38.65,-46.8 236.15,-46.8 236.15,-82.8"/>
<text xml:space="preserve" text-anchor="middle" x="137.4" y="-60.12" font-family="monospace" font-size="14.00">U1\nUno_BLDCCommutator</text>
</g>
<!-- net_15 -->
<g id="node17" class="node">
<title>net_15</title>
<ellipse fill="none" stroke="black" cx="150.4" cy="-5.4" rx="5.4" ry="5.4"/>
</g>
<!-- U1&#45;&gt;net_15 -->
<g id="edge15" class="edge">
<title>U1&#45;&gt;net_15</title>
<path fill="none" stroke="black" d="M141.3,-46.58C144.11,-34.16 147.7,-18.31 149.41,-10.77"/>
<text xml:space="preserve" text-anchor="middle" x="133.43" y="-49.28" font-family="monospace" font-size="9.00">PB0</text>
</g>
<!-- net_16 -->
<g id="node18" class="node">
<title>net_16</title>
<ellipse fill="none" stroke="black" cx="179.4" cy="-5.4" rx="5.4" ry="5.4"/>
</g>
<!-- U1&#45;&gt;net_16 -->
<g id="edge21" class="edge">
<title>U1&#45;&gt;net_16</title>
<path fill="none" stroke="black" d="M150,-46.58C159.28,-33.9 171.18,-17.64 176.55,-10.3"/>
<text xml:space="preserve" text-anchor="middle" x="142.13" y="-49.28" font-family="monospace" font-size="9.00">PD2</text>
</g>
<!-- net_17 -->
<g id="node19" class="node">
<title>net_17</title>
<ellipse fill="none" stroke="black" cx="208.4" cy="-5.4" rx="5.4" ry="5.4"/>
</g>
<!-- U1&#45;&gt;net_17 -->
<g id="edge22" class="edge">
<title>U1&#45;&gt;net_17</title>
<path fill="none" stroke="black" d="M158.7,-46.58C174.88,-33.5 195.76,-16.62 204.39,-9.64"/>
<text xml:space="preserve" text-anchor="middle" x="150.83" y="-49.28" font-family="monospace" font-size="9.00">PD3</text>
</g>
<!-- net_18 -->
<g id="node20" class="node">
<title>net_18</title>
<ellipse fill="none" stroke="black" cx="237.4" cy="-5.4" rx="5.4" ry="5.4"/>
</g>
<!-- U1&#45;&gt;net_18 -->
<g id="edge16" class="edge">
<title>U1&#45;&gt;net_18</title>
<path fill="none" stroke="black" d="M167.67,-46.42C191.13,-32.96 221.48,-15.54 232.84,-9.02"/>
<text xml:space="preserve" text-anchor="middle" x="159.8" y="-37.87" font-family="monospace" font-size="9.00">PB1</text>
</g>
<!-- net_19 -->
<g id="node21" class="node">
<title>net_19</title>
<ellipse fill="none" stroke="black" cx="266.4" cy="-5.4" rx="5.4" ry="5.4"/>
</g>
<!-- U1&#45;&gt;net_19 -->
<g id="edge23" class="edge">
<title>U1&#45;&gt;net_19</title>
<path fill="none" stroke="black" d="M176.45,-46.42C207.6,-32.56 248.17,-14.51 261.75,-8.47"/>
<text xml:space="preserve" text-anchor="middle" x="168.58" y="-49.12" font-family="monospace" font-size="9.00">PD4</text>
</g>
<!-- net_20 -->
<g id="node23" class="node">
<title>net_20</title>
<ellipse fill="none" stroke="black" cx="295.4" cy="-5.4" rx="5.4" ry="5.4"/>
</g>
<!-- U1&#45;&gt;net_20 -->
<g id="edge24" class="edge">
<title>U1&#45;&gt;net_20</title>
<path fill="none" stroke="black" d="M185.23,-46.42C224.11,-32.3 274.97,-13.82 290.62,-8.14"/>
<text xml:space="preserve" text-anchor="middle" x="177.36" y="-49.12" font-family="monospace" font-size="9.00">PD5</text>
</g>
<!-- net_21 -->
<g id="node24" class="node">
<title>net_21</title>
<ellipse fill="none" stroke="black" cx="324.4" cy="-5.4" rx="5.4" ry="5.4"/>
</g>
<!-- U1&#45;&gt;net_21 -->
<g id="edge17" class="edge">
<title>U1&#45;&gt;net_21</title>
<path fill="none" stroke="black" d="M194.27,-46.34C240.69,-32.1 301.42,-13.45 319.26,-7.98"/>
<text xml:space="preserve" text-anchor="middle" x="186.39" y="-37.79" font-family="monospace" font-size="9.00">PB2</text>
</g>
<!-- net_22 -->
<g id="node25" class="node">
<title>net_22</title>
<ellipse fill="none" stroke="black" cx="92.4" cy="-5.4" rx="5.4" ry="5.4"/>
</g>
<!-- U1&#45;&gt;net_22 -->
<g id="edge25" class="edge">
<title>U1&#45;&gt;net_22</title>
<path fill="none" stroke="black" d="M123.9,-46.58C113.96,-33.9 101.21,-17.64 95.46,-10.3"/>
<text xml:space="preserve" text-anchor="middle" x="116.02" y="-49.28" font-family="monospace" font-size="9.00">PD6</text>
</g>
<!-- net_23 -->
<g id="node26" class="node">
<title>net_23</title>
<ellipse fill="none" stroke="black" cx="121.4" cy="-5.4" rx="5.4" ry="5.4"/>
</g>
<!-- U1&#45;&gt;net_23 -->
<g id="edge26" class="edge">
<title>U1&#45;&gt;net_23</title>
<path fill="none" stroke="black" d="M132.6,-46.58C129.14,-34.16 124.72,-18.31 122.62,-10.77"/>
<text xml:space="preserve" text-anchor="middle" x="124.72" y="-49.28" font-family="monospace" font-size="9.00">PD7</text>
</g>
<!-- net_3 -->
<g id="node27" class="node">
<title>net_3</title>
<ellipse fill="none" stroke="black" cx="5.4" cy="-5.4" rx="5.4" ry="5.4"/>
</g>
<!-- U1&#45;&gt;net_3 -->
<g id="edge18" class="edge">
<title>U1&#45;&gt;net_3</title>
<path fill="none" stroke="black" d="M97.44,-46.42C65.57,-32.56 24.05,-14.51 10.16,-8.47"/>
<text xml:space="preserve" text-anchor="middle" x="89.56" y="-49.12" font-family="monospace" font-size="9.00">PC0</text>
</g>
<!-- net_4 -->
<g id="node28" class="node">
<title>net_4</title>
<ellipse fill="none" stroke="black" cx="34.4" cy="-5.4" rx="5.4" ry="5.4"/>
</g>
<!-- U1&#45;&gt;net_4 -->
<g id="edge19" class="edge">
<title>U1&#45;&gt;net_4</title>
<path fill="none" stroke="black" d="M106.22,-46.42C81.82,-32.83 50.18,-15.2 38.76,-8.83"/>
<text xml:space="preserve" text-anchor="middle" x="98.34" y="-49.12" font-family="monospace" font-size="9.00">PC1</text>
</g>
<!-- net_5 -->
<g id="node29" class="node">
<title>net_5</title>
<ellipse fill="none" stroke="black" cx="63.4" cy="-5.4" rx="5.4" ry="5.4"/>
</g>
<!-- U1&#45;&gt;net_5 -->
<g id="edge20" class="edge">
<title>U1&#45;&gt;net_5</title>
<path fill="none" stroke="black" d="M115.2,-46.58C98.17,-33.37 76.13,-16.28 67.31,-9.43"/>
<text xml:space="preserve" text-anchor="middle" x="107.32" y="-49.28" font-family="monospace" font-size="9.00">PC2</text>
</g>
<!-- U2 -->
<g id="node2" class="node">
<title>U2</title>
<polygon fill="none" stroke="black" points="360.77,-82.8 254.02,-82.8 254.02,-46.8 360.77,-46.8 360.77,-82.8"/>
<text xml:space="preserve" text-anchor="middle" x="307.4" y="-60.12" font-family="monospace" font-size="14.00">U2\nDRV8313</text>
</g>
<!-- net_0 -->
<g id="node10" class="node">
<title>net_0</title>
<ellipse fill="none" stroke="black" cx="353.4" cy="-5.4" rx="5.4" ry="5.4"/>
</g>
<!-- U2&#45;&gt;net_0 -->
<g id="edge36" class="edge">
<title>U2&#45;&gt;net_0</title>
<path fill="none" stroke="black" d="M321.2,-46.58C331.36,-33.9 344.39,-17.64 350.27,-10.3"/>
<text xml:space="preserve" text-anchor="middle" x="310.7" y="-49.28" font-family="monospace" font-size="9.00">OUT1</text>
</g>
<!-- net_1 -->
<g id="node11" class="node">
<title>net_1</title>
<ellipse fill="none" stroke="black" cx="382.4" cy="-5.4" rx="5.4" ry="5.4"/>
</g>
<!-- U2&#45;&gt;net_1 -->
<g id="edge37" class="edge">
<title>U2&#45;&gt;net_1</title>
<path fill="none" stroke="black" d="M329.9,-46.58C347.16,-33.37 369.5,-16.28 378.44,-9.43"/>
<text xml:space="preserve" text-anchor="middle" x="319.4" y="-49.28" font-family="monospace" font-size="9.00">OUT2</text>
</g>
<!-- U2&#45;&gt;net_15 -->
<g id="edge27" class="edge">
<title>U2&#45;&gt;net_15</title>
<path fill="none" stroke="black" d="M265.16,-46.41C258.57,-43.8 251.82,-41.19 245.4,-38.8 211.43,-26.17 169.95,-12.67 155.58,-8.06"/>
<text xml:space="preserve" text-anchor="middle" x="257.29" y="-49.11" font-family="monospace" font-size="9.00">EN1</text>
</g>
<!-- U2&#45;&gt;net_16 -->
<g id="edge30" class="edge">
<title>U2&#45;&gt;net_16</title>
<path fill="none" stroke="black" d="M268.65,-46.42C237.74,-32.56 197.49,-14.51 184.02,-8.47"/>
<text xml:space="preserve" text-anchor="middle" x="260.77" y="-49.12" font-family="monospace" font-size="9.00">IN1</text>
</g>
<!-- U2&#45;&gt;net_17 -->
<g id="edge31" class="edge">
<title>U2&#45;&gt;net_17</title>
<path fill="none" stroke="black" d="M277.43,-46.42C254.21,-32.96 224.16,-15.54 212.91,-9.02"/>
<text xml:space="preserve" text-anchor="middle" x="269.55" y="-49.12" font-family="monospace" font-size="9.00">IN2</text>
</g>
<!-- U2&#45;&gt;net_18 -->
<g id="edge28" class="edge">
<title>U2&#45;&gt;net_18</title>
<path fill="none" stroke="black" d="M286.4,-46.58C270.45,-33.5 249.86,-16.62 241.35,-9.64"/>
<text xml:space="preserve" text-anchor="middle" x="278.52" y="-49.28" font-family="monospace" font-size="9.00">EN2</text>
</g>
<!-- U2&#45;&gt;net_19 -->
<g id="edge32" class="edge">
<title>U2&#45;&gt;net_19</title>
<path fill="none" stroke="black" d="M295.1,-46.58C286.04,-33.9 274.43,-17.64 269.19,-10.3"/>
<text xml:space="preserve" text-anchor="middle" x="287.22" y="-49.28" font-family="monospace" font-size="9.00">IN3</text>
</g>
<!-- net_2 -->
<g id="node22" class="node">
<title>net_2</title>
<ellipse fill="none" stroke="black" cx="411.4" cy="-5.4" rx="5.4" ry="5.4"/>
</g>
<!-- U2&#45;&gt;net_2 -->
<g id="edge38" class="edge">
<title>U2&#45;&gt;net_2</title>
<path fill="none" stroke="black" d="M338.89,-46.42C363.52,-32.83 395.46,-15.2 407,-8.83"/>
<text xml:space="preserve" text-anchor="middle" x="328.39" y="-37.87" font-family="monospace" font-size="9.00">OUT3</text>
</g>
<!-- U2&#45;&gt;net_20 -->
<g id="edge33" class="edge">
<title>U2&#45;&gt;net_20</title>
<path fill="none" stroke="black" d="M303.8,-46.58C301.2,-34.16 297.89,-18.31 296.31,-10.77"/>
<text xml:space="preserve" text-anchor="middle" x="295.92" y="-49.28" font-family="monospace" font-size="9.00">IN4</text>
</g>
<!-- U2&#45;&gt;net_21 -->
<g id="edge29" class="edge">
<title>U2&#45;&gt;net_21</title>
<path fill="none" stroke="black" d="M312.5,-46.58C316.18,-34.16 320.87,-18.31 323.11,-10.77"/>
<text xml:space="preserve" text-anchor="middle" x="304.63" y="-49.28" font-family="monospace" font-size="9.00">EN3</text>
</g>
<!-- U2&#45;&gt;net_22 -->
<g id="edge34" class="edge">
<title>U2&#45;&gt;net_22</title>
<path fill="none" stroke="black" d="M267.09,-46.31C259.95,-43.57 252.51,-40.94 245.4,-38.8 185.46,-20.8 168.15,-25.84 107.4,-10.8 104.13,-9.99 100.51,-8.93 97.65,-8.06"/>
<text xml:space="preserve" text-anchor="middle" x="259.22" y="-37.76" font-family="monospace" font-size="9.00">IN5</text>
</g>
<!-- U2&#45;&gt;net_23 -->
<g id="edge35" class="edge">
<title>U2&#45;&gt;net_23</title>
<path fill="none" stroke="black" d="M266.33,-46.36C259.4,-43.67 252.24,-41.05 245.4,-38.8 197.88,-23.19 184.63,-24.06 136.4,-10.8 133.16,-9.91 129.53,-8.85 126.66,-7.99"/>
<text xml:space="preserve" text-anchor="middle" x="258.45" y="-37.81" font-family="monospace" font-size="9.00">IN6</text>
</g>
<!-- C1 -->
<g id="node3" class="node">
<title>C1</title>
<polygon fill="none" stroke="black" points="477.65,-82.8 379.15,-82.8 379.15,-46.8 477.65,-46.8 477.65,-82.8"/>
<text xml:space="preserve" text-anchor="middle" x="428.4" y="-60.12" font-family="monospace" font-size="14.00">C1\n1e&#45;08F</text>
</g>
<!-- net_14 -->
<g id="node16" class="node">
<title>net_14</title>
<ellipse fill="none" stroke="black" cx="440.4" cy="-5.4" rx="5.4" ry="5.4"/>
</g>
<!-- C1&#45;&gt;net_14 -->
<g id="edge1" class="edge">
<title>C1&#45;&gt;net_14</title>
<path fill="none" stroke="black" d="M425.76,-46.58C427.29,-33.37 431.87,-16.28 436.53,-9.43"/>
<text xml:space="preserve" text-anchor="middle" x="420.51" y="-49.28" font-family="monospace" font-size="9.00">t1</text>
</g>
<!-- C1&#45;&gt;net_14 -->
<g id="edge2" class="edge">
<title>C1&#45;&gt;net_14</title>
<path fill="none" stroke="black" d="M438.25,-46.58C442.07,-33.9 444.59,-17.64 443.2,-10.3"/>
<text xml:space="preserve" text-anchor="middle" x="433" y="-49.28" font-family="monospace" font-size="9.00">t2</text>
</g>
<!-- C2 -->
<g id="node4" class="node">
<title>C2</title>
<polygon fill="none" stroke="black" points="594.65,-82.8 496.15,-82.8 496.15,-46.8 594.65,-46.8 594.65,-82.8"/>
<text xml:space="preserve" text-anchor="middle" x="545.4" y="-60.12" font-family="monospace" font-size="14.00">C2\n1e&#45;08F</text>
</g>
<!-- net_13 -->
<g id="node15" class="node">
<title>net_13</title>
<ellipse fill="none" stroke="black" cx="545.4" cy="-5.4" rx="5.4" ry="5.4"/>
</g>
<!-- C2&#45;&gt;net_13 -->
<g id="edge3" class="edge">
<title>C2&#45;&gt;net_13</title>
<path fill="none" stroke="black" d="M539.15,-46.58C537.96,-33.63 538.89,-16.96 541.97,-9.85"/>
<text xml:space="preserve" text-anchor="middle" x="533.9" y="-49.28" font-family="monospace" font-size="9.00">t1</text>
</g>
<!-- C2&#45;&gt;net_13 -->
<g id="edge4" class="edge">
<title>C2&#45;&gt;net_13</title>
<path fill="none" stroke="black" d="M551.65,-46.58C552.84,-33.63 551.91,-16.96 548.83,-9.85"/>
<text xml:space="preserve" text-anchor="middle" x="546.4" y="-49.28" font-family="monospace" font-size="9.00">t2</text>
</g>
<!-- C3 -->
<g id="node5" class="node">
<title>C3</title>
<polygon fill="none" stroke="black" points="711.65,-82.8 613.15,-82.8 613.15,-46.8 711.65,-46.8 711.65,-82.8"/>
<text xml:space="preserve" text-anchor="middle" x="662.4" y="-60.12" font-family="monospace" font-size="14.00">C3\n1e&#45;08F</text>
</g>
<!-- net_12 -->
<g id="node14" class="node">
<title>net_12</title>
<ellipse fill="none" stroke="black" cx="662.4" cy="-5.4" rx="5.4" ry="5.4"/>
</g>
<!-- C3&#45;&gt;net_12 -->
<g id="edge5" class="edge">
<title>C3&#45;&gt;net_12</title>
<path fill="none" stroke="black" d="M656.15,-46.58C654.96,-33.63 655.89,-16.96 658.97,-9.85"/>
<text xml:space="preserve" text-anchor="middle" x="650.9" y="-49.28" font-family="monospace" font-size="9.00">t1</text>
</g>
<!-- C3&#45;&gt;net_12 -->
<g id="edge6" class="edge">
<title>C3&#45;&gt;net_12</title>
<path fill="none" stroke="black" d="M668.65,-46.58C669.84,-33.63 668.91,-16.96 665.83,-9.85"/>
<text xml:space="preserve" text-anchor="middle" x="663.4" y="-49.28" font-family="monospace" font-size="9.00">t2</text>
</g>
<!-- C4 -->
<g id="node6" class="node">
<title>C4</title>
<polygon fill="none" stroke="black" points="828.65,-82.8 730.15,-82.8 730.15,-46.8 828.65,-46.8 828.65,-82.8"/>
<text xml:space="preserve" text-anchor="middle" x="779.4" y="-60.12" font-family="monospace" font-size="14.00">C4\n1e&#45;08F</text>
</g>
<!-- net_11 -->
<g id="node13" class="node">
<title>net_11</title>
<ellipse fill="none" stroke="black" cx="779.4" cy="-5.4" rx="5.4" ry="5.4"/>
</g>
<!-- C4&#45;&gt;net_11 -->
<g id="edge7" class="edge">
<title>C4&#45;&gt;net_11</title>
<path fill="none" stroke="black" d="M773.15,-46.58C771.96,-33.63 772.89,-16.96 775.97,-9.85"/>
<text xml:space="preserve" text-anchor="middle" x="767.9" y="-49.28" font-family="monospace" font-size="9.00">t1</text>
</g>
<!-- C4&#45;&gt;net_11 -->
<g id="edge8" class="edge">
<title>C4&#45;&gt;net_11</title>
<path fill="none" stroke="black" d="M785.65,-46.58C786.84,-33.63 785.91,-16.96 782.83,-9.85"/>
<text xml:space="preserve" text-anchor="middle" x="780.4" y="-49.28" font-family="monospace" font-size="9.00">t2</text>
</g>
<!-- C5 -->
<g id="node7" class="node">
<title>C5</title>
<polygon fill="none" stroke="black" points="945.65,-82.8 847.15,-82.8 847.15,-46.8 945.65,-46.8 945.65,-82.8"/>
<text xml:space="preserve" text-anchor="middle" x="896.4" y="-60.12" font-family="monospace" font-size="14.00">C5\n1e&#45;07F</text>
</g>
<!-- net_10 -->
<g id="node12" class="node">
<title>net_10</title>
<ellipse fill="none" stroke="black" cx="896.4" cy="-5.4" rx="5.4" ry="5.4"/>
</g>
<!-- C5&#45;&gt;net_10 -->
<g id="edge9" class="edge">
<title>C5&#45;&gt;net_10</title>
<path fill="none" stroke="black" d="M890.15,-46.58C888.96,-33.63 889.89,-16.96 892.97,-9.85"/>
<text xml:space="preserve" text-anchor="middle" x="884.9" y="-49.28" font-family="monospace" font-size="9.00">t1</text>
</g>
<!-- C5&#45;&gt;net_10 -->
<g id="edge10" class="edge">
<title>C5&#45;&gt;net_10</title>
<path fill="none" stroke="black" d="M902.65,-46.58C903.84,-33.63 902.91,-16.96 899.83,-9.85"/>
<text xml:space="preserve" text-anchor="middle" x="897.4" y="-49.28" font-family="monospace" font-size="9.00">t2</text>
</g>
<!-- C6 -->
<g id="node8" class="node">
<title>C6</title>
<polygon fill="none" stroke="black" points="1062.65,-82.8 964.15,-82.8 964.15,-46.8 1062.65,-46.8 1062.65,-82.8"/>
<text xml:space="preserve" text-anchor="middle" x="1013.4" y="-60.12" font-family="monospace" font-size="14.00">C6\n1e&#45;05F</text>
</g>
<!-- net_9 -->
<g id="node31" class="node">
<title>net_9</title>
<ellipse fill="none" stroke="black" cx="1013.4" cy="-5.4" rx="5.4" ry="5.4"/>
</g>
<!-- C6&#45;&gt;net_9 -->
<g id="edge11" class="edge">
<title>C6&#45;&gt;net_9</title>
<path fill="none" stroke="black" d="M1007.15,-46.58C1005.96,-33.63 1006.89,-16.96 1009.97,-9.85"/>
<text xml:space="preserve" text-anchor="middle" x="1001.9" y="-49.28" font-family="monospace" font-size="9.00">t1</text>
</g>
<!-- C6&#45;&gt;net_9 -->
<g id="edge12" class="edge">
<title>C6&#45;&gt;net_9</title>
<path fill="none" stroke="black" d="M1019.65,-46.58C1020.84,-33.63 1019.91,-16.96 1016.83,-9.85"/>
<text xml:space="preserve" text-anchor="middle" x="1014.4" y="-49.28" font-family="monospace" font-size="9.00">t2</text>
</g>
<!-- R1 -->
<g id="node9" class="node">
<title>R1</title>
<polygon fill="none" stroke="black" points="1179.65,-82.8 1081.15,-82.8 1081.15,-46.8 1179.65,-46.8 1179.65,-82.8"/>
<text xml:space="preserve" text-anchor="middle" x="1130.4" y="-60.12" font-family="monospace" font-size="14.00">R1\n10000Ω</text>
</g>
<!-- net_8 -->
<g id="node30" class="node">
<title>net_8</title>
<ellipse fill="none" stroke="black" cx="1130.4" cy="-5.4" rx="5.4" ry="5.4"/>
</g>
<!-- R1&#45;&gt;net_8 -->
<g id="edge13" class="edge">
<title>R1&#45;&gt;net_8</title>
<path fill="none" stroke="black" d="M1124.15,-46.58C1122.96,-33.63 1123.89,-16.96 1126.97,-9.85"/>
<text xml:space="preserve" text-anchor="middle" x="1118.9" y="-49.28" font-family="monospace" font-size="9.00">t1</text>
</g>
<!-- R1&#45;&gt;net_8 -->
<g id="edge14" class="edge">
<title>R1&#45;&gt;net_8</title>
<path fill="none" stroke="black" d="M1136.65,-46.58C1137.84,-33.63 1136.91,-16.96 1133.83,-9.85"/>
<text xml:space="preserve" text-anchor="middle" x="1131.4" y="-49.28" font-family="monospace" font-size="9.00">t2</text>
</g>
</g>
</svg>
