<?xml version="1.0" encoding="UTF-8" standalone="no"?>
<!DOCTYPE svg PUBLIC "-//W3C//DTD SVG 1.1//EN"
 "http://www.w3.org/Graphics/SVG/1.1/DTD/svg11.dtd">
<!-- Generated by graphviz version 14.1.5 (20260411.2331)
 -->
<!-- Title: BLDC Controller Pages: 1 -->
<svg width="1189pt" height="131pt"
 viewBox="0.00 0.00 1189.00 131.00" xmlns="http://www.w3.org/2000/svg" xmlns:xlink="http://www.w3.org/1999/xlink">
<g id="graph0" class="graph" transform="scale(1 1) rotate(0) translate(4 127.3)">
<title>BLDC Controller</title>
<polygon fill="white" stroke="none" points="-4,4 -4,-127.3 1185.4,-127.3 1185.4,4 -4,4"/>
<g id="clust1" class="cluster">
<title>cluster_A1</title>
<path fill="none" stroke="black" d="M28.4,-38.8C28.4,-38.8 1161.4,-38.8 1161.4,-38.8 1167.4,-38.8 1173.4,-44.8 1173.4,-50.8 1173.4,-50.8 1173.4,-103.3 1173.4,-103.3 1173.4,-109.3 1167.4,-115.3 1161.4,-115.3 1161.4,-115.3 28.4,-115.3 28.4,-115.3 22.4,-115.3 16.4,-109.3 16.4,-103.3 16.4,-103.3 16.4,-50.8 16.4,-50.8 16.4,-44.8 22.4,-38.8 28.4,-38.8"/>
<text xml:space="preserve" text-anchor="middle" x="594.9" y="-98" font-family="Times,serif" font-size="14.00">A1: BLDC Controller Rev A</text>
</g>
<!-- U1 -->
<g id="node1" class="node">
<title>U1</title>
<polygon fill="none" stroke="black" points="222.15,-82.8 24.65,-82.8 24.65,-46.8 222.15,-46.8 222.15,-82.8"/>
<text xml:space="preserve" text-anchor="middle" x="123.4" y="-60.12" font-family="monospace" font-size="14.00">U1\nUno_BLDCCommutator</text>
</g>
<!-- net_0 -->
<g id="node10" class="node">
<title>net_0</title>
<ellipse fill="none" stroke="black" cx="5.4" cy="-5.4" rx="5.4" ry="5.4"/>
</g>
<!-- U1&#45;&gt;net_0 -->
<g id="edge4" class="edge">
<title>U1&#45;&gt;net_0</title>
<path fill="none" stroke="black" d="M87.68,-46.42C59.46,-32.7 22.78,-14.85 10.02,-8.65"/>
<text xml:space="preserve" text-anchor="middle" x="79.8" y="-37.87" font-family="monospace" font-size="9.00">PC0</text>
</g>
<!-- net_1 -->
<g id="node11" class="node">
<title>net_1</title>
<ellipse fill="none" stroke="black" cx="63.4" cy="-5.4" rx="5.4" ry="5.4"/>
</g>
<!-- U1&#45;&gt;net_1 -->
<g id="edge5" class="edge">
<title>U1&#45;&gt;net_1</title>
<path fill="none" stroke="black" d="M105.4,-46.58C91.87,-33.63 74.44,-16.96 67.01,-9.85"/>
<text xml:space="preserve" text-anchor="middle" x="97.52" y="-38.03" font-family="monospace" font-size="9.00">PC1</text>
</g>
<!-- net_10 -->
<g id="node12" class="node">
<title>net_10</title>
<ellipse fill="none" stroke="black" cx="237.4" cy="-5.4" rx="5.4" ry="5.4"/>
</g>
<!-- U1&#45;&gt;net_10 -->
<g id="edge9" class="edge">
<title>U1&#45;&gt;net_10</title>
<path fill="none" stroke="black" d="M157.91,-46.42C185.18,-32.7 220.61,-14.85 232.94,-8.65"/>
<text xml:space="preserve" text-anchor="middle" x="150.04" y="-37.87" font-family="monospace" font-size="9.00">PD4</text>
</g>
<!-- net_11 -->
<g id="node13" class="node">
<title>net_11</title>
<ellipse fill="none" stroke="black" cx="266.4" cy="-5.4" rx="5.4" ry="5.4"/>
</g>
<!-- U1&#45;&gt;net_11 -->
<g id="edge10" class="edge">
<title>U1&#45;&gt;net_11</title>
<path fill="none" stroke="black" d="M166.69,-46.42C201.55,-32.43 247.05,-14.17 261.67,-8.3"/>
<text xml:space="preserve" text-anchor="middle" x="174.57" y="-37.87" font-family="monospace" font-size="9.00">PD5</text>
</g>
<!-- net_12 -->
<g id="node14" class="node">
<title>net_12</title>
<ellipse fill="none" stroke="black" cx="295.4" cy="-5.4" rx="5.4" ry="5.4"/>
</g>
<!-- U1&#45;&gt;net_12 -->
<g id="edge3" class="edge">
<title>U1&#45;&gt;net_12</title>
<path fill="none" stroke="black" d="M175.47,-46.42C217.79,-32.3 273.16,-13.82 290.19,-8.14"/>
<text xml:space="preserve" text-anchor="middle" x="183.35" y="-37.87" font-family="monospace" font-size="9.00">PB2</text>
</g>
<!-- net_13 -->
<g id="node15" class="node">
<title>net_13</title>
<ellipse fill="none" stroke="black" cx="324.4" cy="-5.4" rx="5.4" ry="5.4"/>
</g>
<!-- U1&#45;&gt;net_13 -->
<g id="edge11" class="edge">
<title>U1&#45;&gt;net_13</title>
<path fill="none" stroke="black" d="M185.01,-46.37C221.25,-36.09 267.95,-22.78 309.4,-10.8 312.63,-9.87 316.25,-8.8 319.13,-7.96"/>
<text xml:space="preserve" text-anchor="middle" x="192.89" y="-37.82" font-family="monospace" font-size="9.00">PD6</text>
</g>
<!-- net_14 -->
<g id="node16" class="node">
<title>net_14</title>
<ellipse fill="none" stroke="black" cx="92.4" cy="-5.4" rx="5.4" ry="5.4"/>
</g>
<!-- U1&#45;&gt;net_14 -->
<g id="edge12" class="edge">
<title>U1&#45;&gt;net_14</title>
<path fill="none" stroke="black" d="M114.1,-46.58C107.39,-34.16 98.83,-18.31 94.76,-10.77"/>
<text xml:space="preserve" text-anchor="middle" x="121.97" y="-38.03" font-family="monospace" font-size="9.00">PD7</text>
</g>
<!-- net_2 -->
<g id="node17" class="node">
<title>net_2</title>
<ellipse fill="none" stroke="black" cx="34.4" cy="-5.4" rx="5.4" ry="5.4"/>
</g>
<!-- U1&#45;&gt;net_2 -->
<g id="edge6" class="edge">
<title>U1&#45;&gt;net_2</title>
<path fill="none" stroke="black" d="M96.7,-46.58C76.01,-33.24 49.18,-15.93 38.79,-9.23"/>
<text xml:space="preserve" text-anchor="middle" x="104.57" y="-38.03" font-family="monospace" font-size="9.00">PC2</text>
</g>
<!-- net_6 -->
<g id="node21" class="node">
<title>net_6</title>
<ellipse fill="none" stroke="black" cx="121.4" cy="-5.4" rx="5.4" ry="5.4"/>
</g>
<!-- U1&#45;&gt;net_6 -->
<g id="edge1" class="edge">
<title>U1&#45;&gt;net_6</title>
<path fill="none" stroke="black" d="M122.8,-46.58C122.38,-34.43 121.84,-18.99 121.57,-11.26"/>
<text xml:space="preserve" text-anchor="middle" x="130.67" y="-38.03" font-family="monospace" font-size="9.00">PB0</text>
</g>
<!-- net_7 -->
<g id="node22" class="node">
<title>net_7</title>
<ellipse fill="none" stroke="black" cx="150.4" cy="-5.4" rx="5.4" ry="5.4"/>
</g>
<!-- U1&#45;&gt;net_7 -->
<g id="edge7" class="edge">
<title>U1&#45;&gt;net_7</title>
<path fill="none" stroke="black" d="M131.5,-46.58C137.34,-34.16 144.8,-18.31 148.34,-10.77"/>
<text xml:space="preserve" text-anchor="middle" x="139.38" y="-38.03" font-family="monospace" font-size="9.00">PD2</text>
</g>
<!-- net_8 -->
<g id="node23" class="node">
<title>net_8</title>
<ellipse fill="none" stroke="black" cx="179.4" cy="-5.4" rx="5.4" ry="5.4"/>
</g>
<!-- U1&#45;&gt;net_8 -->
<g id="edge8" class="edge">
<title>U1&#45;&gt;net_8</title>
<path fill="none" stroke="black" d="M140.2,-46.58C152.83,-33.63 169.1,-16.96 176.03,-9.85"/>
<text xml:space="preserve" text-anchor="middle" x="132.33" y="-49.28" font-family="monospace" font-size="9.00">PD3</text>
</g>
<!-- net_9 -->
<g id="node24" class="node">
<title>net_9</title>
<ellipse fill="none" stroke="black" cx="208.4" cy="-5.4" rx="5.4" ry="5.4"/>
</g>
<!-- U1&#45;&gt;net_9 -->
<g id="edge2" class="edge">
<title>U1&#45;&gt;net_9</title>
<path fill="none" stroke="black" d="M148.9,-46.58C168.66,-33.24 194.28,-15.93 204.21,-9.23"/>
<text xml:space="preserve" text-anchor="middle" x="156.78" y="-38.03" font-family="monospace" font-size="9.00">PB1</text>
</g>
<!-- U2 -->
<g id="node2" class="node">
<title>U2</title>
<polygon fill="none" stroke="black" points="346.77,-82.8 240.02,-82.8 240.02,-46.8 346.77,-46.8 346.77,-82.8"/>
<text xml:space="preserve" text-anchor="middle" x="293.4" y="-60.12" font-family="monospace" font-size="14.00">U2\nDRV8313</text>
</g>
<!-- U2&#45;&gt;net_10 -->
<g id="edge18" class="edge">
<title>U2&#45;&gt;net_10</title>
<path fill="none" stroke="black" d="M276.6,-46.58C263.97,-33.63 247.7,-16.96 240.77,-9.85"/>
<text xml:space="preserve" text-anchor="middle" x="268.72" y="-38.03" font-family="monospace" font-size="9.00">IN3</text>
</g>
<!-- U2&#45;&gt;net_11 -->
<g id="edge19" class="edge">
<title>U2&#45;&gt;net_11</title>
<path fill="none" stroke="black" d="M285.3,-46.58C279.46,-34.16 272,-18.31 268.46,-10.77"/>
<text xml:space="preserve" text-anchor="middle" x="293.17" y="-38.03" font-family="monospace" font-size="9.00">IN4</text>
</g>
<!-- U2&#45;&gt;net_12 -->
<g id="edge15" class="edge">
<title>U2&#45;&gt;net_12</title>
<path fill="none" stroke="black" d="M294,-46.58C294.42,-34.43 294.96,-18.99 295.23,-11.26"/>
<text xml:space="preserve" text-anchor="middle" x="301.88" y="-38.03" font-family="monospace" font-size="9.00">EN3</text>
</g>
<!-- U2&#45;&gt;net_13 -->
<g id="edge20" class="edge">
<title>U2&#45;&gt;net_13</title>
<path fill="none" stroke="black" d="M302.7,-46.58C309.41,-34.16 317.97,-18.31 322.04,-10.77"/>
<text xml:space="preserve" text-anchor="middle" x="310.58" y="-38.03" font-family="monospace" font-size="9.00">IN5</text>
</g>
<!-- U2&#45;&gt;net_14 -->
<g id="edge21" class="edge">
<title>U2&#45;&gt;net_14</title>
<path fill="none" stroke="black" d="M252.72,-46.31C245.68,-43.6 238.38,-40.98 231.4,-38.8 177.47,-21.96 162.09,-24.98 107.4,-10.8 104.14,-9.96 100.52,-8.9 97.65,-8.03"/>
<text xml:space="preserve" text-anchor="middle" x="244.84" y="-37.76" font-family="monospace" font-size="9.00">IN6</text>
</g>
<!-- net_3 -->
<g id="node18" class="node">
<title>net_3</title>
<ellipse fill="none" stroke="black" cx="353.4" cy="-5.4" rx="5.4" ry="5.4"/>
</g>
<!-- U2&#45;&gt;net_3 -->
<g id="edge22" class="edge">
<title>U2&#45;&gt;net_3</title>
<path fill="none" stroke="black" d="M311.4,-46.58C324.93,-33.63 342.36,-16.96 349.79,-9.85"/>
<text xml:space="preserve" text-anchor="middle" x="321.9" y="-38.03" font-family="monospace" font-size="9.00">OUT1</text>
</g>
<!-- net_4 -->
<g id="node19" class="node">
<title>net_4</title>
<ellipse fill="none" stroke="black" cx="382.4" cy="-5.4" rx="5.4" ry="5.4"/>
</g>
<!-- U2&#45;&gt;net_4 -->
<g id="edge23" class="edge">
<title>U2&#45;&gt;net_4</title>
<path fill="none" stroke="black" d="M320.1,-46.58C340.79,-33.24 367.62,-15.93 378.01,-9.23"/>
<text xml:space="preserve" text-anchor="middle" x="330.6" y="-38.03" font-family="monospace" font-size="9.00">OUT2</text>
</g>
<!-- net_5 -->
<g id="node20" class="node">
<title>net_5</title>
<ellipse fill="none" stroke="black" cx="411.4" cy="-5.4" rx="5.4" ry="5.4"/>
</g>
<!-- U2&#45;&gt;net_5 -->
<g id="edge24" class="edge">
<title>U2&#45;&gt;net_5</title>
<path fill="none" stroke="black" d="M329.12,-46.42C357.34,-32.7 394.02,-14.85 406.78,-8.65"/>
<text xml:space="preserve" text-anchor="middle" x="339.62" y="-37.87" font-family="monospace" font-size="9.00">OUT3</text>
</g>
<!-- U2&#45;&gt;net_6 -->
<g id="edge13" class="edge">
<title>U2&#45;&gt;net_6</title>
<path fill="none" stroke="black" d="M251.59,-46.3C244.88,-43.68 237.98,-41.09 231.4,-38.8 228.79,-37.89 147.99,-14.19 126.57,-7.91"/>
<text xml:space="preserve" text-anchor="middle" x="255.52" y="-37.75" font-family="monospace" font-size="9.00">EN1</text>
</g>
<!-- U2&#45;&gt;net_7 -->
<g id="edge16" class="edge">
<title>U2&#45;&gt;net_7</title>
<path fill="none" stroke="black" d="M250.05,-46.3C243.79,-43.78 237.43,-41.22 231.4,-38.8 202.45,-27.17 167.64,-13.28 155.15,-8.29"/>
<text xml:space="preserve" text-anchor="middle" x="242.17" y="-49" font-family="monospace" font-size="9.00">IN1</text>
</g>
<!-- U2&#45;&gt;net_8 -->
<g id="edge17" class="edge">
<title>U2&#45;&gt;net_8</title>
<path fill="none" stroke="black" d="M258.89,-46.42C231.62,-32.7 196.19,-14.85 183.86,-8.65"/>
<text xml:space="preserve" text-anchor="middle" x="266.76" y="-49.12" font-family="monospace" font-size="9.00">IN2</text>
</g>
<!-- U2&#45;&gt;net_9 -->
<g id="edge14" class="edge">
<title>U2&#45;&gt;net_9</title>
<path fill="none" stroke="black" d="M267.9,-46.58C248.14,-33.24 222.52,-15.93 212.59,-9.23"/>
<text xml:space="preserve" text-anchor="middle" x="275.77" y="-38.03" font-family="monospace" font-size="9.00">EN2</text>
</g>
<!-- C1 -->
<g id="node3" class="node">
<title>C1</title>
<polygon fill="none" stroke="black" points="463.65,-82.8 365.15,-82.8 365.15,-46.8 463.65,-46.8 463.65,-82.8"/>
<text xml:space="preserve" text-anchor="middle" x="414.4" y="-60.12" font-family="monospace" font-size="14.00">C1\n1e&#45;08F</text>
</g>
<!-- C2 -->
<g id="node4" class="node">
<title>C2</title>
<polygon fill="none" stroke="black" points="580.65,-82.8 482.15,-82.8 482.15,-46.8 580.65,-46.8 580.65,-82.8"/>
<text xml:space="preserve" text-anchor="middle" x="531.4" y="-60.12" font-family="monospace" font-size="14.00">C2\n1e&#45;08F</text>
</g>
<!-- C3 -->
<g id="node5" class="node">
<title>C3</title>
<polygon fill="none" stroke="black" points="697.65,-82.8 599.15,-82.8 599.15,-46.8 697.65,-46.8 697.65,-82.8"/>
<text xml:space="preserve" text-anchor="middle" x="648.4" y="-60.12" font-family="monospace" font-size="14.00">C3\n1e&#45;08F</text>
</g>
<!-- C4 -->
<g id="node6" class="node">
<title>C4</title>
<polygon fill="none" stroke="black" points="814.65,-82.8 716.15,-82.8 716.15,-46.8 814.65,-46.8 814.65,-82.8"/>
<text xml:space="preserve" text-anchor="middle" x="765.4" y="-60.12" font-family="monospace" font-size="14.00">C4\n1e&#45;08F</text>
</g>
<!-- C5 -->
<g id="node7" class="node">
<title>C5</title>
<polygon fill="none" stroke="black" points="931.65,-82.8 833.15,-82.8 833.15,-46.8 931.65,-46.8 931.65,-82.8"/>
<text xml:space="preserve" text-anchor="middle" x="882.4" y="-60.12" font-family="monospace" font-size="14.00">C5\n1e&#45;07F</text>
</g>
<!-- C6 -->
<g id="node8" class="node">
<title>C6</title>
<polygon fill="none" stroke="black" points="1048.65,-82.8 950.15,-82.8 950.15,-46.8 1048.65,-46.8 1048.65,-82.8"/>
<text xml:space="preserve" text-anchor="middle" x="999.4" y="-60.12" font-family="monospace" font-size="14.00">C6\n1e&#45;05F</text>
</g>
<!-- R1 -->
<g id="node9" class="node">
<title>R1</title>
<polygon fill="none" stroke="black" points="1165.65,-82.8 1067.15,-82.8 1067.15,-46.8 1165.65,-46.8 1165.65,-82.8"/>
<text xml:space="preserve" text-anchor="middle" x="1116.4" y="-60.12" font-family="monospace" font-size="14.00">R1\n10000Ω</text>
</g>
</g>
</svg>
