<?xml version="1.0" encoding="UTF-8" standalone="no"?>
<!DOCTYPE svg PUBLIC "-//W3C//DTD SVG 1.1//EN"
 "http://www.w3.org/Graphics/SVG/1.1/DTD/svg11.dtd">
<!-- Generated by graphviz version 14.1.5 (20260411.2331)
 -->
<!-- Title: Metronome Pages: 1 -->
<svg width="863pt" height="91pt"
 viewBox="0.00 0.00 863.00 91.00" xmlns="http://www.w3.org/2000/svg" xmlns:xlink="http://www.w3.org/1999/xlink">
<g id="graph0" class="graph" transform="scale(1 1) rotate(0) translate(4 86.8)">
<title>Metronome</title>
<polygon fill="white" stroke="none" points="-4,4 -4,-86.8 859.25,-86.8 859.25,4 -4,4"/>
<!-- U1 -->
<g id="node1" class="node">
<title>U1</title>
<polygon fill="none" stroke="black" points="531.38,-82.8 441.12,-82.8 441.12,-46.8 531.38,-46.8 531.38,-82.8"/>
<text xml:space="preserve" text-anchor="middle" x="486.25" y="-60.12" font-family="monospace" font-size="14.00">U1\nNE555</text>
</g>
<!-- gnd -->
<g id="node9" class="node">
<title>gnd</title>
<ellipse fill="none" stroke="black" cx="218.25" cy="-5.4" rx="5.4" ry="5.4"/>
</g>
<!-- U1&#45;&gt;gnd -->
<g id="edge17" class="edge">
<title>U1&#45;&gt;gnd</title>
<path fill="none" stroke="black" d="M440.69,-49.04C437.85,-48.25 435.01,-47.49 432.25,-46.8 350.1,-26.19 247.87,-10.72 223.59,-7.17"/>
<text xml:space="preserve" text-anchor="middle" x="432.82" y="-51.74" font-family="monospace" font-size="9.00">GND</text>
</g>
<!-- net_3 -->
<g id="node12" class="node">
<title>net_3</title>
<ellipse fill="none" stroke="black" cx="650.25" cy="-5.4" rx="5.4" ry="5.4"/>
</g>
<!-- U1&#45;&gt;net_3 -->
<g id="edge18" class="edge">
<title>U1&#45;&gt;net_3</title>
<path fill="none" stroke="black" d="M531.5,-47.96C572.46,-33.63 628.84,-13.89 645.46,-8.08"/>
<text xml:space="preserve" text-anchor="middle" x="539.37" y="-50.66" font-family="monospace" font-size="9.00">OUT</text>
</g>
<!-- net_4 -->
<g id="node13" class="node">
<title>net_4</title>
<ellipse fill="none" stroke="black" cx="328.25" cy="-5.4" rx="5.4" ry="5.4"/>
</g>
<!-- U1&#45;&gt;net_4 -->
<g id="edge15" class="edge">
<title>U1&#45;&gt;net_4</title>
<path fill="none" stroke="black" d="M440.97,-47.35C401.94,-33.17 349.4,-14.08 333.21,-8.2"/>
<text xml:space="preserve" text-anchor="middle" x="430.47" y="-38.8" font-family="monospace" font-size="9.00">CONT</text>
</g>
<!-- net_5 -->
<g id="node14" class="node">
<title>net_5</title>
<ellipse fill="none" stroke="black" cx="380.25" cy="-5.4" rx="5.4" ry="5.4"/>
</g>
<!-- U1&#45;&gt;net_5 -->
<g id="edge20" class="edge">
<title>U1&#45;&gt;net_5</title>
<path fill="none" stroke="black" d="M447.9,-46.42C423.09,-33.62 393.75,-17.24 383.48,-10.05"/>
<text xml:space="preserve" text-anchor="middle" x="461.02" y="-37.87" font-family="monospace" font-size="9.00">THRES</text>
</g>
<!-- U1&#45;&gt;net_5 -->
<g id="edge21" class="edge">
<title>U1&#45;&gt;net_5</title>
<path fill="none" stroke="black" d="M460.42,-46.42C435.16,-32.04 398.93,-13.13 385.2,-7.83"/>
<text xml:space="preserve" text-anchor="middle" x="449.92" y="-37.87" font-family="monospace" font-size="9.00">TRIG</text>
</g>
<!-- net_6 -->
<g id="node15" class="node">
<title>net_6</title>
<ellipse fill="none" stroke="black" cx="470.25" cy="-5.4" rx="5.4" ry="5.4"/>
</g>
<!-- U1&#45;&gt;net_6 -->
<g id="edge16" class="edge">
<title>U1&#45;&gt;net_6</title>
<path fill="none" stroke="black" d="M481.45,-46.58C477.99,-34.16 473.57,-18.31 471.47,-10.77"/>
<text xml:space="preserve" text-anchor="middle" x="494.57" y="-38.03" font-family="monospace" font-size="9.00">DISCH</text>
</g>
<!-- vcc -->
<g id="node16" class="node">
<title>vcc</title>
<ellipse fill="none" stroke="black" cx="499.25" cy="-5.4" rx="5.4" ry="5.4"/>
</g>
<!-- U1&#45;&gt;vcc -->
<g id="edge19" class="edge">
<title>U1&#45;&gt;vcc</title>
<path fill="none" stroke="black" d="M483.91,-46.58C485.67,-33.37 490.55,-16.28 495.33,-9.43"/>
<text xml:space="preserve" text-anchor="middle" x="477.34" y="-38.03" font-family="monospace" font-size="9.00">RESET</text>
</g>
<!-- U1&#45;&gt;vcc -->
<g id="edge22" class="edge">
<title>U1&#45;&gt;vcc</title>
<path fill="none" stroke="black" d="M496.4,-46.58C500.44,-33.9 503.25,-17.64 501.98,-10.3"/>
<text xml:space="preserve" text-anchor="middle" x="504.27" y="-38.03" font-family="monospace" font-size="9.00">VCC</text>
</g>
<!-- R1 -->
<g id="node2" class="node">
<title>R1</title>
<polygon fill="none" stroke="black" points="755.38,-82.8 665.12,-82.8 665.12,-46.8 755.38,-46.8 755.38,-82.8"/>
<text xml:space="preserve" text-anchor="middle" x="710.25" y="-60.12" font-family="monospace" font-size="14.00">R1\n4700Ω</text>
</g>
<!-- R1&#45;&gt;net_6 -->
<g id="edge10" class="edge">
<title>R1&#45;&gt;net_6</title>
<path fill="none" stroke="black" d="M664.68,-49.11C661.83,-48.3 659.01,-47.52 656.25,-46.8 581.12,-27.12 560.57,-29.74 485.25,-10.8 481.99,-9.98 478.37,-8.92 475.5,-8.05"/>
<text xml:space="preserve" text-anchor="middle" x="659.43" y="-40.56" font-family="monospace" font-size="9.00">t2</text>
</g>
<!-- R1&#45;&gt;vcc -->
<g id="edge9" class="edge">
<title>R1&#45;&gt;vcc</title>
<path fill="none" stroke="black" d="M664.64,-49.25C661.8,-48.41 658.99,-47.58 656.25,-46.8 596.99,-29.86 524.22,-12.34 504.43,-7.63"/>
<text xml:space="preserve" text-anchor="middle" x="659.39" y="-51.95" font-family="monospace" font-size="9.00">t1</text>
</g>
<!-- R2 -->
<g id="node3" class="node">
<title>R2</title>
<polygon fill="none" stroke="black" points="423.5,-82.8 325,-82.8 325,-46.8 423.5,-46.8 423.5,-82.8"/>
<text xml:space="preserve" text-anchor="middle" x="374.25" y="-60.12" font-family="monospace" font-size="14.00">R2\n50000Ω</text>
</g>
<!-- R2&#45;&gt;net_5 -->
<g id="edge12" class="edge">
<title>R2&#45;&gt;net_5</title>
<path fill="none" stroke="black" d="M376.05,-46.58C377.32,-34.43 378.93,-18.99 379.74,-11.26"/>
<text xml:space="preserve" text-anchor="middle" x="370.8" y="-38.03" font-family="monospace" font-size="9.00">t2</text>
</g>
<!-- R2&#45;&gt;net_6 -->
<g id="edge11" class="edge">
<title>R2&#45;&gt;net_6</title>
<path fill="none" stroke="black" d="M403.31,-46.42C425.83,-32.96 454.97,-15.54 465.87,-9.02"/>
<text xml:space="preserve" text-anchor="middle" x="398.06" y="-37.87" font-family="monospace" font-size="9.00">t1</text>
</g>
<!-- C1 -->
<g id="node4" class="node">
<title>C1</title>
<polygon fill="none" stroke="black" points="215.5,-82.8 117,-82.8 117,-46.8 215.5,-46.8 215.5,-82.8"/>
<text xml:space="preserve" text-anchor="middle" x="166.25" y="-60.12" font-family="monospace" font-size="14.00">C1\n1e&#45;07F</text>
</g>
<!-- C1&#45;&gt;gnd -->
<g id="edge2" class="edge">
<title>C1&#45;&gt;gnd</title>
<path fill="none" stroke="black" d="M181.85,-46.58C193.58,-33.63 208.68,-16.96 215.12,-9.85"/>
<text xml:space="preserve" text-anchor="middle" x="176.6" y="-38.03" font-family="monospace" font-size="9.00">t2</text>
</g>
<!-- C1&#45;&gt;net_5 -->
<g id="edge1" class="edge">
<title>C1&#45;&gt;net_5</title>
<path fill="none" stroke="black" d="M215.89,-49.14C218.72,-48.34 221.52,-47.55 224.25,-46.8 283.04,-30.58 354.83,-12.69 374.84,-7.73"/>
<text xml:space="preserve" text-anchor="middle" x="221.14" y="-51.84" font-family="monospace" font-size="9.00">t1</text>
</g>
<!-- C2 -->
<g id="node5" class="node">
<title>C2</title>
<polygon fill="none" stroke="black" points="98.5,-82.8 0,-82.8 0,-46.8 98.5,-46.8 98.5,-82.8"/>
<text xml:space="preserve" text-anchor="middle" x="49.25" y="-60.12" font-family="monospace" font-size="14.00">C2\n1e&#45;08F</text>
</g>
<!-- C2&#45;&gt;gnd -->
<g id="edge4" class="edge">
<title>C2&#45;&gt;gnd</title>
<path fill="none" stroke="black" d="M98.59,-47.04C140.67,-32.75 196.93,-13.64 213.48,-8.02"/>
<text xml:space="preserve" text-anchor="middle" x="93.34" y="-38.49" font-family="monospace" font-size="9.00">t2</text>
</g>
<!-- C2&#45;&gt;net_4 -->
<g id="edge3" class="edge">
<title>C2&#45;&gt;net_4</title>
<path fill="none" stroke="black" d="M98.73,-49.16C101.94,-48.33 105.14,-47.53 108.25,-46.8 192.92,-26.88 297.86,-10.89 322.77,-7.2"/>
<text xml:space="preserve" text-anchor="middle" x="103.98" y="-51.86" font-family="monospace" font-size="9.00">t1</text>
</g>
<!-- R3 -->
<g id="node6" class="node">
<title>R3</title>
<polygon fill="none" stroke="black" points="855.25,-82.8 773.25,-82.8 773.25,-46.8 855.25,-46.8 855.25,-82.8"/>
<text xml:space="preserve" text-anchor="middle" x="814.25" y="-60.12" font-family="monospace" font-size="14.00">R3\n100Ω</text>
</g>
<!-- net_2 -->
<g id="node11" class="node">
<title>net_2</title>
<ellipse fill="none" stroke="black" cx="706.25" cy="-5.4" rx="5.4" ry="5.4"/>
</g>
<!-- R3&#45;&gt;net_2 -->
<g id="edge14" class="edge">
<title>R3&#45;&gt;net_2</title>
<path fill="none" stroke="black" d="M781.55,-46.42C755.97,-32.83 722.8,-15.2 710.82,-8.83"/>
<text xml:space="preserve" text-anchor="middle" x="776.3" y="-37.87" font-family="monospace" font-size="9.00">t2</text>
</g>
<!-- R3&#45;&gt;net_3 -->
<g id="edge13" class="edge">
<title>R3&#45;&gt;net_3</title>
<path fill="none" stroke="black" d="M772.87,-49.32C731.87,-34.97 672.76,-14.28 655.29,-8.16"/>
<text xml:space="preserve" text-anchor="middle" x="767.62" y="-52.02" font-family="monospace" font-size="9.00">t1</text>
</g>
<!-- C3 -->
<g id="node7" class="node">
<title>C3</title>
<polygon fill="none" stroke="black" points="647.5,-82.8 549,-82.8 549,-46.8 647.5,-46.8 647.5,-82.8"/>
<text xml:space="preserve" text-anchor="middle" x="598.25" y="-60.12" font-family="monospace" font-size="14.00">C3\n1e&#45;05F</text>
</g>
<!-- net_0 -->
<g id="node10" class="node">
<title>net_0</title>
<ellipse fill="none" stroke="black" cx="429.25" cy="-5.4" rx="5.4" ry="5.4"/>
</g>
<!-- C3&#45;&gt;net_0 -->
<g id="edge6" class="edge">
<title>C3&#45;&gt;net_0</title>
<path fill="none" stroke="black" d="M548.91,-47.04C506.83,-32.75 450.57,-13.64 434.02,-8.02"/>
<text xml:space="preserve" text-anchor="middle" x="543.66" y="-38.49" font-family="monospace" font-size="9.00">t2</text>
</g>
<!-- C3&#45;&gt;net_2 -->
<g id="edge5" class="edge">
<title>C3&#45;&gt;net_2</title>
<path fill="none" stroke="black" d="M630.95,-46.42C656.53,-32.83 689.7,-15.2 701.68,-8.83"/>
<text xml:space="preserve" text-anchor="middle" x="625.7" y="-37.87" font-family="monospace" font-size="9.00">t1</text>
</g>
<!-- LS1 -->
<g id="node8" class="node">
<title>LS1</title>
<polygon fill="none" stroke="black" points="307.12,-82.8 233.38,-82.8 233.38,-46.8 307.12,-46.8 307.12,-82.8"/>
<text xml:space="preserve" text-anchor="middle" x="270.25" y="-60.12" font-family="monospace" font-size="14.00">LS1\n8Ω</text>
</g>
<!-- LS1&#45;&gt;gnd -->
<g id="edge8" class="edge">
<title>LS1&#45;&gt;gnd</title>
<path fill="none" stroke="black" d="M254.65,-46.58C242.92,-33.63 227.82,-16.96 221.38,-9.85"/>
<text xml:space="preserve" text-anchor="middle" x="249.4" y="-38.03" font-family="monospace" font-size="9.00">t2</text>
</g>
<!-- LS1&#45;&gt;net_0 -->
<g id="edge7" class="edge">
<title>LS1&#45;&gt;net_0</title>
<path fill="none" stroke="black" d="M307.39,-50.03C310.39,-48.94 313.37,-47.85 316.25,-46.8 358.15,-31.57 408.96,-13.57 424.51,-8.08"/>
<text xml:space="preserve" text-anchor="middle" x="312.64" y="-52.73" font-family="monospace" font-size="9.00">t1</text>
</g>
</g>
</svg>
