<?xml version="1.0" encoding="UTF-8" standalone="no"?>
<!DOCTYPE svg PUBLIC "-//W3C//DTD SVG 1.1//EN"
 "http://www.w3.org/Graphics/SVG/1.1/DTD/svg11.dtd">
<!-- Generated by graphviz version 14.1.5 (20260411.2331)
 -->
<!-- Title: DoorbellProtector Pages: 1 -->
<svg width="2546pt" height="91pt"
 viewBox="0.00 0.00 2546.00 91.00" xmlns="http://www.w3.org/2000/svg" xmlns:xlink="http://www.w3.org/1999/xlink">
<g id="graph0" class="graph" transform="scale(1 1) rotate(0) translate(4 86.8)">
<title>DoorbellProtector</title>
<polygon fill="white" stroke="none" points="-4,4 -4,-86.8 2541.88,-86.8 2541.88,4 -4,4"/>
<!-- U1 -->
<g id="node1" class="node">
<title>U1</title>
<polygon fill="none" stroke="black" points="1111.88,-82.8 930.88,-82.8 930.88,-46.8 1111.88,-46.8 1111.88,-82.8"/>
<text xml:space="preserve" text-anchor="middle" x="1021.38" y="-60.12" font-family="monospace" font-size="14.00">U1\nNE555_Monostable</text>
</g>
<!-- net_0 -->
<g id="node22" class="node">
<title>net_0</title>
<ellipse fill="none" stroke="black" cx="390.38" cy="-5.4" rx="5.4" ry="5.4"/>
</g>
<!-- U1&#45;&gt;net_0 -->
<g id="edge18" class="edge">
<title>U1&#45;&gt;net_0</title>
<path fill="none" stroke="black" d="M930.52,-47.86C927.78,-47.49 925.06,-47.13 922.38,-46.8 705.88,-20.05 437.49,-8.33 395.9,-6.62"/>
<text xml:space="preserve" text-anchor="middle" x="922.65" y="-50.56" font-family="monospace" font-size="9.00">OUT</text>
</g>
<!-- net_1 -->
<g id="node23" class="node">
<title>net_1</title>
<ellipse fill="none" stroke="black" cx="1206.38" cy="-5.4" rx="5.4" ry="5.4"/>
</g>
<!-- U1&#45;&gt;net_1 -->
<g id="edge19" class="edge">
<title>U1&#45;&gt;net_1</title>
<path fill="none" stroke="black" d="M1077.63,-46.34C1123.56,-32.1 1183.64,-13.45 1201.29,-7.98"/>
<text xml:space="preserve" text-anchor="middle" x="1064.51" y="-37.79" font-family="monospace" font-size="9.00">RESET</text>
</g>
<!-- U2 -->
<g id="node2" class="node">
<title>U2</title>
<polygon fill="none" stroke="black" points="912.88,-82.8 731.88,-82.8 731.88,-46.8 912.88,-46.8 912.88,-82.8"/>
<text xml:space="preserve" text-anchor="middle" x="822.38" y="-60.12" font-family="monospace" font-size="14.00">U2\nNE555_Monostable</text>
</g>
<!-- U2&#45;&gt;net_0 -->
<g id="edge22" class="edge">
<title>U2&#45;&gt;net_0</title>
<path fill="none" stroke="black" d="M731.39,-48.14C728.35,-47.68 725.34,-47.23 722.38,-46.8 590.22,-27.54 427.54,-10.28 395.86,-6.97"/>
<text xml:space="preserve" text-anchor="middle" x="720.89" y="-39.59" font-family="monospace" font-size="9.00">TRIG</text>
</g>
<!-- net_2 -->
<g id="node24" class="node">
<title>net_2</title>
<ellipse fill="none" stroke="black" cx="857.38" cy="-5.4" rx="5.4" ry="5.4"/>
</g>
<!-- U2&#45;&gt;net_2 -->
<g id="edge20" class="edge">
<title>U2&#45;&gt;net_2</title>
<path fill="none" stroke="black" d="M832.88,-46.58C840.61,-33.9 850.52,-17.64 855,-10.3"/>
<text xml:space="preserve" text-anchor="middle" x="825" y="-38.03" font-family="monospace" font-size="9.00">OUT</text>
</g>
<!-- vcc -->
<g id="node25" class="node">
<title>vcc</title>
<ellipse fill="none" stroke="black" cx="1107.38" cy="-5.4" rx="5.4" ry="5.4"/>
</g>
<!-- U2&#45;&gt;vcc -->
<g id="edge21" class="edge">
<title>U2&#45;&gt;vcc</title>
<path fill="none" stroke="black" d="M909.05,-46.34C982.09,-31.63 1078.37,-12.24 1101.98,-7.49"/>
<text xml:space="preserve" text-anchor="middle" x="895.92" y="-37.79" font-family="monospace" font-size="9.00">RESET</text>
</g>
<!-- Q1 -->
<g id="node3" class="node">
<title>Q1</title>
<polygon fill="none" stroke="black" points="215.5,-82.8 125.25,-82.8 125.25,-46.8 215.5,-46.8 215.5,-82.8"/>
<text xml:space="preserve" text-anchor="middle" x="170.38" y="-60.12" font-family="monospace" font-size="14.00">Q1\nBC548</text>
</g>
<!-- gnd -->
<g id="node21" class="node">
<title>gnd</title>
<ellipse fill="none" stroke="black" cx="170.38" cy="-5.4" rx="5.4" ry="5.4"/>
</g>
<!-- Q1&#45;&gt;gnd -->
<g id="edge8" class="edge">
<title>Q1&#45;&gt;gnd</title>
<path fill="none" stroke="black" d="M170.38,-46.58C170.38,-34.43 170.38,-18.99 170.38,-11.26"/>
<text xml:space="preserve" text-anchor="middle" x="167.75" y="-38.03" font-family="monospace" font-size="9.00">e</text>
</g>
<!-- Q1&#45;&gt;net_0 -->
<g id="edge7" class="edge">
<title>Q1&#45;&gt;net_0</title>
<path fill="none" stroke="black" d="M215.98,-49.21C218.81,-48.38 221.63,-47.57 224.38,-46.8 287.23,-29.28 364.65,-12.04 385.18,-7.53"/>
<text xml:space="preserve" text-anchor="middle" x="218.6" y="-51.91" font-family="monospace" font-size="9.00">b</text>
</g>
<!-- Q2 -->
<g id="node4" class="node">
<title>Q2</title>
<polygon fill="none" stroke="black" points="713.75,-82.8 607,-82.8 607,-46.8 713.75,-46.8 713.75,-82.8"/>
<text xml:space="preserve" text-anchor="middle" x="660.38" y="-60.12" font-family="monospace" font-size="14.00">Q2\nQ2N3904</text>
</g>
<!-- Q2&#45;&gt;gnd -->
<g id="edge11" class="edge">
<title>Q2&#45;&gt;gnd</title>
<path fill="none" stroke="black" d="M606.74,-48.48C603.92,-47.87 601.12,-47.3 598.38,-46.8 427.31,-15.52 213.09,-7.71 175.98,-6.56"/>
<text xml:space="preserve" text-anchor="middle" x="604.11" y="-51.18" font-family="monospace" font-size="9.00">e</text>
</g>
<!-- Q2&#45;&gt;net_1 -->
<g id="edge10" class="edge">
<title>Q2&#45;&gt;net_1</title>
<path fill="none" stroke="black" d="M714.19,-48.6C717.28,-47.93 720.36,-47.33 723.38,-46.8 821.8,-29.55 1153.31,-9.53 1200.71,-6.73"/>
<text xml:space="preserve" text-anchor="middle" x="716.81" y="-51.3" font-family="monospace" font-size="9.00">c</text>
</g>
<!-- Q2&#45;&gt;net_2 -->
<g id="edge9" class="edge">
<title>Q2&#45;&gt;net_2</title>
<path fill="none" stroke="black" d="M714.21,-48.12C763.88,-33.64 832.77,-13.57 852.13,-7.93"/>
<text xml:space="preserve" text-anchor="middle" x="711.58" y="-50.82" font-family="monospace" font-size="9.00">b</text>
</g>
<!-- D1 -->
<g id="node5" class="node">
<title>D1</title>
<polygon fill="none" stroke="black" points="1345.75,-82.8 1239,-82.8 1239,-46.8 1345.75,-46.8 1345.75,-82.8"/>
<text xml:space="preserve" text-anchor="middle" x="1292.38" y="-60.12" font-family="monospace" font-size="14.00">D1\nD1N4007</text>
</g>
<!-- D1&#45;&gt;vcc -->
<g id="edge3" class="edge">
<title>D1&#45;&gt;vcc</title>
<path fill="none" stroke="black" d="M1238.87,-47.2C1192.76,-32.89 1130.85,-13.68 1112.63,-8.03"/>
<text xml:space="preserve" text-anchor="middle" x="1220.49" y="-38.65" font-family="monospace" font-size="9.00">cathode</text>
</g>
<!-- D2 -->
<g id="node6" class="node">
<title>D2</title>
<polygon fill="none" stroke="black" points="106.75,-82.8 0,-82.8 0,-46.8 106.75,-46.8 106.75,-82.8"/>
<text xml:space="preserve" text-anchor="middle" x="53.38" y="-60.12" font-family="monospace" font-size="14.00">D2\nred LED</text>
</g>
<!-- D2&#45;&gt;gnd -->
<g id="edge5" class="edge">
<title>D2&#45;&gt;gnd</title>
<path fill="none" stroke="black" d="M88.8,-46.42C116.78,-32.7 153.14,-14.85 165.8,-8.65"/>
<text xml:space="preserve" text-anchor="middle" x="70.42" y="-37.87" font-family="monospace" font-size="9.00">cathode</text>
</g>
<!-- D2&#45;&gt;net_0 -->
<g id="edge4" class="edge">
<title>D2&#45;&gt;net_0</title>
<path fill="none" stroke="black" d="M107.23,-48.82C110.32,-48.1 113.38,-47.42 116.38,-46.8 223.24,-24.58 356.02,-10 384.74,-6.98"/>
<text xml:space="preserve" text-anchor="middle" x="120.36" y="-40.27" font-family="monospace" font-size="9.00">anode</text>
</g>
<!-- R1 -->
<g id="node7" class="node">
<title>R1</title>
<polygon fill="none" stroke="black" points="323.5,-82.8 233.25,-82.8 233.25,-46.8 323.5,-46.8 323.5,-82.8"/>
<text xml:space="preserve" text-anchor="middle" x="278.38" y="-60.12" font-family="monospace" font-size="14.00">R1\n1000Ω</text>
</g>
<!-- R1&#45;&gt;net_0 -->
<g id="edge12" class="edge">
<title>R1&#45;&gt;net_0</title>
<path fill="none" stroke="black" d="M306.02,-46.42C332.78,-32.04 370.99,-13.13 385.28,-7.83"/>
<text xml:space="preserve" text-anchor="middle" x="300.77" y="-37.87" font-family="monospace" font-size="9.00">t1</text>
</g>
<!-- R1&#45;&gt;net_0 -->
<g id="edge13" class="edge">
<title>R1&#45;&gt;net_0</title>
<path fill="none" stroke="black" d="M318.54,-46.42C344.69,-33.62 375.74,-17.24 386.76,-10.05"/>
<text xml:space="preserve" text-anchor="middle" x="313.29" y="-37.87" font-family="monospace" font-size="9.00">t2</text>
</g>
<!-- R2 -->
<g id="node8" class="node">
<title>R2</title>
<polygon fill="none" stroke="black" points="1579.62,-82.8 1481.12,-82.8 1481.12,-46.8 1579.62,-46.8 1579.62,-82.8"/>
<text xml:space="preserve" text-anchor="middle" x="1530.38" y="-60.12" font-family="monospace" font-size="14.00">R2\n1e+06Ω</text>
</g>
<!-- R3 -->
<g id="node9" class="node">
<title>R3</title>
<polygon fill="none" stroke="black" points="1696.62,-82.8 1598.12,-82.8 1598.12,-46.8 1696.62,-46.8 1696.62,-82.8"/>
<text xml:space="preserve" text-anchor="middle" x="1647.38" y="-60.12" font-family="monospace" font-size="14.00">R3\n1e+06Ω</text>
</g>
<!-- R4 -->
<g id="node10" class="node">
<title>R4</title>
<polygon fill="none" stroke="black" points="1220.5,-82.8 1130.25,-82.8 1130.25,-46.8 1220.5,-46.8 1220.5,-82.8"/>
<text xml:space="preserve" text-anchor="middle" x="1175.38" y="-60.12" font-family="monospace" font-size="14.00">R4\n1000Ω</text>
</g>
<!-- R4&#45;&gt;net_2 -->
<g id="edge14" class="edge">
<title>R4&#45;&gt;net_2</title>
<path fill="none" stroke="black" d="M1129.8,-51.43C1123.94,-49.72 1118.02,-48.11 1112.38,-46.8 1013.47,-23.81 890.58,-10.59 862.76,-7.25"/>
<text xml:space="preserve" text-anchor="middle" x="1124.55" y="-54.13" font-family="monospace" font-size="9.00">t1</text>
</g>
<!-- R4&#45;&gt;net_2 -->
<g id="edge15" class="edge">
<title>R4&#45;&gt;net_2</title>
<path fill="none" stroke="black" d="M1130.04,-46.72C1024.85,-22.31 892.72,-8.93 863.04,-6.73"/>
<text xml:space="preserve" text-anchor="middle" x="1124.79" y="-38.17" font-family="monospace" font-size="9.00">t2</text>
</g>
<!-- R5 -->
<g id="node11" class="node">
<title>R5</title>
<polygon fill="none" stroke="black" points="1462.62,-82.8 1364.12,-82.8 1364.12,-46.8 1462.62,-46.8 1462.62,-82.8"/>
<text xml:space="preserve" text-anchor="middle" x="1413.38" y="-60.12" font-family="monospace" font-size="14.00">R5\n10000Ω</text>
</g>
<!-- R5&#45;&gt;net_1 -->
<g id="edge16" class="edge">
<title>R5&#45;&gt;net_1</title>
<path fill="none" stroke="black" d="M1363.88,-52.02C1357.61,-50.26 1351.33,-48.47 1345.38,-46.8 1292.8,-32.05 1229.52,-15.02 1211.02,-8.82"/>
<text xml:space="preserve" text-anchor="middle" x="1358.63" y="-54.72" font-family="monospace" font-size="9.00">t1</text>
</g>
<!-- R5&#45;&gt;net_1 -->
<g id="edge17" class="edge">
<title>R5&#45;&gt;net_1</title>
<path fill="none" stroke="black" d="M1363.68,-46.89C1363.58,-46.86 1363.48,-46.83 1363.38,-46.8 1304.91,-30.4 1233.19,-11.17 1211.84,-7.16"/>
<text xml:space="preserve" text-anchor="middle" x="1358.43" y="-38.34" font-family="monospace" font-size="9.00">t2</text>
</g>
<!-- R6 -->
<g id="node12" class="node">
<title>R6</title>
<polygon fill="none" stroke="black" points="1813.62,-82.8 1715.12,-82.8 1715.12,-46.8 1813.62,-46.8 1813.62,-82.8"/>
<text xml:space="preserve" text-anchor="middle" x="1764.38" y="-60.12" font-family="monospace" font-size="14.00">R6\n1e+06Ω</text>
</g>
<!-- R7 -->
<g id="node13" class="node">
<title>R7</title>
<polygon fill="none" stroke="black" points="1921.5,-82.8 1831.25,-82.8 1831.25,-46.8 1921.5,-46.8 1921.5,-82.8"/>
<text xml:space="preserve" text-anchor="middle" x="1876.38" y="-60.12" font-family="monospace" font-size="14.00">R7\n4700Ω</text>
</g>
<!-- R8 -->
<g id="node14" class="node">
<title>R8</title>
<polygon fill="none" stroke="black" points="2037.62,-82.8 1939.12,-82.8 1939.12,-46.8 2037.62,-46.8 2037.62,-82.8"/>
<text xml:space="preserve" text-anchor="middle" x="1988.38" y="-60.12" font-family="monospace" font-size="14.00">R8\n47000Ω</text>
</g>
<!-- C1 -->
<g id="node15" class="node">
<title>C1</title>
<polygon fill="none" stroke="black" points="2154.62,-82.8 2056.12,-82.8 2056.12,-46.8 2154.62,-46.8 2154.62,-82.8"/>
<text xml:space="preserve" text-anchor="middle" x="2105.38" y="-60.12" font-family="monospace" font-size="14.00">C1\n1e&#45;07F</text>
</g>
<!-- C2 -->
<g id="node16" class="node">
<title>C2</title>
<polygon fill="none" stroke="black" points="2287.88,-82.8 2172.88,-82.8 2172.88,-46.8 2287.88,-46.8 2287.88,-82.8"/>
<text xml:space="preserve" text-anchor="middle" x="2230.38" y="-60.12" font-family="monospace" font-size="14.00">C2\n4.7e&#45;06F</text>
</g>
<!-- C3 -->
<g id="node17" class="node">
<title>C3</title>
<polygon fill="none" stroke="black" points="2404.62,-82.8 2306.12,-82.8 2306.12,-46.8 2404.62,-46.8 2404.62,-82.8"/>
<text xml:space="preserve" text-anchor="middle" x="2355.38" y="-60.12" font-family="monospace" font-size="14.00">C3\n1e&#45;07F</text>
</g>
<!-- C4 -->
<g id="node18" class="node">
<title>C4</title>
<polygon fill="none" stroke="black" points="439.62,-82.8 341.12,-82.8 341.12,-46.8 439.62,-46.8 439.62,-82.8"/>
<text xml:space="preserve" text-anchor="middle" x="390.38" y="-60.12" font-family="monospace" font-size="14.00">C4\n1e&#45;07F</text>
</g>
<!-- C4&#45;&gt;net_0 -->
<g id="edge1" class="edge">
<title>C4&#45;&gt;net_0</title>
<path fill="none" stroke="black" d="M384.13,-46.58C382.93,-33.63 383.87,-16.96 386.95,-9.85"/>
<text xml:space="preserve" text-anchor="middle" x="378.88" y="-38.03" font-family="monospace" font-size="9.00">t1</text>
</g>
<!-- C4&#45;&gt;net_0 -->
<g id="edge2" class="edge">
<title>C4&#45;&gt;net_0</title>
<path fill="none" stroke="black" d="M396.62,-46.58C397.82,-33.63 396.88,-16.96 393.8,-9.85"/>
<text xml:space="preserve" text-anchor="middle" x="391.37" y="-38.03" font-family="monospace" font-size="9.00">t2</text>
</g>
<!-- C5 -->
<g id="node19" class="node">
<title>C5</title>
<polygon fill="none" stroke="black" points="2537.88,-82.8 2422.88,-82.8 2422.88,-46.8 2537.88,-46.8 2537.88,-82.8"/>
<text xml:space="preserve" text-anchor="middle" x="2480.38" y="-60.12" font-family="monospace" font-size="14.00">C5\n4.7e&#45;05F</text>
</g>
<!-- K1 -->
<g id="node20" class="node">
<title>K1</title>
<polygon fill="none" stroke="black" points="589.12,-82.8 457.62,-82.8 457.62,-46.8 589.12,-46.8 589.12,-82.8"/>
<text xml:space="preserve" text-anchor="middle" x="523.38" y="-60.12" font-family="monospace" font-size="14.00">K1\nRelay_SPDT</text>
</g>
<!-- K1&#45;&gt;net_0 -->
<g id="edge6" class="edge">
<title>K1&#45;&gt;net_0</title>
<path fill="none" stroke="black" d="M483.11,-46.42C451,-32.56 409.17,-14.51 395.17,-8.47"/>
<text xml:space="preserve" text-anchor="middle" x="459.48" y="-37.87" font-family="monospace" font-size="9.00">coil_plus</text>
</g>
</g>
</svg>
