<?xml version="1.0" encoding="UTF-8" standalone="no"?>
<!DOCTYPE svg PUBLIC "-//W3C//DTD SVG 1.1//EN"
 "http://www.w3.org/Graphics/SVG/1.1/DTD/svg11.dtd">
<!-- Generated by graphviz version 14.1.5 (20260411.2331)
 -->
<!-- Title: DoorbellProtector Pages: 1 -->
<svg width="2546pt" height="91pt"
 viewBox="0.00 0.00 2546.00 91.00" xmlns="http://www.w3.org/2000/svg" xmlns:xlink="http://www.w3.org/1999/xlink">
<g id="graph0" class="graph" transform="scale(1 1) rotate(0) translate(4 86.8)">
<title>DoorbellProtector</title>
<polygon fill="white" stroke="none" points="-4,4 -4,-86.8 2541.62,-86.8 2541.62,4 -4,4"/>
<!-- U1 -->
<g id="node1" class="node">
<title>U1</title>
<polygon fill="none" stroke="black" points="1838,-82.8 1657,-82.8 1657,-46.8 1838,-46.8 1838,-82.8"/>
<text xml:space="preserve" text-anchor="middle" x="1747.5" y="-60.12" font-family="monospace" font-size="14.00">U1\nNE555_Monostable</text>
</g>
<!-- gnd -->
<g id="node21" class="node">
<title>gnd</title>
<ellipse fill="none" stroke="black" cx="1747.5" cy="-5.4" rx="5.4" ry="5.4"/>
</g>
<!-- U1&#45;&gt;gnd -->
<g id="edge39" class="edge">
<title>U1&#45;&gt;gnd</title>
<path fill="none" stroke="black" d="M1747.5,-46.58C1747.5,-34.43 1747.5,-18.99 1747.5,-11.26"/>
<text xml:space="preserve" text-anchor="middle" x="1739.62" y="-49.28" font-family="monospace" font-size="9.00">GND</text>
</g>
<!-- net_0 -->
<g id="node22" class="node">
<title>net_0</title>
<ellipse fill="none" stroke="black" cx="1909.5" cy="-5.4" rx="5.4" ry="5.4"/>
</g>
<!-- U1&#45;&gt;net_0 -->
<g id="edge40" class="edge">
<title>U1&#45;&gt;net_0</title>
<path fill="none" stroke="black" d="M1796.54,-46.42C1836.4,-32.3 1888.56,-13.82 1904.6,-8.14"/>
<text xml:space="preserve" text-anchor="middle" x="1788.67" y="-49.12" font-family="monospace" font-size="9.00">OUT</text>
</g>
<!-- net_3 -->
<g id="node24" class="node">
<title>net_3</title>
<ellipse fill="none" stroke="black" cx="2254.5" cy="-5.4" rx="5.4" ry="5.4"/>
</g>
<!-- U1&#45;&gt;net_3 -->
<g id="edge41" class="edge">
<title>U1&#45;&gt;net_3</title>
<path fill="none" stroke="black" d="M1838.48,-48.06C1841.52,-47.62 1844.53,-47.2 1847.5,-46.8 2011.47,-24.75 2214.12,-9.37 2249.21,-6.79"/>
<text xml:space="preserve" text-anchor="middle" x="1825.35" y="-50.76" font-family="monospace" font-size="9.00">RESET</text>
</g>
<!-- vcc -->
<g id="node26" class="node">
<title>vcc</title>
<ellipse fill="none" stroke="black" cx="666.5" cy="-5.4" rx="5.4" ry="5.4"/>
</g>
<!-- U1&#45;&gt;vcc -->
<g id="edge42" class="edge">
<title>U1&#45;&gt;vcc</title>
<path fill="none" stroke="black" d="M1656.66,-47.73C1653.91,-47.4 1651.19,-47.08 1648.5,-46.8 1239.57,-3.46 730.29,-5.92 672.01,-6.35"/>
<text xml:space="preserve" text-anchor="middle" x="1648.79" y="-50.43" font-family="monospace" font-size="9.00">VCC</text>
</g>
<!-- U2 -->
<g id="node2" class="node">
<title>U2</title>
<polygon fill="none" stroke="black" points="1381,-82.8 1200,-82.8 1200,-46.8 1381,-46.8 1381,-82.8"/>
<text xml:space="preserve" text-anchor="middle" x="1290.5" y="-60.12" font-family="monospace" font-size="14.00">U2\nNE555_Monostable</text>
</g>
<!-- U2&#45;&gt;gnd -->
<g id="edge43" class="edge">
<title>U2&#45;&gt;gnd</title>
<path fill="none" stroke="black" d="M1381.48,-48.11C1384.52,-47.66 1387.54,-47.22 1390.5,-46.8 1533.17,-26.62 1709.04,-9.96 1742.03,-6.9"/>
<text xml:space="preserve" text-anchor="middle" x="1373.61" y="-50.81" font-family="monospace" font-size="9.00">GND</text>
</g>
<!-- U2&#45;&gt;net_0 -->
<g id="edge46" class="edge">
<title>U2&#45;&gt;net_0</title>
<path fill="none" stroke="black" d="M1381.47,-47.98C1384.51,-47.56 1387.53,-47.17 1390.5,-46.8 1601.28,-20.73 1862.43,-8.48 1903.85,-6.64"/>
<text xml:space="preserve" text-anchor="middle" x="1370.97" y="-50.68" font-family="monospace" font-size="9.00">TRIG</text>
</g>
<!-- net_4 -->
<g id="node25" class="node">
<title>net_4</title>
<ellipse fill="none" stroke="black" cx="2433.5" cy="-5.4" rx="5.4" ry="5.4"/>
</g>
<!-- U2&#45;&gt;net_4 -->
<g id="edge44" class="edge">
<title>U2&#45;&gt;net_4</title>
<path fill="none" stroke="black" d="M1381.45,-47.82C1384.5,-47.45 1387.52,-47.11 1390.5,-46.8 1500.67,-35.35 2351.8,-8.92 2428.04,-6.57"/>
<text xml:space="preserve" text-anchor="middle" x="1373.57" y="-50.52" font-family="monospace" font-size="9.00">OUT</text>
</g>
<!-- U2&#45;&gt;vcc -->
<g id="edge45" class="edge">
<title>U2&#45;&gt;vcc</title>
<path fill="none" stroke="black" d="M1199.75,-49.27C1193.57,-48.37 1187.44,-47.53 1181.5,-46.8 972.31,-21.01 713.99,-8.87 672.14,-6.74"/>
<text xml:space="preserve" text-anchor="middle" x="1186.63" y="-51.97" font-family="monospace" font-size="9.00">RESET</text>
</g>
<!-- U2&#45;&gt;vcc -->
<g id="edge47" class="edge">
<title>U2&#45;&gt;vcc</title>
<path fill="none" stroke="black" d="M1199.16,-46.76C983.23,-20.16 715.12,-8.09 672.2,-6.57"/>
<text xml:space="preserve" text-anchor="middle" x="1191.29" y="-49.46" font-family="monospace" font-size="9.00">VCC</text>
</g>
<!-- Q1 -->
<g id="node3" class="node">
<title>Q1</title>
<polygon fill="none" stroke="black" points="1489.62,-82.8 1399.38,-82.8 1399.38,-46.8 1489.62,-46.8 1489.62,-82.8"/>
<text xml:space="preserve" text-anchor="middle" x="1444.5" y="-60.12" font-family="monospace" font-size="14.00">Q1\nBC548</text>
</g>
<!-- Q1&#45;&gt;gnd -->
<g id="edge19" class="edge">
<title>Q1&#45;&gt;gnd</title>
<path fill="none" stroke="black" d="M1490.04,-48.96C1492.89,-48.18 1495.73,-47.46 1498.5,-46.8 1594.8,-23.95 1715.13,-9.96 1742.01,-6.99"/>
<text xml:space="preserve" text-anchor="middle" x="1487.41" y="-51.66" font-family="monospace" font-size="9.00">e</text>
</g>
<!-- Q1&#45;&gt;net_0 -->
<g id="edge17" class="edge">
<title>Q1&#45;&gt;net_0</title>
<path fill="none" stroke="black" d="M1489.99,-48.75C1492.85,-48.03 1495.71,-47.37 1498.5,-46.8 1662.18,-13.37 1868.38,-7.33 1904.11,-6.51"/>
<text xml:space="preserve" text-anchor="middle" x="1487.37" y="-51.45" font-family="monospace" font-size="9.00">b</text>
</g>
<!-- net_1 -->
<g id="node23" class="node">
<title>net_1</title>
<ellipse fill="none" stroke="black" cx="1444.5" cy="-5.4" rx="5.4" ry="5.4"/>
</g>
<!-- Q1&#45;&gt;net_1 -->
<g id="edge18" class="edge">
<title>Q1&#45;&gt;net_1</title>
<path fill="none" stroke="black" d="M1444.5,-46.58C1444.5,-34.43 1444.5,-18.99 1444.5,-11.26"/>
<text xml:space="preserve" text-anchor="middle" x="1441.88" y="-49.28" font-family="monospace" font-size="9.00">c</text>
</g>
<!-- Q2 -->
<g id="node4" class="node">
<title>Q2</title>
<polygon fill="none" stroke="black" points="2428.88,-82.8 2322.12,-82.8 2322.12,-46.8 2428.88,-46.8 2428.88,-82.8"/>
<text xml:space="preserve" text-anchor="middle" x="2375.5" y="-60.12" font-family="monospace" font-size="14.00">Q2\nQ2N3904</text>
</g>
<!-- Q2&#45;&gt;gnd -->
<g id="edge22" class="edge">
<title>Q2&#45;&gt;gnd</title>
<path fill="none" stroke="black" d="M2321.69,-48.55C2318.6,-47.9 2315.52,-47.31 2312.5,-46.8 2196.63,-27.21 1804.66,-8.99 1753.11,-6.65"/>
<text xml:space="preserve" text-anchor="middle" x="2319.07" y="-51.25" font-family="monospace" font-size="9.00">e</text>
</g>
<!-- Q2&#45;&gt;net_3 -->
<g id="edge21" class="edge">
<title>Q2&#45;&gt;net_3</title>
<path fill="none" stroke="black" d="M2338.87,-46.42C2309.93,-32.7 2272.32,-14.85 2259.23,-8.65"/>
<text xml:space="preserve" text-anchor="middle" x="2336.24" y="-49.12" font-family="monospace" font-size="9.00">c</text>
</g>
<!-- Q2&#45;&gt;net_4 -->
<g id="edge20" class="edge">
<title>Q2&#45;&gt;net_4</title>
<path fill="none" stroke="black" d="M2392.9,-46.58C2405.98,-33.63 2422.83,-16.96 2430.01,-9.85"/>
<text xml:space="preserve" text-anchor="middle" x="2390.28" y="-49.28" font-family="monospace" font-size="9.00">b</text>
</g>
<!-- D1 -->
<g id="node5" class="node">
<title>D1</title>
<polygon fill="none" stroke="black" points="1181.88,-82.8 1075.12,-82.8 1075.12,-46.8 1181.88,-46.8 1181.88,-82.8"/>
<text xml:space="preserve" text-anchor="middle" x="1128.5" y="-60.12" font-family="monospace" font-size="14.00">D1\nD1N4007</text>
</g>
<!-- D1&#45;&gt;net_1 -->
<g id="edge11" class="edge">
<title>D1&#45;&gt;net_1</title>
<path fill="none" stroke="black" d="M1182.18,-48.69C1184.99,-48.03 1187.77,-47.39 1190.5,-46.8 1289.14,-25.5 1411.58,-10.32 1438.92,-7.06"/>
<text xml:space="preserve" text-anchor="middle" x="1169.05" y="-51.39" font-family="monospace" font-size="9.00">anode</text>
</g>
<!-- D1&#45;&gt;vcc -->
<g id="edge12" class="edge">
<title>D1&#45;&gt;vcc</title>
<path fill="none" stroke="black" d="M1074.68,-48.66C1071.58,-47.98 1068.51,-47.35 1065.5,-46.8 906.64,-17.53 708.02,-8.13 672.17,-6.63"/>
<text xml:space="preserve" text-anchor="middle" x="1056.3" y="-51.36" font-family="monospace" font-size="9.00">cathode</text>
</g>
<!-- D2 -->
<g id="node6" class="node">
<title>D2</title>
<polygon fill="none" stroke="black" points="1962.88,-82.8 1856.12,-82.8 1856.12,-46.8 1962.88,-46.8 1962.88,-82.8"/>
<text xml:space="preserve" text-anchor="middle" x="1909.5" y="-60.12" font-family="monospace" font-size="14.00">D2\nred LED</text>
</g>
<!-- D2&#45;&gt;gnd -->
<g id="edge14" class="edge">
<title>D2&#45;&gt;gnd</title>
<path fill="none" stroke="black" d="M1860.46,-46.42C1820.6,-32.3 1768.44,-13.82 1752.4,-8.14"/>
<text xml:space="preserve" text-anchor="middle" x="1842.08" y="-37.87" font-family="monospace" font-size="9.00">cathode</text>
</g>
<!-- D2&#45;&gt;net_0 -->
<g id="edge13" class="edge">
<title>D2&#45;&gt;net_0</title>
<path fill="none" stroke="black" d="M1909.5,-46.58C1909.5,-34.43 1909.5,-18.99 1909.5,-11.26"/>
<text xml:space="preserve" text-anchor="middle" x="1896.38" y="-49.28" font-family="monospace" font-size="9.00">anode</text>
</g>
<!-- R1 -->
<g id="node7" class="node">
<title>R1</title>
<polygon fill="none" stroke="black" points="2187.62,-82.8 2097.38,-82.8 2097.38,-46.8 2187.62,-46.8 2187.62,-82.8"/>
<text xml:space="preserve" text-anchor="middle" x="2142.5" y="-60.12" font-family="monospace" font-size="14.00">R1\n1000Ω</text>
</g>
<!-- R1&#45;&gt;net_0 -->
<g id="edge23" class="edge">
<title>R1&#45;&gt;net_0</title>
<path fill="none" stroke="black" d="M2097.14,-51.86C2091.18,-50.09 2085.19,-48.34 2079.5,-46.8 2014.91,-29.38 1935.84,-13.35 1914.47,-8.16"/>
<text xml:space="preserve" text-anchor="middle" x="2091.89" y="-54.56" font-family="monospace" font-size="9.00">t1</text>
</g>
<!-- R1&#45;&gt;net_0 -->
<g id="edge24" class="edge">
<title>R1&#45;&gt;net_0</title>
<path fill="none" stroke="black" d="M2097.04,-46.68C2026.36,-27.64 1938.55,-10.3 1914.93,-6.97"/>
<text xml:space="preserve" text-anchor="middle" x="2091.79" y="-49.38" font-family="monospace" font-size="9.00">t2</text>
</g>
<!-- R2 -->
<g id="node8" class="node">
<title>R2</title>
<polygon fill="none" stroke="black" points="481.75,-82.8 383.25,-82.8 383.25,-46.8 481.75,-46.8 481.75,-82.8"/>
<text xml:space="preserve" text-anchor="middle" x="432.5" y="-60.12" font-family="monospace" font-size="14.00">R2\n1e+06Ω</text>
</g>
<!-- R2&#45;&gt;vcc -->
<g id="edge25" class="edge">
<title>R2&#45;&gt;vcc</title>
<path fill="none" stroke="black" d="M482.19,-46.88C482.29,-46.85 482.4,-46.83 482.5,-46.8 551.92,-28.8 637.86,-10.53 661.13,-7.01"/>
<text xml:space="preserve" text-anchor="middle" x="476.94" y="-38.33" font-family="monospace" font-size="9.00">t1</text>
</g>
<!-- R2&#45;&gt;vcc -->
<g id="edge26" class="edge">
<title>R2&#45;&gt;vcc</title>
<path fill="none" stroke="black" d="M481.94,-51.81C488.21,-50.07 494.52,-48.35 500.5,-46.8 563.58,-30.44 640.3,-13.87 661.45,-8.33"/>
<text xml:space="preserve" text-anchor="middle" x="476.69" y="-54.51" font-family="monospace" font-size="9.00">t2</text>
</g>
<!-- R3 -->
<g id="node9" class="node">
<title>R3</title>
<polygon fill="none" stroke="black" points="598.75,-82.8 500.25,-82.8 500.25,-46.8 598.75,-46.8 598.75,-82.8"/>
<text xml:space="preserve" text-anchor="middle" x="549.5" y="-60.12" font-family="monospace" font-size="14.00">R3\n1e+06Ω</text>
</g>
<!-- R3&#45;&gt;vcc -->
<g id="edge27" class="edge">
<title>R3&#45;&gt;vcc</title>
<path fill="none" stroke="black" d="M578.66,-46.42C606.68,-32.04 646.53,-13.13 661.28,-7.83"/>
<text xml:space="preserve" text-anchor="middle" x="573.41" y="-49.12" font-family="monospace" font-size="9.00">t1</text>
</g>
<!-- R3&#45;&gt;vcc -->
<g id="edge28" class="edge">
<title>R3&#45;&gt;vcc</title>
<path fill="none" stroke="black" d="M591.18,-46.42C618.73,-33.49 651.59,-16.9 662.92,-9.83"/>
<text xml:space="preserve" text-anchor="middle" x="585.93" y="-49.12" font-family="monospace" font-size="9.00">t2</text>
</g>
<!-- R4 -->
<g id="node10" class="node">
<title>R4</title>
<polygon fill="none" stroke="black" points="2537.62,-82.8 2447.38,-82.8 2447.38,-46.8 2537.62,-46.8 2537.62,-82.8"/>
<text xml:space="preserve" text-anchor="middle" x="2492.5" y="-60.12" font-family="monospace" font-size="14.00">R4\n1000Ω</text>
</g>
<!-- R4&#45;&gt;net_4 -->
<g id="edge29" class="edge">
<title>R4&#45;&gt;net_4</title>
<path fill="none" stroke="black" d="M2468.55,-46.58C2454.64,-34.16 2439.17,-18.31 2434.2,-10.77"/>
<text xml:space="preserve" text-anchor="middle" x="2463.3" y="-49.28" font-family="monospace" font-size="9.00">t1</text>
</g>
<!-- R4&#45;&gt;net_4 -->
<g id="edge30" class="edge">
<title>R4&#45;&gt;net_4</title>
<path fill="none" stroke="black" d="M2481.04,-46.58C2468.07,-32.71 2448.25,-14.56 2438.38,-8.48"/>
<text xml:space="preserve" text-anchor="middle" x="2475.79" y="-49.28" font-family="monospace" font-size="9.00">t2</text>
</g>
<!-- R5 -->
<g id="node11" class="node">
<title>R5</title>
<polygon fill="none" stroke="black" points="2303.75,-82.8 2205.25,-82.8 2205.25,-46.8 2303.75,-46.8 2303.75,-82.8"/>
<text xml:space="preserve" text-anchor="middle" x="2254.5" y="-60.12" font-family="monospace" font-size="14.00">R5\n10000Ω</text>
</g>
<!-- R5&#45;&gt;net_3 -->
<g id="edge31" class="edge">
<title>R5&#45;&gt;net_3</title>
<path fill="none" stroke="black" d="M2248.25,-46.58C2247.06,-33.63 2247.99,-16.96 2251.07,-9.85"/>
<text xml:space="preserve" text-anchor="middle" x="2243" y="-49.28" font-family="monospace" font-size="9.00">t1</text>
</g>
<!-- R5&#45;&gt;net_3 -->
<g id="edge32" class="edge">
<title>R5&#45;&gt;net_3</title>
<path fill="none" stroke="black" d="M2260.75,-46.58C2261.94,-33.63 2261.01,-16.96 2257.93,-9.85"/>
<text xml:space="preserve" text-anchor="middle" x="2255.5" y="-49.28" font-family="monospace" font-size="9.00">t2</text>
</g>
<!-- R6 -->
<g id="node12" class="node">
<title>R6</title>
<polygon fill="none" stroke="black" points="715.75,-82.8 617.25,-82.8 617.25,-46.8 715.75,-46.8 715.75,-82.8"/>
<text xml:space="preserve" text-anchor="middle" x="666.5" y="-60.12" font-family="monospace" font-size="14.00">R6\n1e+06Ω</text>
</g>
<!-- R6&#45;&gt;vcc -->
<g id="edge33" class="edge">
<title>R6&#45;&gt;vcc</title>
<path fill="none" stroke="black" d="M660.25,-46.58C659.06,-33.63 659.99,-16.96 663.07,-9.85"/>
<text xml:space="preserve" text-anchor="middle" x="655" y="-49.28" font-family="monospace" font-size="9.00">t1</text>
</g>
<!-- R6&#45;&gt;vcc -->
<g id="edge34" class="edge">
<title>R6&#45;&gt;vcc</title>
<path fill="none" stroke="black" d="M672.75,-46.58C673.94,-33.63 673.01,-16.96 669.93,-9.85"/>
<text xml:space="preserve" text-anchor="middle" x="667.5" y="-49.28" font-family="monospace" font-size="9.00">t2</text>
</g>
<!-- R7 -->
<g id="node13" class="node">
<title>R7</title>
<polygon fill="none" stroke="black" points="823.62,-82.8 733.38,-82.8 733.38,-46.8 823.62,-46.8 823.62,-82.8"/>
<text xml:space="preserve" text-anchor="middle" x="778.5" y="-60.12" font-family="monospace" font-size="14.00">R7\n4700Ω</text>
</g>
<!-- R7&#45;&gt;vcc -->
<g id="edge35" class="edge">
<title>R7&#45;&gt;vcc</title>
<path fill="none" stroke="black" d="M738.33,-46.42C712.18,-33.62 681.13,-17.24 670.11,-10.05"/>
<text xml:space="preserve" text-anchor="middle" x="733.08" y="-49.12" font-family="monospace" font-size="9.00">t1</text>
</g>
<!-- R7&#45;&gt;vcc -->
<g id="edge36" class="edge">
<title>R7&#45;&gt;vcc</title>
<path fill="none" stroke="black" d="M750.85,-46.42C724.09,-32.04 685.88,-13.13 671.6,-7.83"/>
<text xml:space="preserve" text-anchor="middle" x="745.6" y="-49.12" font-family="monospace" font-size="9.00">t2</text>
</g>
<!-- R8 -->
<g id="node14" class="node">
<title>R8</title>
<polygon fill="none" stroke="black" points="939.75,-82.8 841.25,-82.8 841.25,-46.8 939.75,-46.8 939.75,-82.8"/>
<text xml:space="preserve" text-anchor="middle" x="890.5" y="-60.12" font-family="monospace" font-size="14.00">R8\n47000Ω</text>
</g>
<!-- R8&#45;&gt;vcc -->
<g id="edge37" class="edge">
<title>R8&#45;&gt;vcc</title>
<path fill="none" stroke="black" d="M840.78,-51.58C834.93,-49.93 829.07,-48.29 823.5,-46.8 763.91,-30.82 691.57,-14.14 671.36,-8.44"/>
<text xml:space="preserve" text-anchor="middle" x="835.53" y="-54.28" font-family="monospace" font-size="9.00">t1</text>
</g>
<!-- R8&#45;&gt;vcc -->
<g id="edge38" class="edge">
<title>R8&#45;&gt;vcc</title>
<path fill="none" stroke="black" d="M841.07,-46.68C775.52,-29.13 694.74,-10.75 672,-7.06"/>
<text xml:space="preserve" text-anchor="middle" x="835.82" y="-38.13" font-family="monospace" font-size="9.00">t2</text>
</g>
<!-- C1 -->
<g id="node15" class="node">
<title>C1</title>
<polygon fill="none" stroke="black" points="1056.75,-82.8 958.25,-82.8 958.25,-46.8 1056.75,-46.8 1056.75,-82.8"/>
<text xml:space="preserve" text-anchor="middle" x="1007.5" y="-60.12" font-family="monospace" font-size="14.00">C1\n1e&#45;07F</text>
</g>
<!-- C1&#45;&gt;vcc -->
<g id="edge1" class="edge">
<title>C1&#45;&gt;vcc</title>
<path fill="none" stroke="black" d="M957.84,-51.26C951.66,-49.63 945.44,-48.08 939.5,-46.8 833.11,-23.97 701.31,-10.54 672.06,-7.22"/>
<text xml:space="preserve" text-anchor="middle" x="952.59" y="-53.96" font-family="monospace" font-size="9.00">t1</text>
</g>
<!-- C1&#45;&gt;vcc -->
<g id="edge2" class="edge">
<title>C1&#45;&gt;vcc</title>
<path fill="none" stroke="black" d="M957.81,-46.87C957.71,-46.84 957.6,-46.82 957.5,-46.8 844.34,-22.51 702.44,-8.87 672.01,-6.71"/>
<text xml:space="preserve" text-anchor="middle" x="952.56" y="-49.57" font-family="monospace" font-size="9.00">t2</text>
</g>
<!-- C2 -->
<g id="node16" class="node">
<title>C2</title>
<polygon fill="none" stroke="black" points="115,-82.8 0,-82.8 0,-46.8 115,-46.8 115,-82.8"/>
<text xml:space="preserve" text-anchor="middle" x="57.5" y="-60.12" font-family="monospace" font-size="14.00">C2\n4.7e&#45;06F</text>
</g>
<!-- C2&#45;&gt;vcc -->
<g id="edge3" class="edge">
<title>C2&#45;&gt;vcc</title>
<path fill="none" stroke="black" d="M115.85,-46.74C338.38,-10.54 617.51,-6.77 660.92,-6.43"/>
<text xml:space="preserve" text-anchor="middle" x="110.6" y="-38.19" font-family="monospace" font-size="9.00">t1</text>
</g>
<!-- C2&#45;&gt;vcc -->
<g id="edge4" class="edge">
<title>C2&#45;&gt;vcc</title>
<path fill="none" stroke="black" d="M115.26,-50.37C121.41,-49 127.58,-47.76 133.5,-46.8 349.1,-11.69 617.99,-7.04 660.83,-6.47"/>
<text xml:space="preserve" text-anchor="middle" x="110.01" y="-53.07" font-family="monospace" font-size="9.00">t2</text>
</g>
<!-- C3 -->
<g id="node17" class="node">
<title>C3</title>
<polygon fill="none" stroke="black" points="231.75,-82.8 133.25,-82.8 133.25,-46.8 231.75,-46.8 231.75,-82.8"/>
<text xml:space="preserve" text-anchor="middle" x="182.5" y="-60.12" font-family="monospace" font-size="14.00">C3\n1e&#45;07F</text>
</g>
<!-- C3&#45;&gt;vcc -->
<g id="edge5" class="edge">
<title>C3&#45;&gt;vcc</title>
<path fill="none" stroke="black" d="M232.05,-46.69C404.88,-13.56 622.35,-7.24 660.82,-6.49"/>
<text xml:space="preserve" text-anchor="middle" x="226.8" y="-49.39" font-family="monospace" font-size="9.00">t1</text>
</g>
<!-- C3&#45;&gt;vcc -->
<g id="edge6" class="edge">
<title>C3&#45;&gt;vcc</title>
<path fill="none" stroke="black" d="M232.05,-50.83C237.92,-49.29 243.83,-47.89 249.5,-46.8 415.84,-14.84 623.8,-7.76 660.94,-6.6"/>
<text xml:space="preserve" text-anchor="middle" x="226.8" y="-53.53" font-family="monospace" font-size="9.00">t2</text>
</g>
<!-- C4 -->
<g id="node18" class="node">
<title>C4</title>
<polygon fill="none" stroke="black" points="2079.75,-82.8 1981.25,-82.8 1981.25,-46.8 2079.75,-46.8 2079.75,-82.8"/>
<text xml:space="preserve" text-anchor="middle" x="2030.5" y="-60.12" font-family="monospace" font-size="14.00">C4\n1e&#45;07F</text>
</g>
<!-- C4&#45;&gt;net_0 -->
<g id="edge7" class="edge">
<title>C4&#45;&gt;net_0</title>
<path fill="none" stroke="black" d="M1987.61,-46.42C1959.16,-33.49 1925.14,-16.9 1913.32,-9.83"/>
<text xml:space="preserve" text-anchor="middle" x="1982.36" y="-49.12" font-family="monospace" font-size="9.00">t1</text>
</g>
<!-- C4&#45;&gt;net_0 -->
<g id="edge8" class="edge">
<title>C4&#45;&gt;net_0</title>
<path fill="none" stroke="black" d="M2000.13,-46.42C1971.11,-32.04 1929.94,-13.13 1914.82,-7.83"/>
<text xml:space="preserve" text-anchor="middle" x="1994.88" y="-49.12" font-family="monospace" font-size="9.00">t2</text>
</g>
<!-- C5 -->
<g id="node19" class="node">
<title>C5</title>
<polygon fill="none" stroke="black" points="365,-82.8 250,-82.8 250,-46.8 365,-46.8 365,-82.8"/>
<text xml:space="preserve" text-anchor="middle" x="307.5" y="-60.12" font-family="monospace" font-size="14.00">C5\n4.7e&#45;05F</text>
</g>
<!-- C5&#45;&gt;vcc -->
<g id="edge9" class="edge">
<title>C5&#45;&gt;vcc</title>
<path fill="none" stroke="black" d="M365.88,-46.73C483.36,-23.8 629.73,-9.09 660.89,-6.73"/>
<text xml:space="preserve" text-anchor="middle" x="360.63" y="-38.18" font-family="monospace" font-size="9.00">t1</text>
</g>
<!-- C5&#45;&gt;vcc -->
<g id="edge10" class="edge">
<title>C5&#45;&gt;vcc</title>
<path fill="none" stroke="black" d="M365.32,-50.73C371.47,-49.3 377.61,-47.95 383.5,-46.8 494.5,-25.11 631.47,-10.76 661.05,-7.24"/>
<text xml:space="preserve" text-anchor="middle" x="360.07" y="-53.43" font-family="monospace" font-size="9.00">t2</text>
</g>
<!-- K1 -->
<g id="node20" class="node">
<title>K1</title>
<polygon fill="none" stroke="black" points="1639.25,-82.8 1507.75,-82.8 1507.75,-46.8 1639.25,-46.8 1639.25,-82.8"/>
<text xml:space="preserve" text-anchor="middle" x="1573.5" y="-60.12" font-family="monospace" font-size="14.00">K1\nRelay_SPDT</text>
</g>
<!-- K1&#45;&gt;net_0 -->
<g id="edge16" class="edge">
<title>K1&#45;&gt;net_0</title>
<path fill="none" stroke="black" d="M1639.61,-48.36C1642.27,-47.82 1644.91,-47.3 1647.5,-46.8 1750.11,-27.13 1876.75,-10.58 1904.13,-7.08"/>
<text xml:space="preserve" text-anchor="middle" x="1615.99" y="-51.06" font-family="monospace" font-size="9.00">coil_plus</text>
</g>
<!-- K1&#45;&gt;net_1 -->
<g id="edge15" class="edge">
<title>K1&#45;&gt;net_1</title>
<path fill="none" stroke="black" d="M1534.45,-46.42C1503.3,-32.56 1462.73,-14.51 1449.15,-8.47"/>
<text xml:space="preserve" text-anchor="middle" x="1508.2" y="-37.87" font-family="monospace" font-size="9.00">coil_minus</text>
</g>
</g>
</svg>
