<?xml version="1.0" encoding="UTF-8" standalone="no"?>
<!DOCTYPE svg PUBLIC "-//W3C//DTD SVG 1.1//EN"
 "http://www.w3.org/Graphics/SVG/1.1/DTD/svg11.dtd">
<!-- Generated by graphviz version 14.1.5 (20260411.2331)
 -->
<!-- Title: DoorbellProtector Pages: 1 -->
<svg width="2544pt" height="91pt"
 viewBox="0.00 0.00 2544.00 91.00" xmlns="http://www.w3.org/2000/svg" xmlns:xlink="http://www.w3.org/1999/xlink">
<g id="graph0" class="graph" transform="scale(1 1) rotate(0) translate(4 86.8)">
<title>DoorbellProtector</title>
<polygon fill="white" stroke="none" points="-4,4 -4,-86.8 2540.25,-86.8 2540.25,4 -4,4"/>
<!-- U1 -->
<g id="node1" class="node">
<title>U1</title>
<polygon fill="none" stroke="black" points="788.25,-82.8 607.25,-82.8 607.25,-46.8 788.25,-46.8 788.25,-82.8"/>
<text xml:space="preserve" text-anchor="middle" x="697.75" y="-60.12" font-family="monospace" font-size="14.00">U1\nNE555_Monostable</text>
</g>
<!-- gnd -->
<g id="node21" class="node">
<title>gnd</title>
<ellipse fill="none" stroke="black" cx="697.75" cy="-5.4" rx="5.4" ry="5.4"/>
</g>
<!-- U1&#45;&gt;gnd -->
<g id="edge18" class="edge">
<title>U1&#45;&gt;gnd</title>
<path fill="none" stroke="black" d="M697.75,-46.58C697.75,-34.43 697.75,-18.99 697.75,-11.26"/>
<text xml:space="preserve" text-anchor="middle" x="689.88" y="-38.03" font-family="monospace" font-size="9.00">GND</text>
</g>
<!-- net_0 -->
<g id="node22" class="node">
<title>net_0</title>
<ellipse fill="none" stroke="black" cx="306.75" cy="-5.4" rx="5.4" ry="5.4"/>
</g>
<!-- U1&#45;&gt;net_0 -->
<g id="edge19" class="edge">
<title>U1&#45;&gt;net_0</title>
<path fill="none" stroke="black" d="M606.75,-48.21C603.72,-47.73 600.71,-47.26 597.75,-46.8 482.82,-29.06 341.78,-10.87 312.31,-7.11"/>
<text xml:space="preserve" text-anchor="middle" x="598.88" y="-50.91" font-family="monospace" font-size="9.00">OUT</text>
</g>
<!-- net_1 -->
<g id="node23" class="node">
<title>net_1</title>
<ellipse fill="none" stroke="black" cx="1234.75" cy="-5.4" rx="5.4" ry="5.4"/>
</g>
<!-- U1&#45;&gt;net_1 -->
<g id="edge20" class="edge">
<title>U1&#45;&gt;net_1</title>
<path fill="none" stroke="black" d="M788.61,-47.91C791.35,-47.53 794.07,-47.15 796.75,-46.8 973.15,-23.55 1191.28,-9.16 1229.05,-6.76"/>
<text xml:space="preserve" text-anchor="middle" x="801.73" y="-39.36" font-family="monospace" font-size="9.00">RESET</text>
</g>
<!-- vcc -->
<g id="node25" class="node">
<title>vcc</title>
<ellipse fill="none" stroke="black" cx="896.75" cy="-5.4" rx="5.4" ry="5.4"/>
</g>
<!-- U1&#45;&gt;vcc -->
<g id="edge21" class="edge">
<title>U1&#45;&gt;vcc</title>
<path fill="none" stroke="black" d="M758.27,-46.34C808.12,-31.96 873.49,-13.11 891.8,-7.83"/>
<text xml:space="preserve" text-anchor="middle" x="750.39" y="-37.79" font-family="monospace" font-size="9.00">VCC</text>
</g>
<!-- U2 -->
<g id="node2" class="node">
<title>U2</title>
<polygon fill="none" stroke="black" points="987.25,-82.8 806.25,-82.8 806.25,-46.8 987.25,-46.8 987.25,-82.8"/>
<text xml:space="preserve" text-anchor="middle" x="896.75" y="-60.12" font-family="monospace" font-size="14.00">U2\nNE555_Monostable</text>
</g>
<!-- U2&#45;&gt;gnd -->
<g id="edge22" class="edge">
<title>U2&#45;&gt;gnd</title>
<path fill="none" stroke="black" d="M836.23,-46.34C786.38,-31.96 721.01,-13.11 702.7,-7.83"/>
<text xml:space="preserve" text-anchor="middle" x="828.36" y="-37.79" font-family="monospace" font-size="9.00">GND</text>
</g>
<!-- U2&#45;&gt;net_0 -->
<g id="edge25" class="edge">
<title>U2&#45;&gt;net_0</title>
<path fill="none" stroke="black" d="M805.78,-47.99C802.74,-47.57 799.72,-47.17 796.75,-46.8 598.16,-21.78 352.24,-8.7 312.34,-6.68"/>
<text xml:space="preserve" text-anchor="middle" x="795.28" y="-50.69" font-family="monospace" font-size="9.00">TRIG</text>
</g>
<!-- net_2 -->
<g id="node24" class="node">
<title>net_2</title>
<ellipse fill="none" stroke="black" cx="1365.75" cy="-5.4" rx="5.4" ry="5.4"/>
</g>
<!-- U2&#45;&gt;net_2 -->
<g id="edge23" class="edge">
<title>U2&#45;&gt;net_2</title>
<path fill="none" stroke="black" d="M987.73,-48.1C990.77,-47.65 993.79,-47.21 996.75,-46.8 1144.19,-26.22 1326,-9.88 1360.1,-6.89"/>
<text xml:space="preserve" text-anchor="middle" x="995.61" y="-50.8" font-family="monospace" font-size="9.00">OUT</text>
</g>
<!-- U2&#45;&gt;vcc -->
<g id="edge24" class="edge">
<title>U2&#45;&gt;vcc</title>
<path fill="none" stroke="black" d="M890.5,-46.58C889.31,-33.63 890.24,-16.96 893.32,-9.85"/>
<text xml:space="preserve" text-anchor="middle" x="877.38" y="-38.03" font-family="monospace" font-size="9.00">RESET</text>
</g>
<!-- U2&#45;&gt;vcc -->
<g id="edge26" class="edge">
<title>U2&#45;&gt;vcc</title>
<path fill="none" stroke="black" d="M903,-46.58C904.19,-33.63 903.26,-16.96 900.18,-9.85"/>
<text xml:space="preserve" text-anchor="middle" x="910.87" y="-38.03" font-family="monospace" font-size="9.00">VCC</text>
</g>
<!-- Q1 -->
<g id="node3" class="node">
<title>Q1</title>
<polygon fill="none" stroke="black" points="463.88,-82.8 373.62,-82.8 373.62,-46.8 463.88,-46.8 463.88,-82.8"/>
<text xml:space="preserve" text-anchor="middle" x="418.75" y="-60.12" font-family="monospace" font-size="14.00">Q1\nBC548</text>
</g>
<!-- Q1&#45;&gt;gnd -->
<g id="edge8" class="edge">
<title>Q1&#45;&gt;gnd</title>
<path fill="none" stroke="black" d="M464.25,-49.27C467.45,-48.39 470.64,-47.56 473.75,-46.8 559.75,-25.84 666.75,-10.63 692.16,-7.15"/>
<text xml:space="preserve" text-anchor="middle" x="466.87" y="-51.97" font-family="monospace" font-size="9.00">e</text>
</g>
<!-- Q1&#45;&gt;net_0 -->
<g id="edge7" class="edge">
<title>Q1&#45;&gt;net_0</title>
<path fill="none" stroke="black" d="M384.84,-46.42C358.32,-32.83 323.91,-15.2 311.49,-8.83"/>
<text xml:space="preserve" text-anchor="middle" x="382.22" y="-37.87" font-family="monospace" font-size="9.00">b</text>
</g>
<!-- Q2 -->
<g id="node4" class="node">
<title>Q2</title>
<polygon fill="none" stroke="black" points="1237.12,-82.8 1130.38,-82.8 1130.38,-46.8 1237.12,-46.8 1237.12,-82.8"/>
<text xml:space="preserve" text-anchor="middle" x="1183.75" y="-60.12" font-family="monospace" font-size="14.00">Q2\nQ2N3904</text>
</g>
<!-- Q2&#45;&gt;gnd -->
<g id="edge11" class="edge">
<title>Q2&#45;&gt;gnd</title>
<path fill="none" stroke="black" d="M1129.93,-48.64C1126.84,-47.97 1123.76,-47.35 1120.75,-46.8 951.62,-16.13 739.95,-7.82 703.28,-6.58"/>
<text xml:space="preserve" text-anchor="middle" x="1127.3" y="-51.34" font-family="monospace" font-size="9.00">e</text>
</g>
<!-- Q2&#45;&gt;net_1 -->
<g id="edge10" class="edge">
<title>Q2&#45;&gt;net_1</title>
<path fill="none" stroke="black" d="M1199.05,-46.58C1210.55,-33.63 1225.37,-16.96 1231.68,-9.85"/>
<text xml:space="preserve" text-anchor="middle" x="1196.43" y="-38.03" font-family="monospace" font-size="9.00">c</text>
</g>
<!-- Q2&#45;&gt;net_2 -->
<g id="edge9" class="edge">
<title>Q2&#45;&gt;net_2</title>
<path fill="none" stroke="black" d="M1237.37,-46.89C1282.67,-32.6 1342.92,-13.6 1360.64,-8.01"/>
<text xml:space="preserve" text-anchor="middle" x="1234.75" y="-38.34" font-family="monospace" font-size="9.00">b</text>
</g>
<!-- D1 -->
<g id="node5" class="node">
<title>D1</title>
<polygon fill="none" stroke="black" points="1112.12,-82.8 1005.38,-82.8 1005.38,-46.8 1112.12,-46.8 1112.12,-82.8"/>
<text xml:space="preserve" text-anchor="middle" x="1058.75" y="-60.12" font-family="monospace" font-size="14.00">D1\nD1N4007</text>
</g>
<!-- D1&#45;&gt;vcc -->
<g id="edge3" class="edge">
<title>D1&#45;&gt;vcc</title>
<path fill="none" stroke="black" d="M1009.71,-46.42C969.85,-32.3 917.69,-13.82 901.65,-8.14"/>
<text xml:space="preserve" text-anchor="middle" x="991.33" y="-37.87" font-family="monospace" font-size="9.00">cathode</text>
</g>
<!-- D2 -->
<g id="node6" class="node">
<title>D2</title>
<polygon fill="none" stroke="black" points="589.12,-82.8 482.38,-82.8 482.38,-46.8 589.12,-46.8 589.12,-82.8"/>
<text xml:space="preserve" text-anchor="middle" x="535.75" y="-60.12" font-family="monospace" font-size="14.00">D2\nred LED</text>
</g>
<!-- D2&#45;&gt;gnd -->
<g id="edge5" class="edge">
<title>D2&#45;&gt;gnd</title>
<path fill="none" stroke="black" d="M584.79,-46.42C624.65,-32.3 676.81,-13.82 692.85,-8.14"/>
<text xml:space="preserve" text-anchor="middle" x="566.42" y="-37.87" font-family="monospace" font-size="9.00">cathode</text>
</g>
<!-- D2&#45;&gt;net_0 -->
<g id="edge4" class="edge">
<title>D2&#45;&gt;net_0</title>
<path fill="none" stroke="black" d="M482.16,-49.24C478.98,-48.41 475.82,-47.59 472.75,-46.8 409.54,-30.58 332.38,-12.4 311.93,-7.61"/>
<text xml:space="preserve" text-anchor="middle" x="469.03" y="-40.69" font-family="monospace" font-size="9.00">anode</text>
</g>
<!-- R1 -->
<g id="node7" class="node">
<title>R1</title>
<polygon fill="none" stroke="black" points="239.88,-82.8 149.62,-82.8 149.62,-46.8 239.88,-46.8 239.88,-82.8"/>
<text xml:space="preserve" text-anchor="middle" x="194.75" y="-60.12" font-family="monospace" font-size="14.00">R1\n1000Ω</text>
</g>
<!-- R1&#45;&gt;net_0 -->
<g id="edge12" class="edge">
<title>R1&#45;&gt;net_0</title>
<path fill="none" stroke="black" d="M222.4,-46.42C249.16,-32.04 287.37,-13.13 301.65,-7.83"/>
<text xml:space="preserve" text-anchor="middle" x="217.15" y="-37.87" font-family="monospace" font-size="9.00">t1</text>
</g>
<!-- R1&#45;&gt;net_0 -->
<g id="edge13" class="edge">
<title>R1&#45;&gt;net_0</title>
<path fill="none" stroke="black" d="M234.92,-46.42C261.07,-33.62 292.12,-17.24 303.14,-10.05"/>
<text xml:space="preserve" text-anchor="middle" x="229.67" y="-37.87" font-family="monospace" font-size="9.00">t2</text>
</g>
<!-- R2 -->
<g id="node8" class="node">
<title>R2</title>
<polygon fill="none" stroke="black" points="1578,-82.8 1479.5,-82.8 1479.5,-46.8 1578,-46.8 1578,-82.8"/>
<text xml:space="preserve" text-anchor="middle" x="1528.75" y="-60.12" font-family="monospace" font-size="14.00">R2\n1e+06Ω</text>
</g>
<!-- R3 -->
<g id="node9" class="node">
<title>R3</title>
<polygon fill="none" stroke="black" points="1695,-82.8 1596.5,-82.8 1596.5,-46.8 1695,-46.8 1695,-82.8"/>
<text xml:space="preserve" text-anchor="middle" x="1645.75" y="-60.12" font-family="monospace" font-size="14.00">R3\n1e+06Ω</text>
</g>
<!-- R4 -->
<g id="node10" class="node">
<title>R4</title>
<polygon fill="none" stroke="black" points="1461.88,-82.8 1371.62,-82.8 1371.62,-46.8 1461.88,-46.8 1461.88,-82.8"/>
<text xml:space="preserve" text-anchor="middle" x="1416.75" y="-60.12" font-family="monospace" font-size="14.00">R4\n1000Ω</text>
</g>
<!-- R4&#45;&gt;net_2 -->
<g id="edge14" class="edge">
<title>R4&#45;&gt;net_2</title>
<path fill="none" stroke="black" d="M1395.2,-46.58C1383.28,-34.43 1370.32,-18.99 1366.1,-11.26"/>
<text xml:space="preserve" text-anchor="middle" x="1389.95" y="-38.03" font-family="monospace" font-size="9.00">t1</text>
</g>
<!-- R4&#45;&gt;net_2 -->
<g id="edge15" class="edge">
<title>R4&#45;&gt;net_2</title>
<path fill="none" stroke="black" d="M1407.69,-46.58C1396.76,-32.84 1379.69,-14.9 1370.6,-8.66"/>
<text xml:space="preserve" text-anchor="middle" x="1402.44" y="-38.03" font-family="monospace" font-size="9.00">t2</text>
</g>
<!-- R5 -->
<g id="node11" class="node">
<title>R5</title>
<polygon fill="none" stroke="black" points="1354,-82.8 1255.5,-82.8 1255.5,-46.8 1354,-46.8 1354,-82.8"/>
<text xml:space="preserve" text-anchor="middle" x="1304.75" y="-60.12" font-family="monospace" font-size="14.00">R5\n10000Ω</text>
</g>
<!-- R5&#45;&gt;net_1 -->
<g id="edge16" class="edge">
<title>R5&#45;&gt;net_1</title>
<path fill="none" stroke="black" d="M1277.5,-46.58C1261.21,-34.16 1242.7,-18.31 1236.29,-10.77"/>
<text xml:space="preserve" text-anchor="middle" x="1272.25" y="-38.03" font-family="monospace" font-size="9.00">t1</text>
</g>
<!-- R5&#45;&gt;net_1 -->
<g id="edge17" class="edge">
<title>R5&#45;&gt;net_1</title>
<path fill="none" stroke="black" d="M1289.99,-46.58C1274.22,-32.58 1250.61,-14.21 1239.71,-8.31"/>
<text xml:space="preserve" text-anchor="middle" x="1284.74" y="-38.03" font-family="monospace" font-size="9.00">t2</text>
</g>
<!-- R6 -->
<g id="node12" class="node">
<title>R6</title>
<polygon fill="none" stroke="black" points="1812,-82.8 1713.5,-82.8 1713.5,-46.8 1812,-46.8 1812,-82.8"/>
<text xml:space="preserve" text-anchor="middle" x="1762.75" y="-60.12" font-family="monospace" font-size="14.00">R6\n1e+06Ω</text>
</g>
<!-- R7 -->
<g id="node13" class="node">
<title>R7</title>
<polygon fill="none" stroke="black" points="1919.88,-82.8 1829.62,-82.8 1829.62,-46.8 1919.88,-46.8 1919.88,-82.8"/>
<text xml:space="preserve" text-anchor="middle" x="1874.75" y="-60.12" font-family="monospace" font-size="14.00">R7\n4700Ω</text>
</g>
<!-- R8 -->
<g id="node14" class="node">
<title>R8</title>
<polygon fill="none" stroke="black" points="2036,-82.8 1937.5,-82.8 1937.5,-46.8 2036,-46.8 2036,-82.8"/>
<text xml:space="preserve" text-anchor="middle" x="1986.75" y="-60.12" font-family="monospace" font-size="14.00">R8\n47000Ω</text>
</g>
<!-- C1 -->
<g id="node15" class="node">
<title>C1</title>
<polygon fill="none" stroke="black" points="2153,-82.8 2054.5,-82.8 2054.5,-46.8 2153,-46.8 2153,-82.8"/>
<text xml:space="preserve" text-anchor="middle" x="2103.75" y="-60.12" font-family="monospace" font-size="14.00">C1\n1e&#45;07F</text>
</g>
<!-- C2 -->
<g id="node16" class="node">
<title>C2</title>
<polygon fill="none" stroke="black" points="2286.25,-82.8 2171.25,-82.8 2171.25,-46.8 2286.25,-46.8 2286.25,-82.8"/>
<text xml:space="preserve" text-anchor="middle" x="2228.75" y="-60.12" font-family="monospace" font-size="14.00">C2\n4.7e&#45;06F</text>
</g>
<!-- C3 -->
<g id="node17" class="node">
<title>C3</title>
<polygon fill="none" stroke="black" points="2403,-82.8 2304.5,-82.8 2304.5,-46.8 2403,-46.8 2403,-82.8"/>
<text xml:space="preserve" text-anchor="middle" x="2353.75" y="-60.12" font-family="monospace" font-size="14.00">C3\n1e&#45;07F</text>
</g>
<!-- C4 -->
<g id="node18" class="node">
<title>C4</title>
<polygon fill="none" stroke="black" points="356,-82.8 257.5,-82.8 257.5,-46.8 356,-46.8 356,-82.8"/>
<text xml:space="preserve" text-anchor="middle" x="306.75" y="-60.12" font-family="monospace" font-size="14.00">C4\n1e&#45;07F</text>
</g>
<!-- C4&#45;&gt;net_0 -->
<g id="edge1" class="edge">
<title>C4&#45;&gt;net_0</title>
<path fill="none" stroke="black" d="M300.5,-46.58C299.31,-33.63 300.24,-16.96 303.32,-9.85"/>
<text xml:space="preserve" text-anchor="middle" x="295.25" y="-38.03" font-family="monospace" font-size="9.00">t1</text>
</g>
<!-- C4&#45;&gt;net_0 -->
<g id="edge2" class="edge">
<title>C4&#45;&gt;net_0</title>
<path fill="none" stroke="black" d="M313,-46.58C314.19,-33.63 313.26,-16.96 310.18,-9.85"/>
<text xml:space="preserve" text-anchor="middle" x="307.75" y="-38.03" font-family="monospace" font-size="9.00">t2</text>
</g>
<!-- C5 -->
<g id="node19" class="node">
<title>C5</title>
<polygon fill="none" stroke="black" points="2536.25,-82.8 2421.25,-82.8 2421.25,-46.8 2536.25,-46.8 2536.25,-82.8"/>
<text xml:space="preserve" text-anchor="middle" x="2478.75" y="-60.12" font-family="monospace" font-size="14.00">C5\n4.7e&#45;05F</text>
</g>
<!-- K1 -->
<g id="node20" class="node">
<title>K1</title>
<polygon fill="none" stroke="black" points="131.5,-82.8 0,-82.8 0,-46.8 131.5,-46.8 131.5,-82.8"/>
<text xml:space="preserve" text-anchor="middle" x="65.75" y="-60.12" font-family="monospace" font-size="14.00">K1\nRelay_SPDT</text>
</g>
<!-- K1&#45;&gt;net_0 -->
<g id="edge6" class="edge">
<title>K1&#45;&gt;net_0</title>
<path fill="none" stroke="black" d="M131.92,-48.04C193.79,-33.3 279.83,-12.81 301.59,-7.63"/>
<text xml:space="preserve" text-anchor="middle" x="155.55" y="-39.49" font-family="monospace" font-size="9.00">coil_plus</text>
</g>
</g>
</svg>
