<?xml version="1.0" encoding="UTF-8" standalone="no"?>
<!DOCTYPE svg PUBLIC "-//W3C//DTD SVG 1.1//EN"
 "http://www.w3.org/Graphics/SVG/1.1/DTD/svg11.dtd">
<!-- Generated by graphviz version 14.1.5 (20260411.2331)
 -->
<!-- Title: WarblingDoorbuzzer Pages: 1 -->
<svg width="1447pt" height="91pt"
 viewBox="0.00 0.00 1447.00 91.00" xmlns="http://www.w3.org/2000/svg" xmlns:xlink="http://www.w3.org/1999/xlink">
<g id="graph0" class="graph" transform="scale(1 1) rotate(0) translate(4 86.8)">
<title>WarblingDoorbuzzer</title>
<polygon fill="white" stroke="none" points="-4,4 -4,-86.8 1442.5,-86.8 1442.5,4 -4,4"/>
<!-- U1 -->
<g id="node1" class="node">
<title>U1</title>
<polygon fill="none" stroke="black" points="323.38,-82.8 233.12,-82.8 233.12,-46.8 323.38,-46.8 323.38,-82.8"/>
<text xml:space="preserve" text-anchor="middle" x="278.25" y="-60.12" font-family="monospace" font-size="14.00">U1\nNE555</text>
</g>
<!-- gnd -->
<g id="node14" class="node">
<title>gnd</title>
<ellipse fill="none" stroke="black" cx="749.25" cy="-5.4" rx="5.4" ry="5.4"/>
</g>
<!-- U1&#45;&gt;gnd -->
<g id="edge25" class="edge">
<title>U1&#45;&gt;gnd</title>
<path fill="none" stroke="black" d="M323.74,-48.74C326.6,-48.03 329.46,-47.37 332.25,-46.8 495.46,-13.61 539.5,-27.09 705.25,-10.8 719.16,-9.43 735.53,-7.79 743.83,-6.95"/>
<text xml:space="preserve" text-anchor="middle" x="331.61" y="-40.19" font-family="monospace" font-size="9.00">GND</text>
</g>
<!-- net_10 -->
<g id="node16" class="node">
<title>net_10</title>
<ellipse fill="none" stroke="black" cx="166.25" cy="-5.4" rx="5.4" ry="5.4"/>
</g>
<!-- U1&#45;&gt;net_10 -->
<g id="edge24" class="edge">
<title>U1&#45;&gt;net_10</title>
<path fill="none" stroke="black" d="M244.34,-46.42C217.82,-32.83 183.41,-15.2 170.99,-8.83"/>
<text xml:space="preserve" text-anchor="middle" x="231.22" y="-37.87" font-family="monospace" font-size="9.00">DISCH</text>
</g>
<!-- net_11 -->
<g id="node17" class="node">
<title>net_11</title>
<ellipse fill="none" stroke="black" cx="691.25" cy="-5.4" rx="5.4" ry="5.4"/>
</g>
<!-- U1&#45;&gt;net_11 -->
<g id="edge26" class="edge">
<title>U1&#45;&gt;net_11</title>
<path fill="none" stroke="black" d="M323.75,-48.8C326.61,-48.06 329.46,-47.39 332.25,-46.8 473.99,-16.81 652.24,-8.05 685.7,-6.62"/>
<text xml:space="preserve" text-anchor="middle" x="331.63" y="-51.5" font-family="monospace" font-size="9.00">OUT</text>
</g>
<!-- net_8 -->
<g id="node23" class="node">
<title>net_8</title>
<ellipse fill="none" stroke="black" cx="484.25" cy="-5.4" rx="5.4" ry="5.4"/>
</g>
<!-- U1&#45;&gt;net_8 -->
<g id="edge23" class="edge">
<title>U1&#45;&gt;net_8</title>
<path fill="none" stroke="black" d="M323.87,-49.28C326.7,-48.43 329.51,-47.59 332.25,-46.8 389.42,-30.21 459.45,-12.58 478.98,-7.71"/>
<text xml:space="preserve" text-anchor="middle" x="313.37" y="-40.73" font-family="monospace" font-size="9.00">CONT</text>
</g>
<!-- net_9 -->
<g id="node24" class="node">
<title>net_9</title>
<ellipse fill="none" stroke="black" cx="278.25" cy="-5.4" rx="5.4" ry="5.4"/>
</g>
<!-- U1&#45;&gt;net_9 -->
<g id="edge28" class="edge">
<title>U1&#45;&gt;net_9</title>
<path fill="none" stroke="black" d="M272,-46.58C270.81,-33.63 271.74,-16.96 274.82,-9.85"/>
<text xml:space="preserve" text-anchor="middle" x="258.88" y="-38.03" font-family="monospace" font-size="9.00">THRES</text>
</g>
<!-- U1&#45;&gt;net_9 -->
<g id="edge29" class="edge">
<title>U1&#45;&gt;net_9</title>
<path fill="none" stroke="black" d="M284.5,-46.58C285.69,-33.63 284.76,-16.96 281.68,-9.85"/>
<text xml:space="preserve" text-anchor="middle" x="289.75" y="-38.03" font-family="monospace" font-size="9.00">TRIG</text>
</g>
<!-- vcc -->
<g id="node25" class="node">
<title>vcc</title>
<ellipse fill="none" stroke="black" cx="307.25" cy="-5.4" rx="5.4" ry="5.4"/>
</g>
<!-- U1&#45;&gt;vcc -->
<g id="edge27" class="edge">
<title>U1&#45;&gt;vcc</title>
<path fill="none" stroke="black" d="M280.71,-46.58C286.26,-33.1 296.18,-15.59 302.88,-9.03"/>
<text xml:space="preserve" text-anchor="middle" x="287.27" y="-38.03" font-family="monospace" font-size="9.00">RESET</text>
</g>
<!-- U1&#45;&gt;vcc -->
<g id="edge30" class="edge">
<title>U1&#45;&gt;vcc</title>
<path fill="none" stroke="black" d="M293.2,-46.58C300.62,-34.16 307.81,-18.31 308.84,-10.77"/>
<text xml:space="preserve" text-anchor="middle" x="285.32" y="-49.28" font-family="monospace" font-size="9.00">VCC</text>
</g>
<!-- U2 -->
<g id="node2" class="node">
<title>U2</title>
<polygon fill="none" stroke="black" points="906.38,-82.8 816.12,-82.8 816.12,-46.8 906.38,-46.8 906.38,-82.8"/>
<text xml:space="preserve" text-anchor="middle" x="861.25" y="-60.12" font-family="monospace" font-size="14.00">U2\nNE555</text>
</g>
<!-- U2&#45;&gt;gnd -->
<g id="edge33" class="edge">
<title>U2&#45;&gt;gnd</title>
<path fill="none" stroke="black" d="M827.34,-46.42C800.82,-32.83 766.41,-15.2 753.99,-8.83"/>
<text xml:space="preserve" text-anchor="middle" x="819.47" y="-37.87" font-family="monospace" font-size="9.00">GND</text>
</g>
<!-- U2&#45;&gt;net_11 -->
<g id="edge35" class="edge">
<title>U2&#45;&gt;net_11</title>
<path fill="none" stroke="black" d="M815.69,-48.42C773.21,-34.07 713.82,-14.02 696.3,-8.11"/>
<text xml:space="preserve" text-anchor="middle" x="802.57" y="-39.87" font-family="monospace" font-size="9.00">RESET</text>
</g>
<!-- net_3 -->
<g id="node19" class="node">
<title>net_3</title>
<ellipse fill="none" stroke="black" cx="1119.25" cy="-5.4" rx="5.4" ry="5.4"/>
</g>
<!-- U2&#45;&gt;net_3 -->
<g id="edge34" class="edge">
<title>U2&#45;&gt;net_3</title>
<path fill="none" stroke="black" d="M906.81,-49.07C909.66,-48.27 912.49,-47.51 915.25,-46.8 993.26,-26.86 1090.16,-11 1113.84,-7.25"/>
<text xml:space="preserve" text-anchor="middle" x="914.69" y="-51.77" font-family="monospace" font-size="9.00">OUT</text>
</g>
<!-- net_4 -->
<g id="node20" class="node">
<title>net_4</title>
<ellipse fill="none" stroke="black" cx="805.25" cy="-5.4" rx="5.4" ry="5.4"/>
</g>
<!-- U2&#45;&gt;net_4 -->
<g id="edge31" class="edge">
<title>U2&#45;&gt;net_4</title>
<path fill="none" stroke="black" d="M844.45,-46.58C831.82,-33.63 815.55,-16.96 808.62,-9.85"/>
<text xml:space="preserve" text-anchor="middle" x="854.95" y="-38.03" font-family="monospace" font-size="9.00">CONT</text>
</g>
<!-- net_5 -->
<g id="node21" class="node">
<title>net_5</title>
<ellipse fill="none" stroke="black" cx="932.25" cy="-5.4" rx="5.4" ry="5.4"/>
</g>
<!-- U2&#45;&gt;net_5 -->
<g id="edge36" class="edge">
<title>U2&#45;&gt;net_5</title>
<path fill="none" stroke="black" d="M876.31,-46.58C892.33,-32.58 916.25,-14.21 927.25,-8.31"/>
<text xml:space="preserve" text-anchor="middle" x="889.43" y="-38.03" font-family="monospace" font-size="9.00">THRES</text>
</g>
<!-- U2&#45;&gt;net_5 -->
<g id="edge37" class="edge">
<title>U2&#45;&gt;net_5</title>
<path fill="none" stroke="black" d="M888.8,-46.58C905.31,-34.16 924.09,-18.31 930.64,-10.77"/>
<text xml:space="preserve" text-anchor="middle" x="878.3" y="-38.03" font-family="monospace" font-size="9.00">TRIG</text>
</g>
<!-- net_6 -->
<g id="node22" class="node">
<title>net_6</title>
<ellipse fill="none" stroke="black" cx="861.25" cy="-5.4" rx="5.4" ry="5.4"/>
</g>
<!-- U2&#45;&gt;net_6 -->
<g id="edge32" class="edge">
<title>U2&#45;&gt;net_6</title>
<path fill="none" stroke="black" d="M861.25,-46.58C861.25,-34.43 861.25,-18.99 861.25,-11.26"/>
<text xml:space="preserve" text-anchor="middle" x="848.12" y="-38.03" font-family="monospace" font-size="9.00">DISCH</text>
</g>
<!-- U2&#45;&gt;vcc -->
<g id="edge38" class="edge">
<title>U2&#45;&gt;vcc</title>
<path fill="none" stroke="black" d="M815.77,-48.69C812.9,-47.99 810.05,-47.35 807.25,-46.8 705.54,-26.94 360.79,-9.09 312.81,-6.68"/>
<text xml:space="preserve" text-anchor="middle" x="807.9" y="-51.39" font-family="monospace" font-size="9.00">VCC</text>
</g>
<!-- R1 -->
<g id="node3" class="node">
<title>R1</title>
<polygon fill="none" stroke="black" points="215.5,-82.8 117,-82.8 117,-46.8 215.5,-46.8 215.5,-82.8"/>
<text xml:space="preserve" text-anchor="middle" x="166.25" y="-60.12" font-family="monospace" font-size="14.00">R1\n47000Ω</text>
</g>
<!-- R1&#45;&gt;net_10 -->
<g id="edge14" class="edge">
<title>R1&#45;&gt;net_10</title>
<path fill="none" stroke="black" d="M166.25,-46.58C166.25,-34.43 166.25,-18.99 166.25,-11.26"/>
<text xml:space="preserve" text-anchor="middle" x="161" y="-38.03" font-family="monospace" font-size="9.00">t2</text>
</g>
<!-- R1&#45;&gt;vcc -->
<g id="edge13" class="edge">
<title>R1&#45;&gt;vcc</title>
<path fill="none" stroke="black" d="M208.94,-46.42C243.3,-32.43 288.17,-14.17 302.58,-8.3"/>
<text xml:space="preserve" text-anchor="middle" x="203.69" y="-37.87" font-family="monospace" font-size="9.00">t1</text>
</g>
<!-- R2 -->
<g id="node4" class="node">
<title>R2</title>
<polygon fill="none" stroke="black" points="98.5,-82.8 0,-82.8 0,-46.8 98.5,-46.8 98.5,-82.8"/>
<text xml:space="preserve" text-anchor="middle" x="49.25" y="-60.12" font-family="monospace" font-size="14.00">R2\n47000Ω</text>
</g>
<!-- R2&#45;&gt;net_10 -->
<g id="edge15" class="edge">
<title>R2&#45;&gt;net_10</title>
<path fill="none" stroke="black" d="M84.67,-46.42C112.65,-32.7 149.02,-14.85 161.67,-8.65"/>
<text xml:space="preserve" text-anchor="middle" x="79.42" y="-37.87" font-family="monospace" font-size="9.00">t1</text>
</g>
<!-- R2&#45;&gt;net_9 -->
<g id="edge16" class="edge">
<title>R2&#45;&gt;net_9</title>
<path fill="none" stroke="black" d="M98.78,-49.35C101.98,-48.47 105.16,-47.61 108.25,-46.8 172.8,-29.84 251.95,-12.19 272.94,-7.57"/>
<text xml:space="preserve" text-anchor="middle" x="104.03" y="-52.05" font-family="monospace" font-size="9.00">t2</text>
</g>
<!-- C1 -->
<g id="node5" class="node">
<title>C1</title>
<polygon fill="none" stroke="black" points="456.75,-82.8 341.75,-82.8 341.75,-46.8 456.75,-46.8 456.75,-82.8"/>
<text xml:space="preserve" text-anchor="middle" x="399.25" y="-60.12" font-family="monospace" font-size="14.00">C1\n2.2e&#45;06F</text>
</g>
<!-- C1&#45;&gt;gnd -->
<g id="edge2" class="edge">
<title>C1&#45;&gt;gnd</title>
<path fill="none" stroke="black" d="M456.9,-48.76C460.06,-48.06 463.19,-47.41 466.25,-46.8 577.26,-24.86 715.01,-9.95 743.82,-6.96"/>
<text xml:space="preserve" text-anchor="middle" x="462.15" y="-51.46" font-family="monospace" font-size="9.00">t2</text>
</g>
<!-- C1&#45;&gt;net_9 -->
<g id="edge1" class="edge">
<title>C1&#45;&gt;net_9</title>
<path fill="none" stroke="black" d="M362.62,-46.42C333.68,-32.7 296.07,-14.85 282.98,-8.65"/>
<text xml:space="preserve" text-anchor="middle" x="357.37" y="-37.87" font-family="monospace" font-size="9.00">t1</text>
</g>
<!-- C2 -->
<g id="node6" class="node">
<title>C2</title>
<polygon fill="none" stroke="black" points="681.5,-82.8 583,-82.8 583,-46.8 681.5,-46.8 681.5,-82.8"/>
<text xml:space="preserve" text-anchor="middle" x="632.25" y="-60.12" font-family="monospace" font-size="14.00">C2\n1e&#45;08F</text>
</g>
<!-- C2&#45;&gt;gnd -->
<g id="edge4" class="edge">
<title>C2&#45;&gt;gnd</title>
<path fill="none" stroke="black" d="M667.67,-46.42C695.65,-32.7 732.02,-14.85 744.67,-8.65"/>
<text xml:space="preserve" text-anchor="middle" x="662.42" y="-37.87" font-family="monospace" font-size="9.00">t2</text>
</g>
<!-- C2&#45;&gt;net_8 -->
<g id="edge3" class="edge">
<title>C2&#45;&gt;net_8</title>
<path fill="none" stroke="black" d="M587.44,-46.42C551.37,-32.43 504.27,-14.17 489.15,-8.3"/>
<text xml:space="preserve" text-anchor="middle" x="582.19" y="-37.87" font-family="monospace" font-size="9.00">t1</text>
</g>
<!-- R3 -->
<g id="node7" class="node">
<title>R3</title>
<polygon fill="none" stroke="black" points="565.38,-82.8 475.12,-82.8 475.12,-46.8 565.38,-46.8 565.38,-82.8"/>
<text xml:space="preserve" text-anchor="middle" x="520.25" y="-60.12" font-family="monospace" font-size="14.00">R3\n4700Ω</text>
</g>
<!-- R3&#45;&gt;net_6 -->
<g id="edge18" class="edge">
<title>R3&#45;&gt;net_6</title>
<path fill="none" stroke="black" d="M565.77,-48.89C568.63,-48.13 571.47,-47.43 574.25,-46.8 631.18,-33.92 820.63,-11.21 855.66,-7.06"/>
<text xml:space="preserve" text-anchor="middle" x="571.02" y="-51.59" font-family="monospace" font-size="9.00">t2</text>
</g>
<!-- R3&#45;&gt;vcc -->
<g id="edge17" class="edge">
<title>R3&#45;&gt;vcc</title>
<path fill="none" stroke="black" d="M474.64,-49.24C471.81,-48.4 468.99,-47.58 466.25,-46.8 406.25,-29.75 332.55,-12.31 312.49,-7.62"/>
<text xml:space="preserve" text-anchor="middle" x="469.39" y="-40.69" font-family="monospace" font-size="9.00">t1</text>
</g>
<!-- R4 -->
<g id="node8" class="node">
<title>R4</title>
<polygon fill="none" stroke="black" points="1130.38,-82.8 1040.12,-82.8 1040.12,-46.8 1130.38,-46.8 1130.38,-82.8"/>
<text xml:space="preserve" text-anchor="middle" x="1085.25" y="-60.12" font-family="monospace" font-size="14.00">R4\n4700Ω</text>
</g>
<!-- R4&#45;&gt;net_5 -->
<g id="edge20" class="edge">
<title>R4&#45;&gt;net_5</title>
<path fill="none" stroke="black" d="M1039.76,-46.73C1002.06,-32.59 952.26,-13.91 936.94,-8.16"/>
<text xml:space="preserve" text-anchor="middle" x="1034.51" y="-38.18" font-family="monospace" font-size="9.00">t2</text>
</g>
<!-- R4&#45;&gt;net_6 -->
<g id="edge19" class="edge">
<title>R4&#45;&gt;net_6</title>
<path fill="none" stroke="black" d="M1039.65,-49.19C1036.82,-48.36 1034,-47.56 1031.25,-46.8 966.91,-29.05 887.61,-11.97 866.57,-7.52"/>
<text xml:space="preserve" text-anchor="middle" x="1034.4" y="-51.89" font-family="monospace" font-size="9.00">t1</text>
</g>
<!-- C3 -->
<g id="node9" class="node">
<title>C3</title>
<polygon fill="none" stroke="black" points="1022.5,-82.8 924,-82.8 924,-46.8 1022.5,-46.8 1022.5,-82.8"/>
<text xml:space="preserve" text-anchor="middle" x="973.25" y="-60.12" font-family="monospace" font-size="14.00">C3\n1e&#45;07F</text>
</g>
<!-- C3&#45;&gt;gnd -->
<g id="edge6" class="edge">
<title>C3&#45;&gt;gnd</title>
<path fill="none" stroke="black" d="M923.62,-49.09C920.79,-48.3 917.99,-47.53 915.25,-46.8 852.22,-29.9 774.93,-12.21 754.44,-7.57"/>
<text xml:space="preserve" text-anchor="middle" x="918.37" y="-40.54" font-family="monospace" font-size="9.00">t2</text>
</g>
<!-- C3&#45;&gt;net_5 -->
<g id="edge5" class="edge">
<title>C3&#45;&gt;net_5</title>
<path fill="none" stroke="black" d="M960.95,-46.58C951.89,-33.9 940.28,-17.64 935.04,-10.3"/>
<text xml:space="preserve" text-anchor="middle" x="955.7" y="-38.03" font-family="monospace" font-size="9.00">t1</text>
</g>
<!-- C4 -->
<g id="node10" class="node">
<title>C4</title>
<polygon fill="none" stroke="black" points="798.5,-82.8 700,-82.8 700,-46.8 798.5,-46.8 798.5,-82.8"/>
<text xml:space="preserve" text-anchor="middle" x="749.25" y="-60.12" font-family="monospace" font-size="14.00">C4\n1e&#45;08F</text>
</g>
<!-- C4&#45;&gt;gnd -->
<g id="edge8" class="edge">
<title>C4&#45;&gt;gnd</title>
<path fill="none" stroke="black" d="M749.25,-46.58C749.25,-34.43 749.25,-18.99 749.25,-11.26"/>
<text xml:space="preserve" text-anchor="middle" x="744" y="-38.03" font-family="monospace" font-size="9.00">t2</text>
</g>
<!-- C4&#45;&gt;net_4 -->
<g id="edge7" class="edge">
<title>C4&#45;&gt;net_4</title>
<path fill="none" stroke="black" d="M766.05,-46.58C778.68,-33.63 794.95,-16.96 801.88,-9.85"/>
<text xml:space="preserve" text-anchor="middle" x="760.8" y="-38.03" font-family="monospace" font-size="9.00">t1</text>
</g>
<!-- R5 -->
<g id="node11" class="node">
<title>R5</title>
<polygon fill="none" stroke="black" points="1322.25,-82.8 1240.25,-82.8 1240.25,-46.8 1322.25,-46.8 1322.25,-82.8"/>
<text xml:space="preserve" text-anchor="middle" x="1281.25" y="-60.12" font-family="monospace" font-size="14.00">R5\n100Ω</text>
</g>
<!-- net_2 -->
<g id="node18" class="node">
<title>net_2</title>
<ellipse fill="none" stroke="black" cx="1335.25" cy="-5.4" rx="5.4" ry="5.4"/>
</g>
<!-- R5&#45;&gt;net_2 -->
<g id="edge22" class="edge">
<title>R5&#45;&gt;net_2</title>
<path fill="none" stroke="black" d="M1297.45,-46.58C1309.63,-33.63 1325.32,-16.96 1332,-9.85"/>
<text xml:space="preserve" text-anchor="middle" x="1292.2" y="-38.03" font-family="monospace" font-size="9.00">t2</text>
</g>
<!-- R5&#45;&gt;net_3 -->
<g id="edge21" class="edge">
<title>R5&#45;&gt;net_3</title>
<path fill="none" stroke="black" d="M1239.95,-49.17C1199.45,-34.82 1141.37,-14.24 1124.2,-8.16"/>
<text xml:space="preserve" text-anchor="middle" x="1234.7" y="-51.87" font-family="monospace" font-size="9.00">t1</text>
</g>
<!-- C5 -->
<g id="node12" class="node">
<title>C5</title>
<polygon fill="none" stroke="black" points="1438.5,-82.8 1340,-82.8 1340,-46.8 1438.5,-46.8 1438.5,-82.8"/>
<text xml:space="preserve" text-anchor="middle" x="1389.25" y="-60.12" font-family="monospace" font-size="14.00">C5\n1e&#45;05F</text>
</g>
<!-- net_0 -->
<g id="node15" class="node">
<title>net_0</title>
<ellipse fill="none" stroke="black" cx="1245.25" cy="-5.4" rx="5.4" ry="5.4"/>
</g>
<!-- C5&#45;&gt;net_0 -->
<g id="edge10" class="edge">
<title>C5&#45;&gt;net_0</title>
<path fill="none" stroke="black" d="M1345.65,-46.42C1310.56,-32.43 1264.73,-14.17 1250.02,-8.3"/>
<text xml:space="preserve" text-anchor="middle" x="1340.4" y="-37.87" font-family="monospace" font-size="9.00">t2</text>
</g>
<!-- C5&#45;&gt;net_2 -->
<g id="edge9" class="edge">
<title>C5&#45;&gt;net_2</title>
<path fill="none" stroke="black" d="M1373.05,-46.58C1360.87,-33.63 1345.18,-16.96 1338.5,-9.85"/>
<text xml:space="preserve" text-anchor="middle" x="1367.8" y="-38.03" font-family="monospace" font-size="9.00">t1</text>
</g>
<!-- LS1 -->
<g id="node13" class="node">
<title>LS1</title>
<polygon fill="none" stroke="black" points="1222.12,-82.8 1148.38,-82.8 1148.38,-46.8 1222.12,-46.8 1222.12,-82.8"/>
<text xml:space="preserve" text-anchor="middle" x="1185.25" y="-60.12" font-family="monospace" font-size="14.00">LS1\n8Ω</text>
</g>
<!-- LS1&#45;&gt;gnd -->
<g id="edge12" class="edge">
<title>LS1&#45;&gt;gnd</title>
<path fill="none" stroke="black" d="M1148.08,-49.18C1145.12,-48.28 1142.15,-47.48 1139.25,-46.8 987.8,-11.57 945.91,-26.9 791.25,-10.8 778.12,-9.43 762.69,-7.81 754.69,-6.97"/>
<text xml:space="preserve" text-anchor="middle" x="1142.83" y="-51.88" font-family="monospace" font-size="9.00">t2</text>
</g>
<!-- LS1&#45;&gt;net_0 -->
<g id="edge11" class="edge">
<title>LS1&#45;&gt;net_0</title>
<path fill="none" stroke="black" d="M1203.25,-46.58C1216.78,-33.63 1234.21,-16.96 1241.64,-9.85"/>
<text xml:space="preserve" text-anchor="middle" x="1198" y="-38.03" font-family="monospace" font-size="9.00">t1</text>
</g>
</g>
</svg>
