<?xml version="1.0" encoding="UTF-8" standalone="no"?>
<!DOCTYPE svg PUBLIC "-//W3C//DTD SVG 1.1//EN"
 "http://www.w3.org/Graphics/SVG/1.1/DTD/svg11.dtd">
<!-- Generated by graphviz version 14.1.5 (20260411.2331)
 -->
<!-- Title: LightActivatedSwitch Pages: 1 -->
<svg width="971pt" height="91pt"
 viewBox="0.00 0.00 971.00 91.00" xmlns="http://www.w3.org/2000/svg" xmlns:xlink="http://www.w3.org/1999/xlink">
<g id="graph0" class="graph" transform="scale(1 1) rotate(0) translate(4 86.8)">
<title>LightActivatedSwitch</title>
<polygon fill="white" stroke="none" points="-4,4 -4,-86.8 966.62,-86.8 966.62,4 -4,4"/>
<!-- U1 -->
<g id="node1" class="node">
<title>U1</title>
<polygon fill="none" stroke="black" points="406.38,-82.8 316.12,-82.8 316.12,-46.8 406.38,-46.8 406.38,-82.8"/>
<text xml:space="preserve" text-anchor="middle" x="361.25" y="-60.12" font-family="monospace" font-size="14.00">U1\nLM741</text>
</g>
<!-- gnd -->
<g id="node10" class="node">
<title>gnd</title>
<ellipse fill="none" stroke="black" cx="311.25" cy="-5.4" rx="5.4" ry="5.4"/>
</g>
<!-- U1&#45;&gt;gnd -->
<g id="edge21" class="edge">
<title>U1&#45;&gt;gnd</title>
<path fill="none" stroke="black" d="M346.25,-46.58C334.97,-33.63 320.45,-16.96 314.26,-9.85"/>
<text xml:space="preserve" text-anchor="middle" x="359.37" y="-38.03" font-family="monospace" font-size="9.00">V_NEG</text>
</g>
<!-- net_3 -->
<g id="node13" class="node">
<title>net_3</title>
<ellipse fill="none" stroke="black" cx="547.25" cy="-5.4" rx="5.4" ry="5.4"/>
</g>
<!-- U1&#45;&gt;net_3 -->
<g id="edge20" class="edge">
<title>U1&#45;&gt;net_3</title>
<path fill="none" stroke="black" d="M406.62,-49.49C409.54,-48.58 412.43,-47.67 415.25,-46.8 464.46,-31.52 524.12,-13.41 541.96,-8"/>
<text xml:space="preserve" text-anchor="middle" x="414.49" y="-52.19" font-family="monospace" font-size="9.00">OUT</text>
</g>
<!-- net_6 -->
<g id="node15" class="node">
<title>net_6</title>
<ellipse fill="none" stroke="black" cx="361.25" cy="-5.4" rx="5.4" ry="5.4"/>
</g>
<!-- U1&#45;&gt;net_6 -->
<g id="edge18" class="edge">
<title>U1&#45;&gt;net_6</title>
<path fill="none" stroke="black" d="M361.25,-46.58C361.25,-34.43 361.25,-18.99 361.25,-11.26"/>
<text xml:space="preserve" text-anchor="middle" x="377" y="-38.03" font-family="monospace" font-size="9.00">IN_NEG</text>
</g>
<!-- net_8 -->
<g id="node16" class="node">
<title>net_8</title>
<ellipse fill="none" stroke="black" cx="261.25" cy="-5.4" rx="5.4" ry="5.4"/>
</g>
<!-- U1&#45;&gt;net_8 -->
<g id="edge19" class="edge">
<title>U1&#45;&gt;net_8</title>
<path fill="none" stroke="black" d="M330.98,-46.42C307.52,-32.96 277.17,-15.54 265.81,-9.02"/>
<text xml:space="preserve" text-anchor="middle" x="315.23" y="-37.87" font-family="monospace" font-size="9.00">IN_POS</text>
</g>
<!-- vcc -->
<g id="node17" class="node">
<title>vcc</title>
<ellipse fill="none" stroke="black" cx="432.25" cy="-5.4" rx="5.4" ry="5.4"/>
</g>
<!-- U1&#45;&gt;vcc -->
<g id="edge22" class="edge">
<title>U1&#45;&gt;vcc</title>
<path fill="none" stroke="black" d="M382.55,-46.58C398.73,-33.5 419.61,-16.62 428.24,-9.64"/>
<text xml:space="preserve" text-anchor="middle" x="395.68" y="-38.03" font-family="monospace" font-size="9.00">V_POS</text>
</g>
<!-- R2 -->
<g id="node2" class="node">
<title>R2</title>
<polygon fill="none" stroke="black" points="298.12,-82.8 224.38,-82.8 224.38,-46.8 298.12,-46.8 298.12,-82.8"/>
<text xml:space="preserve" text-anchor="middle" x="261.25" y="-60.12" font-family="monospace" font-size="14.00">R2\nLDR</text>
</g>
<!-- R2&#45;&gt;net_8 -->
<g id="edge9" class="edge">
<title>R2&#45;&gt;net_8</title>
<path fill="none" stroke="black" d="M261.25,-46.58C261.25,-34.43 261.25,-18.99 261.25,-11.26"/>
<text xml:space="preserve" text-anchor="middle" x="256" y="-38.03" font-family="monospace" font-size="9.00">t2</text>
</g>
<!-- R2&#45;&gt;vcc -->
<g id="edge8" class="edge">
<title>R2&#45;&gt;vcc</title>
<path fill="none" stroke="black" d="M298.61,-49.85C301.53,-48.8 304.43,-47.77 307.25,-46.8 353.37,-30.83 409.73,-13.33 426.98,-8.02"/>
<text xml:space="preserve" text-anchor="middle" x="303.86" y="-52.55" font-family="monospace" font-size="9.00">t1</text>
</g>
<!-- R1 -->
<g id="node3" class="node">
<title>R1</title>
<polygon fill="none" stroke="black" points="98.5,-82.8 0,-82.8 0,-46.8 98.5,-46.8 98.5,-82.8"/>
<text xml:space="preserve" text-anchor="middle" x="49.25" y="-60.12" font-family="monospace" font-size="14.00">R1\n10000Ω</text>
</g>
<!-- R1&#45;&gt;gnd -->
<g id="edge7" class="edge">
<title>R1&#45;&gt;gnd</title>
<path fill="none" stroke="black" d="M98.84,-48.95C101.68,-48.2 104.5,-47.47 107.25,-46.8 185.45,-27.64 282.21,-11.2 305.85,-7.29"/>
<text xml:space="preserve" text-anchor="middle" x="104.09" y="-40.4" font-family="monospace" font-size="9.00">t2</text>
</g>
<!-- R1&#45;&gt;net_8 -->
<g id="edge6" class="edge">
<title>R1&#45;&gt;net_8</title>
<path fill="none" stroke="black" d="M98.9,-49.15C101.72,-48.35 104.52,-47.56 107.25,-46.8 165.31,-30.68 236.16,-12.72 255.92,-7.74"/>
<text xml:space="preserve" text-anchor="middle" x="104.15" y="-51.85" font-family="monospace" font-size="9.00">t1</text>
</g>
<!-- R3 -->
<g id="node4" class="node">
<title>R3</title>
<polygon fill="none" stroke="black" points="522.5,-82.8 424,-82.8 424,-46.8 522.5,-46.8 522.5,-82.8"/>
<text xml:space="preserve" text-anchor="middle" x="473.25" y="-60.12" font-family="monospace" font-size="14.00">R3\n10000Ω</text>
</g>
<!-- R3&#45;&gt;net_6 -->
<g id="edge11" class="edge">
<title>R3&#45;&gt;net_6</title>
<path fill="none" stroke="black" d="M439.34,-46.42C412.82,-32.83 378.41,-15.2 365.99,-8.83"/>
<text xml:space="preserve" text-anchor="middle" x="434.09" y="-37.87" font-family="monospace" font-size="9.00">t2</text>
</g>
<!-- R3&#45;&gt;vcc -->
<g id="edge10" class="edge">
<title>R3&#45;&gt;vcc</title>
<path fill="none" stroke="black" d="M460.95,-46.58C451.89,-33.9 440.28,-17.64 435.04,-10.3"/>
<text xml:space="preserve" text-anchor="middle" x="455.7" y="-38.03" font-family="monospace" font-size="9.00">t1</text>
</g>
<!-- R4 -->
<g id="node5" class="node">
<title>R4</title>
<polygon fill="none" stroke="black" points="206.38,-82.8 116.12,-82.8 116.12,-46.8 206.38,-46.8 206.38,-82.8"/>
<text xml:space="preserve" text-anchor="middle" x="161.25" y="-60.12" font-family="monospace" font-size="14.00">R4\n5000Ω</text>
</g>
<!-- R4&#45;&gt;gnd -->
<g id="edge13" class="edge">
<title>R4&#45;&gt;gnd</title>
<path fill="none" stroke="black" d="M206.66,-46.42C243.22,-32.43 290.96,-14.17 306.28,-8.3"/>
<text xml:space="preserve" text-anchor="middle" x="201.41" y="-37.87" font-family="monospace" font-size="9.00">t2</text>
</g>
<!-- R4&#45;&gt;net_6 -->
<g id="edge12" class="edge">
<title>R4&#45;&gt;net_6</title>
<path fill="none" stroke="black" d="M206.59,-49.4C209.52,-48.51 212.42,-47.64 215.25,-46.8 269.98,-30.62 336.83,-12.84 355.93,-7.8"/>
<text xml:space="preserve" text-anchor="middle" x="211.84" y="-52.1" font-family="monospace" font-size="9.00">t1</text>
</g>
<!-- Q1 -->
<g id="node6" class="node">
<title>Q1</title>
<polygon fill="none" stroke="black" points="738.38,-82.8 648.12,-82.8 648.12,-46.8 738.38,-46.8 738.38,-82.8"/>
<text xml:space="preserve" text-anchor="middle" x="693.25" y="-60.12" font-family="monospace" font-size="14.00">Q1\nBC547</text>
</g>
<!-- Q1&#45;&gt;gnd -->
<g id="edge5" class="edge">
<title>Q1&#45;&gt;gnd</title>
<path fill="none" stroke="black" d="M647.74,-48.83C644.88,-48.09 642.04,-47.4 639.25,-46.8 637.18,-46.35 359,-12.25 316.63,-7.06"/>
<text xml:space="preserve" text-anchor="middle" x="645.12" y="-51.53" font-family="monospace" font-size="9.00">e</text>
</g>
<!-- net_1 -->
<g id="node12" class="node">
<title>net_1</title>
<ellipse fill="none" stroke="black" cx="758.25" cy="-5.4" rx="5.4" ry="5.4"/>
</g>
<!-- Q1&#45;&gt;net_1 -->
<g id="edge4" class="edge">
<title>Q1&#45;&gt;net_1</title>
<path fill="none" stroke="black" d="M712.75,-46.58C727.71,-33.37 747.07,-16.28 754.82,-9.43"/>
<text xml:space="preserve" text-anchor="middle" x="710.13" y="-38.03" font-family="monospace" font-size="9.00">c</text>
</g>
<!-- net_4 -->
<g id="node14" class="node">
<title>net_4</title>
<ellipse fill="none" stroke="black" cx="623.25" cy="-5.4" rx="5.4" ry="5.4"/>
</g>
<!-- Q1&#45;&gt;net_4 -->
<g id="edge3" class="edge">
<title>Q1&#45;&gt;net_4</title>
<path fill="none" stroke="black" d="M672.25,-46.58C656.3,-33.5 635.71,-16.62 627.2,-9.64"/>
<text xml:space="preserve" text-anchor="middle" x="669.62" y="-38.03" font-family="monospace" font-size="9.00">b</text>
</g>
<!-- R5 -->
<g id="node7" class="node">
<title>R5</title>
<polygon fill="none" stroke="black" points="630.38,-82.8 540.12,-82.8 540.12,-46.8 630.38,-46.8 630.38,-82.8"/>
<text xml:space="preserve" text-anchor="middle" x="585.25" y="-60.12" font-family="monospace" font-size="14.00">R5\n4700Ω</text>
</g>
<!-- R5&#45;&gt;net_3 -->
<g id="edge14" class="edge">
<title>R5&#45;&gt;net_3</title>
<path fill="none" stroke="black" d="M573.85,-46.58C565.45,-33.9 554.69,-17.64 549.83,-10.3"/>
<text xml:space="preserve" text-anchor="middle" x="568.6" y="-38.03" font-family="monospace" font-size="9.00">t1</text>
</g>
<!-- R5&#45;&gt;net_4 -->
<g id="edge15" class="edge">
<title>R5&#45;&gt;net_4</title>
<path fill="none" stroke="black" d="M596.65,-46.58C605.05,-33.9 615.81,-17.64 620.67,-10.3"/>
<text xml:space="preserve" text-anchor="middle" x="591.4" y="-38.03" font-family="monospace" font-size="9.00">t2</text>
</g>
<!-- R6 -->
<g id="node8" class="node">
<title>R6</title>
<polygon fill="none" stroke="black" points="838.25,-82.8 756.25,-82.8 756.25,-46.8 838.25,-46.8 838.25,-82.8"/>
<text xml:space="preserve" text-anchor="middle" x="797.25" y="-60.12" font-family="monospace" font-size="14.00">R6\n470Ω</text>
</g>
<!-- net_0 -->
<g id="node11" class="node">
<title>net_0</title>
<ellipse fill="none" stroke="black" cx="853.25" cy="-5.4" rx="5.4" ry="5.4"/>
</g>
<!-- R6&#45;&gt;net_0 -->
<g id="edge17" class="edge">
<title>R6&#45;&gt;net_0</title>
<path fill="none" stroke="black" d="M814.05,-46.58C826.68,-33.63 842.95,-16.96 849.88,-9.85"/>
<text xml:space="preserve" text-anchor="middle" x="808.8" y="-38.03" font-family="monospace" font-size="9.00">t2</text>
</g>
<!-- R6&#45;&gt;vcc -->
<g id="edge16" class="edge">
<title>R6&#45;&gt;vcc</title>
<path fill="none" stroke="black" d="M755.96,-49.05C753.03,-48.22 750.11,-47.46 747.25,-46.8 624.25,-18.3 469.25,-8.46 437.92,-6.7"/>
<text xml:space="preserve" text-anchor="middle" x="750.71" y="-51.75" font-family="monospace" font-size="9.00">t1</text>
</g>
<!-- D1 -->
<g id="node9" class="node">
<title>D1</title>
<polygon fill="none" stroke="black" points="962.62,-82.8 855.88,-82.8 855.88,-46.8 962.62,-46.8 962.62,-82.8"/>
<text xml:space="preserve" text-anchor="middle" x="909.25" y="-60.12" font-family="monospace" font-size="14.00">D1\nred LED</text>
</g>
<!-- D1&#45;&gt;net_0 -->
<g id="edge1" class="edge">
<title>D1&#45;&gt;net_0</title>
<path fill="none" stroke="black" d="M892.45,-46.58C879.82,-33.63 863.55,-16.96 856.62,-9.85"/>
<text xml:space="preserve" text-anchor="middle" x="879.32" y="-38.03" font-family="monospace" font-size="9.00">anode</text>
</g>
<!-- D1&#45;&gt;net_1 -->
<g id="edge2" class="edge">
<title>D1&#45;&gt;net_1</title>
<path fill="none" stroke="black" d="M863.54,-46.42C826.73,-32.43 778.68,-14.17 763.25,-8.3"/>
<text xml:space="preserve" text-anchor="middle" x="845.16" y="-37.87" font-family="monospace" font-size="9.00">cathode</text>
</g>
</g>
</svg>
