<?xml version="1.0" encoding="UTF-8" standalone="no"?>
<!DOCTYPE svg PUBLIC "-//W3C//DTD SVG 1.1//EN"
 "http://www.w3.org/Graphics/SVG/1.1/DTD/svg11.dtd">
<!-- Generated by graphviz version 14.1.5 (20260411.2331)
 -->
<!-- Title: FuzzUnit Pages: 1 -->
<svg width="1432pt" height="91pt"
 viewBox="0.00 0.00 1432.00 91.00" xmlns="http://www.w3.org/2000/svg" xmlns:xlink="http://www.w3.org/1999/xlink">
<g id="graph0" class="graph" transform="scale(1 1) rotate(0) translate(4 86.8)">
<title>FuzzUnit</title>
<polygon fill="white" stroke="none" points="-4,4 -4,-86.8 1427.5,-86.8 1427.5,4 -4,4"/>
<!-- U1 -->
<g id="node1" class="node">
<title>U1</title>
<polygon fill="none" stroke="black" points="798.38,-82.8 708.12,-82.8 708.12,-46.8 798.38,-46.8 798.38,-82.8"/>
<text xml:space="preserve" text-anchor="middle" x="753.25" y="-60.12" font-family="monospace" font-size="14.00">U1\nLM741</text>
</g>
<!-- gnd -->
<g id="node13" class="node">
<title>gnd</title>
<ellipse fill="none" stroke="black" cx="628.25" cy="-5.4" rx="5.4" ry="5.4"/>
</g>
<!-- U1&#45;&gt;gnd -->
<g id="edge26" class="edge">
<title>U1&#45;&gt;gnd</title>
<path fill="none" stroke="black" d="M715.41,-46.42C685.51,-32.7 646.66,-14.85 633.14,-8.65"/>
<text xml:space="preserve" text-anchor="middle" x="702.28" y="-37.87" font-family="monospace" font-size="9.00">V_NEG</text>
</g>
<!-- net_2 -->
<g id="node16" class="node">
<title>net_2</title>
<ellipse fill="none" stroke="black" cx="995.25" cy="-5.4" rx="5.4" ry="5.4"/>
</g>
<!-- U1&#45;&gt;net_2 -->
<g id="edge25" class="edge">
<title>U1&#45;&gt;net_2</title>
<path fill="none" stroke="black" d="M798.78,-49.39C801.98,-48.48 805.16,-47.61 808.25,-46.8 879.58,-28.11 967.82,-11.45 990.01,-7.36"/>
<text xml:space="preserve" text-anchor="middle" x="806.66" y="-52.09" font-family="monospace" font-size="9.00">OUT</text>
</g>
<!-- net_4 -->
<g id="node17" class="node">
<title>net_4</title>
<ellipse fill="none" stroke="black" cx="472.25" cy="-5.4" rx="5.4" ry="5.4"/>
</g>
<!-- U1&#45;&gt;net_4 -->
<g id="edge24" class="edge">
<title>U1&#45;&gt;net_4</title>
<path fill="none" stroke="black" d="M707.7,-49.01C704.85,-48.22 702.02,-47.48 699.25,-46.8 611.78,-25.34 502.71,-10.4 477.58,-7.09"/>
<text xml:space="preserve" text-anchor="middle" x="723.45" y="-40.46" font-family="monospace" font-size="9.00">IN_POS</text>
</g>
<!-- net_6 -->
<g id="node18" class="node">
<title>net_6</title>
<ellipse fill="none" stroke="black" cx="753.25" cy="-5.4" rx="5.4" ry="5.4"/>
</g>
<!-- U1&#45;&gt;net_6 -->
<g id="edge23" class="edge">
<title>U1&#45;&gt;net_6</title>
<path fill="none" stroke="black" d="M753.25,-46.58C753.25,-34.43 753.25,-18.99 753.25,-11.26"/>
<text xml:space="preserve" text-anchor="middle" x="769" y="-38.03" font-family="monospace" font-size="9.00">IN_NEG</text>
</g>
<!-- vcc -->
<g id="node21" class="node">
<title>vcc</title>
<ellipse fill="none" stroke="black" cx="412.25" cy="-5.4" rx="5.4" ry="5.4"/>
</g>
<!-- U1&#45;&gt;vcc -->
<g id="edge27" class="edge">
<title>U1&#45;&gt;vcc</title>
<path fill="none" stroke="black" d="M707.73,-48.89C704.87,-48.13 702.03,-47.43 699.25,-46.8 642.32,-33.92 452.87,-11.21 417.84,-7.06"/>
<text xml:space="preserve" text-anchor="middle" x="694.6" y="-51.59" font-family="monospace" font-size="9.00">V_POS</text>
</g>
<!-- C1 -->
<g id="node2" class="node">
<title>C1</title>
<polygon fill="none" stroke="black" points="98.5,-82.8 0,-82.8 0,-46.8 98.5,-46.8 98.5,-82.8"/>
<text xml:space="preserve" text-anchor="middle" x="49.25" y="-60.12" font-family="monospace" font-size="14.00">C1\n1e&#45;07F</text>
</g>
<!-- net_7 -->
<g id="node19" class="node">
<title>net_7</title>
<ellipse fill="none" stroke="black" cx="291.25" cy="-5.4" rx="5.4" ry="5.4"/>
</g>
<!-- C1&#45;&gt;net_7 -->
<g id="edge2" class="edge">
<title>C1&#45;&gt;net_7</title>
<path fill="none" stroke="black" d="M98.76,-49.29C101.97,-48.42 105.15,-47.59 108.25,-46.8 177.94,-29.09 263.69,-11.85 285.83,-7.47"/>
<text xml:space="preserve" text-anchor="middle" x="104.01" y="-51.99" font-family="monospace" font-size="9.00">t2</text>
</g>
<!-- net_8 -->
<g id="node20" class="node">
<title>net_8</title>
<ellipse fill="none" stroke="black" cx="49.25" cy="-5.4" rx="5.4" ry="5.4"/>
</g>
<!-- C1&#45;&gt;net_8 -->
<g id="edge1" class="edge">
<title>C1&#45;&gt;net_8</title>
<path fill="none" stroke="black" d="M49.25,-46.58C49.25,-34.43 49.25,-18.99 49.25,-11.26"/>
<text xml:space="preserve" text-anchor="middle" x="44" y="-38.03" font-family="monospace" font-size="9.00">t1</text>
</g>
<!-- R1 -->
<g id="node3" class="node">
<title>R1</title>
<polygon fill="none" stroke="black" points="340.5,-82.8 242,-82.8 242,-46.8 340.5,-46.8 340.5,-82.8"/>
<text xml:space="preserve" text-anchor="middle" x="291.25" y="-60.12" font-family="monospace" font-size="14.00">R1\n1e+06Ω</text>
</g>
<!-- R1&#45;&gt;gnd -->
<g id="edge12" class="edge">
<title>R1&#45;&gt;gnd</title>
<path fill="none" stroke="black" d="M340.7,-49.02C343.92,-48.22 347.12,-47.47 350.25,-46.8 458.95,-23.36 594.54,-9.63 622.9,-6.9"/>
<text xml:space="preserve" text-anchor="middle" x="345.95" y="-51.72" font-family="monospace" font-size="9.00">t2</text>
</g>
<!-- R1&#45;&gt;net_7 -->
<g id="edge11" class="edge">
<title>R1&#45;&gt;net_7</title>
<path fill="none" stroke="black" d="M291.25,-46.58C291.25,-34.43 291.25,-18.99 291.25,-11.26"/>
<text xml:space="preserve" text-anchor="middle" x="286" y="-38.03" font-family="monospace" font-size="9.00">t1</text>
</g>
<!-- R2 -->
<g id="node4" class="node">
<title>R2</title>
<polygon fill="none" stroke="black" points="690.38,-82.8 600.12,-82.8 600.12,-46.8 690.38,-46.8 690.38,-82.8"/>
<text xml:space="preserve" text-anchor="middle" x="645.25" y="-60.12" font-family="monospace" font-size="14.00">R2\n1000Ω</text>
</g>
<!-- R2&#45;&gt;net_6 -->
<g id="edge14" class="edge">
<title>R2&#45;&gt;net_6</title>
<path fill="none" stroke="black" d="M677.95,-46.42C703.53,-32.83 736.7,-15.2 748.68,-8.83"/>
<text xml:space="preserve" text-anchor="middle" x="672.7" y="-37.87" font-family="monospace" font-size="9.00">t2</text>
</g>
<!-- R2&#45;&gt;net_7 -->
<g id="edge13" class="edge">
<title>R2&#45;&gt;net_7</title>
<path fill="none" stroke="black" d="M599.73,-48.87C596.88,-48.12 594.03,-47.42 591.25,-46.8 473.79,-20.6 326.42,-8.95 296.64,-6.78"/>
<text xml:space="preserve" text-anchor="middle" x="594.48" y="-51.57" font-family="monospace" font-size="9.00">t1</text>
</g>
<!-- R3 -->
<g id="node5" class="node">
<title>R3</title>
<polygon fill="none" stroke="black" points="1173.62,-82.8 1066.88,-82.8 1066.88,-46.8 1173.62,-46.8 1173.62,-82.8"/>
<text xml:space="preserve" text-anchor="middle" x="1120.25" y="-60.12" font-family="monospace" font-size="14.00">R3\n470000Ω</text>
</g>
<!-- R3&#45;&gt;net_2 -->
<g id="edge16" class="edge">
<title>R3&#45;&gt;net_2</title>
<path fill="none" stroke="black" d="M1082.41,-46.42C1052.51,-32.7 1013.66,-14.85 1000.14,-8.65"/>
<text xml:space="preserve" text-anchor="middle" x="1077.16" y="-37.87" font-family="monospace" font-size="9.00">t2</text>
</g>
<!-- R3&#45;&gt;net_6 -->
<g id="edge15" class="edge">
<title>R3&#45;&gt;net_6</title>
<path fill="none" stroke="black" d="M1066.4,-48.77C1063.32,-48.06 1060.25,-47.4 1057.25,-46.8 937.7,-22.84 788.78,-9.42 758.69,-6.85"/>
<text xml:space="preserve" text-anchor="middle" x="1061.15" y="-51.47" font-family="monospace" font-size="9.00">t1</text>
</g>
<!-- R4 -->
<g id="node6" class="node">
<title>R4</title>
<polygon fill="none" stroke="black" points="223.62,-82.8 116.88,-82.8 116.88,-46.8 223.62,-46.8 223.62,-82.8"/>
<text xml:space="preserve" text-anchor="middle" x="170.25" y="-60.12" font-family="monospace" font-size="14.00">R4\n100000Ω</text>
</g>
<!-- R4&#45;&gt;net_4 -->
<g id="edge18" class="edge">
<title>R4&#45;&gt;net_4</title>
<path fill="none" stroke="black" d="M224.12,-48.9C227.2,-48.16 230.26,-47.45 233.25,-46.8 325.74,-26.55 440.27,-10.69 466.65,-7.14"/>
<text xml:space="preserve" text-anchor="middle" x="229.37" y="-51.6" font-family="monospace" font-size="9.00">t2</text>
</g>
<!-- R4&#45;&gt;vcc -->
<g id="edge17" class="edge">
<title>R4&#45;&gt;vcc</title>
<path fill="none" stroke="black" d="M223.83,-49.18C227.01,-48.36 230.17,-47.56 233.25,-46.8 301.59,-29.87 385.34,-12.06 406.96,-7.51"/>
<text xml:space="preserve" text-anchor="middle" x="229.08" y="-40.63" font-family="monospace" font-size="9.00">t1</text>
</g>
<!-- R5 -->
<g id="node7" class="node">
<title>R5</title>
<polygon fill="none" stroke="black" points="465.62,-82.8 358.88,-82.8 358.88,-46.8 465.62,-46.8 465.62,-82.8"/>
<text xml:space="preserve" text-anchor="middle" x="412.25" y="-60.12" font-family="monospace" font-size="14.00">R5\n100000Ω</text>
</g>
<!-- R5&#45;&gt;gnd -->
<g id="edge20" class="edge">
<title>R5&#45;&gt;gnd</title>
<path fill="none" stroke="black" d="M465.86,-49.31C469.04,-48.46 472.19,-47.62 475.25,-46.8 533.11,-31.35 603.38,-12.92 622.96,-7.79"/>
<text xml:space="preserve" text-anchor="middle" x="471.11" y="-52.01" font-family="monospace" font-size="9.00">t2</text>
</g>
<!-- R5&#45;&gt;net_4 -->
<g id="edge19" class="edge">
<title>R5&#45;&gt;net_4</title>
<path fill="none" stroke="black" d="M430.25,-46.58C443.78,-33.63 461.21,-16.96 468.64,-9.85"/>
<text xml:space="preserve" text-anchor="middle" x="425" y="-38.03" font-family="monospace" font-size="9.00">t1</text>
</g>
<!-- C2 -->
<g id="node8" class="node">
<title>C2</title>
<polygon fill="none" stroke="black" points="582.5,-82.8 484,-82.8 484,-46.8 582.5,-46.8 582.5,-82.8"/>
<text xml:space="preserve" text-anchor="middle" x="533.25" y="-60.12" font-family="monospace" font-size="14.00">C2\n1e&#45;05F</text>
</g>
<!-- C2&#45;&gt;gnd -->
<g id="edge4" class="edge">
<title>C2&#45;&gt;gnd</title>
<path fill="none" stroke="black" d="M562.01,-46.42C584.29,-32.96 613.13,-15.54 623.92,-9.02"/>
<text xml:space="preserve" text-anchor="middle" x="556.76" y="-37.87" font-family="monospace" font-size="9.00">t2</text>
</g>
<!-- C2&#45;&gt;net_4 -->
<g id="edge3" class="edge">
<title>C2&#45;&gt;net_4</title>
<path fill="none" stroke="black" d="M514.95,-46.58C501.19,-33.63 483.47,-16.96 475.92,-9.85"/>
<text xml:space="preserve" text-anchor="middle" x="509.7" y="-38.03" font-family="monospace" font-size="9.00">t1</text>
</g>
<!-- D1 -->
<g id="node9" class="node">
<title>D1</title>
<polygon fill="none" stroke="black" points="1048.62,-82.8 941.88,-82.8 941.88,-46.8 1048.62,-46.8 1048.62,-82.8"/>
<text xml:space="preserve" text-anchor="middle" x="995.25" y="-60.12" font-family="monospace" font-size="14.00">D1\nD1N4148</text>
</g>
<!-- D1&#45;&gt;gnd -->
<g id="edge8" class="edge">
<title>D1&#45;&gt;gnd</title>
<path fill="none" stroke="black" d="M941.4,-48.77C938.32,-48.06 935.25,-47.4 932.25,-46.8 812.7,-22.84 663.78,-9.42 633.69,-6.85"/>
<text xml:space="preserve" text-anchor="middle" x="932.22" y="-40.22" font-family="monospace" font-size="9.00">cathode</text>
</g>
<!-- D1&#45;&gt;net_2 -->
<g id="edge7" class="edge">
<title>D1&#45;&gt;net_2</title>
<path fill="none" stroke="black" d="M995.25,-46.58C995.25,-34.43 995.25,-18.99 995.25,-11.26"/>
<text xml:space="preserve" text-anchor="middle" x="982.12" y="-38.03" font-family="monospace" font-size="9.00">anode</text>
</g>
<!-- D2 -->
<g id="node10" class="node">
<title>D2</title>
<polygon fill="none" stroke="black" points="923.62,-82.8 816.88,-82.8 816.88,-46.8 923.62,-46.8 923.62,-82.8"/>
<text xml:space="preserve" text-anchor="middle" x="870.25" y="-60.12" font-family="monospace" font-size="14.00">D2\nD1N4148</text>
</g>
<!-- D2&#45;&gt;gnd -->
<g id="edge9" class="edge">
<title>D2&#45;&gt;gnd</title>
<path fill="none" stroke="black" d="M816.67,-49.18C813.49,-48.36 810.33,-47.56 807.25,-46.8 738.91,-29.87 655.16,-12.06 633.54,-7.51"/>
<text xml:space="preserve" text-anchor="middle" x="803.55" y="-40.63" font-family="monospace" font-size="9.00">anode</text>
</g>
<!-- D2&#45;&gt;net_2 -->
<g id="edge10" class="edge">
<title>D2&#45;&gt;net_2</title>
<path fill="none" stroke="black" d="M908.09,-46.42C937.99,-32.7 976.84,-14.85 990.36,-8.65"/>
<text xml:space="preserve" text-anchor="middle" x="889.72" y="-37.87" font-family="monospace" font-size="9.00">cathode</text>
</g>
<!-- C3 -->
<g id="node11" class="node">
<title>C3</title>
<polygon fill="none" stroke="black" points="1306.75,-82.8 1191.75,-82.8 1191.75,-46.8 1306.75,-46.8 1306.75,-82.8"/>
<text xml:space="preserve" text-anchor="middle" x="1249.25" y="-60.12" font-family="monospace" font-size="14.00">C3\n2.2e&#45;07F</text>
</g>
<!-- net_0 -->
<g id="node14" class="node">
<title>net_0</title>
<ellipse fill="none" stroke="black" cx="1297.25" cy="-5.4" rx="5.4" ry="5.4"/>
</g>
<!-- C3&#45;&gt;net_0 -->
<g id="edge6" class="edge">
<title>C3&#45;&gt;net_0</title>
<path fill="none" stroke="black" d="M1263.65,-46.58C1274.26,-33.9 1287.85,-17.64 1293.99,-10.3"/>
<text xml:space="preserve" text-anchor="middle" x="1258.4" y="-38.03" font-family="monospace" font-size="9.00">t2</text>
</g>
<!-- C3&#45;&gt;net_2 -->
<g id="edge5" class="edge">
<title>C3&#45;&gt;net_2</title>
<path fill="none" stroke="black" d="M1191.54,-49.02C1188.4,-48.26 1185.29,-47.51 1182.25,-46.8 1110.47,-29.94 1022.56,-11.94 1000.47,-7.46"/>
<text xml:space="preserve" text-anchor="middle" x="1186.29" y="-51.72" font-family="monospace" font-size="9.00">t1</text>
</g>
<!-- R6 -->
<g id="node12" class="node">
<title>R6</title>
<polygon fill="none" stroke="black" points="1423.5,-82.8 1325,-82.8 1325,-46.8 1423.5,-46.8 1423.5,-82.8"/>
<text xml:space="preserve" text-anchor="middle" x="1374.25" y="-60.12" font-family="monospace" font-size="14.00">R6\n50000Ω</text>
</g>
<!-- R6&#45;&gt;net_0 -->
<g id="edge21" class="edge">
<title>R6&#45;&gt;net_0</title>
<path fill="none" stroke="black" d="M1351.15,-46.58C1333.43,-33.37 1310.5,-16.28 1301.32,-9.43"/>
<text xml:space="preserve" text-anchor="middle" x="1345.9" y="-38.03" font-family="monospace" font-size="9.00">t1</text>
</g>
<!-- net_1 -->
<g id="node15" class="node">
<title>net_1</title>
<ellipse fill="none" stroke="black" cx="1374.25" cy="-5.4" rx="5.4" ry="5.4"/>
</g>
<!-- R6&#45;&gt;net_1 -->
<g id="edge22" class="edge">
<title>R6&#45;&gt;net_1</title>
<path fill="none" stroke="black" d="M1374.25,-46.58C1374.25,-34.43 1374.25,-18.99 1374.25,-11.26"/>
<text xml:space="preserve" text-anchor="middle" x="1369" y="-38.03" font-family="monospace" font-size="9.00">t2</text>
</g>
</g>
</svg>
