<?xml version="1.0" encoding="UTF-8" standalone="no"?>
<!DOCTYPE svg PUBLIC "-//W3C//DTD SVG 1.1//EN"
 "http://www.w3.org/Graphics/SVG/1.1/DTD/svg11.dtd">
<!-- Generated by graphviz version 14.1.5 (20260411.2331)
 -->
<!-- Title: Controller Board Pages: 1 -->
<svg width="656pt" height="131pt"
 viewBox="0.00 0.00 656.00 131.00" xmlns="http://www.w3.org/2000/svg" xmlns:xlink="http://www.w3.org/1999/xlink">
<g id="graph0" class="graph" transform="scale(1 1) rotate(0) translate(4 127.3)">
<title>Controller Board</title>
<polygon fill="white" stroke="none" points="-4,4 -4,-127.3 652,-127.3 652,4 -4,4"/>
<g id="clust1" class="cluster">
<title>cluster_A2</title>
<path fill="none" stroke="black" d="M20,-38.8C20,-38.8 628,-38.8 628,-38.8 634,-38.8 640,-44.8 640,-50.8 640,-50.8 640,-103.3 640,-103.3 640,-109.3 634,-115.3 628,-115.3 628,-115.3 20,-115.3 20,-115.3 14,-115.3 8,-109.3 8,-103.3 8,-103.3 8,-50.8 8,-50.8 8,-44.8 14,-38.8 20,-38.8"/>
<text xml:space="preserve" text-anchor="middle" x="324" y="-98" font-family="Times,serif" font-size="14.00">A2: Controller Board Rev A</text>
</g>
<!-- U1 -->
<g id="node1" class="node">
<title>U1</title>
<polygon fill="none" stroke="black" points="131.5,-82.8 16.5,-82.8 16.5,-46.8 131.5,-46.8 131.5,-82.8"/>
<text xml:space="preserve" text-anchor="middle" x="74" y="-60.12" font-family="monospace" font-size="14.00">U1\nSN74HC04</text>
</g>
<!-- gnd -->
<g id="node6" class="node">
<title>gnd</title>
<ellipse fill="none" stroke="black" cx="199" cy="-5.4" rx="5.4" ry="5.4"/>
</g>
<!-- U1&#45;&gt;gnd -->
<g id="edge4" class="edge">
<title>U1&#45;&gt;gnd</title>
<path fill="none" stroke="black" d="M86.8,-46.42C115.16,-30.78 167.59,-9.8 193.35,-6.77"/>
<text xml:space="preserve" text-anchor="middle" x="78.93" y="-37.87" font-family="monospace" font-size="9.00">a_2</text>
</g>
<!-- U1&#45;&gt;gnd -->
<g id="edge5" class="edge">
<title>U1&#45;&gt;gnd</title>
<path fill="none" stroke="black" d="M99.32,-46.42C129.35,-31.38 175.89,-11.38 193.79,-7.19"/>
<text xml:space="preserve" text-anchor="middle" x="107.2" y="-37.87" font-family="monospace" font-size="9.00">a_3</text>
</g>
<!-- U1&#45;&gt;gnd -->
<g id="edge6" class="edge">
<title>U1&#45;&gt;gnd</title>
<path fill="none" stroke="black" d="M111.84,-46.42C141.74,-32.7 180.59,-14.85 194.11,-8.65"/>
<text xml:space="preserve" text-anchor="middle" x="119.72" y="-37.87" font-family="monospace" font-size="9.00">a_4</text>
</g>
<!-- U1&#45;&gt;gnd -->
<g id="edge7" class="edge">
<title>U1&#45;&gt;gnd</title>
<path fill="none" stroke="black" d="M124.36,-46.42C153.64,-34.02 186.33,-18.25 197.11,-10.75"/>
<text xml:space="preserve" text-anchor="middle" x="132.24" y="-37.87" font-family="monospace" font-size="9.00">a_5</text>
</g>
<!-- U1&#45;&gt;gnd -->
<g id="edge8" class="edge">
<title>U1&#45;&gt;gnd</title>
<path fill="none" stroke="black" d="M131.73,-48.42C171.48,-33.27 212.64,-11.78 204.37,-7.25"/>
<text xml:space="preserve" text-anchor="middle" x="139.6" y="-51.12" font-family="monospace" font-size="9.00">a_6</text>
</g>
<!-- net_1 -->
<g id="node8" class="node">
<title>net_1</title>
<ellipse fill="none" stroke="black" cx="74" cy="-5.4" rx="5.4" ry="5.4"/>
</g>
<!-- U1&#45;&gt;net_1 -->
<g id="edge3" class="edge">
<title>U1&#45;&gt;net_1</title>
<path fill="none" stroke="black" d="M74,-46.58C74,-34.43 74,-18.99 74,-11.26"/>
<text xml:space="preserve" text-anchor="middle" x="66.12" y="-38.03" font-family="monospace" font-size="9.00">a_1</text>
</g>
<!-- net_6 -->
<g id="node11" class="node">
<title>net_6</title>
<ellipse fill="none" stroke="black" cx="137" cy="-5.4" rx="5.4" ry="5.4"/>
</g>
<!-- U1&#45;&gt;net_6 -->
<g id="edge9" class="edge">
<title>U1&#45;&gt;net_6</title>
<path fill="none" stroke="black" d="M92.9,-46.58C107.11,-33.63 125.41,-16.96 133.21,-9.85"/>
<text xml:space="preserve" text-anchor="middle" x="92.9" y="-38.03" font-family="monospace" font-size="9.00">y_1</text>
</g>
<!-- U2 -->
<g id="node2" class="node">
<title>U2</title>
<polygon fill="none" stroke="black" points="365.25,-82.8 266.75,-82.8 266.75,-46.8 365.25,-46.8 365.25,-82.8"/>
<text xml:space="preserve" text-anchor="middle" x="316" y="-60.12" font-family="monospace" font-size="14.00">U2\nCD4069</text>
</g>
<!-- U2&#45;&gt;gnd -->
<g id="edge11" class="edge">
<title>U2&#45;&gt;gnd</title>
<path fill="none" stroke="black" d="M266.41,-50.78C226.83,-35.56 183.87,-11.87 193.6,-7.21"/>
<text xml:space="preserve" text-anchor="middle" x="258.53" y="-53.48" font-family="monospace" font-size="9.00">a_2</text>
</g>
<!-- U2&#45;&gt;gnd -->
<g id="edge12" class="edge">
<title>U2&#45;&gt;gnd</title>
<path fill="none" stroke="black" d="M268.06,-46.42C240.8,-34.15 210.67,-18.58 200.6,-10.99"/>
<text xml:space="preserve" text-anchor="middle" x="260.18" y="-37.87" font-family="monospace" font-size="9.00">a_3</text>
</g>
<!-- U2&#45;&gt;gnd -->
<g id="edge13" class="edge">
<title>U2&#45;&gt;gnd</title>
<path fill="none" stroke="black" d="M280.58,-46.42C252.6,-32.7 216.23,-14.85 203.58,-8.65"/>
<text xml:space="preserve" text-anchor="middle" x="288.45" y="-37.87" font-family="monospace" font-size="9.00">a_4</text>
</g>
<!-- U2&#45;&gt;gnd -->
<g id="edge14" class="edge">
<title>U2&#45;&gt;gnd</title>
<path fill="none" stroke="black" d="M293.1,-46.42C265.42,-31.51 222.18,-11.74 204.56,-7.31"/>
<text xml:space="preserve" text-anchor="middle" x="300.97" y="-37.87" font-family="monospace" font-size="9.00">a_5</text>
</g>
<!-- U2&#45;&gt;gnd -->
<g id="edge15" class="edge">
<title>U2&#45;&gt;gnd</title>
<path fill="none" stroke="black" d="M305.62,-46.42C279.44,-30.78 229.94,-9.8 204.6,-6.77"/>
<text xml:space="preserve" text-anchor="middle" x="313.49" y="-37.87" font-family="monospace" font-size="9.00">a_6</text>
</g>
<!-- net_4 -->
<g id="node9" class="node">
<title>net_4</title>
<ellipse fill="none" stroke="black" cx="457" cy="-5.4" rx="5.4" ry="5.4"/>
</g>
<!-- U2&#45;&gt;net_4 -->
<g id="edge16" class="edge">
<title>U2&#45;&gt;net_4</title>
<path fill="none" stroke="black" d="M356.89,-46.32C362.95,-43.77 369.13,-41.2 375,-38.8 404.18,-26.85 439.5,-13.15 452.18,-8.26"/>
<text xml:space="preserve" text-anchor="middle" x="349.01" y="-37.77" font-family="monospace" font-size="9.00">y_1</text>
</g>
<!-- net_5 -->
<g id="node10" class="node">
<title>net_5</title>
<ellipse fill="none" stroke="black" cx="316" cy="-5.4" rx="5.4" ry="5.4"/>
</g>
<!-- U2&#45;&gt;net_5 -->
<g id="edge10" class="edge">
<title>U2&#45;&gt;net_5</title>
<path fill="none" stroke="black" d="M316,-46.58C316,-34.43 316,-18.99 316,-11.26"/>
<text xml:space="preserve" text-anchor="middle" x="323.88" y="-38.03" font-family="monospace" font-size="9.00">a_1</text>
</g>
<!-- U3 -->
<g id="node3" class="node">
<title>U3</title>
<polygon fill="none" stroke="black" points="248.25,-82.8 149.75,-82.8 149.75,-46.8 248.25,-46.8 248.25,-82.8"/>
<text xml:space="preserve" text-anchor="middle" x="199" y="-60.12" font-family="monospace" font-size="14.00">U3\nCD4043</text>
</g>
<!-- U3&#45;&gt;gnd -->
<g id="edge20" class="edge">
<title>U3&#45;&gt;gnd</title>
<path fill="none" stroke="black" d="M167.77,-46.58C160.46,-30.79 169.05,-9.46 193.53,-6.7"/>
<text xml:space="preserve" text-anchor="middle" x="159.9" y="-38.03" font-family="monospace" font-size="9.00">r_2</text>
</g>
<!-- U3&#45;&gt;gnd -->
<g id="edge21" class="edge">
<title>U3&#45;&gt;gnd</title>
<path fill="none" stroke="black" d="M180.26,-46.58C176.08,-31.52 180.57,-11.41 193.75,-7.2"/>
<text xml:space="preserve" text-anchor="middle" x="188.14" y="-38.03" font-family="monospace" font-size="9.00">r_3</text>
</g>
<!-- U3&#45;&gt;gnd -->
<g id="edge22" class="edge">
<title>U3&#45;&gt;gnd</title>
<path fill="none" stroke="black" d="M192.75,-46.58C191.56,-33.63 192.49,-16.96 195.57,-9.85"/>
<text xml:space="preserve" text-anchor="middle" x="200.63" y="-38.03" font-family="monospace" font-size="9.00">r_4</text>
</g>
<!-- U3&#45;&gt;gnd -->
<g id="edge24" class="edge">
<title>U3&#45;&gt;gnd</title>
<path fill="none" stroke="black" d="M205.25,-46.58C206.44,-33.63 205.51,-16.96 202.43,-9.85"/>
<text xml:space="preserve" text-anchor="middle" x="213.12" y="-38.03" font-family="monospace" font-size="9.00">s_2</text>
</g>
<!-- U3&#45;&gt;gnd -->
<g id="edge25" class="edge">
<title>U3&#45;&gt;gnd</title>
<path fill="none" stroke="black" d="M217.74,-46.58C221.92,-31.52 217.43,-11.41 204.25,-7.2"/>
<text xml:space="preserve" text-anchor="middle" x="225.61" y="-38.03" font-family="monospace" font-size="9.00">s_3</text>
</g>
<!-- U3&#45;&gt;gnd -->
<g id="edge26" class="edge">
<title>U3&#45;&gt;gnd</title>
<path fill="none" stroke="black" d="M230.23,-46.58C237.54,-30.79 228.95,-9.46 204.47,-6.7"/>
<text xml:space="preserve" text-anchor="middle" x="238.1" y="-38.03" font-family="monospace" font-size="9.00">s_4</text>
</g>
<!-- net_0 -->
<g id="node7" class="node">
<title>net_0</title>
<ellipse fill="none" stroke="black" cx="228" cy="-5.4" rx="5.4" ry="5.4"/>
</g>
<!-- U3&#45;&gt;net_0 -->
<g id="edge23" class="edge">
<title>U3&#45;&gt;net_0</title>
<path fill="none" stroke="black" d="M207.7,-46.58C213.97,-34.16 221.98,-18.31 225.79,-10.77"/>
<text xml:space="preserve" text-anchor="middle" x="215.58" y="-49.28" font-family="monospace" font-size="9.00">s_1</text>
</g>
<!-- U3&#45;&gt;net_5 -->
<g id="edge18" class="edge">
<title>U3&#45;&gt;net_5</title>
<path fill="none" stroke="black" d="M234.42,-46.42C262.4,-32.7 298.77,-14.85 311.42,-8.65"/>
<text xml:space="preserve" text-anchor="middle" x="242.3" y="-37.87" font-family="monospace" font-size="9.00">q_1</text>
</g>
<!-- U3&#45;&gt;net_6 -->
<g id="edge19" class="edge">
<title>U3&#45;&gt;net_6</title>
<path fill="none" stroke="black" d="M180.4,-46.58C166.42,-33.63 148.4,-16.96 140.73,-9.85"/>
<text xml:space="preserve" text-anchor="middle" x="172.52" y="-38.03" font-family="monospace" font-size="9.00">r_1</text>
</g>
<!-- vcc -->
<g id="node12" class="node">
<title>vcc</title>
<ellipse fill="none" stroke="black" cx="257" cy="-5.4" rx="5.4" ry="5.4"/>
</g>
<!-- U3&#45;&gt;vcc -->
<g id="edge17" class="edge">
<title>U3&#45;&gt;vcc</title>
<path fill="none" stroke="black" d="M216.4,-46.58C229.48,-33.63 246.33,-16.96 253.51,-9.85"/>
<text xml:space="preserve" text-anchor="middle" x="211.15" y="-38.03" font-family="monospace" font-size="9.00">oe</text>
</g>
<!-- D1 -->
<g id="node4" class="node">
<title>D1</title>
<polygon fill="none" stroke="black" points="490.38,-82.8 383.62,-82.8 383.62,-46.8 490.38,-46.8 490.38,-82.8"/>
<text xml:space="preserve" text-anchor="middle" x="437" y="-60.12" font-family="monospace" font-size="14.00">D1\nred LED</text>
</g>
<!-- D1&#45;&gt;net_5 -->
<g id="edge1" class="edge">
<title>D1&#45;&gt;net_5</title>
<path fill="none" stroke="black" d="M400.37,-46.42C371.43,-32.7 333.82,-14.85 320.73,-8.65"/>
<text xml:space="preserve" text-anchor="middle" x="387.24" y="-37.87" font-family="monospace" font-size="9.00">anode</text>
</g>
<!-- D2 -->
<g id="node5" class="node">
<title>D2</title>
<polygon fill="none" stroke="black" points="631.62,-82.8 508.38,-82.8 508.38,-46.8 631.62,-46.8 631.62,-82.8"/>
<text xml:space="preserve" text-anchor="middle" x="570" y="-60.12" font-family="monospace" font-size="14.00">D2\ngreen LED</text>
</g>
<!-- D2&#45;&gt;net_4 -->
<g id="edge2" class="edge">
<title>D2&#45;&gt;net_4</title>
<path fill="none" stroke="black" d="M535.79,-46.42C509.03,-32.83 474.32,-15.2 461.78,-8.83"/>
<text xml:space="preserve" text-anchor="middle" x="522.66" y="-37.87" font-family="monospace" font-size="9.00">anode</text>
</g>
</g>
</svg>
