<?xml version="1.0" encoding="UTF-8" standalone="no"?>
<!DOCTYPE svg PUBLIC "-//W3C//DTD SVG 1.1//EN"
 "http://www.w3.org/Graphics/SVG/1.1/DTD/svg11.dtd">
<!-- Generated by graphviz version 14.1.5 (20260411.2331)
 -->
<!-- Title: Sensor Board Pages: 1 -->
<svg width="176pt" height="131pt"
 viewBox="0.00 0.00 176.00 131.00" xmlns="http://www.w3.org/2000/svg" xmlns:xlink="http://www.w3.org/1999/xlink">
<g id="graph0" class="graph" transform="scale(1 1) rotate(0) translate(4 127.3)">
<title>Sensor Board</title>
<polygon fill="white" stroke="none" points="-4,4 -4,-127.3 172,-127.3 172,4 -4,4"/>
<g id="clust1" class="cluster">
<title>cluster_A1</title>
<path fill="none" stroke="black" d="M20,-38.8C20,-38.8 148,-38.8 148,-38.8 154,-38.8 160,-44.8 160,-50.8 160,-50.8 160,-103.3 160,-103.3 160,-109.3 154,-115.3 148,-115.3 148,-115.3 20,-115.3 20,-115.3 14,-115.3 8,-109.3 8,-103.3 8,-103.3 8,-50.8 8,-50.8 8,-44.8 14,-38.8 20,-38.8"/>
<text xml:space="preserve" text-anchor="middle" x="84" y="-98" font-family="Times,serif" font-size="14.00">A1: Sensor Board Rev A</text>
</g>
<!-- U1 -->
<g id="node1" class="node">
<title>U1</title>
<polygon fill="none" stroke="black" points="141.5,-82.8 26.5,-82.8 26.5,-46.8 141.5,-46.8 141.5,-82.8"/>
<text xml:space="preserve" text-anchor="middle" x="84" y="-60.12" font-family="monospace" font-size="14.00">U1\nULN2003A</text>
</g>
<!-- net_0 -->
<g id="node2" class="node">
<title>net_0</title>
<ellipse fill="none" stroke="black" cx="40" cy="-5.4" rx="5.4" ry="5.4"/>
</g>
<!-- U1&#45;&gt;net_0 -->
<g id="edge1" class="edge">
<title>U1&#45;&gt;net_0</title>
<path fill="none" stroke="black" d="M70.8,-46.58C61.08,-33.9 48.61,-17.64 42.99,-10.3"/>
<text xml:space="preserve" text-anchor="middle" x="60.3" y="-38.03" font-family="monospace" font-size="9.00">in_1</text>
</g>
<!-- net_1 -->
<g id="node3" class="node">
<title>net_1</title>
<ellipse fill="none" stroke="black" cx="69" cy="-5.4" rx="5.4" ry="5.4"/>
</g>
<!-- U1&#45;&gt;net_1 -->
<g id="edge2" class="edge">
<title>U1&#45;&gt;net_1</title>
<path fill="none" stroke="black" d="M79.5,-46.58C76.25,-34.16 72.11,-18.31 70.14,-10.77"/>
<text xml:space="preserve" text-anchor="middle" x="90" y="-38.03" font-family="monospace" font-size="9.00">in_2</text>
</g>
<!-- net_2 -->
<g id="node4" class="node">
<title>net_2</title>
<ellipse fill="none" stroke="black" cx="98" cy="-5.4" rx="5.4" ry="5.4"/>
</g>
<!-- U1&#45;&gt;net_2 -->
<g id="edge3" class="edge">
<title>U1&#45;&gt;net_2</title>
<path fill="none" stroke="black" d="M88.2,-46.58C91.23,-34.16 95.09,-18.31 96.93,-10.77"/>
<text xml:space="preserve" text-anchor="middle" x="101.33" y="-38.03" font-family="monospace" font-size="9.00">out_1</text>
</g>
<!-- net_3 -->
<g id="node5" class="node">
<title>net_3</title>
<ellipse fill="none" stroke="black" cx="127" cy="-5.4" rx="5.4" ry="5.4"/>
</g>
<!-- U1&#45;&gt;net_3 -->
<g id="edge4" class="edge">
<title>U1&#45;&gt;net_3</title>
<path fill="none" stroke="black" d="M96.9,-46.58C106.4,-33.9 118.58,-17.64 124.08,-10.3"/>
<text xml:space="preserve" text-anchor="middle" x="110.03" y="-38.03" font-family="monospace" font-size="9.00">out_2</text>
</g>
</g>
</svg>
