<?xml version="1.0" encoding="UTF-8" standalone="no"?>
<!DOCTYPE svg PUBLIC "-//W3C//DTD SVG 1.1//EN"
 "http://www.w3.org/Graphics/SVG/1.1/DTD/svg11.dtd">
<!-- Generated by graphviz version 14.1.5 (20260411.2331)
 -->
<!-- Title: WaterAlarmAssembly Pages: 1 -->
<svg width="682pt" height="131pt"
 viewBox="0.00 0.00 682.00 131.00" xmlns="http://www.w3.org/2000/svg" xmlns:xlink="http://www.w3.org/1999/xlink">
<g id="graph0" class="graph" transform="scale(1 1) rotate(0) translate(4 127.3)">
<title>WaterAlarmAssembly</title>
<polygon fill="white" stroke="none" points="-4,4 -4,-127.3 678,-127.3 678,4 -4,4"/>
<g id="clust1" class="cluster">
<title>cluster_A1</title>
<path fill="none" stroke="black" d="M526,-38.8C526,-38.8 654,-38.8 654,-38.8 660,-38.8 666,-44.8 666,-50.8 666,-50.8 666,-103.3 666,-103.3 666,-109.3 660,-115.3 654,-115.3 654,-115.3 526,-115.3 526,-115.3 520,-115.3 514,-109.3 514,-103.3 514,-103.3 514,-50.8 514,-50.8 514,-44.8 520,-38.8 526,-38.8"/>
<text xml:space="preserve" text-anchor="middle" x="590" y="-98" font-family="Times,serif" font-size="14.00">A1: Sensor Board Rev A</text>
</g>
<g id="clust2" class="cluster">
<title>cluster_A2</title>
<path fill="none" stroke="black" d="M20,-38.8C20,-38.8 494,-38.8 494,-38.8 500,-38.8 506,-44.8 506,-50.8 506,-50.8 506,-103.3 506,-103.3 506,-109.3 500,-115.3 494,-115.3 494,-115.3 20,-115.3 20,-115.3 14,-115.3 8,-109.3 8,-103.3 8,-103.3 8,-50.8 8,-50.8 8,-44.8 14,-38.8 20,-38.8"/>
<text xml:space="preserve" text-anchor="middle" x="257" y="-98" font-family="Times,serif" font-size="14.00">A2: Controller Board Rev A</text>
</g>
<!-- U1 -->
<g id="node1" class="node">
<title>U1</title>
<polygon fill="none" stroke="black" points="637.5,-82.8 522.5,-82.8 522.5,-46.8 637.5,-46.8 637.5,-82.8"/>
<text xml:space="preserve" text-anchor="middle" x="580" y="-60.12" font-family="monospace" font-size="14.00">U1\nSN74HC04</text>
</g>
<!-- gnd -->
<g id="node6" class="node">
<title>gnd</title>
<ellipse fill="none" stroke="black" cx="449" cy="-5.4" rx="5.4" ry="5.4"/>
</g>
<!-- U1&#45;&gt;gnd -->
<g id="edge4" class="edge">
<title>U1&#45;&gt;gnd</title>
<path fill="none" stroke="black" d="M522.31,-49.02C480.55,-33.87 435.95,-11.9 443.68,-7.27"/>
<text xml:space="preserve" text-anchor="middle" x="514.44" y="-51.72" font-family="monospace" font-size="9.00">a_2</text>
</g>
<!-- U1&#45;&gt;gnd -->
<g id="edge5" class="edge">
<title>U1&#45;&gt;gnd</title>
<path fill="none" stroke="black" d="M527.82,-46.42C497.24,-34.02 462.91,-18.25 451.35,-10.75"/>
<text xml:space="preserve" text-anchor="middle" x="519.95" y="-37.87" font-family="monospace" font-size="9.00">a_3</text>
</g>
<!-- U1&#45;&gt;gnd -->
<g id="edge6" class="edge">
<title>U1&#45;&gt;gnd</title>
<path fill="none" stroke="black" d="M540.34,-46.42C508.71,-32.56 467.51,-14.51 453.72,-8.47"/>
<text xml:space="preserve" text-anchor="middle" x="548.22" y="-37.87" font-family="monospace" font-size="9.00">a_4</text>
</g>
<!-- U1&#45;&gt;gnd -->
<g id="edge7" class="edge">
<title>U1&#45;&gt;gnd</title>
<path fill="none" stroke="black" d="M552.86,-46.42C521.26,-31.38 472.63,-11.38 454.3,-7.19"/>
<text xml:space="preserve" text-anchor="middle" x="560.73" y="-37.87" font-family="monospace" font-size="9.00">a_5</text>
</g>
<!-- U1&#45;&gt;gnd -->
<g id="edge8" class="edge">
<title>U1&#45;&gt;gnd</title>
<path fill="none" stroke="black" d="M565.38,-46.42C535.39,-30.78 480.77,-9.8 454.69,-6.77"/>
<text xml:space="preserve" text-anchor="middle" x="573.25" y="-37.87" font-family="monospace" font-size="9.00">a_6</text>
</g>
<!-- net_2 -->
<g id="node7" class="node">
<title>net_2</title>
<ellipse fill="none" stroke="black" cx="549" cy="-5.4" rx="5.4" ry="5.4"/>
</g>
<!-- U1&#45;&gt;net_2 -->
<g id="edge9" class="edge">
<title>U1&#45;&gt;net_2</title>
<path fill="none" stroke="black" d="M570.7,-46.58C563.99,-34.16 555.43,-18.31 551.36,-10.77"/>
<text xml:space="preserve" text-anchor="middle" x="581.2" y="-38.03" font-family="monospace" font-size="9.00">in_1</text>
</g>
<!-- net_3 -->
<g id="node8" class="node">
<title>net_3</title>
<ellipse fill="none" stroke="black" cx="578" cy="-5.4" rx="5.4" ry="5.4"/>
</g>
<!-- U1&#45;&gt;net_3 -->
<g id="edge10" class="edge">
<title>U1&#45;&gt;net_3</title>
<path fill="none" stroke="black" d="M579.4,-46.58C578.98,-34.43 578.44,-18.99 578.17,-11.26"/>
<text xml:space="preserve" text-anchor="middle" x="568.9" y="-49.28" font-family="monospace" font-size="9.00">in_2</text>
</g>
<!-- net_4 -->
<g id="node9" class="node">
<title>net_4</title>
<ellipse fill="none" stroke="black" cx="485" cy="-5.4" rx="5.4" ry="5.4"/>
</g>
<!-- U1&#45;&gt;net_4 -->
<g id="edge11" class="edge">
<title>U1&#45;&gt;net_4</title>
<path fill="none" stroke="black" d="M551.24,-46.42C528.96,-32.96 500.12,-15.54 489.33,-9.02"/>
<text xml:space="preserve" text-anchor="middle" x="538.11" y="-37.87" font-family="monospace" font-size="9.00">out_1</text>
</g>
<!-- net_44 -->
<g id="node12" class="node">
<title>net_44</title>
<ellipse fill="none" stroke="black" cx="518" cy="-5.4" rx="5.4" ry="5.4"/>
</g>
<!-- U1&#45;&gt;net_44 -->
<g id="edge13" class="edge">
<title>U1&#45;&gt;net_44</title>
<path fill="none" stroke="black" d="M561.4,-46.58C547.42,-33.63 529.4,-16.96 521.73,-9.85"/>
<text xml:space="preserve" text-anchor="middle" x="569.27" y="-38.03" font-family="monospace" font-size="9.00">y_1</text>
</g>
<!-- net_5 -->
<g id="node13" class="node">
<title>net_5</title>
<ellipse fill="none" stroke="black" cx="607" cy="-5.4" rx="5.4" ry="5.4"/>
</g>
<!-- U1&#45;&gt;net_5 -->
<g id="edge3" class="edge">
<title>U1&#45;&gt;net_5</title>
<path fill="none" stroke="black" d="M581.86,-46.58C586.94,-33.1 596.25,-15.59 602.72,-9.03"/>
<text xml:space="preserve" text-anchor="middle" x="589.73" y="-38.03" font-family="monospace" font-size="9.00">a_1</text>
</g>
<!-- U1&#45;&gt;net_5 -->
<g id="edge12" class="edge">
<title>U1&#45;&gt;net_5</title>
<path fill="none" stroke="black" d="M594.35,-46.58C601.34,-34.16 607.98,-18.31 608.74,-10.77"/>
<text xml:space="preserve" text-anchor="middle" x="607.47" y="-38.03" font-family="monospace" font-size="9.00">out_2</text>
</g>
<!-- U2 -->
<g id="node2" class="node">
<title>U2</title>
<polygon fill="none" stroke="black" points="381.25,-82.8 282.75,-82.8 282.75,-46.8 381.25,-46.8 381.25,-82.8"/>
<text xml:space="preserve" text-anchor="middle" x="332" y="-60.12" font-family="monospace" font-size="14.00">U2\nCD4069</text>
</g>
<!-- U2&#45;&gt;gnd -->
<g id="edge15" class="edge">
<title>U2&#45;&gt;gnd</title>
<path fill="none" stroke="black" d="M342.38,-46.42C368.56,-30.78 418.06,-9.8 443.4,-6.77"/>
<text xml:space="preserve" text-anchor="middle" x="334.51" y="-37.87" font-family="monospace" font-size="9.00">a_2</text>
</g>
<!-- U2&#45;&gt;gnd -->
<g id="edge16" class="edge">
<title>U2&#45;&gt;gnd</title>
<path fill="none" stroke="black" d="M354.9,-46.42C382.58,-31.51 425.82,-11.74 443.44,-7.31"/>
<text xml:space="preserve" text-anchor="middle" x="362.78" y="-37.87" font-family="monospace" font-size="9.00">a_3</text>
</g>
<!-- U2&#45;&gt;gnd -->
<g id="edge17" class="edge">
<title>U2&#45;&gt;gnd</title>
<path fill="none" stroke="black" d="M367.42,-46.42C395.4,-32.7 431.77,-14.85 444.42,-8.65"/>
<text xml:space="preserve" text-anchor="middle" x="375.3" y="-37.87" font-family="monospace" font-size="9.00">a_4</text>
</g>
<!-- U2&#45;&gt;gnd -->
<g id="edge18" class="edge">
<title>U2&#45;&gt;gnd</title>
<path fill="none" stroke="black" d="M379.94,-46.42C407.2,-34.15 437.33,-18.58 447.4,-10.99"/>
<text xml:space="preserve" text-anchor="middle" x="387.82" y="-49.12" font-family="monospace" font-size="9.00">a_5</text>
</g>
<!-- U2&#45;&gt;gnd -->
<g id="edge19" class="edge">
<title>U2&#45;&gt;gnd</title>
<path fill="none" stroke="black" d="M381.59,-50.78C421.17,-35.56 464.13,-11.87 454.4,-7.21"/>
<text xml:space="preserve" text-anchor="middle" x="389.47" y="-53.48" font-family="monospace" font-size="9.00">a_6</text>
</g>
<!-- net_42 -->
<g id="node10" class="node">
<title>net_42</title>
<ellipse fill="none" stroke="black" cx="191" cy="-5.4" rx="5.4" ry="5.4"/>
</g>
<!-- U2&#45;&gt;net_42 -->
<g id="edge20" class="edge">
<title>U2&#45;&gt;net_42</title>
<path fill="none" stroke="black" d="M291.11,-46.32C285.05,-43.77 278.87,-41.2 273,-38.8 243.82,-26.85 208.5,-13.15 195.82,-8.26"/>
<text xml:space="preserve" text-anchor="middle" x="283.24" y="-37.77" font-family="monospace" font-size="9.00">y_1</text>
</g>
<!-- net_43 -->
<g id="node11" class="node">
<title>net_43</title>
<ellipse fill="none" stroke="black" cx="332" cy="-5.4" rx="5.4" ry="5.4"/>
</g>
<!-- U2&#45;&gt;net_43 -->
<g id="edge14" class="edge">
<title>U2&#45;&gt;net_43</title>
<path fill="none" stroke="black" d="M332,-46.58C332,-34.43 332,-18.99 332,-11.26"/>
<text xml:space="preserve" text-anchor="middle" x="324.12" y="-38.03" font-family="monospace" font-size="9.00">a_1</text>
</g>
<!-- U3 -->
<g id="node3" class="node">
<title>U3</title>
<polygon fill="none" stroke="black" points="498.25,-82.8 399.75,-82.8 399.75,-46.8 498.25,-46.8 498.25,-82.8"/>
<text xml:space="preserve" text-anchor="middle" x="449" y="-60.12" font-family="monospace" font-size="14.00">U3\nCD4043</text>
</g>
<!-- U3&#45;&gt;gnd -->
<g id="edge24" class="edge">
<title>U3&#45;&gt;gnd</title>
<path fill="none" stroke="black" d="M417.77,-46.58C410.46,-30.79 419.05,-9.46 443.53,-6.7"/>
<text xml:space="preserve" text-anchor="middle" x="425.65" y="-38.03" font-family="monospace" font-size="9.00">r_2</text>
</g>
<!-- U3&#45;&gt;gnd -->
<g id="edge25" class="edge">
<title>U3&#45;&gt;gnd</title>
<path fill="none" stroke="black" d="M430.26,-46.58C426.08,-31.52 430.57,-11.41 443.75,-7.2"/>
<text xml:space="preserve" text-anchor="middle" x="438.14" y="-38.03" font-family="monospace" font-size="9.00">r_3</text>
</g>
<!-- U3&#45;&gt;gnd -->
<g id="edge26" class="edge">
<title>U3&#45;&gt;gnd</title>
<path fill="none" stroke="black" d="M442.75,-46.58C441.56,-33.63 442.49,-16.96 445.57,-9.85"/>
<text xml:space="preserve" text-anchor="middle" x="450.63" y="-38.03" font-family="monospace" font-size="9.00">r_4</text>
</g>
<!-- U3&#45;&gt;gnd -->
<g id="edge28" class="edge">
<title>U3&#45;&gt;gnd</title>
<path fill="none" stroke="black" d="M455.25,-46.58C456.44,-33.63 455.51,-16.96 452.43,-9.85"/>
<text xml:space="preserve" text-anchor="middle" x="463.12" y="-38.03" font-family="monospace" font-size="9.00">s_2</text>
</g>
<!-- U3&#45;&gt;gnd -->
<g id="edge29" class="edge">
<title>U3&#45;&gt;gnd</title>
<path fill="none" stroke="black" d="M467.74,-46.58C471.92,-31.52 467.43,-11.41 454.25,-7.2"/>
<text xml:space="preserve" text-anchor="middle" x="475.61" y="-38.03" font-family="monospace" font-size="9.00">s_3</text>
</g>
<!-- U3&#45;&gt;gnd -->
<g id="edge30" class="edge">
<title>U3&#45;&gt;gnd</title>
<path fill="none" stroke="black" d="M480.23,-46.58C487.54,-30.79 478.95,-9.46 454.47,-6.7"/>
<text xml:space="preserve" text-anchor="middle" x="488.1" y="-38.03" font-family="monospace" font-size="9.00">s_4</text>
</g>
<!-- U3&#45;&gt;net_4 -->
<g id="edge27" class="edge">
<title>U3&#45;&gt;net_4</title>
<path fill="none" stroke="black" d="M459.8,-46.58C467.75,-33.9 477.95,-17.64 482.55,-10.3"/>
<text xml:space="preserve" text-anchor="middle" x="451.93" y="-49.28" font-family="monospace" font-size="9.00">s_1</text>
</g>
<!-- U3&#45;&gt;net_43 -->
<g id="edge22" class="edge">
<title>U3&#45;&gt;net_43</title>
<path fill="none" stroke="black" d="M413.58,-46.42C385.6,-32.7 349.23,-14.85 336.58,-8.65"/>
<text xml:space="preserve" text-anchor="middle" x="405.7" y="-37.87" font-family="monospace" font-size="9.00">q_1</text>
</g>
<!-- U3&#45;&gt;net_44 -->
<g id="edge23" class="edge">
<title>U3&#45;&gt;net_44</title>
<path fill="none" stroke="black" d="M469.7,-46.58C485.42,-33.5 505.72,-16.62 514.11,-9.64"/>
<text xml:space="preserve" text-anchor="middle" x="477.58" y="-49.28" font-family="monospace" font-size="9.00">r_1</text>
</g>
<!-- vcc -->
<g id="node14" class="node">
<title>vcc</title>
<ellipse fill="none" stroke="black" cx="420" cy="-5.4" rx="5.4" ry="5.4"/>
</g>
<!-- U3&#45;&gt;vcc -->
<g id="edge21" class="edge">
<title>U3&#45;&gt;vcc</title>
<path fill="none" stroke="black" d="M440.3,-46.58C434.03,-34.16 426.02,-18.31 422.21,-10.77"/>
<text xml:space="preserve" text-anchor="middle" x="435.05" y="-49.28" font-family="monospace" font-size="9.00">oe</text>
</g>
<!-- D1 -->
<g id="node4" class="node">
<title>D1</title>
<polygon fill="none" stroke="black" points="264.38,-82.8 157.62,-82.8 157.62,-46.8 264.38,-46.8 264.38,-82.8"/>
<text xml:space="preserve" text-anchor="middle" x="211" y="-60.12" font-family="monospace" font-size="14.00">D1\nred LED</text>
</g>
<!-- D1&#45;&gt;net_43 -->
<g id="edge1" class="edge">
<title>D1&#45;&gt;net_43</title>
<path fill="none" stroke="black" d="M247.63,-46.42C276.57,-32.7 314.18,-14.85 327.27,-8.65"/>
<text xml:space="preserve" text-anchor="middle" x="234.51" y="-37.87" font-family="monospace" font-size="9.00">anode</text>
</g>
<!-- D2 -->
<g id="node5" class="node">
<title>D2</title>
<polygon fill="none" stroke="black" points="139.62,-82.8 16.38,-82.8 16.38,-46.8 139.62,-46.8 139.62,-82.8"/>
<text xml:space="preserve" text-anchor="middle" x="78" y="-60.12" font-family="monospace" font-size="14.00">D2\ngreen LED</text>
</g>
<!-- D2&#45;&gt;net_42 -->
<g id="edge2" class="edge">
<title>D2&#45;&gt;net_42</title>
<path fill="none" stroke="black" d="M112.21,-46.42C138.97,-32.83 173.68,-15.2 186.22,-8.83"/>
<text xml:space="preserve" text-anchor="middle" x="99.09" y="-37.87" font-family="monospace" font-size="9.00">anode</text>
</g>
</g>
</svg>
