<?xml version="1.0" encoding="UTF-8" standalone="no"?>
<!DOCTYPE svg PUBLIC "-//W3C//DTD SVG 1.1//EN"
 "http://www.w3.org/Graphics/SVG/1.1/DTD/svg11.dtd">
<!-- Generated by graphviz version 14.1.5 (20260411.2331)
 -->
<!-- Title: DigitalThermometer Pages: 1 -->
<svg width="670pt" height="91pt"
 viewBox="0.00 0.00 670.00 91.00" xmlns="http://www.w3.org/2000/svg" xmlns:xlink="http://www.w3.org/1999/xlink">
<g id="graph0" class="graph" transform="scale(1 1) rotate(0) translate(4 86.8)">
<title>DigitalThermometer</title>
<polygon fill="white" stroke="none" points="-4,4 -4,-86.8 666,-86.8 666,4 -4,4"/>
<!-- U1 -->
<g id="node1" class="node">
<title>U1</title>
<polygon fill="none" stroke="black" points="322.12,-82.8 99.88,-82.8 99.88,-46.8 322.12,-46.8 322.12,-82.8"/>
<text xml:space="preserve" text-anchor="middle" x="211" y="-60.12" font-family="monospace" font-size="14.00">U1\nUno_ThermometerSketch</text>
</g>
<!-- net_10 -->
<g id="node6" class="node">
<title>net_10</title>
<ellipse fill="none" stroke="black" cx="445" cy="-5.4" rx="5.4" ry="5.4"/>
</g>
<!-- U1&#45;&gt;net_10 -->
<g id="edge12" class="edge">
<title>U1&#45;&gt;net_10</title>
<path fill="none" stroke="black" d="M286.99,-46.35C329.23,-36.42 382.67,-23.46 430,-10.8 433.25,-9.93 436.87,-8.87 439.74,-8.01"/>
<text xml:space="preserve" text-anchor="middle" x="286.99" y="-37.8" font-family="monospace" font-size="9.00">PD5</text>
</g>
<!-- net_11 -->
<g id="node7" class="node">
<title>net_11</title>
<ellipse fill="none" stroke="black" cx="184" cy="-5.4" rx="5.4" ry="5.4"/>
</g>
<!-- U1&#45;&gt;net_11 -->
<g id="edge11" class="edge">
<title>U1&#45;&gt;net_11</title>
<path fill="none" stroke="black" d="M202.9,-46.58C197.06,-34.16 189.6,-18.31 186.06,-10.77"/>
<text xml:space="preserve" text-anchor="middle" x="195.02" y="-38.03" font-family="monospace" font-size="9.00">PD4</text>
</g>
<!-- net_12 -->
<g id="node8" class="node">
<title>net_12</title>
<ellipse fill="none" stroke="black" cx="213" cy="-5.4" rx="5.4" ry="5.4"/>
</g>
<!-- U1&#45;&gt;net_12 -->
<g id="edge6" class="edge">
<title>U1&#45;&gt;net_12</title>
<path fill="none" stroke="black" d="M211.6,-46.58C212.02,-34.43 212.56,-18.99 212.83,-11.26"/>
<text xml:space="preserve" text-anchor="middle" x="219.48" y="-38.03" font-family="monospace" font-size="9.00">PB3</text>
</g>
<!-- net_13 -->
<g id="node9" class="node">
<title>net_13</title>
<ellipse fill="none" stroke="black" cx="242" cy="-5.4" rx="5.4" ry="5.4"/>
</g>
<!-- U1&#45;&gt;net_13 -->
<g id="edge13" class="edge">
<title>U1&#45;&gt;net_13</title>
<path fill="none" stroke="black" d="M220.3,-46.58C227.01,-34.16 235.57,-18.31 239.64,-10.77"/>
<text xml:space="preserve" text-anchor="middle" x="228.18" y="-38.03" font-family="monospace" font-size="9.00">PD6</text>
</g>
<!-- net_14 -->
<g id="node10" class="node">
<title>net_14</title>
<ellipse fill="none" stroke="black" cx="487" cy="-5.4" rx="5.4" ry="5.4"/>
</g>
<!-- U1&#45;&gt;net_14 -->
<g id="edge9" class="edge">
<title>U1&#45;&gt;net_14</title>
<path fill="none" stroke="black" d="M294.93,-46.34C365.67,-31.63 458.91,-12.24 481.77,-7.49"/>
<text xml:space="preserve" text-anchor="middle" x="302.81" y="-37.79" font-family="monospace" font-size="9.00">PD2</text>
</g>
<!-- net_3 -->
<g id="node11" class="node">
<title>net_3</title>
<ellipse fill="none" stroke="black" cx="99" cy="-5.4" rx="5.4" ry="5.4"/>
</g>
<!-- U1&#45;&gt;net_3 -->
<g id="edge10" class="edge">
<title>U1&#45;&gt;net_3</title>
<path fill="none" stroke="black" d="M177.09,-46.42C150.57,-32.83 116.16,-15.2 103.74,-8.83"/>
<text xml:space="preserve" text-anchor="middle" x="169.22" y="-37.87" font-family="monospace" font-size="9.00">PD3</text>
</g>
<!-- net_4 -->
<g id="node12" class="node">
<title>net_4</title>
<ellipse fill="none" stroke="black" cx="271" cy="-5.4" rx="5.4" ry="5.4"/>
</g>
<!-- U1&#45;&gt;net_4 -->
<g id="edge5" class="edge">
<title>U1&#45;&gt;net_4</title>
<path fill="none" stroke="black" d="M229,-46.58C242.53,-33.63 259.96,-16.96 267.39,-9.85"/>
<text xml:space="preserve" text-anchor="middle" x="236.88" y="-38.03" font-family="monospace" font-size="9.00">PB2</text>
</g>
<!-- net_5 -->
<g id="node13" class="node">
<title>net_5</title>
<ellipse fill="none" stroke="black" cx="300" cy="-5.4" rx="5.4" ry="5.4"/>
</g>
<!-- U1&#45;&gt;net_5 -->
<g id="edge4" class="edge">
<title>U1&#45;&gt;net_5</title>
<path fill="none" stroke="black" d="M237.7,-46.58C258.39,-33.24 285.22,-15.93 295.61,-9.23"/>
<text xml:space="preserve" text-anchor="middle" x="245.58" y="-38.03" font-family="monospace" font-size="9.00">PB1</text>
</g>
<!-- net_6 -->
<g id="node14" class="node">
<title>net_6</title>
<ellipse fill="none" stroke="black" cx="329" cy="-5.4" rx="5.4" ry="5.4"/>
</g>
<!-- U1&#45;&gt;net_6 -->
<g id="edge8" class="edge">
<title>U1&#45;&gt;net_6</title>
<path fill="none" stroke="black" d="M246.72,-46.42C274.94,-32.7 311.62,-14.85 324.38,-8.65"/>
<text xml:space="preserve" text-anchor="middle" x="254.6" y="-37.87" font-family="monospace" font-size="9.00">PB5</text>
</g>
<!-- net_7 -->
<g id="node15" class="node">
<title>net_7</title>
<ellipse fill="none" stroke="black" cx="358" cy="-5.4" rx="5.4" ry="5.4"/>
</g>
<!-- U1&#45;&gt;net_7 -->
<g id="edge3" class="edge">
<title>U1&#45;&gt;net_7</title>
<path fill="none" stroke="black" d="M255.5,-46.42C291.33,-32.43 338.11,-14.17 353.13,-8.3"/>
<text xml:space="preserve" text-anchor="middle" x="263.38" y="-37.87" font-family="monospace" font-size="9.00">PB0</text>
</g>
<!-- net_8 -->
<g id="node16" class="node">
<title>net_8</title>
<ellipse fill="none" stroke="black" cx="387" cy="-5.4" rx="5.4" ry="5.4"/>
</g>
<!-- U1&#45;&gt;net_8 -->
<g id="edge7" class="edge">
<title>U1&#45;&gt;net_8</title>
<path fill="none" stroke="black" d="M264.28,-46.42C307.99,-32.17 365.31,-13.48 382.15,-7.98"/>
<text xml:space="preserve" text-anchor="middle" x="272.16" y="-37.87" font-family="monospace" font-size="9.00">PB4</text>
</g>
<!-- net_9 -->
<g id="node17" class="node">
<title>net_9</title>
<ellipse fill="none" stroke="black" cx="416" cy="-5.4" rx="5.4" ry="5.4"/>
</g>
<!-- U1&#45;&gt;net_9 -->
<g id="edge14" class="edge">
<title>U1&#45;&gt;net_9</title>
<path fill="none" stroke="black" d="M274.39,-46.34C311.36,-36.11 358.86,-22.86 401,-10.8 404.24,-9.87 407.86,-8.81 410.73,-7.96"/>
<text xml:space="preserve" text-anchor="middle" x="266.52" y="-49.04" font-family="monospace" font-size="9.00">PD7</text>
</g>
<!-- U2 -->
<g id="node2" class="node">
<title>U2</title>
<polygon fill="none" stroke="black" points="662,-82.8 514,-82.8 514,-46.8 662,-46.8 662,-82.8"/>
<text xml:space="preserve" text-anchor="middle" x="588" y="-60.12" font-family="monospace" font-size="14.00">U2\nDHT11_Module</text>
</g>
<!-- gnd -->
<g id="node5" class="node">
<title>gnd</title>
<ellipse fill="none" stroke="black" cx="545" cy="-5.4" rx="5.4" ry="5.4"/>
</g>
<!-- U2&#45;&gt;gnd -->
<g id="edge16" class="edge">
<title>U2&#45;&gt;gnd</title>
<path fill="none" stroke="black" d="M575.1,-46.58C565.6,-33.9 553.42,-17.64 547.92,-10.3"/>
<text xml:space="preserve" text-anchor="middle" x="567.22" y="-38.03" font-family="monospace" font-size="9.00">GND</text>
</g>
<!-- U2&#45;&gt;net_14 -->
<g id="edge15" class="edge">
<title>U2&#45;&gt;net_14</title>
<path fill="none" stroke="black" d="M557.42,-46.42C533.73,-32.96 503.08,-15.54 491.6,-9.02"/>
<text xml:space="preserve" text-anchor="middle" x="546.92" y="-37.87" font-family="monospace" font-size="9.00">DATA</text>
</g>
<!-- vcc -->
<g id="node18" class="node">
<title>vcc</title>
<ellipse fill="none" stroke="black" cx="588" cy="-5.4" rx="5.4" ry="5.4"/>
</g>
<!-- U2&#45;&gt;vcc -->
<g id="edge17" class="edge">
<title>U2&#45;&gt;vcc</title>
<path fill="none" stroke="black" d="M588,-46.58C588,-34.43 588,-18.99 588,-11.26"/>
<text xml:space="preserve" text-anchor="middle" x="595.88" y="-38.03" font-family="monospace" font-size="9.00">VCC</text>
</g>
<!-- U3 -->
<g id="node3" class="node">
<title>U3</title>
<polygon fill="none" stroke="black" points="496.12,-82.8 339.88,-82.8 339.88,-46.8 496.12,-46.8 496.12,-82.8"/>
<text xml:space="preserve" text-anchor="middle" x="418" y="-60.12" font-family="monospace" font-size="14.00">U3\nDisplay5641AS</text>
</g>
<!-- U3&#45;&gt;gnd -->
<g id="edge21" class="edge">
<title>U3&#45;&gt;gnd</title>
<path fill="none" stroke="black" d="M456.45,-46.42C487.11,-32.56 527.06,-14.51 540.42,-8.47"/>
<text xml:space="preserve" text-anchor="middle" x="443.32" y="-37.87" font-family="monospace" font-size="9.00">DIG_4</text>
</g>
<!-- U3&#45;&gt;net_10 -->
<g id="edge20" class="edge">
<title>U3&#45;&gt;net_10</title>
<path fill="none" stroke="black" d="M426.1,-46.58C431.94,-34.16 439.4,-18.31 442.94,-10.77"/>
<text xml:space="preserve" text-anchor="middle" x="412.98" y="-38.03" font-family="monospace" font-size="9.00">DIG_3</text>
</g>
<!-- U3&#45;&gt;net_11 -->
<g id="edge19" class="edge">
<title>U3&#45;&gt;net_11</title>
<path fill="none" stroke="black" d="M342.01,-46.35C299.77,-36.42 246.33,-23.46 199,-10.8 195.75,-9.93 192.13,-8.87 189.26,-8.01"/>
<text xml:space="preserve" text-anchor="middle" x="328.89" y="-37.8" font-family="monospace" font-size="9.00">DIG_2</text>
</g>
<!-- U3&#45;&gt;net_12 -->
<g id="edge28" class="edge">
<title>U3&#45;&gt;net_12</title>
<path fill="none" stroke="black" d="M354.61,-46.34C317.64,-36.11 270.14,-22.86 228,-10.8 224.76,-9.87 221.14,-8.81 218.27,-7.96"/>
<text xml:space="preserve" text-anchor="middle" x="367.73" y="-37.79" font-family="monospace" font-size="9.00">SEG_F</text>
</g>
<!-- U3&#45;&gt;net_13 -->
<g id="edge22" class="edge">
<title>U3&#45;&gt;net_13</title>
<path fill="none" stroke="black" d="M364.72,-46.42C321.01,-32.17 263.69,-13.48 246.85,-7.98"/>
<text xml:space="preserve" text-anchor="middle" x="377.84" y="-37.87" font-family="monospace" font-size="9.00">SEG_A</text>
</g>
<!-- U3&#45;&gt;net_3 -->
<g id="edge18" class="edge">
<title>U3&#45;&gt;net_3</title>
<path fill="none" stroke="black" d="M339.76,-48.43C336.8,-47.88 333.88,-47.33 331,-46.8 240.54,-30.09 129.88,-11.54 104.4,-7.3"/>
<text xml:space="preserve" text-anchor="middle" x="326.63" y="-51.13" font-family="monospace" font-size="9.00">DIG_1</text>
</g>
<!-- U3&#45;&gt;net_4 -->
<g id="edge27" class="edge">
<title>U3&#45;&gt;net_4</title>
<path fill="none" stroke="black" d="M373.5,-46.42C337.67,-32.43 290.89,-14.17 275.87,-8.3"/>
<text xml:space="preserve" text-anchor="middle" x="360.37" y="-49.12" font-family="monospace" font-size="9.00">SEG_E</text>
</g>
<!-- U3&#45;&gt;net_5 -->
<g id="edge25" class="edge">
<title>U3&#45;&gt;net_5</title>
<path fill="none" stroke="black" d="M382.28,-46.42C354.06,-32.7 317.38,-14.85 304.62,-8.65"/>
<text xml:space="preserve" text-anchor="middle" x="395.4" y="-37.87" font-family="monospace" font-size="9.00">SEG_D</text>
</g>
<!-- U3&#45;&gt;net_6 -->
<g id="edge26" class="edge">
<title>U3&#45;&gt;net_6</title>
<path fill="none" stroke="black" d="M391.3,-46.58C370.61,-33.24 343.78,-15.93 333.39,-9.23"/>
<text xml:space="preserve" text-anchor="middle" x="407.05" y="-49.28" font-family="monospace" font-size="9.00">SEG_DP</text>
</g>
<!-- U3&#45;&gt;net_7 -->
<g id="edge24" class="edge">
<title>U3&#45;&gt;net_7</title>
<path fill="none" stroke="black" d="M400,-46.58C386.47,-33.63 369.04,-16.96 361.61,-9.85"/>
<text xml:space="preserve" text-anchor="middle" x="386.87" y="-49.28" font-family="monospace" font-size="9.00">SEG_C</text>
</g>
<!-- U3&#45;&gt;net_8 -->
<g id="edge29" class="edge">
<title>U3&#45;&gt;net_8</title>
<path fill="none" stroke="black" d="M408.7,-46.58C401.99,-34.16 393.43,-18.31 389.36,-10.77"/>
<text xml:space="preserve" text-anchor="middle" x="421.82" y="-38.03" font-family="monospace" font-size="9.00">SEG_G</text>
</g>
<!-- U3&#45;&gt;net_9 -->
<g id="edge23" class="edge">
<title>U3&#45;&gt;net_9</title>
<path fill="none" stroke="black" d="M417.4,-46.58C416.98,-34.43 416.44,-18.99 416.17,-11.26"/>
<text xml:space="preserve" text-anchor="middle" x="430.52" y="-49.28" font-family="monospace" font-size="9.00">SEG_B</text>
</g>
<!-- R1 -->
<g id="node4" class="node">
<title>R1</title>
<polygon fill="none" stroke="black" points="82,-82.8 0,-82.8 0,-46.8 82,-46.8 82,-82.8"/>
<text xml:space="preserve" text-anchor="middle" x="41" y="-60.12" font-family="monospace" font-size="14.00">R1\n220Ω</text>
</g>
<!-- R1&#45;&gt;net_3 -->
<g id="edge1" class="edge">
<title>R1&#45;&gt;net_3</title>
<path fill="none" stroke="black" d="M52.16,-46.58C64.89,-32.71 84.4,-14.56 94.16,-8.48"/>
<text xml:space="preserve" text-anchor="middle" x="46.91" y="-38.03" font-family="monospace" font-size="9.00">t1</text>
</g>
<!-- R1&#45;&gt;net_3 -->
<g id="edge2" class="edge">
<title>R1&#45;&gt;net_3</title>
<path fill="none" stroke="black" d="M64.65,-46.58C78.34,-34.16 93.54,-18.31 98.38,-10.77"/>
<text xml:space="preserve" text-anchor="middle" x="59.4" y="-38.03" font-family="monospace" font-size="9.00">t2</text>
</g>
</g>
</svg>
