<?xml version="1.0" encoding="UTF-8" standalone="no"?>
<!DOCTYPE svg PUBLIC "-//W3C//DTD SVG 1.1//EN"
 "http://www.w3.org/Graphics/SVG/1.1/DTD/svg11.dtd">
<!-- Generated by graphviz version 14.1.5 (20260411.2331)
 -->
<!-- Title: DigitalThermometer Pages: 1 -->
<svg width="612pt" height="91pt"
 viewBox="0.00 0.00 612.00 91.00" xmlns="http://www.w3.org/2000/svg" xmlns:xlink="http://www.w3.org/1999/xlink">
<g id="graph0" class="graph" transform="scale(1 1) rotate(0) translate(4 86.8)">
<title>DigitalThermometer</title>
<polygon fill="white" stroke="none" points="-4,4 -4,-86.8 608.12,-86.8 608.12,4 -4,4"/>
<!-- U1 -->
<g id="node1" class="node">
<title>U1</title>
<polygon fill="none" stroke="black" points="496.12,-82.8 273.88,-82.8 273.88,-46.8 496.12,-46.8 496.12,-82.8"/>
<text xml:space="preserve" text-anchor="middle" x="385" y="-60.12" font-family="monospace" font-size="14.00">U1\nUno_ThermometerSketch</text>
</g>
<!-- net_1 -->
<g id="node6" class="node">
<title>net_1</title>
<ellipse fill="none" stroke="black" cx="68" cy="-5.4" rx="5.4" ry="5.4"/>
</g>
<!-- U1&#45;&gt;net_1 -->
<g id="edge10" class="edge">
<title>U1&#45;&gt;net_1</title>
<path fill="none" stroke="black" d="M288.6,-46.34C206.63,-31.5 98.34,-11.89 73.32,-7.36"/>
<text xml:space="preserve" text-anchor="middle" x="280.72" y="-37.79" font-family="monospace" font-size="9.00">PD3</text>
</g>
<!-- net_10 -->
<g id="node7" class="node">
<title>net_10</title>
<ellipse fill="none" stroke="black" cx="298" cy="-5.4" rx="5.4" ry="5.4"/>
</g>
<!-- U1&#45;&gt;net_10 -->
<g id="edge6" class="edge">
<title>U1&#45;&gt;net_10</title>
<path fill="none" stroke="black" d="M358.9,-46.58C338.68,-33.24 312.45,-15.93 302.29,-9.23"/>
<text xml:space="preserve" text-anchor="middle" x="366.77" y="-38.03" font-family="monospace" font-size="9.00">PB3</text>
</g>
<!-- net_11 -->
<g id="node8" class="node">
<title>net_11</title>
<ellipse fill="none" stroke="black" cx="327" cy="-5.4" rx="5.4" ry="5.4"/>
</g>
<!-- U1&#45;&gt;net_11 -->
<g id="edge13" class="edge">
<title>U1&#45;&gt;net_11</title>
<path fill="none" stroke="black" d="M367.6,-46.58C354.52,-33.63 337.67,-16.96 330.49,-9.85"/>
<text xml:space="preserve" text-anchor="middle" x="375.47" y="-38.03" font-family="monospace" font-size="9.00">PD6</text>
</g>
<!-- net_12 -->
<g id="node9" class="node">
<title>net_12</title>
<ellipse fill="none" stroke="black" cx="501" cy="-5.4" rx="5.4" ry="5.4"/>
</g>
<!-- U1&#45;&gt;net_12 -->
<g id="edge9" class="edge">
<title>U1&#45;&gt;net_12</title>
<path fill="none" stroke="black" d="M420.12,-46.42C447.86,-32.7 483.92,-14.85 496.46,-8.65"/>
<text xml:space="preserve" text-anchor="middle" x="412.24" y="-37.87" font-family="monospace" font-size="9.00">PD2</text>
</g>
<!-- net_2 -->
<g id="node10" class="node">
<title>net_2</title>
<ellipse fill="none" stroke="black" cx="356" cy="-5.4" rx="5.4" ry="5.4"/>
</g>
<!-- U1&#45;&gt;net_2 -->
<g id="edge5" class="edge">
<title>U1&#45;&gt;net_2</title>
<path fill="none" stroke="black" d="M376.3,-46.58C370.03,-34.16 362.02,-18.31 358.21,-10.77"/>
<text xml:space="preserve" text-anchor="middle" x="384.17" y="-38.03" font-family="monospace" font-size="9.00">PB2</text>
</g>
<!-- net_3 -->
<g id="node11" class="node">
<title>net_3</title>
<ellipse fill="none" stroke="black" cx="385" cy="-5.4" rx="5.4" ry="5.4"/>
</g>
<!-- U1&#45;&gt;net_3 -->
<g id="edge4" class="edge">
<title>U1&#45;&gt;net_3</title>
<path fill="none" stroke="black" d="M385,-46.58C385,-34.43 385,-18.99 385,-11.26"/>
<text xml:space="preserve" text-anchor="middle" x="392.88" y="-38.03" font-family="monospace" font-size="9.00">PB1</text>
</g>
<!-- net_4 -->
<g id="node12" class="node">
<title>net_4</title>
<ellipse fill="none" stroke="black" cx="414" cy="-5.4" rx="5.4" ry="5.4"/>
</g>
<!-- U1&#45;&gt;net_4 -->
<g id="edge8" class="edge">
<title>U1&#45;&gt;net_4</title>
<path fill="none" stroke="black" d="M393.7,-46.58C399.97,-34.16 407.98,-18.31 411.79,-10.77"/>
<text xml:space="preserve" text-anchor="middle" x="401.58" y="-38.03" font-family="monospace" font-size="9.00">PB5</text>
</g>
<!-- net_5 -->
<g id="node13" class="node">
<title>net_5</title>
<ellipse fill="none" stroke="black" cx="153" cy="-5.4" rx="5.4" ry="5.4"/>
</g>
<!-- U1&#45;&gt;net_5 -->
<g id="edge3" class="edge">
<title>U1&#45;&gt;net_5</title>
<path fill="none" stroke="black" d="M309.71,-46.31C267.86,-36.36 214.91,-23.4 168,-10.8 164.75,-9.93 161.13,-8.87 158.26,-8.01"/>
<text xml:space="preserve" text-anchor="middle" x="301.84" y="-37.76" font-family="monospace" font-size="9.00">PB0</text>
</g>
<!-- net_6 -->
<g id="node14" class="node">
<title>net_6</title>
<ellipse fill="none" stroke="black" cx="182" cy="-5.4" rx="5.4" ry="5.4"/>
</g>
<!-- U1&#45;&gt;net_6 -->
<g id="edge7" class="edge">
<title>U1&#45;&gt;net_6</title>
<path fill="none" stroke="black" d="M322.71,-46.42C286.08,-36.15 238.88,-22.84 197,-10.8 193.77,-9.87 190.15,-8.81 187.27,-7.96"/>
<text xml:space="preserve" text-anchor="middle" x="330.59" y="-37.87" font-family="monospace" font-size="9.00">PB4</text>
</g>
<!-- net_7 -->
<g id="node15" class="node">
<title>net_7</title>
<ellipse fill="none" stroke="black" cx="211" cy="-5.4" rx="5.4" ry="5.4"/>
</g>
<!-- U1&#45;&gt;net_7 -->
<g id="edge14" class="edge">
<title>U1&#45;&gt;net_7</title>
<path fill="none" stroke="black" d="M332.32,-46.42C289.11,-32.17 232.45,-13.48 215.8,-7.98"/>
<text xml:space="preserve" text-anchor="middle" x="340.2" y="-37.87" font-family="monospace" font-size="9.00">PD7</text>
</g>
<!-- net_8 -->
<g id="node16" class="node">
<title>net_8</title>
<ellipse fill="none" stroke="black" cx="240" cy="-5.4" rx="5.4" ry="5.4"/>
</g>
<!-- U1&#45;&gt;net_8 -->
<g id="edge12" class="edge">
<title>U1&#45;&gt;net_8</title>
<path fill="none" stroke="black" d="M341.1,-46.42C305.76,-32.43 259.62,-14.17 244.8,-8.3"/>
<text xml:space="preserve" text-anchor="middle" x="348.98" y="-37.87" font-family="monospace" font-size="9.00">PD5</text>
</g>
<!-- net_9 -->
<g id="node17" class="node">
<title>net_9</title>
<ellipse fill="none" stroke="black" cx="269" cy="-5.4" rx="5.4" ry="5.4"/>
</g>
<!-- U1&#45;&gt;net_9 -->
<g id="edge11" class="edge">
<title>U1&#45;&gt;net_9</title>
<path fill="none" stroke="black" d="M349.88,-46.42C322.14,-32.7 286.08,-14.85 273.54,-8.65"/>
<text xml:space="preserve" text-anchor="middle" x="357.76" y="-37.87" font-family="monospace" font-size="9.00">PD4</text>
</g>
<!-- U2 -->
<g id="node2" class="node">
<title>U2</title>
<polygon fill="none" stroke="black" points="604.12,-82.8 513.88,-82.8 513.88,-46.8 604.12,-46.8 604.12,-82.8"/>
<text xml:space="preserve" text-anchor="middle" x="559" y="-60.12" font-family="monospace" font-size="14.00">U2\nDHT11</text>
</g>
<!-- U2&#45;&gt;net_12 -->
<g id="edge15" class="edge">
<title>U2&#45;&gt;net_12</title>
<path fill="none" stroke="black" d="M541.6,-46.58C528.52,-33.63 511.67,-16.96 504.49,-9.85"/>
<text xml:space="preserve" text-anchor="middle" x="531.1" y="-38.03" font-family="monospace" font-size="9.00">DATA</text>
</g>
<!-- U3 -->
<g id="node3" class="node">
<title>U3</title>
<polygon fill="none" stroke="black" points="256.12,-82.8 99.88,-82.8 99.88,-46.8 256.12,-46.8 256.12,-82.8"/>
<text xml:space="preserve" text-anchor="middle" x="178" y="-60.12" font-family="monospace" font-size="14.00">U3\nDisplay5641AS</text>
</g>
<!-- gnd -->
<g id="node5" class="node">
<title>gnd</title>
<ellipse fill="none" stroke="black" cx="124" cy="-5.4" rx="5.4" ry="5.4"/>
</g>
<!-- U3&#45;&gt;gnd -->
<g id="edge19" class="edge">
<title>U3&#45;&gt;gnd</title>
<path fill="none" stroke="black" d="M161.8,-46.58C149.62,-33.63 133.93,-16.96 127.25,-9.85"/>
<text xml:space="preserve" text-anchor="middle" x="174.92" y="-38.03" font-family="monospace" font-size="9.00">DIG_4</text>
</g>
<!-- U3&#45;&gt;net_1 -->
<g id="edge16" class="edge">
<title>U3&#45;&gt;net_1</title>
<path fill="none" stroke="black" d="M144.7,-46.42C118.65,-32.83 84.86,-15.2 72.65,-8.83"/>
<text xml:space="preserve" text-anchor="middle" x="131.57" y="-37.87" font-family="monospace" font-size="9.00">DIG_1</text>
</g>
<!-- U3&#45;&gt;net_10 -->
<g id="edge26" class="edge">
<title>U3&#45;&gt;net_10</title>
<path fill="none" stroke="black" d="M214.33,-46.42C243.03,-32.7 280.33,-14.85 293.31,-8.65"/>
<text xml:space="preserve" text-anchor="middle" x="201.2" y="-37.87" font-family="monospace" font-size="9.00">SEG_F</text>
</g>
<!-- U3&#45;&gt;net_11 -->
<g id="edge20" class="edge">
<title>U3&#45;&gt;net_11</title>
<path fill="none" stroke="black" d="M223.11,-46.42C259.43,-32.43 306.84,-14.17 322.07,-8.3"/>
<text xml:space="preserve" text-anchor="middle" x="236.23" y="-37.87" font-family="monospace" font-size="9.00">SEG_A</text>
</g>
<!-- U3&#45;&gt;net_2 -->
<g id="edge25" class="edge">
<title>U3&#45;&gt;net_2</title>
<path fill="none" stroke="black" d="M231.89,-46.42C275.89,-32.23 333.52,-13.65 350.86,-8.06"/>
<text xml:space="preserve" text-anchor="middle" x="245.01" y="-37.87" font-family="monospace" font-size="9.00">SEG_E</text>
</g>
<!-- U3&#45;&gt;net_3 -->
<g id="edge23" class="edge">
<title>U3&#45;&gt;net_3</title>
<path fill="none" stroke="black" d="M242.07,-46.39C279.43,-36.17 327.43,-22.92 370,-10.8 373.24,-9.88 376.86,-8.82 379.73,-7.97"/>
<text xml:space="preserve" text-anchor="middle" x="255.2" y="-49.09" font-family="monospace" font-size="9.00">SEG_D</text>
</g>
<!-- U3&#45;&gt;net_4 -->
<g id="edge24" class="edge">
<title>U3&#45;&gt;net_4</title>
<path fill="none" stroke="black" d="M254.95,-46.34C297.53,-36.43 351.34,-23.5 399,-10.8 402.25,-9.93 405.87,-8.87 408.74,-8.01"/>
<text xml:space="preserve" text-anchor="middle" x="270.7" y="-37.79" font-family="monospace" font-size="9.00">SEG_DP</text>
</g>
<!-- U3&#45;&gt;net_5 -->
<g id="edge22" class="edge">
<title>U3&#45;&gt;net_5</title>
<path fill="none" stroke="black" d="M170.5,-46.58C165.09,-34.16 158.19,-18.31 154.9,-10.77"/>
<text xml:space="preserve" text-anchor="middle" x="157.37" y="-38.03" font-family="monospace" font-size="9.00">SEG_C</text>
</g>
<!-- U3&#45;&gt;net_6 -->
<g id="edge27" class="edge">
<title>U3&#45;&gt;net_6</title>
<path fill="none" stroke="black" d="M179.2,-46.58C180.05,-34.43 181.12,-18.99 181.66,-11.26"/>
<text xml:space="preserve" text-anchor="middle" x="166.08" y="-49.28" font-family="monospace" font-size="9.00">SEG_G</text>
</g>
<!-- U3&#45;&gt;net_7 -->
<g id="edge21" class="edge">
<title>U3&#45;&gt;net_7</title>
<path fill="none" stroke="black" d="M187.9,-46.58C195.19,-33.9 204.54,-17.64 208.76,-10.3"/>
<text xml:space="preserve" text-anchor="middle" x="201.03" y="-49.28" font-family="monospace" font-size="9.00">SEG_B</text>
</g>
<!-- U3&#45;&gt;net_8 -->
<g id="edge18" class="edge">
<title>U3&#45;&gt;net_8</title>
<path fill="none" stroke="black" d="M196.6,-46.58C210.58,-33.63 228.6,-16.96 236.27,-9.85"/>
<text xml:space="preserve" text-anchor="middle" x="209.73" y="-38.03" font-family="monospace" font-size="9.00">DIG_3</text>
</g>
<!-- U3&#45;&gt;net_9 -->
<g id="edge17" class="edge">
<title>U3&#45;&gt;net_9</title>
<path fill="none" stroke="black" d="M205.3,-46.58C226.45,-33.24 253.88,-15.93 264.52,-9.23"/>
<text xml:space="preserve" text-anchor="middle" x="218.43" y="-38.03" font-family="monospace" font-size="9.00">DIG_2</text>
</g>
<!-- R1 -->
<g id="node4" class="node">
<title>R1</title>
<polygon fill="none" stroke="black" points="82,-82.8 0,-82.8 0,-46.8 82,-46.8 82,-82.8"/>
<text xml:space="preserve" text-anchor="middle" x="41" y="-60.12" font-family="monospace" font-size="14.00">R1\n220Ω</text>
</g>
<!-- R1&#45;&gt;net_1 -->
<g id="edge1" class="edge">
<title>R1&#45;&gt;net_1</title>
<path fill="none" stroke="black" d="M42.86,-46.58C47.94,-33.1 57.25,-15.59 63.72,-9.03"/>
<text xml:space="preserve" text-anchor="middle" x="37.61" y="-38.03" font-family="monospace" font-size="9.00">t1</text>
</g>
<!-- R1&#45;&gt;net_1 -->
<g id="edge2" class="edge">
<title>R1&#45;&gt;net_1</title>
<path fill="none" stroke="black" d="M55.35,-46.58C62.34,-34.16 68.98,-18.31 69.74,-10.77"/>
<text xml:space="preserve" text-anchor="middle" x="50.1" y="-38.03" font-family="monospace" font-size="9.00">t2</text>
</g>
</g>
</svg>
