<?xml version="1.0" encoding="UTF-8" standalone="no"?>
<!DOCTYPE svg PUBLIC "-//W3C//DTD SVG 1.1//EN"
 "http://www.w3.org/Graphics/SVG/1.1/DTD/svg11.dtd">
<!-- Generated by graphviz version 14.1.5 (20260411.2331)
 -->
<!-- Title: FiveVoltRailPower Pages: 1 -->
<svg width="869pt" height="91pt"
 viewBox="0.00 0.00 869.00 91.00" xmlns="http://www.w3.org/2000/svg" xmlns:xlink="http://www.w3.org/1999/xlink">
<g id="graph0" class="graph" transform="scale(1 1) rotate(0) translate(4 86.8)">
<title>FiveVoltRailPower</title>
<polygon fill="white" stroke="none" points="-4,4 -4,-86.8 865.38,-86.8 865.38,4 -4,4"/>
<!-- D1 -->
<g id="node1" class="node">
<title>D1</title>
<polygon fill="none" stroke="black" points="106.75,-82.8 0,-82.8 0,-46.8 106.75,-46.8 106.75,-82.8"/>
<text xml:space="preserve" text-anchor="middle" x="53.38" y="-60.12" font-family="monospace" font-size="14.00">D1\nD1N5817</text>
</g>
<!-- net_3 -->
<g id="node11" class="node">
<title>net_3</title>
<ellipse fill="none" stroke="black" cx="203.38" cy="-5.4" rx="5.4" ry="5.4"/>
</g>
<!-- D1&#45;&gt;net_3 -->
<g id="edge8" class="edge">
<title>D1&#45;&gt;net_3</title>
<path fill="none" stroke="black" d="M98.79,-46.42C135.35,-32.43 183.08,-14.17 198.41,-8.3"/>
<text xml:space="preserve" text-anchor="middle" x="80.41" y="-37.87" font-family="monospace" font-size="9.00">cathode</text>
</g>
<!-- net_4 -->
<g id="node12" class="node">
<title>net_4</title>
<ellipse fill="none" stroke="black" cx="92.38" cy="-5.4" rx="5.4" ry="5.4"/>
</g>
<!-- D1&#45;&gt;net_4 -->
<g id="edge7" class="edge">
<title>D1&#45;&gt;net_4</title>
<path fill="none" stroke="black" d="M65.08,-46.58C73.69,-33.9 84.74,-17.64 89.73,-10.3"/>
<text xml:space="preserve" text-anchor="middle" x="51.95" y="-38.03" font-family="monospace" font-size="9.00">anode</text>
</g>
<!-- C1 -->
<g id="node2" class="node">
<title>C1</title>
<polygon fill="none" stroke="black" points="252.62,-82.8 154.12,-82.8 154.12,-46.8 252.62,-46.8 252.62,-82.8"/>
<text xml:space="preserve" text-anchor="middle" x="203.38" y="-60.12" font-family="monospace" font-size="14.00">C1\n1e&#45;07F</text>
</g>
<!-- net_1 -->
<g id="node9" class="node">
<title>net_1</title>
<ellipse fill="none" stroke="black" cx="364.38" cy="-5.4" rx="5.4" ry="5.4"/>
</g>
<!-- C1&#45;&gt;net_1 -->
<g id="edge4" class="edge">
<title>C1&#45;&gt;net_1</title>
<path fill="none" stroke="black" d="M252.12,-46.42C291.73,-32.3 343.56,-13.82 359.5,-8.14"/>
<text xml:space="preserve" text-anchor="middle" x="246.87" y="-37.87" font-family="monospace" font-size="9.00">t2</text>
</g>
<!-- C1&#45;&gt;net_3 -->
<g id="edge3" class="edge">
<title>C1&#45;&gt;net_3</title>
<path fill="none" stroke="black" d="M203.38,-46.58C203.38,-34.43 203.38,-18.99 203.38,-11.26"/>
<text xml:space="preserve" text-anchor="middle" x="198.12" y="-38.03" font-family="monospace" font-size="9.00">t1</text>
</g>
<!-- U1 -->
<g id="node3" class="node">
<title>U1</title>
<polygon fill="none" stroke="black" points="369.62,-82.8 271.12,-82.8 271.12,-46.8 369.62,-46.8 369.62,-82.8"/>
<text xml:space="preserve" text-anchor="middle" x="320.38" y="-60.12" font-family="monospace" font-size="14.00">U1\nLM7805</text>
</g>
<!-- U1&#45;&gt;net_1 -->
<g id="edge15" class="edge">
<title>U1&#45;&gt;net_1</title>
<path fill="none" stroke="black" d="M333.58,-46.58C343.3,-33.9 355.76,-17.64 361.39,-10.3"/>
<text xml:space="preserve" text-anchor="middle" x="325.7" y="-38.03" font-family="monospace" font-size="9.00">GND</text>
</g>
<!-- net_2 -->
<g id="node10" class="node">
<title>net_2</title>
<ellipse fill="none" stroke="black" cx="499.38" cy="-5.4" rx="5.4" ry="5.4"/>
</g>
<!-- U1&#45;&gt;net_2 -->
<g id="edge17" class="edge">
<title>U1&#45;&gt;net_2</title>
<path fill="none" stroke="black" d="M369.76,-47.96C414.47,-33.63 476.01,-13.89 494.14,-8.08"/>
<text xml:space="preserve" text-anchor="middle" x="377.64" y="-39.41" font-family="monospace" font-size="9.00">OUTPUT</text>
</g>
<!-- U1&#45;&gt;net_3 -->
<g id="edge16" class="edge">
<title>U1&#45;&gt;net_3</title>
<path fill="none" stroke="black" d="M284.95,-46.42C256.97,-32.7 220.61,-14.85 207.95,-8.65"/>
<text xml:space="preserve" text-anchor="middle" x="271.83" y="-37.87" font-family="monospace" font-size="9.00">INPUT</text>
</g>
<!-- C2 -->
<g id="node4" class="node">
<title>C2</title>
<polygon fill="none" stroke="black" points="486.62,-82.8 388.12,-82.8 388.12,-46.8 486.62,-46.8 486.62,-82.8"/>
<text xml:space="preserve" text-anchor="middle" x="437.38" y="-60.12" font-family="monospace" font-size="14.00">C2\n1e&#45;05F</text>
</g>
<!-- C2&#45;&gt;net_1 -->
<g id="edge6" class="edge">
<title>C2&#45;&gt;net_1</title>
<path fill="none" stroke="black" d="M415.47,-46.58C398.67,-33.37 376.94,-16.28 368.23,-9.43"/>
<text xml:space="preserve" text-anchor="middle" x="410.22" y="-38.03" font-family="monospace" font-size="9.00">t2</text>
</g>
<!-- C2&#45;&gt;net_2 -->
<g id="edge5" class="edge">
<title>C2&#45;&gt;net_2</title>
<path fill="none" stroke="black" d="M455.98,-46.58C469.96,-33.63 487.97,-16.96 495.64,-9.85"/>
<text xml:space="preserve" text-anchor="middle" x="450.73" y="-38.03" font-family="monospace" font-size="9.00">t1</text>
</g>
<!-- D2 -->
<g id="node5" class="node">
<title>D2</title>
<polygon fill="none" stroke="black" points="619.88,-82.8 504.88,-82.8 504.88,-46.8 619.88,-46.8 619.88,-82.8"/>
<text xml:space="preserve" text-anchor="middle" x="562.38" y="-60.12" font-family="monospace" font-size="14.00">D2\nD1N4733A</text>
</g>
<!-- D2&#45;&gt;net_1 -->
<g id="edge9" class="edge">
<title>D2&#45;&gt;net_1</title>
<path fill="none" stroke="black" d="M504.57,-47.04C455.03,-32.68 388.74,-13.46 369.7,-7.94"/>
<text xml:space="preserve" text-anchor="middle" x="491.45" y="-38.49" font-family="monospace" font-size="9.00">anode</text>
</g>
<!-- D2&#45;&gt;net_2 -->
<g id="edge10" class="edge">
<title>D2&#45;&gt;net_2</title>
<path fill="none" stroke="black" d="M543.47,-46.58C529.27,-33.63 510.96,-16.96 503.17,-9.85"/>
<text xml:space="preserve" text-anchor="middle" x="525.1" y="-38.03" font-family="monospace" font-size="9.00">cathode</text>
</g>
<!-- R1 -->
<g id="node6" class="node">
<title>R1</title>
<polygon fill="none" stroke="black" points="861.38,-82.8 779.38,-82.8 779.38,-46.8 861.38,-46.8 861.38,-82.8"/>
<text xml:space="preserve" text-anchor="middle" x="820.38" y="-60.12" font-family="monospace" font-size="14.00">R1\n470Ω</text>
</g>
<!-- net_0 -->
<g id="node8" class="node">
<title>net_0</title>
<ellipse fill="none" stroke="black" cx="759.38" cy="-5.4" rx="5.4" ry="5.4"/>
</g>
<!-- R1&#45;&gt;net_0 -->
<g id="edge14" class="edge">
<title>R1&#45;&gt;net_0</title>
<path fill="none" stroke="black" d="M802.07,-46.58C788.32,-33.63 770.6,-16.96 763.04,-9.85"/>
<text xml:space="preserve" text-anchor="middle" x="796.82" y="-38.03" font-family="monospace" font-size="9.00">t2</text>
</g>
<!-- R1&#45;&gt;net_2 -->
<g id="edge13" class="edge">
<title>R1&#45;&gt;net_2</title>
<path fill="none" stroke="black" d="M779.07,-49.12C776.15,-48.28 773.23,-47.49 770.38,-46.8 665.43,-21.36 533.52,-9.27 504.98,-6.86"/>
<text xml:space="preserve" text-anchor="middle" x="773.82" y="-51.82" font-family="monospace" font-size="9.00">t1</text>
</g>
<!-- D3 -->
<g id="node7" class="node">
<title>D3</title>
<polygon fill="none" stroke="black" points="761,-82.8 637.75,-82.8 637.75,-46.8 761,-46.8 761,-82.8"/>
<text xml:space="preserve" text-anchor="middle" x="699.38" y="-60.12" font-family="monospace" font-size="14.00">D3\ngreen LED</text>
</g>
<!-- D3&#45;&gt;net_0 -->
<g id="edge11" class="edge">
<title>D3&#45;&gt;net_0</title>
<path fill="none" stroke="black" d="M717.38,-46.58C730.91,-33.63 748.34,-16.96 755.77,-9.85"/>
<text xml:space="preserve" text-anchor="middle" x="704.25" y="-38.03" font-family="monospace" font-size="9.00">anode</text>
</g>
<!-- D3&#45;&gt;net_1 -->
<g id="edge12" class="edge">
<title>D3&#45;&gt;net_1</title>
<path fill="none" stroke="black" d="M637.6,-48.49C634.83,-47.9 632.07,-47.33 629.38,-46.8 525.73,-26.35 397.53,-10.4 369.82,-7.05"/>
<text xml:space="preserve" text-anchor="middle" x="628.42" y="-39.94" font-family="monospace" font-size="9.00">cathode</text>
</g>
<!-- BT1 -->
<g id="node13" class="node">
<title>BT1</title>
<ellipse fill="none" stroke="black" cx="130.38" cy="-64.8" rx="5.4" ry="5.4"/>
</g>
<!-- BT1&#45;&gt;net_1 -->
<g id="edge1" class="edge">
<title>BT1&#45;&gt;net_1</title>
<path fill="none" stroke="black" d="M132.81,-59.73C135.41,-55.77 139.89,-49.9 145.38,-46.8 221.08,-3.95 332.88,-5.21 358.85,-6.15"/>
<text xml:space="preserve" text-anchor="middle" x="140.68" y="-51.18" font-family="monospace" font-size="9.00">neg</text>
</g>
<!-- BT1&#45;&gt;net_4 -->
<g id="edge2" class="edge">
<title>BT1&#45;&gt;net_4</title>
<path fill="none" stroke="black" d="M127.64,-59.67C120.63,-49.08 102.07,-21.04 95.08,-10.49"/>
<text xml:space="preserve" text-anchor="middle" x="119.77" y="-51.12" font-family="monospace" font-size="9.00">pos</text>
</g>
</g>
</svg>
