<?xml version="1.0" encoding="UTF-8" standalone="no"?>
<!DOCTYPE svg PUBLIC "-//W3C//DTD SVG 1.1//EN"
 "http://www.w3.org/Graphics/SVG/1.1/DTD/svg11.dtd">
<!-- Generated by graphviz version 14.1.5 (20260411.2331)
 -->
<!-- Title: CooledSystem Pages: 1 -->
<svg width="904pt" height="131pt"
 viewBox="0.00 0.00 904.00 131.00" xmlns="http://www.w3.org/2000/svg" xmlns:xlink="http://www.w3.org/1999/xlink">
<g id="graph0" class="graph" transform="scale(1 1) rotate(0) translate(4 127.3)">
<title>CooledSystem</title>
<polygon fill="white" stroke="none" points="-4,4 -4,-127.3 900,-127.3 900,4 -4,4"/>
<g id="clust2" class="cluster">
<title>cluster_A2</title>
<path fill="none" stroke="black" d="M20,-38.8C20,-38.8 876,-38.8 876,-38.8 882,-38.8 888,-44.8 888,-50.8 888,-50.8 888,-103.3 888,-103.3 888,-109.3 882,-115.3 876,-115.3 876,-115.3 20,-115.3 20,-115.3 14,-115.3 8,-109.3 8,-103.3 8,-103.3 8,-50.8 8,-50.8 8,-44.8 14,-38.8 20,-38.8"/>
<text xml:space="preserve" text-anchor="middle" x="448" y="-98" font-family="Times,serif" font-size="14.00">A2: Fan Cooling Module Rev A</text>
</g>
<!-- U1 -->
<g id="node1" class="node">
<title>U1</title>
<polygon fill="none" stroke="black" points="114.25,-82.8 15.75,-82.8 15.75,-46.8 114.25,-46.8 114.25,-82.8"/>
<text xml:space="preserve" text-anchor="middle" x="65" y="-60.12" font-family="monospace" font-size="14.00">U1\nTMP302</text>
</g>
<!-- U2 -->
<g id="node2" class="node">
<title>U2</title>
<polygon fill="none" stroke="black" points="271.88,-82.8 132.12,-82.8 132.12,-46.8 271.88,-46.8 271.88,-82.8"/>
<text xml:space="preserve" text-anchor="middle" x="202" y="-60.12" font-family="monospace" font-size="14.00">U2\nSN74AHC1G14</text>
</g>
<!-- Q1 -->
<g id="node3" class="node">
<title>Q1</title>
<polygon fill="none" stroke="black" points="396.38,-82.8 289.62,-82.8 289.62,-46.8 396.38,-46.8 396.38,-82.8"/>
<text xml:space="preserve" text-anchor="middle" x="343" y="-60.12" font-family="monospace" font-size="14.00">Q1\nQ2N7000</text>
</g>
<!-- D1 -->
<g id="node4" class="node">
<title>D1</title>
<polygon fill="none" stroke="black" points="529.5,-82.8 414.5,-82.8 414.5,-46.8 529.5,-46.8 529.5,-82.8"/>
<text xml:space="preserve" text-anchor="middle" x="472" y="-60.12" font-family="monospace" font-size="14.00">D1\nD1N4728A</text>
</g>
<!-- net_6 -->
<g id="node11" class="node">
<title>net_6</title>
<ellipse fill="none" stroke="black" cx="472" cy="-5.4" rx="5.4" ry="5.4"/>
</g>
<!-- D1&#45;&gt;net_6 -->
<g id="edge1" class="edge">
<title>D1&#45;&gt;net_6</title>
<path fill="none" stroke="black" d="M465.75,-46.58C464.56,-33.63 465.49,-16.96 468.57,-9.85"/>
<text xml:space="preserve" text-anchor="middle" x="452.63" y="-38.03" font-family="monospace" font-size="9.00">anode</text>
</g>
<!-- D1&#45;&gt;net_6 -->
<g id="edge2" class="edge">
<title>D1&#45;&gt;net_6</title>
<path fill="none" stroke="black" d="M478.25,-46.58C479.44,-33.63 478.51,-16.96 475.43,-9.85"/>
<text xml:space="preserve" text-anchor="middle" x="496.62" y="-38.03" font-family="monospace" font-size="9.00">cathode</text>
</g>
<!-- R1 -->
<g id="node5" class="node">
<title>R1</title>
<polygon fill="none" stroke="black" points="646.25,-82.8 547.75,-82.8 547.75,-46.8 646.25,-46.8 646.25,-82.8"/>
<text xml:space="preserve" text-anchor="middle" x="597" y="-60.12" font-family="monospace" font-size="14.00">R1\n10000Ω</text>
</g>
<!-- net_5 -->
<g id="node10" class="node">
<title>net_5</title>
<ellipse fill="none" stroke="black" cx="597" cy="-5.4" rx="5.4" ry="5.4"/>
</g>
<!-- R1&#45;&gt;net_5 -->
<g id="edge3" class="edge">
<title>R1&#45;&gt;net_5</title>
<path fill="none" stroke="black" d="M590.75,-46.58C589.56,-33.63 590.49,-16.96 593.57,-9.85"/>
<text xml:space="preserve" text-anchor="middle" x="585.5" y="-38.03" font-family="monospace" font-size="9.00">t1</text>
</g>
<!-- R1&#45;&gt;net_5 -->
<g id="edge4" class="edge">
<title>R1&#45;&gt;net_5</title>
<path fill="none" stroke="black" d="M603.25,-46.58C604.44,-33.63 603.51,-16.96 600.43,-9.85"/>
<text xml:space="preserve" text-anchor="middle" x="598" y="-38.03" font-family="monospace" font-size="9.00">t2</text>
</g>
<!-- R2 -->
<g id="node6" class="node">
<title>R2</title>
<polygon fill="none" stroke="black" points="763.25,-82.8 664.75,-82.8 664.75,-46.8 763.25,-46.8 763.25,-82.8"/>
<text xml:space="preserve" text-anchor="middle" x="714" y="-60.12" font-family="monospace" font-size="14.00">R2\n10000Ω</text>
</g>
<!-- net_4 -->
<g id="node9" class="node">
<title>net_4</title>
<ellipse fill="none" stroke="black" cx="714" cy="-5.4" rx="5.4" ry="5.4"/>
</g>
<!-- R2&#45;&gt;net_4 -->
<g id="edge5" class="edge">
<title>R2&#45;&gt;net_4</title>
<path fill="none" stroke="black" d="M707.75,-46.58C706.56,-33.63 707.49,-16.96 710.57,-9.85"/>
<text xml:space="preserve" text-anchor="middle" x="702.5" y="-38.03" font-family="monospace" font-size="9.00">t1</text>
</g>
<!-- R2&#45;&gt;net_4 -->
<g id="edge6" class="edge">
<title>R2&#45;&gt;net_4</title>
<path fill="none" stroke="black" d="M720.25,-46.58C721.44,-33.63 720.51,-16.96 717.43,-9.85"/>
<text xml:space="preserve" text-anchor="middle" x="715" y="-38.03" font-family="monospace" font-size="9.00">t2</text>
</g>
<!-- R3 -->
<g id="node7" class="node">
<title>R3</title>
<polygon fill="none" stroke="black" points="880.25,-82.8 781.75,-82.8 781.75,-46.8 880.25,-46.8 880.25,-82.8"/>
<text xml:space="preserve" text-anchor="middle" x="831" y="-60.12" font-family="monospace" font-size="14.00">R3\n10000Ω</text>
</g>
<!-- net_3 -->
<g id="node8" class="node">
<title>net_3</title>
<ellipse fill="none" stroke="black" cx="831" cy="-5.4" rx="5.4" ry="5.4"/>
</g>
<!-- R3&#45;&gt;net_3 -->
<g id="edge7" class="edge">
<title>R3&#45;&gt;net_3</title>
<path fill="none" stroke="black" d="M824.75,-46.58C823.56,-33.63 824.49,-16.96 827.57,-9.85"/>
<text xml:space="preserve" text-anchor="middle" x="819.5" y="-38.03" font-family="monospace" font-size="9.00">t1</text>
</g>
<!-- R3&#45;&gt;net_3 -->
<g id="edge8" class="edge">
<title>R3&#45;&gt;net_3</title>
<path fill="none" stroke="black" d="M837.25,-46.58C838.44,-33.63 837.51,-16.96 834.43,-9.85"/>
<text xml:space="preserve" text-anchor="middle" x="832" y="-38.03" font-family="monospace" font-size="9.00">t2</text>
</g>
</g>
</svg>
