<?xml version="1.0" encoding="UTF-8" standalone="no"?>
<!DOCTYPE svg PUBLIC "-//W3C//DTD SVG 1.1//EN"
 "http://www.w3.org/Graphics/SVG/1.1/DTD/svg11.dtd">
<!-- Generated by graphviz version 14.1.5 (20260411.2331)
 -->
<!-- Title: CooledSystem Pages: 1 -->
<svg width="904pt" height="101pt"
 viewBox="0.00 0.00 904.00 101.00" xmlns="http://www.w3.org/2000/svg" xmlns:xlink="http://www.w3.org/1999/xlink">
<g id="graph0" class="graph" transform="scale(1 1) rotate(0) translate(4 96.5)">
<title>CooledSystem</title>
<polygon fill="white" stroke="none" points="-4,4 -4,-96.5 900,-96.5 900,4 -4,4"/>
<g id="clust2" class="cluster">
<title>cluster_A2</title>
<path fill="none" stroke="black" d="M20,-8C20,-8 876,-8 876,-8 882,-8 888,-14 888,-20 888,-20 888,-72.5 888,-72.5 888,-78.5 882,-84.5 876,-84.5 876,-84.5 20,-84.5 20,-84.5 14,-84.5 8,-78.5 8,-72.5 8,-72.5 8,-20 8,-20 8,-14 14,-8 20,-8"/>
<text xml:space="preserve" text-anchor="middle" x="448" y="-67.2" font-family="Times,serif" font-size="14.00">A2: Fan Cooling Module Rev A</text>
</g>
<!-- U1 -->
<g id="node1" class="node">
<title>U1</title>
<polygon fill="none" stroke="black" points="114.25,-52 15.75,-52 15.75,-16 114.25,-16 114.25,-52"/>
<text xml:space="preserve" text-anchor="middle" x="65" y="-29.32" font-family="monospace" font-size="14.00">U1\nTMP302</text>
</g>
<!-- U2 -->
<g id="node2" class="node">
<title>U2</title>
<polygon fill="none" stroke="black" points="271.88,-52 132.12,-52 132.12,-16 271.88,-16 271.88,-52"/>
<text xml:space="preserve" text-anchor="middle" x="202" y="-29.32" font-family="monospace" font-size="14.00">U2\nSN74AHC1G14</text>
</g>
<!-- Q1 -->
<g id="node3" class="node">
<title>Q1</title>
<polygon fill="none" stroke="black" points="396.38,-52 289.62,-52 289.62,-16 396.38,-16 396.38,-52"/>
<text xml:space="preserve" text-anchor="middle" x="343" y="-29.32" font-family="monospace" font-size="14.00">Q1\nQ2N7000</text>
</g>
<!-- D1 -->
<g id="node4" class="node">
<title>D1</title>
<polygon fill="none" stroke="black" points="529.5,-52 414.5,-52 414.5,-16 529.5,-16 529.5,-52"/>
<text xml:space="preserve" text-anchor="middle" x="472" y="-29.32" font-family="monospace" font-size="14.00">D1\nD1N4728A</text>
</g>
<!-- R1 -->
<g id="node5" class="node">
<title>R1</title>
<polygon fill="none" stroke="black" points="646.25,-52 547.75,-52 547.75,-16 646.25,-16 646.25,-52"/>
<text xml:space="preserve" text-anchor="middle" x="597" y="-29.32" font-family="monospace" font-size="14.00">R1\n10000Ω</text>
</g>
<!-- R2 -->
<g id="node6" class="node">
<title>R2</title>
<polygon fill="none" stroke="black" points="763.25,-52 664.75,-52 664.75,-16 763.25,-16 763.25,-52"/>
<text xml:space="preserve" text-anchor="middle" x="714" y="-29.32" font-family="monospace" font-size="14.00">R2\n10000Ω</text>
</g>
<!-- R3 -->
<g id="node7" class="node">
<title>R3</title>
<polygon fill="none" stroke="black" points="880.25,-52 781.75,-52 781.75,-16 880.25,-16 880.25,-52"/>
<text xml:space="preserve" text-anchor="middle" x="831" y="-29.32" font-family="monospace" font-size="14.00">R3\n10000Ω</text>
</g>
</g>
</svg>
