<?xml version="1.0" encoding="UTF-8" standalone="no"?>
<!DOCTYPE svg PUBLIC "-//W3C//DTD SVG 1.1//EN"
 "http://www.w3.org/Graphics/SVG/1.1/DTD/svg11.dtd">
<!-- Generated by graphviz version 14.1.5 (20260411.2331)
 -->
<!-- Title: Dice Pages: 1 -->
<svg width="2854pt" height="91pt"
 viewBox="0.00 0.00 2854.00 91.00" xmlns="http://www.w3.org/2000/svg" xmlns:xlink="http://www.w3.org/1999/xlink">
<g id="graph0" class="graph" transform="scale(1 1) rotate(0) translate(4 86.8)">
<title>Dice</title>
<polygon fill="white" stroke="none" points="-4,4 -4,-86.8 2850.25,-86.8 2850.25,4 -4,4"/>
<!-- U1 -->
<g id="node1" class="node">
<title>U1</title>
<polygon fill="none" stroke="black" points="1662.12,-82.8 1571.88,-82.8 1571.88,-46.8 1662.12,-46.8 1662.12,-82.8"/>
<text xml:space="preserve" text-anchor="middle" x="1617" y="-60.12" font-family="monospace" font-size="14.00">U1\nNE555</text>
</g>
<!-- gnd -->
<g id="node25" class="node">
<title>gnd</title>
<ellipse fill="none" stroke="black" cx="1035" cy="-5.4" rx="5.4" ry="5.4"/>
</g>
<!-- U1&#45;&gt;gnd -->
<g id="edge35" class="edge">
<title>U1&#45;&gt;gnd</title>
<path fill="none" stroke="black" d="M1571.52,-48.68C1568.66,-47.98 1565.8,-47.34 1563,-46.8 1455.35,-26.02 1090,-8.89 1040.56,-6.65"/>
<text xml:space="preserve" text-anchor="middle" x="1563.65" y="-51.38" font-family="monospace" font-size="9.00">GND</text>
</g>
<!-- vcc -->
<g id="node35" class="node">
<title>vcc</title>
<ellipse fill="none" stroke="black" cx="1617" cy="-5.4" rx="5.4" ry="5.4"/>
</g>
<!-- U1&#45;&gt;vcc -->
<g id="edge36" class="edge">
<title>U1&#45;&gt;vcc</title>
<path fill="none" stroke="black" d="M1610.75,-46.58C1609.56,-33.63 1610.49,-16.96 1613.57,-9.85"/>
<text xml:space="preserve" text-anchor="middle" x="1597.63" y="-49.28" font-family="monospace" font-size="9.00">RESET</text>
</g>
<!-- U1&#45;&gt;vcc -->
<g id="edge37" class="edge">
<title>U1&#45;&gt;vcc</title>
<path fill="none" stroke="black" d="M1623.25,-46.58C1624.44,-33.63 1623.51,-16.96 1620.43,-9.85"/>
<text xml:space="preserve" text-anchor="middle" x="1615.37" y="-49.28" font-family="monospace" font-size="9.00">VCC</text>
</g>
<!-- U2 -->
<g id="node2" class="node">
<title>U2</title>
<polygon fill="none" stroke="black" points="1554.25,-82.8 1455.75,-82.8 1455.75,-46.8 1554.25,-46.8 1554.25,-82.8"/>
<text xml:space="preserve" text-anchor="middle" x="1505" y="-60.12" font-family="monospace" font-size="14.00">U2\nCD4017</text>
</g>
<!-- U2&#45;&gt;gnd -->
<g id="edge47" class="edge">
<title>U2&#45;&gt;gnd</title>
<path fill="none" stroke="black" d="M1455.26,-48.78C1452.14,-48.05 1449.04,-47.38 1446,-46.8 1281.93,-15.37 1076.05,-7.69 1040.38,-6.56"/>
<text xml:space="preserve" text-anchor="middle" x="1447.39" y="-51.48" font-family="monospace" font-size="9.00">VSS</text>
</g>
<!-- net_0 -->
<g id="node26" class="node">
<title>net_0</title>
<ellipse fill="none" stroke="black" cx="268" cy="-5.4" rx="5.4" ry="5.4"/>
</g>
<!-- U2&#45;&gt;net_0 -->
<g id="edge42" class="edge">
<title>U2&#45;&gt;net_0</title>
<path fill="none" stroke="black" d="M1455.3,-48.55C1452.17,-47.88 1449.05,-47.28 1446,-46.8 1322.21,-27.15 356.42,-8.11 273.65,-6.51"/>
<text xml:space="preserve" text-anchor="middle" x="1450.05" y="-40" font-family="monospace" font-size="9.00">Q4</text>
</g>
<!-- net_3 -->
<g id="node28" class="node">
<title>net_3</title>
<ellipse fill="none" stroke="black" cx="1272" cy="-5.4" rx="5.4" ry="5.4"/>
</g>
<!-- U2&#45;&gt;net_3 -->
<g id="edge38" class="edge">
<title>U2&#45;&gt;net_3</title>
<path fill="none" stroke="black" d="M1455.48,-49.33C1452.27,-48.45 1449.1,-47.6 1446,-46.8 1379.97,-29.63 1298.93,-12.14 1277.44,-7.55"/>
<text xml:space="preserve" text-anchor="middle" x="1450.23" y="-52.03" font-family="monospace" font-size="9.00">CO</text>
</g>
<!-- net_5 -->
<g id="node30" class="node">
<title>net_5</title>
<ellipse fill="none" stroke="black" cx="1476" cy="-5.4" rx="5.4" ry="5.4"/>
</g>
<!-- U2&#45;&gt;net_5 -->
<g id="edge41" class="edge">
<title>U2&#45;&gt;net_5</title>
<path fill="none" stroke="black" d="M1496.3,-46.58C1490.03,-34.16 1482.02,-18.31 1478.21,-10.77"/>
<text xml:space="preserve" text-anchor="middle" x="1491.05" y="-49.28" font-family="monospace" font-size="9.00">Q3</text>
</g>
<!-- net_6 -->
<g id="node31" class="node">
<title>net_6</title>
<ellipse fill="none" stroke="black" cx="1154" cy="-5.4" rx="5.4" ry="5.4"/>
</g>
<!-- U2&#45;&gt;net_6 -->
<g id="edge40" class="edge">
<title>U2&#45;&gt;net_6</title>
<path fill="none" stroke="black" d="M1455.56,-49C1452.33,-48.21 1449.13,-47.46 1446,-46.8 1331.86,-22.59 1189.41,-9.46 1159.62,-6.88"/>
<text xml:space="preserve" text-anchor="middle" x="1460.81" y="-51.7" font-family="monospace" font-size="9.00">Q2</text>
</g>
<!-- net_7 -->
<g id="node32" class="node">
<title>net_7</title>
<ellipse fill="none" stroke="black" cx="1947" cy="-5.4" rx="5.4" ry="5.4"/>
</g>
<!-- U2&#45;&gt;net_7 -->
<g id="edge43" class="edge">
<title>U2&#45;&gt;net_7</title>
<path fill="none" stroke="black" d="M1554.53,-48.65C1557.38,-47.97 1560.22,-47.35 1563,-46.8 1715.57,-16.67 1906.98,-7.97 1941.53,-6.6"/>
<text xml:space="preserve" text-anchor="middle" x="1549.28" y="-51.35" font-family="monospace" font-size="9.00">Q5</text>
</g>
<!-- net_8 -->
<g id="node33" class="node">
<title>net_8</title>
<ellipse fill="none" stroke="black" cx="1778" cy="-5.4" rx="5.4" ry="5.4"/>
</g>
<!-- U2&#45;&gt;net_8 -->
<g id="edge39" class="edge">
<title>U2&#45;&gt;net_8</title>
<path fill="none" stroke="black" d="M1554.59,-48.91C1557.43,-48.17 1560.25,-47.46 1563,-46.8 1645.73,-26.96 1748.29,-10.91 1772.64,-7.21"/>
<text xml:space="preserve" text-anchor="middle" x="1549.34" y="-51.61" font-family="monospace" font-size="9.00">Q1</text>
</g>
<!-- net_9 -->
<g id="node34" class="node">
<title>net_9</title>
<ellipse fill="none" stroke="black" cx="1505" cy="-5.4" rx="5.4" ry="5.4"/>
</g>
<!-- U2&#45;&gt;net_9 -->
<g id="edge44" class="edge">
<title>U2&#45;&gt;net_9</title>
<path fill="none" stroke="black" d="M1498.75,-46.58C1497.56,-33.63 1498.49,-16.96 1501.57,-9.85"/>
<text xml:space="preserve" text-anchor="middle" x="1493.5" y="-49.28" font-family="monospace" font-size="9.00">Q6</text>
</g>
<!-- U2&#45;&gt;net_9 -->
<g id="edge45" class="edge">
<title>U2&#45;&gt;net_9</title>
<path fill="none" stroke="black" d="M1511.25,-46.58C1512.44,-33.63 1511.51,-16.96 1508.43,-9.85"/>
<text xml:space="preserve" text-anchor="middle" x="1503.37" y="-49.28" font-family="monospace" font-size="9.00">RST</text>
</g>
<!-- U2&#45;&gt;vcc -->
<g id="edge46" class="edge">
<title>U2&#45;&gt;vcc</title>
<path fill="none" stroke="black" d="M1538.91,-46.42C1565.43,-32.83 1599.84,-15.2 1612.26,-8.83"/>
<text xml:space="preserve" text-anchor="middle" x="1531.03" y="-49.12" font-family="monospace" font-size="9.00">VDD</text>
</g>
<!-- D1 -->
<g id="node3" class="node">
<title>D1</title>
<polygon fill="none" stroke="black" points="2037.38,-82.8 1930.62,-82.8 1930.62,-46.8 2037.38,-46.8 2037.38,-82.8"/>
<text xml:space="preserve" text-anchor="middle" x="1984" y="-60.12" font-family="monospace" font-size="14.00">D1\nD1N4148</text>
</g>
<!-- net_4 -->
<g id="node29" class="node">
<title>net_4</title>
<ellipse fill="none" stroke="black" cx="2046" cy="-5.4" rx="5.4" ry="5.4"/>
</g>
<!-- D1&#45;&gt;net_4 -->
<g id="edge2" class="edge">
<title>D1&#45;&gt;net_4</title>
<path fill="none" stroke="black" d="M2002.6,-46.58C2016.58,-33.63 2034.6,-16.96 2042.27,-9.85"/>
<text xml:space="preserve" text-anchor="middle" x="1984.23" y="-49.28" font-family="monospace" font-size="9.00">cathode</text>
</g>
<!-- D1&#45;&gt;net_8 -->
<g id="edge1" class="edge">
<title>D1&#45;&gt;net_8</title>
<path fill="none" stroke="black" d="M1930.15,-48.79C1877.93,-34.24 1803.71,-13.56 1783.34,-7.89"/>
<text xml:space="preserve" text-anchor="middle" x="1917.02" y="-51.49" font-family="monospace" font-size="9.00">anode</text>
</g>
<!-- D2 -->
<g id="node4" class="node">
<title>D2</title>
<polygon fill="none" stroke="black" points="1912.38,-82.8 1805.62,-82.8 1805.62,-46.8 1912.38,-46.8 1912.38,-82.8"/>
<text xml:space="preserve" text-anchor="middle" x="1859" y="-60.12" font-family="monospace" font-size="14.00">D2\nD1N4148</text>
</g>
<!-- D2&#45;&gt;net_4 -->
<g id="edge12" class="edge">
<title>D2&#45;&gt;net_4</title>
<path fill="none" stroke="black" d="M1912.84,-47.27C1959.88,-32.83 2023.37,-13.35 2041.18,-7.88"/>
<text xml:space="preserve" text-anchor="middle" x="1894.46" y="-49.97" font-family="monospace" font-size="9.00">cathode</text>
</g>
<!-- D2&#45;&gt;net_5 -->
<g id="edge11" class="edge">
<title>D2&#45;&gt;net_5</title>
<path fill="none" stroke="black" d="M1805.16,-48.72C1802.07,-48.03 1799,-47.38 1796,-46.8 1661.97,-20.95 1624.74,-38.11 1491,-10.8 1487.6,-10.11 1483.85,-9.01 1480.95,-8.08"/>
<text xml:space="preserve" text-anchor="middle" x="1792.04" y="-40.17" font-family="monospace" font-size="9.00">anode</text>
</g>
<!-- D3 -->
<g id="node5" class="node">
<title>D3</title>
<polygon fill="none" stroke="black" points="2162.38,-82.8 2055.62,-82.8 2055.62,-46.8 2162.38,-46.8 2162.38,-82.8"/>
<text xml:space="preserve" text-anchor="middle" x="2109" y="-60.12" font-family="monospace" font-size="14.00">D3\nD1N4148</text>
</g>
<!-- D3&#45;&gt;net_4 -->
<g id="edge14" class="edge">
<title>D3&#45;&gt;net_4</title>
<path fill="none" stroke="black" d="M2090.1,-46.58C2075.89,-33.63 2057.59,-16.96 2049.79,-9.85"/>
<text xml:space="preserve" text-anchor="middle" x="2071.72" y="-49.28" font-family="monospace" font-size="9.00">cathode</text>
</g>
<!-- D3&#45;&gt;net_7 -->
<g id="edge13" class="edge">
<title>D3&#45;&gt;net_7</title>
<path fill="none" stroke="black" d="M2059.96,-46.42C2020.1,-32.3 1967.94,-13.82 1951.9,-8.14"/>
<text xml:space="preserve" text-anchor="middle" x="2046.83" y="-49.12" font-family="monospace" font-size="9.00">anode</text>
</g>
<!-- D4 -->
<g id="node6" class="node">
<title>D4</title>
<polygon fill="none" stroke="black" points="963.38,-82.8 856.62,-82.8 856.62,-46.8 963.38,-46.8 963.38,-82.8"/>
<text xml:space="preserve" text-anchor="middle" x="910" y="-60.12" font-family="monospace" font-size="14.00">D4\nD1N4148</text>
</g>
<!-- net_2 -->
<g id="node27" class="node">
<title>net_2</title>
<ellipse fill="none" stroke="black" cx="648" cy="-5.4" rx="5.4" ry="5.4"/>
</g>
<!-- D4&#45;&gt;net_2 -->
<g id="edge16" class="edge">
<title>D4&#45;&gt;net_2</title>
<path fill="none" stroke="black" d="M856.44,-49.1C853.25,-48.3 850.09,-47.53 847,-46.8 770.49,-28.73 676.27,-11.49 653.25,-7.34"/>
<text xml:space="preserve" text-anchor="middle" x="838.07" y="-51.8" font-family="monospace" font-size="9.00">cathode</text>
</g>
<!-- D4&#45;&gt;net_6 -->
<g id="edge15" class="edge">
<title>D4&#45;&gt;net_6</title>
<path fill="none" stroke="black" d="M963.57,-49.17C966.76,-48.36 969.92,-47.56 973,-46.8 1042.09,-29.78 1126.78,-12.04 1148.65,-7.5"/>
<text xml:space="preserve" text-anchor="middle" x="950.45" y="-51.87" font-family="monospace" font-size="9.00">anode</text>
</g>
<!-- D5 -->
<g id="node7" class="node">
<title>D5</title>
<polygon fill="none" stroke="black" points="1437.38,-82.8 1330.62,-82.8 1330.62,-46.8 1437.38,-46.8 1437.38,-82.8"/>
<text xml:space="preserve" text-anchor="middle" x="1384" y="-60.12" font-family="monospace" font-size="14.00">D5\nD1N4148</text>
</g>
<!-- D5&#45;&gt;net_2 -->
<g id="edge18" class="edge">
<title>D5&#45;&gt;net_2</title>
<path fill="none" stroke="black" d="M1330.38,-48.37C1327.56,-47.78 1324.75,-47.25 1322,-46.8 1047.32,-1.42 702.19,-5.47 653.75,-6.29"/>
<text xml:space="preserve" text-anchor="middle" x="1312.01" y="-51.07" font-family="monospace" font-size="9.00">cathode</text>
</g>
<!-- D5&#45;&gt;net_5 -->
<g id="edge17" class="edge">
<title>D5&#45;&gt;net_5</title>
<path fill="none" stroke="black" d="M1411.6,-46.58C1433.2,-33.1 1461.27,-15.59 1471.78,-9.03"/>
<text xml:space="preserve" text-anchor="middle" x="1398.48" y="-49.28" font-family="monospace" font-size="9.00">anode</text>
</g>
<!-- D6 -->
<g id="node8" class="node">
<title>D6</title>
<polygon fill="none" stroke="black" points="206.38,-82.8 99.62,-82.8 99.62,-46.8 206.38,-46.8 206.38,-82.8"/>
<text xml:space="preserve" text-anchor="middle" x="153" y="-60.12" font-family="monospace" font-size="14.00">D6\nD1N4148</text>
</g>
<!-- D6&#45;&gt;net_0 -->
<g id="edge19" class="edge">
<title>D6&#45;&gt;net_0</title>
<path fill="none" stroke="black" d="M187.82,-46.42C215.32,-32.7 251.06,-14.85 263.5,-8.65"/>
<text xml:space="preserve" text-anchor="middle" x="174.69" y="-49.12" font-family="monospace" font-size="9.00">anode</text>
</g>
<!-- D6&#45;&gt;net_2 -->
<g id="edge20" class="edge">
<title>D6&#45;&gt;net_2</title>
<path fill="none" stroke="black" d="M206.64,-48.48C209.45,-47.87 212.25,-47.3 215,-46.8 388.06,-15.25 604.79,-7.66 642.33,-6.56"/>
<text xml:space="preserve" text-anchor="middle" x="188.26" y="-51.18" font-family="monospace" font-size="9.00">cathode</text>
</g>
<!-- R1 -->
<g id="node9" class="node">
<title>R1</title>
<polygon fill="none" stroke="black" points="2262,-82.8 2180,-82.8 2180,-46.8 2262,-46.8 2262,-82.8"/>
<text xml:space="preserve" text-anchor="middle" x="2221" y="-60.12" font-family="monospace" font-size="14.00">R1\n470Ω</text>
</g>
<!-- R1&#45;&gt;net_4 -->
<g id="edge27" class="edge">
<title>R1&#45;&gt;net_4</title>
<path fill="none" stroke="black" d="M2179.63,-52.66C2173.66,-50.69 2167.66,-48.68 2162,-46.8 2118.7,-32.44 2066.76,-15.86 2050.4,-9.29"/>
<text xml:space="preserve" text-anchor="middle" x="2174.38" y="-55.36" font-family="monospace" font-size="9.00">t1</text>
</g>
<!-- R1&#45;&gt;net_4 -->
<g id="edge28" class="edge">
<title>R1&#45;&gt;net_4</title>
<path fill="none" stroke="black" d="M2179.68,-46.69C2130.8,-30.49 2071.04,-11.49 2051.52,-7.26"/>
<text xml:space="preserve" text-anchor="middle" x="2174.43" y="-38.14" font-family="monospace" font-size="9.00">t2</text>
</g>
<!-- R2 -->
<g id="node10" class="node">
<title>R2</title>
<polygon fill="none" stroke="black" points="1313,-82.8 1231,-82.8 1231,-46.8 1313,-46.8 1313,-82.8"/>
<text xml:space="preserve" text-anchor="middle" x="1272" y="-60.12" font-family="monospace" font-size="14.00">R2\n330Ω</text>
</g>
<!-- R2&#45;&gt;net_3 -->
<g id="edge29" class="edge">
<title>R2&#45;&gt;net_3</title>
<path fill="none" stroke="black" d="M1265.75,-46.58C1264.56,-33.63 1265.49,-16.96 1268.57,-9.85"/>
<text xml:space="preserve" text-anchor="middle" x="1260.5" y="-49.28" font-family="monospace" font-size="9.00">t1</text>
</g>
<!-- R2&#45;&gt;net_3 -->
<g id="edge30" class="edge">
<title>R2&#45;&gt;net_3</title>
<path fill="none" stroke="black" d="M1278.25,-46.58C1279.44,-33.63 1278.51,-16.96 1275.43,-9.85"/>
<text xml:space="preserve" text-anchor="middle" x="1273" y="-49.28" font-family="monospace" font-size="9.00">t2</text>
</g>
<!-- R3 -->
<g id="node11" class="node">
<title>R3</title>
<polygon fill="none" stroke="black" points="306,-82.8 224,-82.8 224,-46.8 306,-46.8 306,-82.8"/>
<text xml:space="preserve" text-anchor="middle" x="265" y="-60.12" font-family="monospace" font-size="14.00">R3\n330Ω</text>
</g>
<!-- R3&#45;&gt;net_2 -->
<g id="edge31" class="edge">
<title>R3&#45;&gt;net_2</title>
<path fill="none" stroke="black" d="M306.43,-46.7C439.8,-16.35 608.56,-7.76 642.31,-6.56"/>
<text xml:space="preserve" text-anchor="middle" x="301.18" y="-38.15" font-family="monospace" font-size="9.00">t1</text>
</g>
<!-- R3&#45;&gt;net_2 -->
<g id="edge32" class="edge">
<title>R3&#45;&gt;net_2</title>
<path fill="none" stroke="black" d="M306.39,-51.66C312.29,-49.82 318.28,-48.1 324,-46.8 451.18,-17.79 610.75,-8.62 642.62,-6.78"/>
<text xml:space="preserve" text-anchor="middle" x="301.14" y="-54.36" font-family="monospace" font-size="9.00">t2</text>
</g>
<!-- R4 -->
<g id="node12" class="node">
<title>R4</title>
<polygon fill="none" stroke="black" points="82,-82.8 0,-82.8 0,-46.8 82,-46.8 82,-82.8"/>
<text xml:space="preserve" text-anchor="middle" x="41" y="-60.12" font-family="monospace" font-size="14.00">R4\n330Ω</text>
</g>
<!-- R4&#45;&gt;net_0 -->
<g id="edge33" class="edge">
<title>R4&#45;&gt;net_0</title>
<path fill="none" stroke="black" d="M82.46,-46.67C152.14,-26.96 239.13,-10.16 262.59,-6.95"/>
<text xml:space="preserve" text-anchor="middle" x="77.21" y="-38.12" font-family="monospace" font-size="9.00">t1</text>
</g>
<!-- R4&#45;&gt;net_0 -->
<g id="edge34" class="edge">
<title>R4&#45;&gt;net_0</title>
<path fill="none" stroke="black" d="M82.24,-52.24C88.22,-50.32 94.27,-48.42 100,-46.8 163.38,-28.84 241.25,-13.28 262.8,-8.17"/>
<text xml:space="preserve" text-anchor="middle" x="76.99" y="-54.94" font-family="monospace" font-size="9.00">t2</text>
</g>
<!-- R5 -->
<g id="node13" class="node">
<title>R5</title>
<polygon fill="none" stroke="black" points="2378.25,-82.8 2279.75,-82.8 2279.75,-46.8 2378.25,-46.8 2378.25,-82.8"/>
<text xml:space="preserve" text-anchor="middle" x="2329" y="-60.12" font-family="monospace" font-size="14.00">R5\n10000Ω</text>
</g>
<!-- R6 -->
<g id="node14" class="node">
<title>R6</title>
<polygon fill="none" stroke="black" points="2495.25,-82.8 2396.75,-82.8 2396.75,-46.8 2495.25,-46.8 2495.25,-82.8"/>
<text xml:space="preserve" text-anchor="middle" x="2446" y="-60.12" font-family="monospace" font-size="14.00">R6\n10000Ω</text>
</g>
<!-- R7 -->
<g id="node15" class="node">
<title>R7</title>
<polygon fill="none" stroke="black" points="2612.25,-82.8 2513.75,-82.8 2513.75,-46.8 2612.25,-46.8 2612.25,-82.8"/>
<text xml:space="preserve" text-anchor="middle" x="2563" y="-60.12" font-family="monospace" font-size="14.00">R7\n10000Ω</text>
</g>
<!-- C1 -->
<g id="node16" class="node">
<title>C1</title>
<polygon fill="none" stroke="black" points="2729.25,-82.8 2630.75,-82.8 2630.75,-46.8 2729.25,-46.8 2729.25,-82.8"/>
<text xml:space="preserve" text-anchor="middle" x="2680" y="-60.12" font-family="monospace" font-size="14.00">C1\n1e&#45;08F</text>
</g>
<!-- C2 -->
<g id="node17" class="node">
<title>C2</title>
<polygon fill="none" stroke="black" points="2846.25,-82.8 2747.75,-82.8 2747.75,-46.8 2846.25,-46.8 2846.25,-82.8"/>
<text xml:space="preserve" text-anchor="middle" x="2797" y="-60.12" font-family="monospace" font-size="14.00">C2\n1e&#45;07F</text>
</g>
<!-- D7 -->
<g id="node18" class="node">
<title>D7</title>
<polygon fill="none" stroke="black" points="1787.38,-82.8 1680.62,-82.8 1680.62,-46.8 1787.38,-46.8 1787.38,-82.8"/>
<text xml:space="preserve" text-anchor="middle" x="1734" y="-60.12" font-family="monospace" font-size="14.00">D7\nred LED</text>
</g>
<!-- D7&#45;&gt;gnd -->
<g id="edge22" class="edge">
<title>D7&#45;&gt;gnd</title>
<path fill="none" stroke="black" d="M1680.2,-48.52C1677.1,-47.88 1674.02,-47.3 1671,-46.8 1605.23,-35.95 1099.64,-9.72 1040.62,-6.69"/>
<text xml:space="preserve" text-anchor="middle" x="1661.82" y="-51.22" font-family="monospace" font-size="9.00">cathode</text>
</g>
<!-- D7&#45;&gt;net_4 -->
<g id="edge21" class="edge">
<title>D7&#45;&gt;net_4</title>
<path fill="none" stroke="black" d="M1787.87,-48.87C1790.95,-48.14 1794.01,-47.44 1797,-46.8 1893.76,-25.95 2013.74,-10.43 2040.53,-7.08"/>
<text xml:space="preserve" text-anchor="middle" x="1774.74" y="-51.57" font-family="monospace" font-size="9.00">anode</text>
</g>
<!-- D8 -->
<g id="node19" class="node">
<title>D8</title>
<polygon fill="none" stroke="black" points="1088.38,-82.8 981.62,-82.8 981.62,-46.8 1088.38,-46.8 1088.38,-82.8"/>
<text xml:space="preserve" text-anchor="middle" x="1035" y="-60.12" font-family="monospace" font-size="14.00">D8\nred LED</text>
</g>
<!-- D8&#45;&gt;gnd -->
<g id="edge24" class="edge">
<title>D8&#45;&gt;gnd</title>
<path fill="none" stroke="black" d="M1035,-46.58C1035,-34.43 1035,-18.99 1035,-11.26"/>
<text xml:space="preserve" text-anchor="middle" x="1016.62" y="-49.28" font-family="monospace" font-size="9.00">cathode</text>
</g>
<!-- D8&#45;&gt;net_3 -->
<g id="edge23" class="edge">
<title>D8&#45;&gt;net_3</title>
<path fill="none" stroke="black" d="M1088.58,-49.2C1091.77,-48.38 1094.92,-47.57 1098,-46.8 1164.17,-30.19 1245.12,-12.29 1266.57,-7.59"/>
<text xml:space="preserve" text-anchor="middle" x="1075.46" y="-51.9" font-family="monospace" font-size="9.00">anode</text>
</g>
<!-- D9 -->
<g id="node20" class="node">
<title>D9</title>
<polygon fill="none" stroke="black" points="1213.38,-82.8 1106.62,-82.8 1106.62,-46.8 1213.38,-46.8 1213.38,-82.8"/>
<text xml:space="preserve" text-anchor="middle" x="1160" y="-60.12" font-family="monospace" font-size="14.00">D9\nred LED</text>
</g>
<!-- D9&#45;&gt;gnd -->
<g id="edge26" class="edge">
<title>D9&#45;&gt;gnd</title>
<path fill="none" stroke="black" d="M1122.16,-46.42C1092.26,-32.7 1053.41,-14.85 1039.89,-8.65"/>
<text xml:space="preserve" text-anchor="middle" x="1103.78" y="-37.87" font-family="monospace" font-size="9.00">cathode</text>
</g>
<!-- D9&#45;&gt;net_3 -->
<g id="edge25" class="edge">
<title>D9&#45;&gt;net_3</title>
<path fill="none" stroke="black" d="M1193.91,-46.42C1220.43,-32.83 1254.84,-15.2 1267.26,-8.83"/>
<text xml:space="preserve" text-anchor="middle" x="1180.78" y="-49.12" font-family="monospace" font-size="9.00">anode</text>
</g>
<!-- D10 -->
<g id="node21" class="node">
<title>D10</title>
<polygon fill="none" stroke="black" points="838.5,-82.8 723.5,-82.8 723.5,-46.8 838.5,-46.8 838.5,-82.8"/>
<text xml:space="preserve" text-anchor="middle" x="781" y="-60.12" font-family="monospace" font-size="14.00">D10\nred LED</text>
</g>
<!-- D10&#45;&gt;gnd -->
<g id="edge4" class="edge">
<title>D10&#45;&gt;gnd</title>
<path fill="none" stroke="black" d="M838.71,-49.02C841.85,-48.26 844.96,-47.51 848,-46.8 919.78,-29.94 1007.69,-11.94 1029.78,-7.46"/>
<text xml:space="preserve" text-anchor="middle" x="820.34" y="-51.72" font-family="monospace" font-size="9.00">cathode</text>
</g>
<!-- D10&#45;&gt;net_2 -->
<g id="edge3" class="edge">
<title>D10&#45;&gt;net_2</title>
<path fill="none" stroke="black" d="M740.73,-46.42C708.62,-32.56 666.79,-14.51 652.8,-8.47"/>
<text xml:space="preserve" text-anchor="middle" x="727.61" y="-49.12" font-family="monospace" font-size="9.00">anode</text>
</g>
<!-- D11 -->
<g id="node22" class="node">
<title>D11</title>
<polygon fill="none" stroke="black" points="705.5,-82.8 590.5,-82.8 590.5,-46.8 705.5,-46.8 705.5,-82.8"/>
<text xml:space="preserve" text-anchor="middle" x="648" y="-60.12" font-family="monospace" font-size="14.00">D11\nred LED</text>
</g>
<!-- D11&#45;&gt;gnd -->
<g id="edge6" class="edge">
<title>D11&#45;&gt;gnd</title>
<path fill="none" stroke="black" d="M705.85,-48.46C708.6,-47.87 711.33,-47.31 714,-46.8 840.9,-22.57 998.88,-9.27 1029.67,-6.82"/>
<text xml:space="preserve" text-anchor="middle" x="687.48" y="-51.16" font-family="monospace" font-size="9.00">cathode</text>
</g>
<!-- D11&#45;&gt;net_2 -->
<g id="edge5" class="edge">
<title>D11&#45;&gt;net_2</title>
<path fill="none" stroke="black" d="M648,-46.58C648,-34.43 648,-18.99 648,-11.26"/>
<text xml:space="preserve" text-anchor="middle" x="634.88" y="-49.28" font-family="monospace" font-size="9.00">anode</text>
</g>
<!-- D12 -->
<g id="node23" class="node">
<title>D12</title>
<polygon fill="none" stroke="black" points="572.5,-82.8 457.5,-82.8 457.5,-46.8 572.5,-46.8 572.5,-82.8"/>
<text xml:space="preserve" text-anchor="middle" x="515" y="-60.12" font-family="monospace" font-size="14.00">D12\nred LED</text>
</g>
<!-- D12&#45;&gt;gnd -->
<g id="edge8" class="edge">
<title>D12&#45;&gt;gnd</title>
<path fill="none" stroke="black" d="M572.83,-48.33C575.59,-47.78 578.32,-47.26 581,-46.8 763.48,-15.4 991.69,-7.65 1029.56,-6.55"/>
<text xml:space="preserve" text-anchor="middle" x="554.46" y="-51.03" font-family="monospace" font-size="9.00">cathode</text>
</g>
<!-- D12&#45;&gt;net_0 -->
<g id="edge7" class="edge">
<title>D12&#45;&gt;net_0</title>
<path fill="none" stroke="black" d="M457.28,-49.05C454.14,-48.28 451.03,-47.53 448,-46.8 379.16,-30.34 295.03,-12.19 273.31,-7.54"/>
<text xml:space="preserve" text-anchor="middle" x="444.16" y="-51.75" font-family="monospace" font-size="9.00">anode</text>
</g>
<!-- D13 -->
<g id="node24" class="node">
<title>D13</title>
<polygon fill="none" stroke="black" points="439.5,-82.8 324.5,-82.8 324.5,-46.8 439.5,-46.8 439.5,-82.8"/>
<text xml:space="preserve" text-anchor="middle" x="382" y="-60.12" font-family="monospace" font-size="14.00">D13\nred LED</text>
</g>
<!-- D13&#45;&gt;gnd -->
<g id="edge10" class="edge">
<title>D13&#45;&gt;gnd</title>
<path fill="none" stroke="black" d="M439.82,-48.27C442.58,-47.73 445.31,-47.23 448,-46.8 686.49,-8.21 985.31,-6.44 1029.45,-6.4"/>
<text xml:space="preserve" text-anchor="middle" x="421.45" y="-50.97" font-family="monospace" font-size="9.00">cathode</text>
</g>
<!-- D13&#45;&gt;net_0 -->
<g id="edge9" class="edge">
<title>D13&#45;&gt;net_0</title>
<path fill="none" stroke="black" d="M347.49,-46.42C320.22,-32.7 284.79,-14.85 272.46,-8.65"/>
<text xml:space="preserve" text-anchor="middle" x="334.36" y="-49.12" font-family="monospace" font-size="9.00">anode</text>
</g>
</g>
</svg>
