<?xml version="1.0" encoding="UTF-8" standalone="no"?>
<!DOCTYPE svg PUBLIC "-//W3C//DTD SVG 1.1//EN"
 "http://www.w3.org/Graphics/SVG/1.1/DTD/svg11.dtd">
<!-- Generated by graphviz version 14.1.5 (20260411.2331)
 -->
<!-- Title: Dice Pages: 1 -->
<svg width="2855pt" height="91pt"
 viewBox="0.00 0.00 2855.00 91.00" xmlns="http://www.w3.org/2000/svg" xmlns:xlink="http://www.w3.org/1999/xlink">
<g id="graph0" class="graph" transform="scale(1 1) rotate(0) translate(4 86.8)">
<title>Dice</title>
<polygon fill="white" stroke="none" points="-4,4 -4,-86.8 2851.25,-86.8 2851.25,4 -4,4"/>
<!-- U1 -->
<g id="node1" class="node">
<title>U1</title>
<polygon fill="none" stroke="black" points="2263.12,-82.8 2172.88,-82.8 2172.88,-46.8 2263.12,-46.8 2263.12,-82.8"/>
<text xml:space="preserve" text-anchor="middle" x="2218" y="-60.12" font-family="monospace" font-size="14.00">U1\nNE555</text>
</g>
<!-- gnd -->
<g id="node25" class="node">
<title>gnd</title>
<ellipse fill="none" stroke="black" cx="1036" cy="-5.4" rx="5.4" ry="5.4"/>
</g>
<!-- U1&#45;&gt;gnd -->
<g id="edge45" class="edge">
<title>U1&#45;&gt;gnd</title>
<path fill="none" stroke="black" d="M2172.55,-48.54C2169.67,-47.87 2166.81,-47.28 2164,-46.8 1939.81,-8.3 1368.31,-19.56 1141,-10.8 1103.08,-9.34 1057.46,-7.35 1041.69,-6.65"/>
<text xml:space="preserve" text-anchor="middle" x="2164.67" y="-51.24" font-family="monospace" font-size="9.00">GND</text>
</g>
<!-- vcc -->
<g id="node35" class="node">
<title>vcc</title>
<ellipse fill="none" stroke="black" cx="2447" cy="-5.4" rx="5.4" ry="5.4"/>
</g>
<!-- U1&#45;&gt;vcc -->
<g id="edge46" class="edge">
<title>U1&#45;&gt;vcc</title>
<path fill="none" stroke="black" d="M2263.45,-46.68C2332.28,-27.95 2417.66,-10.5 2441.33,-7.02"/>
<text xml:space="preserve" text-anchor="middle" x="2250.33" y="-38.13" font-family="monospace" font-size="9.00">RESET</text>
</g>
<!-- U1&#45;&gt;vcc -->
<g id="edge47" class="edge">
<title>U1&#45;&gt;vcc</title>
<path fill="none" stroke="black" d="M2263.37,-51.89C2269.32,-50.11 2275.31,-48.35 2281,-46.8 2343.88,-29.67 2420.73,-13.58 2441.93,-8.25"/>
<text xml:space="preserve" text-anchor="middle" x="2255.49" y="-54.59" font-family="monospace" font-size="9.00">VCC</text>
</g>
<!-- U2 -->
<g id="node2" class="node">
<title>U2</title>
<polygon fill="none" stroke="black" points="1555.25,-82.8 1456.75,-82.8 1456.75,-46.8 1555.25,-46.8 1555.25,-82.8"/>
<text xml:space="preserve" text-anchor="middle" x="1506" y="-60.12" font-family="monospace" font-size="14.00">U2\nCD4017</text>
</g>
<!-- U2&#45;&gt;gnd -->
<g id="edge57" class="edge">
<title>U2&#45;&gt;gnd</title>
<path fill="none" stroke="black" d="M1456.26,-48.78C1453.14,-48.05 1450.04,-47.38 1447,-46.8 1282.93,-15.37 1077.05,-7.69 1041.38,-6.56"/>
<text xml:space="preserve" text-anchor="middle" x="1448.39" y="-51.48" font-family="monospace" font-size="9.00">VSS</text>
</g>
<!-- net_0 -->
<g id="node26" class="node">
<title>net_0</title>
<ellipse fill="none" stroke="black" cx="218" cy="-5.4" rx="5.4" ry="5.4"/>
</g>
<!-- U2&#45;&gt;net_0 -->
<g id="edge52" class="edge">
<title>U2&#45;&gt;net_0</title>
<path fill="none" stroke="black" d="M1456.3,-48.54C1453.17,-47.87 1450.05,-47.28 1447,-46.8 1317.71,-26.37 308.19,-8.01 223.64,-6.5"/>
<text xml:space="preserve" text-anchor="middle" x="1451.05" y="-39.99" font-family="monospace" font-size="9.00">Q4</text>
</g>
<!-- net_10 -->
<g id="node27" class="node">
<title>net_10</title>
<ellipse fill="none" stroke="black" cx="1506" cy="-5.4" rx="5.4" ry="5.4"/>
</g>
<!-- U2&#45;&gt;net_10 -->
<g id="edge54" class="edge">
<title>U2&#45;&gt;net_10</title>
<path fill="none" stroke="black" d="M1499.75,-46.58C1498.56,-33.63 1499.49,-16.96 1502.57,-9.85"/>
<text xml:space="preserve" text-anchor="middle" x="1494.5" y="-49.28" font-family="monospace" font-size="9.00">Q6</text>
</g>
<!-- U2&#45;&gt;net_10 -->
<g id="edge55" class="edge">
<title>U2&#45;&gt;net_10</title>
<path fill="none" stroke="black" d="M1512.25,-46.58C1513.44,-33.63 1512.51,-16.96 1509.43,-9.85"/>
<text xml:space="preserve" text-anchor="middle" x="1504.37" y="-49.28" font-family="monospace" font-size="9.00">RST</text>
</g>
<!-- net_3 -->
<g id="node29" class="node">
<title>net_3</title>
<ellipse fill="none" stroke="black" cx="1273" cy="-5.4" rx="5.4" ry="5.4"/>
</g>
<!-- U2&#45;&gt;net_3 -->
<g id="edge48" class="edge">
<title>U2&#45;&gt;net_3</title>
<path fill="none" stroke="black" d="M1456.48,-49.33C1453.27,-48.45 1450.1,-47.6 1447,-46.8 1380.97,-29.63 1299.93,-12.14 1278.44,-7.55"/>
<text xml:space="preserve" text-anchor="middle" x="1451.23" y="-52.03" font-family="monospace" font-size="9.00">CO</text>
</g>
<!-- net_6 -->
<g id="node31" class="node">
<title>net_6</title>
<ellipse fill="none" stroke="black" cx="1477" cy="-5.4" rx="5.4" ry="5.4"/>
</g>
<!-- U2&#45;&gt;net_6 -->
<g id="edge51" class="edge">
<title>U2&#45;&gt;net_6</title>
<path fill="none" stroke="black" d="M1497.3,-46.58C1491.03,-34.16 1483.02,-18.31 1479.21,-10.77"/>
<text xml:space="preserve" text-anchor="middle" x="1492.05" y="-49.28" font-family="monospace" font-size="9.00">Q3</text>
</g>
<!-- net_7 -->
<g id="node32" class="node">
<title>net_7</title>
<ellipse fill="none" stroke="black" cx="1155" cy="-5.4" rx="5.4" ry="5.4"/>
</g>
<!-- U2&#45;&gt;net_7 -->
<g id="edge50" class="edge">
<title>U2&#45;&gt;net_7</title>
<path fill="none" stroke="black" d="M1456.56,-49C1453.33,-48.21 1450.13,-47.46 1447,-46.8 1332.86,-22.59 1190.41,-9.46 1160.62,-6.88"/>
<text xml:space="preserve" text-anchor="middle" x="1461.81" y="-51.7" font-family="monospace" font-size="9.00">Q2</text>
</g>
<!-- net_8 -->
<g id="node33" class="node">
<title>net_8</title>
<ellipse fill="none" stroke="black" cx="1839" cy="-5.4" rx="5.4" ry="5.4"/>
</g>
<!-- U2&#45;&gt;net_8 -->
<g id="edge53" class="edge">
<title>U2&#45;&gt;net_8</title>
<path fill="none" stroke="black" d="M1555.45,-49.03C1558.67,-48.23 1561.87,-47.48 1565,-46.8 1671.67,-23.68 1804.61,-9.8 1833.35,-6.95"/>
<text xml:space="preserve" text-anchor="middle" x="1550.2" y="-51.73" font-family="monospace" font-size="9.00">Q5</text>
</g>
<!-- net_9 -->
<g id="node34" class="node">
<title>net_9</title>
<ellipse fill="none" stroke="black" cx="1668" cy="-5.4" rx="5.4" ry="5.4"/>
</g>
<!-- U2&#45;&gt;net_9 -->
<g id="edge49" class="edge">
<title>U2&#45;&gt;net_9</title>
<path fill="none" stroke="black" d="M1555.04,-46.42C1594.9,-32.3 1647.06,-13.82 1663.1,-8.14"/>
<text xml:space="preserve" text-anchor="middle" x="1549.79" y="-49.12" font-family="monospace" font-size="9.00">Q1</text>
</g>
<!-- U2&#45;&gt;vcc -->
<g id="edge56" class="edge">
<title>U2&#45;&gt;vcc</title>
<path fill="none" stroke="black" d="M1555.71,-48.59C1558.83,-47.91 1561.95,-47.3 1565,-46.8 1748.39,-16.61 2375.77,-7.36 2441.43,-6.47"/>
<text xml:space="preserve" text-anchor="middle" x="1563.58" y="-51.29" font-family="monospace" font-size="9.00">VDD</text>
</g>
<!-- D1 -->
<g id="node3" class="node">
<title>D1</title>
<polygon fill="none" stroke="black" points="1930.38,-82.8 1823.62,-82.8 1823.62,-46.8 1930.38,-46.8 1930.38,-82.8"/>
<text xml:space="preserve" text-anchor="middle" x="1877" y="-60.12" font-family="monospace" font-size="14.00">D1\nD1N4148</text>
</g>
<!-- net_4 -->
<g id="node30" class="node">
<title>net_4</title>
<ellipse fill="none" stroke="black" cx="1939" cy="-5.4" rx="5.4" ry="5.4"/>
</g>
<!-- D1&#45;&gt;net_4 -->
<g id="edge6" class="edge">
<title>D1&#45;&gt;net_4</title>
<path fill="none" stroke="black" d="M1895.6,-46.58C1909.58,-33.63 1927.6,-16.96 1935.27,-9.85"/>
<text xml:space="preserve" text-anchor="middle" x="1877.23" y="-49.28" font-family="monospace" font-size="9.00">cathode</text>
</g>
<!-- D1&#45;&gt;net_9 -->
<g id="edge5" class="edge">
<title>D1&#45;&gt;net_9</title>
<path fill="none" stroke="black" d="M1823.18,-49.02C1769.96,-34.4 1693.61,-13.43 1673.19,-7.82"/>
<text xml:space="preserve" text-anchor="middle" x="1810.05" y="-51.72" font-family="monospace" font-size="9.00">anode</text>
</g>
<!-- D2 -->
<g id="node4" class="node">
<title>D2</title>
<polygon fill="none" stroke="black" points="1805.38,-82.8 1698.62,-82.8 1698.62,-46.8 1805.38,-46.8 1805.38,-82.8"/>
<text xml:space="preserve" text-anchor="middle" x="1752" y="-60.12" font-family="monospace" font-size="14.00">D2\nD1N4148</text>
</g>
<!-- D2&#45;&gt;net_4 -->
<g id="edge16" class="edge">
<title>D2&#45;&gt;net_4</title>
<path fill="none" stroke="black" d="M1805.84,-47.27C1852.88,-32.83 1916.37,-13.35 1934.18,-7.88"/>
<text xml:space="preserve" text-anchor="middle" x="1787.46" y="-49.97" font-family="monospace" font-size="9.00">cathode</text>
</g>
<!-- D2&#45;&gt;net_6 -->
<g id="edge15" class="edge">
<title>D2&#45;&gt;net_6</title>
<path fill="none" stroke="black" d="M1698.46,-49.03C1695.27,-48.25 1692.09,-47.5 1689,-46.8 1602.18,-27.19 1578.6,-31.35 1492,-10.8 1488.73,-10.02 1485.1,-8.97 1482.24,-8.08"/>
<text xml:space="preserve" text-anchor="middle" x="1685.33" y="-51.73" font-family="monospace" font-size="9.00">anode</text>
</g>
<!-- D3 -->
<g id="node5" class="node">
<title>D3</title>
<polygon fill="none" stroke="black" points="2055.38,-82.8 1948.62,-82.8 1948.62,-46.8 2055.38,-46.8 2055.38,-82.8"/>
<text xml:space="preserve" text-anchor="middle" x="2002" y="-60.12" font-family="monospace" font-size="14.00">D3\nD1N4148</text>
</g>
<!-- D3&#45;&gt;net_4 -->
<g id="edge18" class="edge">
<title>D3&#45;&gt;net_4</title>
<path fill="none" stroke="black" d="M1983.1,-46.58C1968.89,-33.63 1950.59,-16.96 1942.79,-9.85"/>
<text xml:space="preserve" text-anchor="middle" x="1964.72" y="-49.28" font-family="monospace" font-size="9.00">cathode</text>
</g>
<!-- D3&#45;&gt;net_8 -->
<g id="edge17" class="edge">
<title>D3&#45;&gt;net_8</title>
<path fill="none" stroke="black" d="M1952.65,-46.42C1912.55,-32.3 1860.07,-13.82 1843.94,-8.14"/>
<text xml:space="preserve" text-anchor="middle" x="1939.53" y="-49.12" font-family="monospace" font-size="9.00">anode</text>
</g>
<!-- D4 -->
<g id="node6" class="node">
<title>D4</title>
<polygon fill="none" stroke="black" points="964.38,-82.8 857.62,-82.8 857.62,-46.8 964.38,-46.8 964.38,-82.8"/>
<text xml:space="preserve" text-anchor="middle" x="911" y="-60.12" font-family="monospace" font-size="14.00">D4\nD1N4148</text>
</g>
<!-- net_2 -->
<g id="node28" class="node">
<title>net_2</title>
<ellipse fill="none" stroke="black" cx="649" cy="-5.4" rx="5.4" ry="5.4"/>
</g>
<!-- D4&#45;&gt;net_2 -->
<g id="edge20" class="edge">
<title>D4&#45;&gt;net_2</title>
<path fill="none" stroke="black" d="M857.44,-49.1C854.25,-48.3 851.09,-47.53 848,-46.8 771.49,-28.73 677.27,-11.49 654.25,-7.34"/>
<text xml:space="preserve" text-anchor="middle" x="839.07" y="-51.8" font-family="monospace" font-size="9.00">cathode</text>
</g>
<!-- D4&#45;&gt;net_7 -->
<g id="edge19" class="edge">
<title>D4&#45;&gt;net_7</title>
<path fill="none" stroke="black" d="M964.57,-49.17C967.76,-48.36 970.92,-47.56 974,-46.8 1043.09,-29.78 1127.78,-12.04 1149.65,-7.5"/>
<text xml:space="preserve" text-anchor="middle" x="951.45" y="-51.87" font-family="monospace" font-size="9.00">anode</text>
</g>
<!-- D5 -->
<g id="node7" class="node">
<title>D5</title>
<polygon fill="none" stroke="black" points="1438.38,-82.8 1331.62,-82.8 1331.62,-46.8 1438.38,-46.8 1438.38,-82.8"/>
<text xml:space="preserve" text-anchor="middle" x="1385" y="-60.12" font-family="monospace" font-size="14.00">D5\nD1N4148</text>
</g>
<!-- D5&#45;&gt;net_2 -->
<g id="edge22" class="edge">
<title>D5&#45;&gt;net_2</title>
<path fill="none" stroke="black" d="M1331.38,-48.37C1328.56,-47.78 1325.75,-47.25 1323,-46.8 1048.32,-1.42 703.19,-5.47 654.75,-6.29"/>
<text xml:space="preserve" text-anchor="middle" x="1313.01" y="-51.07" font-family="monospace" font-size="9.00">cathode</text>
</g>
<!-- D5&#45;&gt;net_6 -->
<g id="edge21" class="edge">
<title>D5&#45;&gt;net_6</title>
<path fill="none" stroke="black" d="M1412.6,-46.58C1434.2,-33.1 1462.27,-15.59 1472.78,-9.03"/>
<text xml:space="preserve" text-anchor="middle" x="1399.48" y="-49.28" font-family="monospace" font-size="9.00">anode</text>
</g>
<!-- D6 -->
<g id="node8" class="node">
<title>D6</title>
<polygon fill="none" stroke="black" points="206.38,-82.8 99.62,-82.8 99.62,-46.8 206.38,-46.8 206.38,-82.8"/>
<text xml:space="preserve" text-anchor="middle" x="153" y="-60.12" font-family="monospace" font-size="14.00">D6\nD1N4148</text>
</g>
<!-- D6&#45;&gt;net_0 -->
<g id="edge23" class="edge">
<title>D6&#45;&gt;net_0</title>
<path fill="none" stroke="black" d="M172.5,-46.58C187.46,-33.37 206.82,-16.28 214.57,-9.43"/>
<text xml:space="preserve" text-anchor="middle" x="159.38" y="-49.28" font-family="monospace" font-size="9.00">anode</text>
</g>
<!-- D6&#45;&gt;net_2 -->
<g id="edge24" class="edge">
<title>D6&#45;&gt;net_2</title>
<path fill="none" stroke="black" d="M206.64,-48.48C209.45,-47.86 212.25,-47.3 215,-46.8 388.46,-15.2 605.69,-7.65 643.32,-6.55"/>
<text xml:space="preserve" text-anchor="middle" x="188.26" y="-51.18" font-family="monospace" font-size="9.00">cathode</text>
</g>
<!-- R1 -->
<g id="node9" class="node">
<title>R1</title>
<polygon fill="none" stroke="black" points="2155,-82.8 2073,-82.8 2073,-46.8 2155,-46.8 2155,-82.8"/>
<text xml:space="preserve" text-anchor="middle" x="2114" y="-60.12" font-family="monospace" font-size="14.00">R1\n470Ω</text>
</g>
<!-- R1&#45;&gt;net_4 -->
<g id="edge31" class="edge">
<title>R1&#45;&gt;net_4</title>
<path fill="none" stroke="black" d="M2072.63,-52.66C2066.66,-50.69 2060.66,-48.68 2055,-46.8 2011.7,-32.44 1959.76,-15.86 1943.4,-9.29"/>
<text xml:space="preserve" text-anchor="middle" x="2067.38" y="-55.36" font-family="monospace" font-size="9.00">t1</text>
</g>
<!-- R1&#45;&gt;net_4 -->
<g id="edge32" class="edge">
<title>R1&#45;&gt;net_4</title>
<path fill="none" stroke="black" d="M2072.68,-46.69C2023.8,-30.49 1964.04,-11.49 1944.52,-7.26"/>
<text xml:space="preserve" text-anchor="middle" x="2067.43" y="-38.14" font-family="monospace" font-size="9.00">t2</text>
</g>
<!-- R2 -->
<g id="node10" class="node">
<title>R2</title>
<polygon fill="none" stroke="black" points="1314,-82.8 1232,-82.8 1232,-46.8 1314,-46.8 1314,-82.8"/>
<text xml:space="preserve" text-anchor="middle" x="1273" y="-60.12" font-family="monospace" font-size="14.00">R2\n330Ω</text>
</g>
<!-- R2&#45;&gt;net_3 -->
<g id="edge33" class="edge">
<title>R2&#45;&gt;net_3</title>
<path fill="none" stroke="black" d="M1266.75,-46.58C1265.56,-33.63 1266.49,-16.96 1269.57,-9.85"/>
<text xml:space="preserve" text-anchor="middle" x="1261.5" y="-49.28" font-family="monospace" font-size="9.00">t1</text>
</g>
<!-- R2&#45;&gt;net_3 -->
<g id="edge34" class="edge">
<title>R2&#45;&gt;net_3</title>
<path fill="none" stroke="black" d="M1279.25,-46.58C1280.44,-33.63 1279.51,-16.96 1276.43,-9.85"/>
<text xml:space="preserve" text-anchor="middle" x="1274" y="-49.28" font-family="monospace" font-size="9.00">t2</text>
</g>
<!-- R3 -->
<g id="node11" class="node">
<title>R3</title>
<polygon fill="none" stroke="black" points="573,-82.8 491,-82.8 491,-46.8 573,-46.8 573,-82.8"/>
<text xml:space="preserve" text-anchor="middle" x="532" y="-60.12" font-family="monospace" font-size="14.00">R3\n330Ω</text>
</g>
<!-- R3&#45;&gt;net_2 -->
<g id="edge35" class="edge">
<title>R3&#45;&gt;net_2</title>
<path fill="none" stroke="black" d="M561.16,-46.42C589.18,-32.04 629.03,-13.13 643.78,-7.83"/>
<text xml:space="preserve" text-anchor="middle" x="555.91" y="-49.12" font-family="monospace" font-size="9.00">t1</text>
</g>
<!-- R3&#45;&gt;net_2 -->
<g id="edge36" class="edge">
<title>R3&#45;&gt;net_2</title>
<path fill="none" stroke="black" d="M573.35,-46.58C600.93,-33.63 633.98,-16.96 645.39,-9.85"/>
<text xml:space="preserve" text-anchor="middle" x="568.1" y="-49.28" font-family="monospace" font-size="9.00">t2</text>
</g>
<!-- R4 -->
<g id="node12" class="node">
<title>R4</title>
<polygon fill="none" stroke="black" points="82,-82.8 0,-82.8 0,-46.8 82,-46.8 82,-82.8"/>
<text xml:space="preserve" text-anchor="middle" x="41" y="-60.12" font-family="monospace" font-size="14.00">R4\n330Ω</text>
</g>
<!-- R4&#45;&gt;net_0 -->
<g id="edge37" class="edge">
<title>R4&#45;&gt;net_0</title>
<path fill="none" stroke="black" d="M82.33,-46.69C131.95,-30.37 192.7,-11.46 212.43,-7.26"/>
<text xml:space="preserve" text-anchor="middle" x="77.08" y="-49.39" font-family="monospace" font-size="9.00">t1</text>
</g>
<!-- R4&#45;&gt;net_0 -->
<g id="edge38" class="edge">
<title>R4&#45;&gt;net_0</title>
<path fill="none" stroke="black" d="M82.37,-52.64C88.33,-50.68 94.34,-48.66 100,-46.8 144.4,-32.19 197.8,-15.48 213.94,-9.08"/>
<text xml:space="preserve" text-anchor="middle" x="77.12" y="-55.34" font-family="monospace" font-size="9.00">t2</text>
</g>
<!-- R5 -->
<g id="node13" class="node">
<title>R5</title>
<polygon fill="none" stroke="black" points="2730.25,-82.8 2631.75,-82.8 2631.75,-46.8 2730.25,-46.8 2730.25,-82.8"/>
<text xml:space="preserve" text-anchor="middle" x="2681" y="-60.12" font-family="monospace" font-size="14.00">R5\n10000Ω</text>
</g>
<!-- R5&#45;&gt;vcc -->
<g id="edge39" class="edge">
<title>R5&#45;&gt;vcc</title>
<path fill="none" stroke="black" d="M2631.56,-51.81C2625.29,-50.07 2618.98,-48.35 2613,-46.8 2549.92,-30.44 2473.2,-13.87 2452.05,-8.33"/>
<text xml:space="preserve" text-anchor="middle" x="2626.31" y="-54.51" font-family="monospace" font-size="9.00">t1</text>
</g>
<!-- R5&#45;&gt;vcc -->
<g id="edge40" class="edge">
<title>R5&#45;&gt;vcc</title>
<path fill="none" stroke="black" d="M2631.31,-46.88C2631.21,-46.85 2631.1,-46.83 2631,-46.8 2561.58,-28.8 2475.64,-10.53 2452.37,-7.01"/>
<text xml:space="preserve" text-anchor="middle" x="2626.06" y="-49.58" font-family="monospace" font-size="9.00">t2</text>
</g>
<!-- R6 -->
<g id="node14" class="node">
<title>R6</title>
<polygon fill="none" stroke="black" points="2847.25,-82.8 2748.75,-82.8 2748.75,-46.8 2847.25,-46.8 2847.25,-82.8"/>
<text xml:space="preserve" text-anchor="middle" x="2798" y="-60.12" font-family="monospace" font-size="14.00">R6\n10000Ω</text>
</g>
<!-- R6&#45;&gt;vcc -->
<g id="edge41" class="edge">
<title>R6&#45;&gt;vcc</title>
<path fill="none" stroke="black" d="M2748.35,-51.24C2742.17,-49.6 2735.94,-48.06 2730,-46.8 2619.36,-23.33 2482.13,-10.27 2452.47,-7.14"/>
<text xml:space="preserve" text-anchor="middle" x="2743.1" y="-53.94" font-family="monospace" font-size="9.00">t1</text>
</g>
<!-- R6&#45;&gt;vcc -->
<g id="edge42" class="edge">
<title>R6&#45;&gt;vcc</title>
<path fill="none" stroke="black" d="M2748.31,-46.87C2748.21,-46.84 2748.1,-46.82 2748,-46.8 2630.85,-21.95 2483.9,-8.77 2452.63,-6.69"/>
<text xml:space="preserve" text-anchor="middle" x="2743.06" y="-49.57" font-family="monospace" font-size="9.00">t2</text>
</g>
<!-- R7 -->
<g id="node15" class="node">
<title>R7</title>
<polygon fill="none" stroke="black" points="2379.25,-82.8 2280.75,-82.8 2280.75,-46.8 2379.25,-46.8 2379.25,-82.8"/>
<text xml:space="preserve" text-anchor="middle" x="2330" y="-60.12" font-family="monospace" font-size="14.00">R7\n10000Ω</text>
</g>
<!-- R7&#45;&gt;vcc -->
<g id="edge43" class="edge">
<title>R7&#45;&gt;vcc</title>
<path fill="none" stroke="black" d="M2359.16,-46.42C2387.18,-32.04 2427.03,-13.13 2441.78,-7.83"/>
<text xml:space="preserve" text-anchor="middle" x="2353.91" y="-49.12" font-family="monospace" font-size="9.00">t1</text>
</g>
<!-- R7&#45;&gt;vcc -->
<g id="edge44" class="edge">
<title>R7&#45;&gt;vcc</title>
<path fill="none" stroke="black" d="M2371.68,-46.42C2399.23,-33.49 2432.09,-16.9 2443.42,-9.83"/>
<text xml:space="preserve" text-anchor="middle" x="2366.43" y="-49.12" font-family="monospace" font-size="9.00">t2</text>
</g>
<!-- C1 -->
<g id="node16" class="node">
<title>C1</title>
<polygon fill="none" stroke="black" points="2496.25,-82.8 2397.75,-82.8 2397.75,-46.8 2496.25,-46.8 2496.25,-82.8"/>
<text xml:space="preserve" text-anchor="middle" x="2447" y="-60.12" font-family="monospace" font-size="14.00">C1\n1e&#45;08F</text>
</g>
<!-- C1&#45;&gt;vcc -->
<g id="edge1" class="edge">
<title>C1&#45;&gt;vcc</title>
<path fill="none" stroke="black" d="M2440.75,-46.58C2439.56,-33.63 2440.49,-16.96 2443.57,-9.85"/>
<text xml:space="preserve" text-anchor="middle" x="2435.5" y="-49.28" font-family="monospace" font-size="9.00">t1</text>
</g>
<!-- C1&#45;&gt;vcc -->
<g id="edge2" class="edge">
<title>C1&#45;&gt;vcc</title>
<path fill="none" stroke="black" d="M2453.25,-46.58C2454.44,-33.63 2453.51,-16.96 2450.43,-9.85"/>
<text xml:space="preserve" text-anchor="middle" x="2448" y="-49.28" font-family="monospace" font-size="9.00">t2</text>
</g>
<!-- C2 -->
<g id="node17" class="node">
<title>C2</title>
<polygon fill="none" stroke="black" points="2613.25,-82.8 2514.75,-82.8 2514.75,-46.8 2613.25,-46.8 2613.25,-82.8"/>
<text xml:space="preserve" text-anchor="middle" x="2564" y="-60.12" font-family="monospace" font-size="14.00">C2\n1e&#45;07F</text>
</g>
<!-- C2&#45;&gt;vcc -->
<g id="edge3" class="edge">
<title>C2&#45;&gt;vcc</title>
<path fill="none" stroke="black" d="M2522.32,-46.42C2494.77,-33.49 2461.91,-16.9 2450.58,-9.83"/>
<text xml:space="preserve" text-anchor="middle" x="2517.07" y="-49.12" font-family="monospace" font-size="9.00">t1</text>
</g>
<!-- C2&#45;&gt;vcc -->
<g id="edge4" class="edge">
<title>C2&#45;&gt;vcc</title>
<path fill="none" stroke="black" d="M2534.84,-46.42C2506.82,-32.04 2466.97,-13.13 2452.22,-7.83"/>
<text xml:space="preserve" text-anchor="middle" x="2529.59" y="-49.12" font-family="monospace" font-size="9.00">t2</text>
</g>
<!-- D7 -->
<g id="node18" class="node">
<title>D7</title>
<polygon fill="none" stroke="black" points="1680.38,-82.8 1573.62,-82.8 1573.62,-46.8 1680.38,-46.8 1680.38,-82.8"/>
<text xml:space="preserve" text-anchor="middle" x="1627" y="-60.12" font-family="monospace" font-size="14.00">D7\nred LED</text>
</g>
<!-- D7&#45;&gt;gnd -->
<g id="edge26" class="edge">
<title>D7&#45;&gt;gnd</title>
<path fill="none" stroke="black" d="M1573.19,-48.57C1570.09,-47.91 1567.01,-47.32 1564,-46.8 1455.95,-28.26 1090.95,-9.2 1041.55,-6.68"/>
<text xml:space="preserve" text-anchor="middle" x="1591.57" y="-51.27" font-family="monospace" font-size="9.00">cathode</text>
</g>
<!-- D7&#45;&gt;net_4 -->
<g id="edge25" class="edge">
<title>D7&#45;&gt;net_4</title>
<path fill="none" stroke="black" d="M1680.87,-48.87C1683.95,-48.14 1687.01,-47.44 1690,-46.8 1786.76,-25.95 1906.74,-10.43 1933.53,-7.08"/>
<text xml:space="preserve" text-anchor="middle" x="1667.74" y="-51.57" font-family="monospace" font-size="9.00">anode</text>
</g>
<!-- D8 -->
<g id="node19" class="node">
<title>D8</title>
<polygon fill="none" stroke="black" points="1089.38,-82.8 982.62,-82.8 982.62,-46.8 1089.38,-46.8 1089.38,-82.8"/>
<text xml:space="preserve" text-anchor="middle" x="1036" y="-60.12" font-family="monospace" font-size="14.00">D8\nred LED</text>
</g>
<!-- D8&#45;&gt;gnd -->
<g id="edge28" class="edge">
<title>D8&#45;&gt;gnd</title>
<path fill="none" stroke="black" d="M1036,-46.58C1036,-34.43 1036,-18.99 1036,-11.26"/>
<text xml:space="preserve" text-anchor="middle" x="1017.62" y="-49.28" font-family="monospace" font-size="9.00">cathode</text>
</g>
<!-- D8&#45;&gt;net_3 -->
<g id="edge27" class="edge">
<title>D8&#45;&gt;net_3</title>
<path fill="none" stroke="black" d="M1089.58,-49.2C1092.77,-48.38 1095.92,-47.57 1099,-46.8 1165.17,-30.19 1246.12,-12.29 1267.57,-7.59"/>
<text xml:space="preserve" text-anchor="middle" x="1076.46" y="-51.9" font-family="monospace" font-size="9.00">anode</text>
</g>
<!-- D9 -->
<g id="node20" class="node">
<title>D9</title>
<polygon fill="none" stroke="black" points="1214.38,-82.8 1107.62,-82.8 1107.62,-46.8 1214.38,-46.8 1214.38,-82.8"/>
<text xml:space="preserve" text-anchor="middle" x="1161" y="-60.12" font-family="monospace" font-size="14.00">D9\nred LED</text>
</g>
<!-- D9&#45;&gt;gnd -->
<g id="edge30" class="edge">
<title>D9&#45;&gt;gnd</title>
<path fill="none" stroke="black" d="M1123.16,-46.42C1093.26,-32.7 1054.41,-14.85 1040.89,-8.65"/>
<text xml:space="preserve" text-anchor="middle" x="1104.78" y="-37.87" font-family="monospace" font-size="9.00">cathode</text>
</g>
<!-- D9&#45;&gt;net_3 -->
<g id="edge29" class="edge">
<title>D9&#45;&gt;net_3</title>
<path fill="none" stroke="black" d="M1194.91,-46.42C1221.43,-32.83 1255.84,-15.2 1268.26,-8.83"/>
<text xml:space="preserve" text-anchor="middle" x="1181.78" y="-49.12" font-family="monospace" font-size="9.00">anode</text>
</g>
<!-- D10 -->
<g id="node21" class="node">
<title>D10</title>
<polygon fill="none" stroke="black" points="706.5,-82.8 591.5,-82.8 591.5,-46.8 706.5,-46.8 706.5,-82.8"/>
<text xml:space="preserve" text-anchor="middle" x="649" y="-60.12" font-family="monospace" font-size="14.00">D10\nred LED</text>
</g>
<!-- D10&#45;&gt;gnd -->
<g id="edge8" class="edge">
<title>D10&#45;&gt;gnd</title>
<path fill="none" stroke="black" d="M706.85,-48.46C709.6,-47.87 712.33,-47.31 715,-46.8 841.9,-22.57 999.88,-9.27 1030.67,-6.82"/>
<text xml:space="preserve" text-anchor="middle" x="688.48" y="-51.16" font-family="monospace" font-size="9.00">cathode</text>
</g>
<!-- D10&#45;&gt;net_2 -->
<g id="edge7" class="edge">
<title>D10&#45;&gt;net_2</title>
<path fill="none" stroke="black" d="M649,-46.58C649,-34.43 649,-18.99 649,-11.26"/>
<text xml:space="preserve" text-anchor="middle" x="635.88" y="-49.28" font-family="monospace" font-size="9.00">anode</text>
</g>
<!-- D11 -->
<g id="node22" class="node">
<title>D11</title>
<polygon fill="none" stroke="black" points="839.5,-82.8 724.5,-82.8 724.5,-46.8 839.5,-46.8 839.5,-82.8"/>
<text xml:space="preserve" text-anchor="middle" x="782" y="-60.12" font-family="monospace" font-size="14.00">D11\nred LED</text>
</g>
<!-- D11&#45;&gt;gnd -->
<g id="edge10" class="edge">
<title>D11&#45;&gt;gnd</title>
<path fill="none" stroke="black" d="M839.71,-49.02C842.85,-48.26 845.96,-47.51 849,-46.8 920.78,-29.94 1008.69,-11.94 1030.78,-7.46"/>
<text xml:space="preserve" text-anchor="middle" x="821.34" y="-51.72" font-family="monospace" font-size="9.00">cathode</text>
</g>
<!-- D11&#45;&gt;net_2 -->
<g id="edge9" class="edge">
<title>D11&#45;&gt;net_2</title>
<path fill="none" stroke="black" d="M741.73,-46.42C709.62,-32.56 667.79,-14.51 653.8,-8.47"/>
<text xml:space="preserve" text-anchor="middle" x="728.61" y="-49.12" font-family="monospace" font-size="9.00">anode</text>
</g>
<!-- D12 -->
<g id="node23" class="node">
<title>D12</title>
<polygon fill="none" stroke="black" points="339.5,-82.8 224.5,-82.8 224.5,-46.8 339.5,-46.8 339.5,-82.8"/>
<text xml:space="preserve" text-anchor="middle" x="282" y="-60.12" font-family="monospace" font-size="14.00">D12\nred LED</text>
</g>
<!-- D12&#45;&gt;gnd -->
<g id="edge12" class="edge">
<title>D12&#45;&gt;gnd</title>
<path fill="none" stroke="black" d="M339.82,-48.23C342.57,-47.7 345.31,-47.22 348,-46.8 629.34,-2.73 982.21,-5.68 1030.45,-6.32"/>
<text xml:space="preserve" text-anchor="middle" x="321.44" y="-50.93" font-family="monospace" font-size="9.00">cathode</text>
</g>
<!-- D12&#45;&gt;net_0 -->
<g id="edge11" class="edge">
<title>D12&#45;&gt;net_0</title>
<path fill="none" stroke="black" d="M262.8,-46.58C248.36,-33.63 229.77,-16.96 221.85,-9.85"/>
<text xml:space="preserve" text-anchor="middle" x="249.67" y="-49.28" font-family="monospace" font-size="9.00">anode</text>
</g>
<!-- D13 -->
<g id="node24" class="node">
<title>D13</title>
<polygon fill="none" stroke="black" points="472.5,-82.8 357.5,-82.8 357.5,-46.8 472.5,-46.8 472.5,-82.8"/>
<text xml:space="preserve" text-anchor="middle" x="415" y="-60.12" font-family="monospace" font-size="14.00">D13\nred LED</text>
</g>
<!-- D13&#45;&gt;gnd -->
<g id="edge14" class="edge">
<title>D13&#45;&gt;gnd</title>
<path fill="none" stroke="black" d="M472.97,-48.43C476.02,-47.83 479.04,-47.28 482,-46.8 706.18,-10.47 986.73,-6.79 1030.22,-6.44"/>
<text xml:space="preserve" text-anchor="middle" x="454.6" y="-51.13" font-family="monospace" font-size="9.00">cathode</text>
</g>
<!-- D13&#45;&gt;net_0 -->
<g id="edge13" class="edge">
<title>D13&#45;&gt;net_0</title>
<path fill="none" stroke="black" d="M357.22,-46.97C307.72,-32.54 241.57,-13.27 223.02,-7.86"/>
<text xml:space="preserve" text-anchor="middle" x="344.1" y="-38.42" font-family="monospace" font-size="9.00">anode</text>
</g>
</g>
</svg>
