<?xml version="1.0" encoding="UTF-8" standalone="no"?>
<!DOCTYPE svg PUBLIC "-//W3C//DTD SVG 1.1//EN"
 "http://www.w3.org/Graphics/SVG/1.1/DTD/svg11.dtd">
<!-- Generated by graphviz version 14.1.5 (20260411.2331)
 -->
<!-- Title: Dice Pages: 1 -->
<svg width="2854pt" height="91pt"
 viewBox="0.00 0.00 2854.00 91.00" xmlns="http://www.w3.org/2000/svg" xmlns:xlink="http://www.w3.org/1999/xlink">
<g id="graph0" class="graph" transform="scale(1 1) rotate(0) translate(4 86.8)">
<title>Dice</title>
<polygon fill="white" stroke="none" points="-4,4 -4,-86.8 2850.38,-86.8 2850.38,4 -4,4"/>
<!-- U1 -->
<g id="node1" class="node">
<title>U1</title>
<polygon fill="none" stroke="black" points="90.25,-82.8 0,-82.8 0,-46.8 90.25,-46.8 90.25,-82.8"/>
<text xml:space="preserve" text-anchor="middle" x="45.12" y="-60.12" font-family="monospace" font-size="14.00">U1\nNE555</text>
</g>
<!-- vcc -->
<g id="node35" class="node">
<title>vcc</title>
<ellipse fill="none" stroke="black" cx="45.12" cy="-5.4" rx="5.4" ry="5.4"/>
</g>
<!-- U1&#45;&gt;vcc -->
<g id="edge35" class="edge">
<title>U1&#45;&gt;vcc</title>
<path fill="none" stroke="black" d="M45.12,-46.58C45.12,-34.43 45.12,-18.99 45.12,-11.26"/>
<text xml:space="preserve" text-anchor="middle" x="32" y="-49.28" font-family="monospace" font-size="9.00">RESET</text>
</g>
<!-- U2 -->
<g id="node2" class="node">
<title>U2</title>
<polygon fill="none" stroke="black" points="332.38,-82.8 233.88,-82.8 233.88,-46.8 332.38,-46.8 332.38,-82.8"/>
<text xml:space="preserve" text-anchor="middle" x="283.12" y="-60.12" font-family="monospace" font-size="14.00">U2\nCD4017</text>
</g>
<!-- net_0 -->
<g id="node26" class="node">
<title>net_0</title>
<ellipse fill="none" stroke="black" cx="2037.12" cy="-5.4" rx="5.4" ry="5.4"/>
</g>
<!-- U2&#45;&gt;net_0 -->
<g id="edge40" class="edge">
<title>U2&#45;&gt;net_0</title>
<path fill="none" stroke="black" d="M332.82,-48.51C335.95,-47.85 339.07,-47.27 342.12,-46.8 521.61,-19.27 1929.82,-7.28 2031.35,-6.45"/>
<text xml:space="preserve" text-anchor="middle" x="327.57" y="-39.96" font-family="monospace" font-size="9.00">Q4</text>
</g>
<!-- net_3 -->
<g id="node28" class="node">
<title>net_3</title>
<ellipse fill="none" stroke="black" cx="1115.12" cy="-5.4" rx="5.4" ry="5.4"/>
</g>
<!-- U2&#45;&gt;net_3 -->
<g id="edge36" class="edge">
<title>U2&#45;&gt;net_3</title>
<path fill="none" stroke="black" d="M332.83,-48.61C335.96,-47.93 339.08,-47.31 342.12,-46.8 502.15,-19.93 1048.17,-7.8 1109.51,-6.52"/>
<text xml:space="preserve" text-anchor="middle" x="338.08" y="-51.31" font-family="monospace" font-size="9.00">CO</text>
</g>
<!-- net_5 -->
<g id="node30" class="node">
<title>net_5</title>
<ellipse fill="none" stroke="black" cx="654.12" cy="-5.4" rx="5.4" ry="5.4"/>
</g>
<!-- U2&#45;&gt;net_5 -->
<g id="edge39" class="edge">
<title>U2&#45;&gt;net_5</title>
<path fill="none" stroke="black" d="M332.56,-48.97C335.79,-48.18 338.99,-47.45 342.12,-46.8 464.59,-21.38 617.62,-9.11 648.53,-6.81"/>
<text xml:space="preserve" text-anchor="middle" x="327.31" y="-51.67" font-family="monospace" font-size="9.00">Q3</text>
</g>
<!-- net_6 -->
<g id="node31" class="node">
<title>net_6</title>
<ellipse fill="none" stroke="black" cx="481.12" cy="-5.4" rx="5.4" ry="5.4"/>
</g>
<!-- U2&#45;&gt;net_6 -->
<g id="edge38" class="edge">
<title>U2&#45;&gt;net_6</title>
<path fill="none" stroke="black" d="M332.83,-49.39C383.01,-34.84 455.86,-13.72 475.87,-7.92"/>
<text xml:space="preserve" text-anchor="middle" x="327.58" y="-52.09" font-family="monospace" font-size="9.00">Q2</text>
</g>
<!-- net_7 -->
<g id="node32" class="node">
<title>net_7</title>
<ellipse fill="none" stroke="black" cx="208.12" cy="-5.4" rx="5.4" ry="5.4"/>
</g>
<!-- U2&#45;&gt;net_7 -->
<g id="edge41" class="edge">
<title>U2&#45;&gt;net_7</title>
<path fill="none" stroke="black" d="M260.62,-46.58C243.36,-33.37 221.03,-16.28 212.08,-9.43"/>
<text xml:space="preserve" text-anchor="middle" x="255.37" y="-49.28" font-family="monospace" font-size="9.00">Q5</text>
</g>
<!-- net_8 -->
<g id="node33" class="node">
<title>net_8</title>
<ellipse fill="none" stroke="black" cx="358.12" cy="-5.4" rx="5.4" ry="5.4"/>
</g>
<!-- U2&#45;&gt;net_8 -->
<g id="edge37" class="edge">
<title>U2&#45;&gt;net_8</title>
<path fill="none" stroke="black" d="M305.63,-46.58C322.89,-33.37 345.22,-16.28 354.17,-9.43"/>
<text xml:space="preserve" text-anchor="middle" x="300.38" y="-49.28" font-family="monospace" font-size="9.00">Q1</text>
</g>
<!-- net_9 -->
<g id="node34" class="node">
<title>net_9</title>
<ellipse fill="none" stroke="black" cx="283.12" cy="-5.4" rx="5.4" ry="5.4"/>
</g>
<!-- U2&#45;&gt;net_9 -->
<g id="edge42" class="edge">
<title>U2&#45;&gt;net_9</title>
<path fill="none" stroke="black" d="M276.88,-46.58C275.68,-33.63 276.62,-16.96 279.7,-9.85"/>
<text xml:space="preserve" text-anchor="middle" x="271.63" y="-49.28" font-family="monospace" font-size="9.00">Q6</text>
</g>
<!-- U2&#45;&gt;net_9 -->
<g id="edge43" class="edge">
<title>U2&#45;&gt;net_9</title>
<path fill="none" stroke="black" d="M289.37,-46.58C290.57,-33.63 289.63,-16.96 286.55,-9.85"/>
<text xml:space="preserve" text-anchor="middle" x="281.5" y="-49.28" font-family="monospace" font-size="9.00">RST</text>
</g>
<!-- D1 -->
<g id="node3" class="node">
<title>D1</title>
<polygon fill="none" stroke="black" points="457.5,-82.8 350.75,-82.8 350.75,-46.8 457.5,-46.8 457.5,-82.8"/>
<text xml:space="preserve" text-anchor="middle" x="404.12" y="-60.12" font-family="monospace" font-size="14.00">D1\nD1N4148</text>
</g>
<!-- net_4 -->
<g id="node29" class="node">
<title>net_4</title>
<ellipse fill="none" stroke="black" cx="787.12" cy="-5.4" rx="5.4" ry="5.4"/>
</g>
<!-- D1&#45;&gt;net_4 -->
<g id="edge2" class="edge">
<title>D1&#45;&gt;net_4</title>
<path fill="none" stroke="black" d="M457.97,-48.75C461.06,-48.05 464.12,-47.39 467.12,-46.8 593.49,-21.9 751.09,-9.13 781.8,-6.79"/>
<text xml:space="preserve" text-anchor="middle" x="439.59" y="-51.45" font-family="monospace" font-size="9.00">cathode</text>
</g>
<!-- D1&#45;&gt;net_8 -->
<g id="edge1" class="edge">
<title>D1&#45;&gt;net_8</title>
<path fill="none" stroke="black" d="M390.32,-46.58C380.16,-33.9 367.13,-17.64 361.25,-10.3"/>
<text xml:space="preserve" text-anchor="middle" x="377.2" y="-49.28" font-family="monospace" font-size="9.00">anode</text>
</g>
<!-- D2 -->
<g id="node4" class="node">
<title>D2</title>
<polygon fill="none" stroke="black" points="707.5,-82.8 600.75,-82.8 600.75,-46.8 707.5,-46.8 707.5,-82.8"/>
<text xml:space="preserve" text-anchor="middle" x="654.12" y="-60.12" font-family="monospace" font-size="14.00">D2\nD1N4148</text>
</g>
<!-- D2&#45;&gt;net_4 -->
<g id="edge12" class="edge">
<title>D2&#45;&gt;net_4</title>
<path fill="none" stroke="black" d="M694.39,-46.42C726.5,-32.56 768.33,-14.51 782.33,-8.47"/>
<text xml:space="preserve" text-anchor="middle" x="676.02" y="-49.12" font-family="monospace" font-size="9.00">cathode</text>
</g>
<!-- D2&#45;&gt;net_5 -->
<g id="edge11" class="edge">
<title>D2&#45;&gt;net_5</title>
<path fill="none" stroke="black" d="M654.12,-46.58C654.12,-34.43 654.12,-18.99 654.12,-11.26"/>
<text xml:space="preserve" text-anchor="middle" x="641" y="-49.28" font-family="monospace" font-size="9.00">anode</text>
</g>
<!-- D3 -->
<g id="node5" class="node">
<title>D3</title>
<polygon fill="none" stroke="black" points="215.5,-82.8 108.75,-82.8 108.75,-46.8 215.5,-46.8 215.5,-82.8"/>
<text xml:space="preserve" text-anchor="middle" x="162.12" y="-60.12" font-family="monospace" font-size="14.00">D3\nD1N4148</text>
</g>
<!-- D3&#45;&gt;net_4 -->
<g id="edge14" class="edge">
<title>D3&#45;&gt;net_4</title>
<path fill="none" stroke="black" d="M215.93,-48.55C219.03,-47.9 222.11,-47.31 225.12,-46.8 340.38,-27.29 730.27,-9 781.54,-6.65"/>
<text xml:space="preserve" text-anchor="middle" x="197.56" y="-51.25" font-family="monospace" font-size="9.00">cathode</text>
</g>
<!-- D3&#45;&gt;net_7 -->
<g id="edge13" class="edge">
<title>D3&#45;&gt;net_7</title>
<path fill="none" stroke="black" d="M175.93,-46.58C186.09,-33.9 199.12,-17.64 205,-10.3"/>
<text xml:space="preserve" text-anchor="middle" x="162.8" y="-49.28" font-family="monospace" font-size="9.00">anode</text>
</g>
<!-- D4 -->
<g id="node6" class="node">
<title>D4</title>
<polygon fill="none" stroke="black" points="582.5,-82.8 475.75,-82.8 475.75,-46.8 582.5,-46.8 582.5,-82.8"/>
<text xml:space="preserve" text-anchor="middle" x="529.12" y="-60.12" font-family="monospace" font-size="14.00">D4\nD1N4148</text>
</g>
<!-- net_2 -->
<g id="node27" class="node">
<title>net_2</title>
<ellipse fill="none" stroke="black" cx="1339.12" cy="-5.4" rx="5.4" ry="5.4"/>
</g>
<!-- D4&#45;&gt;net_2 -->
<g id="edge16" class="edge">
<title>D4&#45;&gt;net_2</title>
<path fill="none" stroke="black" d="M582.92,-48.49C586.02,-47.85 589.1,-47.28 592.12,-46.8 746.98,-22 1274.44,-8.04 1333.7,-6.54"/>
<text xml:space="preserve" text-anchor="middle" x="564.55" y="-51.19" font-family="monospace" font-size="9.00">cathode</text>
</g>
<!-- D4&#45;&gt;net_6 -->
<g id="edge15" class="edge">
<title>D4&#45;&gt;net_6</title>
<path fill="none" stroke="black" d="M514.72,-46.58C504.12,-33.9 490.52,-17.64 484.39,-10.3"/>
<text xml:space="preserve" text-anchor="middle" x="501.6" y="-49.28" font-family="monospace" font-size="9.00">anode</text>
</g>
<!-- D5 -->
<g id="node7" class="node">
<title>D5</title>
<polygon fill="none" stroke="black" points="832.5,-82.8 725.75,-82.8 725.75,-46.8 832.5,-46.8 832.5,-82.8"/>
<text xml:space="preserve" text-anchor="middle" x="779.12" y="-60.12" font-family="monospace" font-size="14.00">D5\nD1N4148</text>
</g>
<!-- D5&#45;&gt;net_2 -->
<g id="edge18" class="edge">
<title>D5&#45;&gt;net_2</title>
<path fill="none" stroke="black" d="M832.75,-48.44C835.57,-47.84 838.38,-47.28 841.12,-46.8 1041.45,-11.53 1292.64,-6.98 1333.42,-6.46"/>
<text xml:space="preserve" text-anchor="middle" x="814.38" y="-51.14" font-family="monospace" font-size="9.00">cathode</text>
</g>
<!-- D5&#45;&gt;net_5 -->
<g id="edge17" class="edge">
<title>D5&#45;&gt;net_5</title>
<path fill="none" stroke="black" d="M741.28,-46.42C711.39,-32.7 672.53,-14.85 659.02,-8.65"/>
<text xml:space="preserve" text-anchor="middle" x="728.16" y="-49.12" font-family="monospace" font-size="9.00">anode</text>
</g>
<!-- D6 -->
<g id="node8" class="node">
<title>D6</title>
<polygon fill="none" stroke="black" points="1895.5,-82.8 1788.75,-82.8 1788.75,-46.8 1895.5,-46.8 1895.5,-82.8"/>
<text xml:space="preserve" text-anchor="middle" x="1842.12" y="-60.12" font-family="monospace" font-size="14.00">D6\nD1N4148</text>
</g>
<!-- D6&#45;&gt;net_0 -->
<g id="edge19" class="edge">
<title>D6&#45;&gt;net_0</title>
<path fill="none" stroke="black" d="M1895.93,-47.96C1945.08,-33.5 2012.91,-13.53 2031.96,-7.92"/>
<text xml:space="preserve" text-anchor="middle" x="1882.8" y="-50.66" font-family="monospace" font-size="9.00">anode</text>
</g>
<!-- D6&#45;&gt;net_2 -->
<g id="edge20" class="edge">
<title>D6&#45;&gt;net_2</title>
<path fill="none" stroke="black" d="M1788.49,-48.47C1785.67,-47.86 1782.87,-47.3 1780.12,-46.8 1603.87,-14.82 1383.14,-7.59 1344.9,-6.55"/>
<text xml:space="preserve" text-anchor="middle" x="1770.11" y="-51.17" font-family="monospace" font-size="9.00">cathode</text>
</g>
<!-- R1 -->
<g id="node9" class="node">
<title>R1</title>
<polygon fill="none" stroke="black" points="932.12,-82.8 850.12,-82.8 850.12,-46.8 932.12,-46.8 932.12,-82.8"/>
<text xml:space="preserve" text-anchor="middle" x="891.12" y="-60.12" font-family="monospace" font-size="14.00">R1\n470Ω</text>
</g>
<!-- R1&#45;&gt;net_4 -->
<g id="edge27" class="edge">
<title>R1&#45;&gt;net_4</title>
<path fill="none" stroke="black" d="M853.38,-46.42C829.02,-33.62 800.25,-17.24 790.23,-10.05"/>
<text xml:space="preserve" text-anchor="middle" x="848.13" y="-49.12" font-family="monospace" font-size="9.00">t1</text>
</g>
<!-- R1&#45;&gt;net_4 -->
<g id="edge28" class="edge">
<title>R1&#45;&gt;net_4</title>
<path fill="none" stroke="black" d="M865.9,-46.42C841.37,-32.17 806.22,-13.48 792.4,-7.98"/>
<text xml:space="preserve" text-anchor="middle" x="860.65" y="-49.12" font-family="monospace" font-size="9.00">t2</text>
</g>
<!-- R2 -->
<g id="node10" class="node">
<title>R2</title>
<polygon fill="none" stroke="black" points="1156.12,-82.8 1074.12,-82.8 1074.12,-46.8 1156.12,-46.8 1156.12,-82.8"/>
<text xml:space="preserve" text-anchor="middle" x="1115.12" y="-60.12" font-family="monospace" font-size="14.00">R2\n330Ω</text>
</g>
<!-- R2&#45;&gt;net_3 -->
<g id="edge29" class="edge">
<title>R2&#45;&gt;net_3</title>
<path fill="none" stroke="black" d="M1108.88,-46.58C1107.68,-33.63 1108.62,-16.96 1111.7,-9.85"/>
<text xml:space="preserve" text-anchor="middle" x="1103.63" y="-49.28" font-family="monospace" font-size="9.00">t1</text>
</g>
<!-- R2&#45;&gt;net_3 -->
<g id="edge30" class="edge">
<title>R2&#45;&gt;net_3</title>
<path fill="none" stroke="black" d="M1121.37,-46.58C1122.57,-33.63 1121.63,-16.96 1118.55,-9.85"/>
<text xml:space="preserve" text-anchor="middle" x="1116.12" y="-49.28" font-family="monospace" font-size="9.00">t2</text>
</g>
<!-- R3 -->
<g id="node11" class="node">
<title>R3</title>
<polygon fill="none" stroke="black" points="1380.12,-82.8 1298.12,-82.8 1298.12,-46.8 1380.12,-46.8 1380.12,-82.8"/>
<text xml:space="preserve" text-anchor="middle" x="1339.12" y="-60.12" font-family="monospace" font-size="14.00">R3\n330Ω</text>
</g>
<!-- R3&#45;&gt;net_2 -->
<g id="edge31" class="edge">
<title>R3&#45;&gt;net_2</title>
<path fill="none" stroke="black" d="M1332.88,-46.58C1331.68,-33.63 1332.62,-16.96 1335.7,-9.85"/>
<text xml:space="preserve" text-anchor="middle" x="1327.63" y="-49.28" font-family="monospace" font-size="9.00">t1</text>
</g>
<!-- R3&#45;&gt;net_2 -->
<g id="edge32" class="edge">
<title>R3&#45;&gt;net_2</title>
<path fill="none" stroke="black" d="M1345.37,-46.58C1346.57,-33.63 1345.63,-16.96 1342.55,-9.85"/>
<text xml:space="preserve" text-anchor="middle" x="1340.12" y="-49.28" font-family="monospace" font-size="9.00">t2</text>
</g>
<!-- R4 -->
<g id="node12" class="node">
<title>R4</title>
<polygon fill="none" stroke="black" points="2262.12,-82.8 2180.12,-82.8 2180.12,-46.8 2262.12,-46.8 2262.12,-82.8"/>
<text xml:space="preserve" text-anchor="middle" x="2221.12" y="-60.12" font-family="monospace" font-size="14.00">R4\n330Ω</text>
</g>
<!-- R4&#45;&gt;net_0 -->
<g id="edge33" class="edge">
<title>R4&#45;&gt;net_0</title>
<path fill="none" stroke="black" d="M2179.78,-52.57C2173.82,-50.61 2167.8,-48.62 2162.12,-46.8 2115.39,-31.81 2058.98,-15.32 2041.68,-9.03"/>
<text xml:space="preserve" text-anchor="middle" x="2174.53" y="-55.27" font-family="monospace" font-size="9.00">t1</text>
</g>
<!-- R4&#45;&gt;net_0 -->
<g id="edge34" class="edge">
<title>R4&#45;&gt;net_0</title>
<path fill="none" stroke="black" d="M2179.78,-46.69C2127.3,-29.87 2062.79,-11.2 2042.58,-7.19"/>
<text xml:space="preserve" text-anchor="middle" x="2174.53" y="-49.39" font-family="monospace" font-size="9.00">t2</text>
</g>
<!-- R5 -->
<g id="node13" class="node">
<title>R5</title>
<polygon fill="none" stroke="black" points="2378.38,-82.8 2279.88,-82.8 2279.88,-46.8 2378.38,-46.8 2378.38,-82.8"/>
<text xml:space="preserve" text-anchor="middle" x="2329.12" y="-60.12" font-family="monospace" font-size="14.00">R5\n10000Ω</text>
</g>
<!-- R6 -->
<g id="node14" class="node">
<title>R6</title>
<polygon fill="none" stroke="black" points="2495.38,-82.8 2396.88,-82.8 2396.88,-46.8 2495.38,-46.8 2495.38,-82.8"/>
<text xml:space="preserve" text-anchor="middle" x="2446.12" y="-60.12" font-family="monospace" font-size="14.00">R6\n10000Ω</text>
</g>
<!-- R7 -->
<g id="node15" class="node">
<title>R7</title>
<polygon fill="none" stroke="black" points="2612.38,-82.8 2513.88,-82.8 2513.88,-46.8 2612.38,-46.8 2612.38,-82.8"/>
<text xml:space="preserve" text-anchor="middle" x="2563.12" y="-60.12" font-family="monospace" font-size="14.00">R7\n10000Ω</text>
</g>
<!-- C1 -->
<g id="node16" class="node">
<title>C1</title>
<polygon fill="none" stroke="black" points="2729.38,-82.8 2630.88,-82.8 2630.88,-46.8 2729.38,-46.8 2729.38,-82.8"/>
<text xml:space="preserve" text-anchor="middle" x="2680.12" y="-60.12" font-family="monospace" font-size="14.00">C1\n1e&#45;08F</text>
</g>
<!-- C2 -->
<g id="node17" class="node">
<title>C2</title>
<polygon fill="none" stroke="black" points="2846.38,-82.8 2747.88,-82.8 2747.88,-46.8 2846.38,-46.8 2846.38,-82.8"/>
<text xml:space="preserve" text-anchor="middle" x="2797.12" y="-60.12" font-family="monospace" font-size="14.00">C2\n1e&#45;07F</text>
</g>
<!-- D7 -->
<g id="node18" class="node">
<title>D7</title>
<polygon fill="none" stroke="black" points="1056.5,-82.8 949.75,-82.8 949.75,-46.8 1056.5,-46.8 1056.5,-82.8"/>
<text xml:space="preserve" text-anchor="middle" x="1003.12" y="-60.12" font-family="monospace" font-size="14.00">D7\nred LED</text>
</g>
<!-- gnd -->
<g id="node25" class="node">
<title>gnd</title>
<ellipse fill="none" stroke="black" cx="1580.12" cy="-5.4" rx="5.4" ry="5.4"/>
</g>
<!-- D7&#45;&gt;gnd -->
<g id="edge22" class="edge">
<title>D7&#45;&gt;gnd</title>
<path fill="none" stroke="black" d="M1056.75,-48.43C1059.57,-47.83 1062.38,-47.28 1065.12,-46.8 1272.74,-10.53 1533.16,-6.81 1574.49,-6.44"/>
<text xml:space="preserve" text-anchor="middle" x="1038.38" y="-51.13" font-family="monospace" font-size="9.00">cathode</text>
</g>
<!-- D7&#45;&gt;net_4 -->
<g id="edge21" class="edge">
<title>D7&#45;&gt;net_4</title>
<path fill="none" stroke="black" d="M949.37,-49.02C946.58,-48.27 943.82,-47.52 941.12,-46.8 882.93,-31.19 812.17,-12.87 792.45,-7.77"/>
<text xml:space="preserve" text-anchor="middle" x="936.24" y="-51.72" font-family="monospace" font-size="9.00">anode</text>
</g>
<!-- D8 -->
<g id="node19" class="node">
<title>D8</title>
<polygon fill="none" stroke="black" points="1504.5,-82.8 1397.75,-82.8 1397.75,-46.8 1504.5,-46.8 1504.5,-82.8"/>
<text xml:space="preserve" text-anchor="middle" x="1451.12" y="-60.12" font-family="monospace" font-size="14.00">D8\nred LED</text>
</g>
<!-- D8&#45;&gt;gnd -->
<g id="edge24" class="edge">
<title>D8&#45;&gt;gnd</title>
<path fill="none" stroke="black" d="M1490.18,-46.42C1521.32,-32.56 1561.9,-14.51 1575.47,-8.47"/>
<text xml:space="preserve" text-anchor="middle" x="1471.8" y="-49.12" font-family="monospace" font-size="9.00">cathode</text>
</g>
<!-- D8&#45;&gt;net_3 -->
<g id="edge23" class="edge">
<title>D8&#45;&gt;net_3</title>
<path fill="none" stroke="black" d="M1397.45,-48.66C1394.64,-48 1391.86,-47.37 1389.12,-46.8 1282.31,-24.37 1149.49,-9.95 1120.76,-6.97"/>
<text xml:space="preserve" text-anchor="middle" x="1384.33" y="-51.36" font-family="monospace" font-size="9.00">anode</text>
</g>
<!-- D9 -->
<g id="node20" class="node">
<title>D9</title>
<polygon fill="none" stroke="black" points="1280.5,-82.8 1173.75,-82.8 1173.75,-46.8 1280.5,-46.8 1280.5,-82.8"/>
<text xml:space="preserve" text-anchor="middle" x="1227.12" y="-60.12" font-family="monospace" font-size="14.00">D9\nred LED</text>
</g>
<!-- D9&#45;&gt;gnd -->
<g id="edge26" class="edge">
<title>D9&#45;&gt;gnd</title>
<path fill="none" stroke="black" d="M1280.79,-48.63C1283.6,-47.98 1286.39,-47.36 1289.12,-46.8 1403.03,-23.38 1544.87,-9.63 1574.53,-6.9"/>
<text xml:space="preserve" text-anchor="middle" x="1262.42" y="-51.33" font-family="monospace" font-size="9.00">cathode</text>
</g>
<!-- D9&#45;&gt;net_3 -->
<g id="edge25" class="edge">
<title>D9&#45;&gt;net_3</title>
<path fill="none" stroke="black" d="M1193.22,-46.42C1166.69,-32.83 1132.29,-15.2 1119.86,-8.83"/>
<text xml:space="preserve" text-anchor="middle" x="1180.09" y="-49.12" font-family="monospace" font-size="9.00">anode</text>
</g>
<!-- D10 -->
<g id="node21" class="node">
<title>D10</title>
<polygon fill="none" stroke="black" points="1770.62,-82.8 1655.62,-82.8 1655.62,-46.8 1770.62,-46.8 1770.62,-82.8"/>
<text xml:space="preserve" text-anchor="middle" x="1713.12" y="-60.12" font-family="monospace" font-size="14.00">D10\nred LED</text>
</g>
<!-- D10&#45;&gt;gnd -->
<g id="edge4" class="edge">
<title>D10&#45;&gt;gnd</title>
<path fill="none" stroke="black" d="M1672.86,-46.42C1640.75,-32.56 1598.92,-14.51 1584.92,-8.47"/>
<text xml:space="preserve" text-anchor="middle" x="1654.48" y="-37.87" font-family="monospace" font-size="9.00">cathode</text>
</g>
<!-- D10&#45;&gt;net_2 -->
<g id="edge3" class="edge">
<title>D10&#45;&gt;net_2</title>
<path fill="none" stroke="black" d="M1655.48,-48.71C1652.32,-48.03 1649.19,-47.39 1646.12,-46.8 1525.23,-23.59 1374.97,-9.58 1344.62,-6.88"/>
<text xml:space="preserve" text-anchor="middle" x="1642.35" y="-51.41" font-family="monospace" font-size="9.00">anode</text>
</g>
<!-- D11 -->
<g id="node22" class="node">
<title>D11</title>
<polygon fill="none" stroke="black" points="1637.62,-82.8 1522.62,-82.8 1522.62,-46.8 1637.62,-46.8 1637.62,-82.8"/>
<text xml:space="preserve" text-anchor="middle" x="1580.12" y="-60.12" font-family="monospace" font-size="14.00">D11\nred LED</text>
</g>
<!-- D11&#45;&gt;gnd -->
<g id="edge6" class="edge">
<title>D11&#45;&gt;gnd</title>
<path fill="none" stroke="black" d="M1580.12,-46.58C1580.12,-34.43 1580.12,-18.99 1580.12,-11.26"/>
<text xml:space="preserve" text-anchor="middle" x="1561.75" y="-49.28" font-family="monospace" font-size="9.00">cathode</text>
</g>
<!-- D11&#45;&gt;net_2 -->
<g id="edge5" class="edge">
<title>D11&#45;&gt;net_2</title>
<path fill="none" stroke="black" d="M1522.4,-49.07C1519.26,-48.3 1516.16,-47.54 1513.12,-46.8 1446.83,-30.69 1365.98,-12.43 1344.55,-7.62"/>
<text xml:space="preserve" text-anchor="middle" x="1509.28" y="-51.77" font-family="monospace" font-size="9.00">anode</text>
</g>
<!-- D12 -->
<g id="node23" class="node">
<title>D12</title>
<polygon fill="none" stroke="black" points="2161.62,-82.8 2046.62,-82.8 2046.62,-46.8 2161.62,-46.8 2161.62,-82.8"/>
<text xml:space="preserve" text-anchor="middle" x="2104.12" y="-60.12" font-family="monospace" font-size="14.00">D12\nred LED</text>
</g>
<!-- D12&#45;&gt;gnd -->
<g id="edge8" class="edge">
<title>D12&#45;&gt;gnd</title>
<path fill="none" stroke="black" d="M2046.29,-48.33C2043.54,-47.78 2040.81,-47.26 2038.12,-46.8 1854.43,-15.26 1624.8,-7.65 1585.86,-6.55"/>
<text xml:space="preserve" text-anchor="middle" x="2027.92" y="-51.03" font-family="monospace" font-size="9.00">cathode</text>
</g>
<!-- D12&#45;&gt;net_0 -->
<g id="edge7" class="edge">
<title>D12&#45;&gt;net_0</title>
<path fill="none" stroke="black" d="M2084.02,-46.58C2068.6,-33.37 2048.65,-16.28 2040.66,-9.43"/>
<text xml:space="preserve" text-anchor="middle" x="2070.9" y="-49.28" font-family="monospace" font-size="9.00">anode</text>
</g>
<!-- D13 -->
<g id="node24" class="node">
<title>D13</title>
<polygon fill="none" stroke="black" points="2028.62,-82.8 1913.62,-82.8 1913.62,-46.8 2028.62,-46.8 2028.62,-82.8"/>
<text xml:space="preserve" text-anchor="middle" x="1971.12" y="-60.12" font-family="monospace" font-size="14.00">D13\nred LED</text>
</g>
<!-- D13&#45;&gt;gnd -->
<g id="edge10" class="edge">
<title>D13&#45;&gt;gnd</title>
<path fill="none" stroke="black" d="M1913.48,-48.69C1910.33,-48.01 1907.19,-47.38 1904.12,-46.8 1776,-22.65 1616.57,-9.29 1585.51,-6.82"/>
<text xml:space="preserve" text-anchor="middle" x="1895.11" y="-51.39" font-family="monospace" font-size="9.00">cathode</text>
</g>
<!-- D13&#45;&gt;net_0 -->
<g id="edge9" class="edge">
<title>D13&#45;&gt;net_0</title>
<path fill="none" stroke="black" d="M1990.93,-46.58C2006.12,-33.37 2025.77,-16.28 2033.64,-9.43"/>
<text xml:space="preserve" text-anchor="middle" x="1977.8" y="-49.28" font-family="monospace" font-size="9.00">anode</text>
</g>
</g>
</svg>
