<?xml version="1.0" encoding="UTF-8" standalone="no"?>
<!DOCTYPE svg PUBLIC "-//W3C//DTD SVG 1.1//EN"
 "http://www.w3.org/Graphics/SVG/1.1/DTD/svg11.dtd">
<!-- Generated by graphviz version 14.1.5 (20260411.2331)
 -->
<!-- Title: CrystalSet Pages: 1 -->
<svg width="945pt" height="91pt"
 viewBox="0.00 0.00 945.00 91.00" xmlns="http://www.w3.org/2000/svg" xmlns:xlink="http://www.w3.org/1999/xlink">
<g id="graph0" class="graph" transform="scale(1 1) rotate(0) translate(4 86.8)">
<title>CrystalSet</title>
<polygon fill="white" stroke="none" points="-4,4 -4,-86.8 940.75,-86.8 940.75,4 -4,4"/>
<!-- A1 -->
<g id="node1" class="node">
<title>A1</title>
<polygon fill="none" stroke="black" points="106.75,-82.8 0,-82.8 0,-46.8 106.75,-46.8 106.75,-82.8"/>
<text xml:space="preserve" text-anchor="middle" x="53.38" y="-60.12" font-family="monospace" font-size="14.00">A1\nAntenna</text>
</g>
<!-- net_2 -->
<g id="node10" class="node">
<title>net_2</title>
<ellipse fill="none" stroke="black" cx="285.38" cy="-5.4" rx="5.4" ry="5.4"/>
</g>
<!-- A1&#45;&gt;net_2 -->
<g id="edge1" class="edge">
<title>A1&#45;&gt;net_2</title>
<path fill="none" stroke="black" d="M107.11,-48.94C109.91,-48.21 112.67,-47.49 115.38,-46.8 180.03,-30.26 259.11,-12.31 280.07,-7.59"/>
<text xml:space="preserve" text-anchor="middle" x="114.99" y="-51.64" font-family="monospace" font-size="9.00">out</text>
</g>
<!-- A2 -->
<g id="node2" class="node">
<title>A2</title>
<polygon fill="none" stroke="black" points="562.5,-82.8 472.25,-82.8 472.25,-46.8 562.5,-46.8 562.5,-82.8"/>
<text xml:space="preserve" text-anchor="middle" x="517.38" y="-60.12" font-family="monospace" font-size="14.00">A2\nEarth</text>
</g>
<!-- net_1 -->
<g id="node9" class="node">
<title>net_1</title>
<ellipse fill="none" stroke="black" cx="517.38" cy="-5.4" rx="5.4" ry="5.4"/>
</g>
<!-- A2&#45;&gt;net_1 -->
<g id="edge2" class="edge">
<title>A2&#45;&gt;net_1</title>
<path fill="none" stroke="black" d="M517.38,-46.58C517.38,-34.43 517.38,-18.99 517.38,-11.26"/>
<text xml:space="preserve" text-anchor="middle" x="509.5" y="-38.03" font-family="monospace" font-size="9.00">out</text>
</g>
<!-- L1 -->
<g id="node3" class="node">
<title>L1</title>
<polygon fill="none" stroke="black" points="454.62,-82.8 290.12,-82.8 290.12,-46.8 454.62,-46.8 454.62,-82.8"/>
<text xml:space="preserve" text-anchor="middle" x="372.38" y="-60.12" font-family="monospace" font-size="14.00">L1\n0.0004H aerial</text>
</g>
<!-- L1&#45;&gt;net_1 -->
<g id="edge8" class="edge">
<title>L1&#45;&gt;net_1</title>
<path fill="none" stroke="black" d="M416.27,-46.42C451.62,-32.43 497.76,-14.17 512.57,-8.3"/>
<text xml:space="preserve" text-anchor="middle" x="411.02" y="-37.87" font-family="monospace" font-size="9.00">t2</text>
</g>
<!-- L1&#45;&gt;net_2 -->
<g id="edge7" class="edge">
<title>L1&#45;&gt;net_2</title>
<path fill="none" stroke="black" d="M346.27,-46.58C326.05,-33.24 299.83,-15.93 289.66,-9.23"/>
<text xml:space="preserve" text-anchor="middle" x="341.02" y="-38.03" font-family="monospace" font-size="9.00">t1</text>
</g>
<!-- C1 -->
<g id="node4" class="node">
<title>C1</title>
<polygon fill="none" stroke="black" points="272.38,-82.8 124.38,-82.8 124.38,-46.8 272.38,-46.8 272.38,-82.8"/>
<text xml:space="preserve" text-anchor="middle" x="198.38" y="-60.12" font-family="monospace" font-size="14.00">C1\n1e&#45;11–3e&#45;10F</text>
</g>
<!-- C1&#45;&gt;net_1 -->
<g id="edge4" class="edge">
<title>C1&#45;&gt;net_1</title>
<path fill="none" stroke="black" d="M272.56,-48.48C275.54,-47.91 278.48,-47.34 281.38,-46.8 373.29,-29.52 485.94,-11.41 511.87,-7.27"/>
<text xml:space="preserve" text-anchor="middle" x="277.81" y="-51.18" font-family="monospace" font-size="9.00">t2</text>
</g>
<!-- C1&#45;&gt;net_2 -->
<g id="edge3" class="edge">
<title>C1&#45;&gt;net_2</title>
<path fill="none" stroke="black" d="M224.48,-46.58C244.7,-33.24 270.92,-15.93 281.09,-9.23"/>
<text xml:space="preserve" text-anchor="middle" x="219.23" y="-38.03" font-family="monospace" font-size="9.00">t1</text>
</g>
<!-- D1 -->
<g id="node5" class="node">
<title>D1</title>
<polygon fill="none" stroke="black" points="678.62,-82.8 580.12,-82.8 580.12,-46.8 678.62,-46.8 678.62,-82.8"/>
<text xml:space="preserve" text-anchor="middle" x="629.38" y="-60.12" font-family="monospace" font-size="14.00">D1\nD_OA90</text>
</g>
<!-- net_0 -->
<g id="node8" class="node">
<title>net_0</title>
<ellipse fill="none" stroke="black" cx="754.38" cy="-5.4" rx="5.4" ry="5.4"/>
</g>
<!-- D1&#45;&gt;net_0 -->
<g id="edge6" class="edge">
<title>D1&#45;&gt;net_0</title>
<path fill="none" stroke="black" d="M667.22,-46.42C697.11,-32.7 735.97,-14.85 749.48,-8.65"/>
<text xml:space="preserve" text-anchor="middle" x="648.84" y="-37.87" font-family="monospace" font-size="9.00">cathode</text>
</g>
<!-- D1&#45;&gt;net_2 -->
<g id="edge5" class="edge">
<title>D1&#45;&gt;net_2</title>
<path fill="none" stroke="black" d="M579.82,-48.76C576.97,-48.06 574.14,-47.4 571.38,-46.8 459.62,-22.66 320.07,-9.47 290.88,-6.88"/>
<text xml:space="preserve" text-anchor="middle" x="566.7" y="-40.21" font-family="monospace" font-size="9.00">anode</text>
</g>
<!-- R1 -->
<g id="node6" class="node">
<title>R1</title>
<polygon fill="none" stroke="black" points="936.75,-82.8 830,-82.8 830,-46.8 936.75,-46.8 936.75,-82.8"/>
<text xml:space="preserve" text-anchor="middle" x="883.38" y="-60.12" font-family="monospace" font-size="14.00">R1\n100000Ω</text>
</g>
<!-- R1&#45;&gt;net_0 -->
<g id="edge11" class="edge">
<title>R1&#45;&gt;net_0</title>
<path fill="none" stroke="black" d="M844.32,-46.42C813.18,-32.56 772.6,-14.51 759.03,-8.47"/>
<text xml:space="preserve" text-anchor="middle" x="839.07" y="-37.87" font-family="monospace" font-size="9.00">t1</text>
</g>
<!-- R1&#45;&gt;net_1 -->
<g id="edge12" class="edge">
<title>R1&#45;&gt;net_1</title>
<path fill="none" stroke="black" d="M829.71,-48.61C826.9,-47.96 824.11,-47.35 821.38,-46.8 701.88,-22.59 552.91,-9.37 522.82,-6.85"/>
<text xml:space="preserve" text-anchor="middle" x="824.46" y="-51.31" font-family="monospace" font-size="9.00">t2</text>
</g>
<!-- LS1 -->
<g id="node7" class="node">
<title>LS1</title>
<polygon fill="none" stroke="black" points="811.88,-82.8 696.88,-82.8 696.88,-46.8 811.88,-46.8 811.88,-82.8"/>
<text xml:space="preserve" text-anchor="middle" x="754.38" y="-60.12" font-family="monospace" font-size="14.00">LS1\ncrystal</text>
</g>
<!-- LS1&#45;&gt;net_0 -->
<g id="edge9" class="edge">
<title>LS1&#45;&gt;net_0</title>
<path fill="none" stroke="black" d="M754.38,-46.58C754.38,-34.43 754.38,-18.99 754.38,-11.26"/>
<text xml:space="preserve" text-anchor="middle" x="749.12" y="-38.03" font-family="monospace" font-size="9.00">t1</text>
</g>
<!-- LS1&#45;&gt;net_1 -->
<g id="edge10" class="edge">
<title>LS1&#45;&gt;net_1</title>
<path fill="none" stroke="black" d="M696.65,-49.09C693.51,-48.31 690.41,-47.54 687.38,-46.8 622.56,-30.88 543.6,-12.49 522.67,-7.63"/>
<text xml:space="preserve" text-anchor="middle" x="691.4" y="-51.79" font-family="monospace" font-size="9.00">t2</text>
</g>
</g>
</svg>
