<?xml version="1.0" encoding="UTF-8" standalone="no"?>
<!DOCTYPE svg PUBLIC "-//W3C//DTD SVG 1.1//EN"
 "http://www.w3.org/Graphics/SVG/1.1/DTD/svg11.dtd">
<!-- Generated by graphviz version 14.1.5 (20260411.2331)
 -->
<!-- Title: BackupPower Pages: 1 -->
<svg width="2857pt" height="91pt"
 viewBox="0.00 0.00 2857.00 91.00" xmlns="http://www.w3.org/2000/svg" xmlns:xlink="http://www.w3.org/1999/xlink">
<g id="graph0" class="graph" transform="scale(1 1) rotate(0) translate(4 86.8)">
<title>BackupPower</title>
<polygon fill="white" stroke="none" points="-4,4 -4,-86.8 2852.75,-86.8 2852.75,4 -4,4"/>
<!-- U1 -->
<g id="node1" class="node">
<title>U1</title>
<polygon fill="none" stroke="black" points="106.75,-82.8 0,-82.8 0,-46.8 106.75,-46.8 106.75,-82.8"/>
<text xml:space="preserve" text-anchor="middle" x="53.38" y="-60.12" font-family="monospace" font-size="14.00">U1\nTPS2660</text>
</g>
<!-- U2 -->
<g id="node2" class="node">
<title>U2</title>
<polygon fill="none" stroke="black" points="223.62,-82.8 125.12,-82.8 125.12,-46.8 223.62,-46.8 223.62,-82.8"/>
<text xml:space="preserve" text-anchor="middle" x="174.38" y="-60.12" font-family="monospace" font-size="14.00">U2\nLM5002</text>
</g>
<!-- U3 -->
<g id="node3" class="node">
<title>U3</title>
<polygon fill="none" stroke="black" points="340.62,-82.8 242.12,-82.8 242.12,-46.8 340.62,-46.8 340.62,-82.8"/>
<text xml:space="preserve" text-anchor="middle" x="291.38" y="-60.12" font-family="monospace" font-size="14.00">U3\nLM5160</text>
</g>
<!-- L1 -->
<g id="node4" class="node">
<title>L1</title>
<polygon fill="none" stroke="black" points="473.88,-82.8 358.88,-82.8 358.88,-46.8 473.88,-46.8 473.88,-82.8"/>
<text xml:space="preserve" text-anchor="middle" x="416.38" y="-60.12" font-family="monospace" font-size="14.00">L1\n3.3e&#45;05H</text>
</g>
<!-- vcc -->
<g id="node24" class="node">
<title>vcc</title>
<ellipse fill="none" stroke="black" cx="1591.38" cy="-5.4" rx="5.4" ry="5.4"/>
</g>
<!-- L1&#45;&gt;vcc -->
<g id="edge31" class="edge">
<title>L1&#45;&gt;vcc</title>
<path fill="none" stroke="black" d="M474.73,-46.75C708.61,-13.31 1509.33,-6.92 1585.6,-6.43"/>
<text xml:space="preserve" text-anchor="middle" x="469.48" y="-38.2" font-family="monospace" font-size="9.00">t1</text>
</g>
<!-- L1&#45;&gt;vcc -->
<g id="edge32" class="edge">
<title>L1&#45;&gt;vcc</title>
<path fill="none" stroke="black" d="M474.1,-50.15C480.26,-48.82 486.44,-47.65 492.38,-46.8 723.4,-13.66 1510.96,-7.05 1585.73,-6.45"/>
<text xml:space="preserve" text-anchor="middle" x="479.35" y="-52.85" font-family="monospace" font-size="9.00">t2</text>
</g>
<!-- D1 -->
<g id="node5" class="node">
<title>D1</title>
<polygon fill="none" stroke="black" points="598.75,-82.8 492,-82.8 492,-46.8 598.75,-46.8 598.75,-82.8"/>
<text xml:space="preserve" text-anchor="middle" x="545.38" y="-60.12" font-family="monospace" font-size="14.00">D1\nD1N5817</text>
</g>
<!-- D1&#45;&gt;vcc -->
<g id="edge29" class="edge">
<title>D1&#45;&gt;vcc</title>
<path fill="none" stroke="black" d="M599.01,-46.7C806.37,-14.65 1514.65,-7.06 1585.7,-6.44"/>
<text xml:space="preserve" text-anchor="middle" x="585.89" y="-38.15" font-family="monospace" font-size="9.00">anode</text>
</g>
<!-- D1&#45;&gt;vcc -->
<g id="edge30" class="edge">
<title>D1&#45;&gt;vcc</title>
<path fill="none" stroke="black" d="M599.08,-50.24C604.91,-48.88 610.75,-47.67 616.38,-46.8 820.38,-15.07 1515.17,-7.25 1585.67,-6.47"/>
<text xml:space="preserve" text-anchor="middle" x="617.46" y="-41.69" font-family="monospace" font-size="9.00">cathode</text>
</g>
<!-- C10 -->
<g id="node6" class="node">
<title>C10</title>
<polygon fill="none" stroke="black" points="731.88,-82.8 616.88,-82.8 616.88,-46.8 731.88,-46.8 731.88,-82.8"/>
<text xml:space="preserve" text-anchor="middle" x="674.38" y="-60.12" font-family="monospace" font-size="14.00">C10\n0.0012F</text>
</g>
<!-- C10&#45;&gt;vcc -->
<g id="edge3" class="edge">
<title>C10&#45;&gt;vcc</title>
<path fill="none" stroke="black" d="M732.65,-46.76C911.27,-20.21 1521.33,-7.61 1585.92,-6.48"/>
<text xml:space="preserve" text-anchor="middle" x="727.4" y="-38.21" font-family="monospace" font-size="9.00">t1</text>
</g>
<!-- C10&#45;&gt;vcc -->
<g id="edge4" class="edge">
<title>C10&#45;&gt;vcc</title>
<path fill="none" stroke="black" d="M732.11,-50.21C738.27,-48.87 744.44,-47.68 750.38,-46.8 926.09,-20.6 1521.84,-7.97 1585.87,-6.54"/>
<text xml:space="preserve" text-anchor="middle" x="737.36" y="-52.91" font-family="monospace" font-size="9.00">t2</text>
</g>
<!-- C1 -->
<g id="node7" class="node">
<title>C1</title>
<polygon fill="none" stroke="black" points="848.62,-82.8 750.12,-82.8 750.12,-46.8 848.62,-46.8 848.62,-82.8"/>
<text xml:space="preserve" text-anchor="middle" x="799.38" y="-60.12" font-family="monospace" font-size="14.00">C1\n1e&#45;08F</text>
</g>
<!-- C1&#45;&gt;vcc -->
<g id="edge1" class="edge">
<title>C1&#45;&gt;vcc</title>
<path fill="none" stroke="black" d="M849.06,-46.85C849.16,-46.84 849.27,-46.82 849.38,-46.8 1002.05,-20.94 1525.33,-7.77 1585.77,-6.5"/>
<text xml:space="preserve" text-anchor="middle" x="843.81" y="-38.3" font-family="monospace" font-size="9.00">t1</text>
</g>
<!-- C1&#45;&gt;vcc -->
<g id="edge2" class="edge">
<title>C1&#45;&gt;vcc</title>
<path fill="none" stroke="black" d="M848.94,-50.79C855.14,-49.22 861.38,-47.81 867.38,-46.8 1017.54,-21.36 1526.2,-8.21 1585.77,-6.57"/>
<text xml:space="preserve" text-anchor="middle" x="854.19" y="-53.49" font-family="monospace" font-size="9.00">t2</text>
</g>
<!-- C2 -->
<g id="node8" class="node">
<title>C2</title>
<polygon fill="none" stroke="black" points="965.62,-82.8 867.12,-82.8 867.12,-46.8 965.62,-46.8 965.62,-82.8"/>
<text xml:space="preserve" text-anchor="middle" x="916.38" y="-60.12" font-family="monospace" font-size="14.00">C2\n1e&#45;06F</text>
</g>
<!-- C2&#45;&gt;vcc -->
<g id="edge13" class="edge">
<title>C2&#45;&gt;vcc</title>
<path fill="none" stroke="black" d="M966.06,-46.86C966.16,-46.84 966.27,-46.82 966.38,-46.8 1219.75,-2.52 1539.45,-5.76 1585.84,-6.33"/>
<text xml:space="preserve" text-anchor="middle" x="960.81" y="-38.31" font-family="monospace" font-size="9.00">t1</text>
</g>
<!-- C2&#45;&gt;vcc -->
<g id="edge14" class="edge">
<title>C2&#45;&gt;vcc</title>
<path fill="none" stroke="black" d="M965.95,-50.85C972.14,-49.27 978.39,-47.85 984.38,-46.8 1230.89,-3.72 1540.19,-5.62 1585.82,-6.28"/>
<text xml:space="preserve" text-anchor="middle" x="971.2" y="-53.55" font-family="monospace" font-size="9.00">t2</text>
</g>
<!-- C3 -->
<g id="node9" class="node">
<title>C3</title>
<polygon fill="none" stroke="black" points="1082.62,-82.8 984.12,-82.8 984.12,-46.8 1082.62,-46.8 1082.62,-82.8"/>
<text xml:space="preserve" text-anchor="middle" x="1033.38" y="-60.12" font-family="monospace" font-size="14.00">C3\n1e&#45;06F</text>
</g>
<!-- C3&#45;&gt;vcc -->
<g id="edge15" class="edge">
<title>C3&#45;&gt;vcc</title>
<path fill="none" stroke="black" d="M1083.02,-46.68C1286.74,-9.1 1543.28,-6.58 1585.57,-6.41"/>
<text xml:space="preserve" text-anchor="middle" x="1077.77" y="-38.13" font-family="monospace" font-size="9.00">t1</text>
</g>
<!-- C3&#45;&gt;vcc -->
<g id="edge16" class="edge">
<title>C3&#45;&gt;vcc</title>
<path fill="none" stroke="black" d="M1082.91,-50.76C1088.79,-49.23 1094.7,-47.85 1100.38,-46.8 1297.77,-10.29 1545.05,-6.78 1585.79,-6.44"/>
<text xml:space="preserve" text-anchor="middle" x="1088.16" y="-53.46" font-family="monospace" font-size="9.00">t2</text>
</g>
<!-- C4 -->
<g id="node10" class="node">
<title>C4</title>
<polygon fill="none" stroke="black" points="1215.88,-82.8 1100.88,-82.8 1100.88,-46.8 1215.88,-46.8 1215.88,-82.8"/>
<text xml:space="preserve" text-anchor="middle" x="1158.38" y="-60.12" font-family="monospace" font-size="14.00">C4\n3.3e&#45;09F</text>
</g>
<!-- C4&#45;&gt;vcc -->
<g id="edge17" class="edge">
<title>C4&#45;&gt;vcc</title>
<path fill="none" stroke="black" d="M1216.32,-46.63C1365,-19.54 1550.66,-8.21 1585.8,-6.6"/>
<text xml:space="preserve" text-anchor="middle" x="1211.07" y="-38.08" font-family="monospace" font-size="9.00">t1</text>
</g>
<!-- C4&#45;&gt;vcc -->
<g id="edge18" class="edge">
<title>C4&#45;&gt;vcc</title>
<path fill="none" stroke="black" d="M1216.16,-50.39C1221.98,-49.06 1227.79,-47.82 1233.38,-46.8 1375.88,-20.74 1552.8,-9.21 1586.12,-6.86"/>
<text xml:space="preserve" text-anchor="middle" x="1221.41" y="-53.09" font-family="monospace" font-size="9.00">t2</text>
</g>
<!-- C5 -->
<g id="node11" class="node">
<title>C5</title>
<polygon fill="none" stroke="black" points="1348.88,-82.8 1233.88,-82.8 1233.88,-46.8 1348.88,-46.8 1348.88,-82.8"/>
<text xml:space="preserve" text-anchor="middle" x="1291.38" y="-60.12" font-family="monospace" font-size="14.00">C5\n2.2e&#45;08F</text>
</g>
<!-- C5&#45;&gt;vcc -->
<g id="edge19" class="edge">
<title>C5&#45;&gt;vcc</title>
<path fill="none" stroke="black" d="M1349.68,-46.74C1442.79,-26.9 1558.25,-9.89 1585.78,-6.87"/>
<text xml:space="preserve" text-anchor="middle" x="1344.43" y="-38.19" font-family="monospace" font-size="9.00">t1</text>
</g>
<!-- C5&#45;&gt;vcc -->
<g id="edge20" class="edge">
<title>C5&#45;&gt;vcc</title>
<path fill="none" stroke="black" d="M1349.24,-50.92C1355.37,-49.46 1361.51,-48.05 1367.38,-46.8 1454.1,-28.31 1560.35,-12.26 1586.03,-7.7"/>
<text xml:space="preserve" text-anchor="middle" x="1354.49" y="-53.62" font-family="monospace" font-size="9.00">t2</text>
</g>
<!-- C6 -->
<g id="node12" class="node">
<title>C6</title>
<polygon fill="none" stroke="black" points="1465.62,-82.8 1367.12,-82.8 1367.12,-46.8 1465.62,-46.8 1465.62,-82.8"/>
<text xml:space="preserve" text-anchor="middle" x="1416.38" y="-60.12" font-family="monospace" font-size="14.00">C6\n1e&#45;06F</text>
</g>
<!-- C6&#45;&gt;vcc -->
<g id="edge21" class="edge">
<title>C6&#45;&gt;vcc</title>
<path fill="none" stroke="black" d="M1463.1,-46.42C1506.62,-31.71 1567.32,-12.26 1586.02,-7.49"/>
<text xml:space="preserve" text-anchor="middle" x="1457.85" y="-37.87" font-family="monospace" font-size="9.00">t1</text>
</g>
<!-- C6&#45;&gt;vcc -->
<g id="edge22" class="edge">
<title>C6&#45;&gt;vcc</title>
<path fill="none" stroke="black" d="M1466.02,-49.46C1509.85,-35.65 1569.21,-15.85 1586.68,-8.92"/>
<text xml:space="preserve" text-anchor="middle" x="1471.27" y="-52.16" font-family="monospace" font-size="9.00">t2</text>
</g>
<!-- C7 -->
<g id="node13" class="node">
<title>C7</title>
<polygon fill="none" stroke="black" points="1582.62,-82.8 1484.12,-82.8 1484.12,-46.8 1582.62,-46.8 1582.62,-82.8"/>
<text xml:space="preserve" text-anchor="middle" x="1533.38" y="-60.12" font-family="monospace" font-size="14.00">C7\n1e&#45;07F</text>
</g>
<!-- C7&#45;&gt;vcc -->
<g id="edge23" class="edge">
<title>C7&#45;&gt;vcc</title>
<path fill="none" stroke="black" d="M1544.53,-46.58C1557.26,-32.71 1576.77,-14.56 1586.54,-8.48"/>
<text xml:space="preserve" text-anchor="middle" x="1539.28" y="-38.03" font-family="monospace" font-size="9.00">t1</text>
</g>
<!-- C7&#45;&gt;vcc -->
<g id="edge24" class="edge">
<title>C7&#45;&gt;vcc</title>
<path fill="none" stroke="black" d="M1557.02,-46.58C1570.72,-34.16 1585.92,-18.31 1590.75,-10.77"/>
<text xml:space="preserve" text-anchor="middle" x="1551.77" y="-38.03" font-family="monospace" font-size="9.00">t2</text>
</g>
<!-- C8 -->
<g id="node14" class="node">
<title>C8</title>
<polygon fill="none" stroke="black" points="1699.62,-82.8 1601.12,-82.8 1601.12,-46.8 1699.62,-46.8 1699.62,-82.8"/>
<text xml:space="preserve" text-anchor="middle" x="1650.38" y="-60.12" font-family="monospace" font-size="14.00">C8\n1e&#45;06F</text>
</g>
<!-- C8&#45;&gt;vcc -->
<g id="edge25" class="edge">
<title>C8&#45;&gt;vcc</title>
<path fill="none" stroke="black" d="M1626.43,-46.58C1612.51,-34.16 1597.04,-18.31 1592.07,-10.77"/>
<text xml:space="preserve" text-anchor="middle" x="1621.18" y="-38.03" font-family="monospace" font-size="9.00">t1</text>
</g>
<!-- C8&#45;&gt;vcc -->
<g id="edge26" class="edge">
<title>C8&#45;&gt;vcc</title>
<path fill="none" stroke="black" d="M1638.92,-46.58C1625.95,-32.71 1606.12,-14.56 1596.25,-8.48"/>
<text xml:space="preserve" text-anchor="middle" x="1633.67" y="-38.03" font-family="monospace" font-size="9.00">t2</text>
</g>
<!-- C9 -->
<g id="node15" class="node">
<title>C9</title>
<polygon fill="none" stroke="black" points="1816.62,-82.8 1718.12,-82.8 1718.12,-46.8 1816.62,-46.8 1816.62,-82.8"/>
<text xml:space="preserve" text-anchor="middle" x="1767.38" y="-60.12" font-family="monospace" font-size="14.00">C9\n1e&#45;07F</text>
</g>
<!-- C9&#45;&gt;vcc -->
<g id="edge27" class="edge">
<title>C9&#45;&gt;vcc</title>
<path fill="none" stroke="black" d="M1717.95,-49.61C1673.45,-35.67 1612.69,-15.52 1595.65,-8.73"/>
<text xml:space="preserve" text-anchor="middle" x="1712.7" y="-52.31" font-family="monospace" font-size="9.00">t1</text>
</g>
<!-- C9&#45;&gt;vcc -->
<g id="edge28" class="edge">
<title>C9&#45;&gt;vcc</title>
<path fill="none" stroke="black" d="M1720.35,-46.42C1676.57,-31.71 1615.53,-12.26 1596.75,-7.49"/>
<text xml:space="preserve" text-anchor="middle" x="1715.1" y="-37.87" font-family="monospace" font-size="9.00">t2</text>
</g>
<!-- C12 -->
<g id="node16" class="node">
<title>C12</title>
<polygon fill="none" stroke="black" points="1941.75,-82.8 1835,-82.8 1835,-46.8 1941.75,-46.8 1941.75,-82.8"/>
<text xml:space="preserve" text-anchor="middle" x="1888.38" y="-60.12" font-family="monospace" font-size="14.00">C12\n1e&#45;06F</text>
</g>
<!-- C12&#45;&gt;vcc -->
<g id="edge5" class="edge">
<title>C12&#45;&gt;vcc</title>
<path fill="none" stroke="black" d="M1834.84,-51.21C1828.61,-49.64 1822.35,-48.12 1816.38,-46.8 1729.42,-27.6 1622.61,-12.04 1596.77,-7.64"/>
<text xml:space="preserve" text-anchor="middle" x="1829.59" y="-53.91" font-family="monospace" font-size="9.00">t1</text>
</g>
<!-- C12&#45;&gt;vcc -->
<g id="edge6" class="edge">
<title>C12&#45;&gt;vcc</title>
<path fill="none" stroke="black" d="M1834.71,-46.87C1834.6,-46.85 1834.49,-46.82 1834.38,-46.8 1740.98,-26.18 1624.68,-9.75 1597,-6.86"/>
<text xml:space="preserve" text-anchor="middle" x="1829.46" y="-38.32" font-family="monospace" font-size="9.00">t2</text>
</g>
<!-- C13 -->
<g id="node17" class="node">
<title>C13</title>
<polygon fill="none" stroke="black" points="2083,-82.8 1959.75,-82.8 1959.75,-46.8 2083,-46.8 2083,-82.8"/>
<text xml:space="preserve" text-anchor="middle" x="2021.38" y="-60.12" font-family="monospace" font-size="14.00">C13\n0.00022F</text>
</g>
<!-- C13&#45;&gt;vcc -->
<g id="edge7" class="edge">
<title>C13&#45;&gt;vcc</title>
<path fill="none" stroke="black" d="M1959.46,-50.37C1953.35,-49.05 1947.24,-47.83 1941.38,-46.8 1802.38,-22.43 1630.39,-9.69 1596.89,-6.96"/>
<text xml:space="preserve" text-anchor="middle" x="1954.21" y="-53.07" font-family="monospace" font-size="9.00">t1</text>
</g>
<!-- C13&#45;&gt;vcc -->
<g id="edge8" class="edge">
<title>C13&#45;&gt;vcc</title>
<path fill="none" stroke="black" d="M1958.91,-46.72C1813.18,-21.21 1631.43,-8.47 1596.88,-6.63"/>
<text xml:space="preserve" text-anchor="middle" x="1953.66" y="-38.17" font-family="monospace" font-size="9.00">t2</text>
</g>
<!-- C14 -->
<g id="node18" class="node">
<title>C14</title>
<polygon fill="none" stroke="black" points="2207.75,-82.8 2101,-82.8 2101,-46.8 2207.75,-46.8 2207.75,-82.8"/>
<text xml:space="preserve" text-anchor="middle" x="2154.38" y="-60.12" font-family="monospace" font-size="14.00">C14\n1e&#45;06F</text>
</g>
<!-- C14&#45;&gt;vcc -->
<g id="edge9" class="edge">
<title>C14&#45;&gt;vcc</title>
<path fill="none" stroke="black" d="M2100.63,-50.45C2094.81,-49.05 2088.98,-47.79 2083.38,-46.8 1885.28,-11.97 1637.75,-7.11 1596.97,-6.49"/>
<text xml:space="preserve" text-anchor="middle" x="2095.38" y="-53.15" font-family="monospace" font-size="9.00">t1</text>
</g>
<!-- C14&#45;&gt;vcc -->
<g id="edge10" class="edge">
<title>C14&#45;&gt;vcc</title>
<path fill="none" stroke="black" d="M2100.73,-46.69C1896.27,-10.83 1639.5,-6.82 1597.18,-6.44"/>
<text xml:space="preserve" text-anchor="middle" x="2095.48" y="-38.14" font-family="monospace" font-size="9.00">t2</text>
</g>
<!-- C15 -->
<g id="node19" class="node">
<title>C15</title>
<polygon fill="none" stroke="black" points="2349,-82.8 2225.75,-82.8 2225.75,-46.8 2349,-46.8 2349,-82.8"/>
<text xml:space="preserve" text-anchor="middle" x="2287.38" y="-60.12" font-family="monospace" font-size="14.00">C15\n2.2e&#45;06F</text>
</g>
<!-- C15&#45;&gt;vcc -->
<g id="edge11" class="edge">
<title>C15&#45;&gt;vcc</title>
<path fill="none" stroke="black" d="M2225.51,-50.09C2219.39,-48.82 2213.27,-47.69 2207.38,-46.8 1956.33,-8.91 1643.28,-6.53 1597.02,-6.4"/>
<text xml:space="preserve" text-anchor="middle" x="2220.26" y="-52.79" font-family="monospace" font-size="9.00">t1</text>
</g>
<!-- C15&#45;&gt;vcc -->
<g id="edge12" class="edge">
<title>C15&#45;&gt;vcc</title>
<path fill="none" stroke="black" d="M2224.97,-46.74C1966.99,-7.86 1643.76,-6.42 1596.95,-6.4"/>
<text xml:space="preserve" text-anchor="middle" x="2219.72" y="-38.19" font-family="monospace" font-size="9.00">t2</text>
</g>
<!-- R6 -->
<g id="node20" class="node">
<title>R6</title>
<polygon fill="none" stroke="black" points="2473.75,-82.8 2367,-82.8 2367,-46.8 2473.75,-46.8 2473.75,-82.8"/>
<text xml:space="preserve" text-anchor="middle" x="2420.38" y="-60.12" font-family="monospace" font-size="14.00">R6\n715000Ω</text>
</g>
<!-- R6&#45;&gt;vcc -->
<g id="edge37" class="edge">
<title>R6&#45;&gt;vcc</title>
<path fill="none" stroke="black" d="M2366.66,-50.3C2360.84,-48.93 2354.99,-47.71 2349.38,-46.8 2191.74,-21.34 1657.74,-8.16 1596.93,-6.56"/>
<text xml:space="preserve" text-anchor="middle" x="2361.41" y="-53" font-family="monospace" font-size="9.00">t1</text>
</g>
<!-- R6&#45;&gt;vcc -->
<g id="edge38" class="edge">
<title>R6&#45;&gt;vcc</title>
<path fill="none" stroke="black" d="M2366.88,-46.72C2206.3,-20.94 1659.93,-7.77 1597.16,-6.5"/>
<text xml:space="preserve" text-anchor="middle" x="2361.63" y="-38.17" font-family="monospace" font-size="9.00">t2</text>
</g>
<!-- R7 -->
<g id="node21" class="node">
<title>R7</title>
<polygon fill="none" stroke="black" points="2598.75,-82.8 2492,-82.8 2492,-46.8 2598.75,-46.8 2598.75,-82.8"/>
<text xml:space="preserve" text-anchor="middle" x="2545.38" y="-60.12" font-family="monospace" font-size="14.00">R7\n226000Ω</text>
</g>
<!-- R7&#45;&gt;vcc -->
<g id="edge39" class="edge">
<title>R7&#45;&gt;vcc</title>
<path fill="none" stroke="black" d="M2491.63,-50.43C2485.48,-48.99 2479.31,-47.72 2473.38,-46.8 2289.01,-18.1 1662.12,-7.63 1596.8,-6.5"/>
<text xml:space="preserve" text-anchor="middle" x="2486.38" y="-53.13" font-family="monospace" font-size="9.00">t1</text>
</g>
<!-- R7&#45;&gt;vcc -->
<g id="edge40" class="edge">
<title>R7&#45;&gt;vcc</title>
<path fill="none" stroke="black" d="M2491.71,-46.85C2491.6,-46.83 2491.49,-46.82 2491.38,-46.8 2304.71,-17.74 1664.45,-7.37 1597.04,-6.47"/>
<text xml:space="preserve" text-anchor="middle" x="2486.46" y="-38.3" font-family="monospace" font-size="9.00">t2</text>
</g>
<!-- R11 -->
<g id="node22" class="node">
<title>R11</title>
<polygon fill="none" stroke="black" points="2723.75,-82.8 2617,-82.8 2617,-46.8 2723.75,-46.8 2723.75,-82.8"/>
<text xml:space="preserve" text-anchor="middle" x="2670.38" y="-60.12" font-family="monospace" font-size="14.00">R11\n40200Ω</text>
</g>
<!-- R11&#45;&gt;vcc -->
<g id="edge33" class="edge">
<title>R11&#45;&gt;vcc</title>
<path fill="none" stroke="black" d="M2616.63,-50.4C2610.49,-48.97 2604.31,-47.71 2598.38,-46.8 2387.23,-14.53 1667.37,-7.17 1596.87,-6.46"/>
<text xml:space="preserve" text-anchor="middle" x="2611.38" y="-53.1" font-family="monospace" font-size="9.00">t1</text>
</g>
<!-- R11&#45;&gt;vcc -->
<g id="edge34" class="edge">
<title>R11&#45;&gt;vcc</title>
<path fill="none" stroke="black" d="M2616.71,-46.85C2616.6,-46.83 2616.49,-46.82 2616.38,-46.8 2402.61,-14.13 1667.44,-6.99 1596.77,-6.44"/>
<text xml:space="preserve" text-anchor="middle" x="2611.46" y="-38.3" font-family="monospace" font-size="9.00">t2</text>
</g>
<!-- R16 -->
<g id="node23" class="node">
<title>R16</title>
<polygon fill="none" stroke="black" points="2848.75,-82.8 2742,-82.8 2742,-46.8 2848.75,-46.8 2848.75,-82.8"/>
<text xml:space="preserve" text-anchor="middle" x="2795.38" y="-60.12" font-family="monospace" font-size="14.00">R16\n10000Ω</text>
</g>
<!-- R16&#45;&gt;vcc -->
<g id="edge35" class="edge">
<title>R16&#45;&gt;vcc</title>
<path fill="none" stroke="black" d="M2741.64,-50.37C2735.49,-48.95 2729.31,-47.69 2723.38,-46.8 2485.23,-10.93 1671.13,-6.76 1596.76,-6.42"/>
<text xml:space="preserve" text-anchor="middle" x="2736.39" y="-53.07" font-family="monospace" font-size="9.00">t1</text>
</g>
<!-- R16&#45;&gt;vcc -->
<g id="edge36" class="edge">
<title>R16&#45;&gt;vcc</title>
<path fill="none" stroke="black" d="M2741.71,-46.85C2741.6,-46.83 2741.49,-46.82 2741.38,-46.8 2500.78,-10.57 1672.32,-6.67 1596.82,-6.42"/>
<text xml:space="preserve" text-anchor="middle" x="2736.46" y="-38.3" font-family="monospace" font-size="9.00">t2</text>
</g>
</g>
</svg>
