<?xml version="1.0" encoding="UTF-8" standalone="no"?>
<!DOCTYPE svg PUBLIC "-//W3C//DTD SVG 1.1//EN"
 "http://www.w3.org/Graphics/SVG/1.1/DTD/svg11.dtd">
<!-- Generated by graphviz version 14.1.5 (20260411.2331)
 -->
<!-- Title: BackupPower Pages: 1 -->
<svg width="2857pt" height="44pt"
 viewBox="0.00 0.00 2857.00 44.00" xmlns="http://www.w3.org/2000/svg" xmlns:xlink="http://www.w3.org/1999/xlink">
<g id="graph0" class="graph" transform="scale(1 1) rotate(0) translate(4 40)">
<title>BackupPower</title>
<polygon fill="white" stroke="none" points="-4,4 -4,-40 2852.75,-40 2852.75,4 -4,4"/>
<!-- U1 -->
<g id="node1" class="node">
<title>U1</title>
<polygon fill="none" stroke="black" points="106.75,-36 0,-36 0,0 106.75,0 106.75,-36"/>
<text xml:space="preserve" text-anchor="middle" x="53.38" y="-13.32" font-family="monospace" font-size="14.00">U1\nTPS2660</text>
</g>
<!-- U2 -->
<g id="node2" class="node">
<title>U2</title>
<polygon fill="none" stroke="black" points="223.62,-36 125.12,-36 125.12,0 223.62,0 223.62,-36"/>
<text xml:space="preserve" text-anchor="middle" x="174.38" y="-13.32" font-family="monospace" font-size="14.00">U2\nLM5002</text>
</g>
<!-- U3 -->
<g id="node3" class="node">
<title>U3</title>
<polygon fill="none" stroke="black" points="340.62,-36 242.12,-36 242.12,0 340.62,0 340.62,-36"/>
<text xml:space="preserve" text-anchor="middle" x="291.38" y="-13.32" font-family="monospace" font-size="14.00">U3\nLM5160</text>
</g>
<!-- L1 -->
<g id="node4" class="node">
<title>L1</title>
<polygon fill="none" stroke="black" points="473.88,-36 358.88,-36 358.88,0 473.88,0 473.88,-36"/>
<text xml:space="preserve" text-anchor="middle" x="416.38" y="-13.32" font-family="monospace" font-size="14.00">L1\n3.3e&#45;05H</text>
</g>
<!-- D1 -->
<g id="node5" class="node">
<title>D1</title>
<polygon fill="none" stroke="black" points="598.75,-36 492,-36 492,0 598.75,0 598.75,-36"/>
<text xml:space="preserve" text-anchor="middle" x="545.38" y="-13.32" font-family="monospace" font-size="14.00">D1\nD1N5817</text>
</g>
<!-- C10 -->
<g id="node6" class="node">
<title>C10</title>
<polygon fill="none" stroke="black" points="731.88,-36 616.88,-36 616.88,0 731.88,0 731.88,-36"/>
<text xml:space="preserve" text-anchor="middle" x="674.38" y="-13.32" font-family="monospace" font-size="14.00">C10\n0.0012F</text>
</g>
<!-- C1 -->
<g id="node7" class="node">
<title>C1</title>
<polygon fill="none" stroke="black" points="848.62,-36 750.12,-36 750.12,0 848.62,0 848.62,-36"/>
<text xml:space="preserve" text-anchor="middle" x="799.38" y="-13.32" font-family="monospace" font-size="14.00">C1\n1e&#45;08F</text>
</g>
<!-- C2 -->
<g id="node8" class="node">
<title>C2</title>
<polygon fill="none" stroke="black" points="965.62,-36 867.12,-36 867.12,0 965.62,0 965.62,-36"/>
<text xml:space="preserve" text-anchor="middle" x="916.38" y="-13.32" font-family="monospace" font-size="14.00">C2\n1e&#45;06F</text>
</g>
<!-- C3 -->
<g id="node9" class="node">
<title>C3</title>
<polygon fill="none" stroke="black" points="1082.62,-36 984.12,-36 984.12,0 1082.62,0 1082.62,-36"/>
<text xml:space="preserve" text-anchor="middle" x="1033.38" y="-13.32" font-family="monospace" font-size="14.00">C3\n1e&#45;06F</text>
</g>
<!-- C4 -->
<g id="node10" class="node">
<title>C4</title>
<polygon fill="none" stroke="black" points="1215.88,-36 1100.88,-36 1100.88,0 1215.88,0 1215.88,-36"/>
<text xml:space="preserve" text-anchor="middle" x="1158.38" y="-13.32" font-family="monospace" font-size="14.00">C4\n3.3e&#45;09F</text>
</g>
<!-- C5 -->
<g id="node11" class="node">
<title>C5</title>
<polygon fill="none" stroke="black" points="1348.88,-36 1233.88,-36 1233.88,0 1348.88,0 1348.88,-36"/>
<text xml:space="preserve" text-anchor="middle" x="1291.38" y="-13.32" font-family="monospace" font-size="14.00">C5\n2.2e&#45;08F</text>
</g>
<!-- C6 -->
<g id="node12" class="node">
<title>C6</title>
<polygon fill="none" stroke="black" points="1465.62,-36 1367.12,-36 1367.12,0 1465.62,0 1465.62,-36"/>
<text xml:space="preserve" text-anchor="middle" x="1416.38" y="-13.32" font-family="monospace" font-size="14.00">C6\n1e&#45;06F</text>
</g>
<!-- C7 -->
<g id="node13" class="node">
<title>C7</title>
<polygon fill="none" stroke="black" points="1582.62,-36 1484.12,-36 1484.12,0 1582.62,0 1582.62,-36"/>
<text xml:space="preserve" text-anchor="middle" x="1533.38" y="-13.32" font-family="monospace" font-size="14.00">C7\n1e&#45;07F</text>
</g>
<!-- C8 -->
<g id="node14" class="node">
<title>C8</title>
<polygon fill="none" stroke="black" points="1699.62,-36 1601.12,-36 1601.12,0 1699.62,0 1699.62,-36"/>
<text xml:space="preserve" text-anchor="middle" x="1650.38" y="-13.32" font-family="monospace" font-size="14.00">C8\n1e&#45;06F</text>
</g>
<!-- C9 -->
<g id="node15" class="node">
<title>C9</title>
<polygon fill="none" stroke="black" points="1816.62,-36 1718.12,-36 1718.12,0 1816.62,0 1816.62,-36"/>
<text xml:space="preserve" text-anchor="middle" x="1767.38" y="-13.32" font-family="monospace" font-size="14.00">C9\n1e&#45;07F</text>
</g>
<!-- C12 -->
<g id="node16" class="node">
<title>C12</title>
<polygon fill="none" stroke="black" points="1941.75,-36 1835,-36 1835,0 1941.75,0 1941.75,-36"/>
<text xml:space="preserve" text-anchor="middle" x="1888.38" y="-13.32" font-family="monospace" font-size="14.00">C12\n1e&#45;06F</text>
</g>
<!-- C13 -->
<g id="node17" class="node">
<title>C13</title>
<polygon fill="none" stroke="black" points="2083,-36 1959.75,-36 1959.75,0 2083,0 2083,-36"/>
<text xml:space="preserve" text-anchor="middle" x="2021.38" y="-13.32" font-family="monospace" font-size="14.00">C13\n0.00022F</text>
</g>
<!-- C14 -->
<g id="node18" class="node">
<title>C14</title>
<polygon fill="none" stroke="black" points="2207.75,-36 2101,-36 2101,0 2207.75,0 2207.75,-36"/>
<text xml:space="preserve" text-anchor="middle" x="2154.38" y="-13.32" font-family="monospace" font-size="14.00">C14\n1e&#45;06F</text>
</g>
<!-- C15 -->
<g id="node19" class="node">
<title>C15</title>
<polygon fill="none" stroke="black" points="2349,-36 2225.75,-36 2225.75,0 2349,0 2349,-36"/>
<text xml:space="preserve" text-anchor="middle" x="2287.38" y="-13.32" font-family="monospace" font-size="14.00">C15\n2.2e&#45;06F</text>
</g>
<!-- R6 -->
<g id="node20" class="node">
<title>R6</title>
<polygon fill="none" stroke="black" points="2473.75,-36 2367,-36 2367,0 2473.75,0 2473.75,-36"/>
<text xml:space="preserve" text-anchor="middle" x="2420.38" y="-13.32" font-family="monospace" font-size="14.00">R6\n715000Ω</text>
</g>
<!-- R7 -->
<g id="node21" class="node">
<title>R7</title>
<polygon fill="none" stroke="black" points="2598.75,-36 2492,-36 2492,0 2598.75,0 2598.75,-36"/>
<text xml:space="preserve" text-anchor="middle" x="2545.38" y="-13.32" font-family="monospace" font-size="14.00">R7\n226000Ω</text>
</g>
<!-- R11 -->
<g id="node22" class="node">
<title>R11</title>
<polygon fill="none" stroke="black" points="2723.75,-36 2617,-36 2617,0 2723.75,0 2723.75,-36"/>
<text xml:space="preserve" text-anchor="middle" x="2670.38" y="-13.32" font-family="monospace" font-size="14.00">R11\n40200Ω</text>
</g>
<!-- R16 -->
<g id="node23" class="node">
<title>R16</title>
<polygon fill="none" stroke="black" points="2848.75,-36 2742,-36 2742,0 2848.75,0 2848.75,-36"/>
<text xml:space="preserve" text-anchor="middle" x="2795.38" y="-13.32" font-family="monospace" font-size="14.00">R16\n10000Ω</text>
</g>
</g>
</svg>
